<?xml version="1.0" encoding="UTF-8"?><svg xmlns="http://www.w3.org/2000/svg" width="1420" height="1029.466" xmlns:xlink="http://www.w3.org/1999/xlink" viewBox="0 0 1420 1029.466"><defs><style>.cls-1{font-size:17.54px;}.cls-1,.cls-2,.cls-3,.cls-4,.cls-5,.cls-6,.cls-7,.cls-8,.cls-9,.cls-10,.cls-11,.cls-12,.cls-13,.cls-14,.cls-15{font-family:NotoSansCJKjp-Bold-90ms-RKSJ-H, 'Noto Sans CJK JP';font-weight:700;}.cls-1,.cls-3,.cls-16,.cls-8{fill:#fff;}.cls-17{fill:url(#linear-gradient-2);}.cls-2,.cls-14{fill:#333;}.cls-2,.cls-15{font-size:28px;}.cls-3{font-size:17.543px;}.cls-4{font-size:15px;}.cls-18,.cls-19,.cls-6,.cls-20,.cls-11,.cls-13,.cls-15,.cls-21{fill:none;}.cls-19{stroke:#eabd00;}.cls-19,.cls-20,.cls-21{stroke-miterlimit:10;}.cls-5{font-size:17px;}.cls-22{fill:#936c00;}.cls-6{stroke-width:7.812px;}.cls-6,.cls-7,.cls-9,.cls-10,.cls-12,.cls-13{font-size:33px;}.cls-6,.cls-11,.cls-13,.cls-15{stroke:#fff;stroke-linecap:round;stroke-linejoin:round;}.cls-23{font-size:22.19px;}.cls-23,.cls-24{font-family:NotoSansCJKjp-Regular-90ms-RKSJ-H, 'Noto Sans CJK JP';}.cls-7{fill:#80350e;}.cls-8{font-size:23.235px;}.cls-25{fill:#80350e;}.cls-9{fill:#c55a11;}.cls-10{fill:#ed7d31;}.cls-26{fill:#ed6c00;}.cls-20{stroke:#999;stroke-width:.75px;}.cls-27{fill:#c55a11;}.cls-28{fill:#fcebe0;stroke:#ed7d31;}.cls-28,.cls-29,.cls-30,.cls-31{stroke-width:.977px;}.cls-32{fill:#ffe783;opacity:.6;}.cls-11{stroke-width:5.105px;}.cls-11,.cls-14{font-size:21px;}.cls-12{fill:#936c00;}.cls-13{stroke-width:7.812px;}.cls-24{font-size:18px;}.cls-33{fill:#ed7d31;}.cls-29{fill:#ece1db;stroke:#80350e;}.cls-34{fill:gray;}.cls-35{letter-spacing:-.224em;}.cls-30{fill:#f3ebd1;stroke:#936c00;}.cls-36{fill:url(#linear-gradient);}.cls-15{stroke-width:5.105px;}.cls-31{fill:#f9ede5;stroke:#c55a11;}.cls-21{stroke:#000;stroke-width:.732px;}</style><linearGradient id="linear-gradient" x1="685.575" y1="584.538" x2="720.426" y2="543.004" gradientUnits="userSpaceOnUse"><stop offset="0" stop-color="#036eb7"/><stop offset=".6" stop-color="#00b9ef"/></linearGradient><linearGradient id="linear-gradient-2" x1="645.086" y1="667.949" x2="738.505" y2="556.616" gradientUnits="userSpaceOnUse"><stop offset=".7" stop-color="#007440"/><stop offset=".9" stop-color="#6fba2c"/></linearGradient></defs><g id="severe-disaster"><rect class="cls-31" x="5.633" y="529.529" width="691.05" height="475.314" rx="10" ry="10"/><text class="cls-23" transform="translate(19.931 658.886)"><tspan x="0" y="0">Fusa MIYAKE</tspan></text><text class="cls-5" transform="translate(19.931 733.883)"><tspan x="0" y="0">National Museum of Japanese History</tspan></text><text class="cls-23" transform="translate(19.931 762.955)"><tspan x="0" y="0">Minoru SAKAMOTO</tspan><tspan x="0" y="28.893">Masataka HAKOZAKI</tspan></text><text class="cls-5" transform="translate(20.032 834.94)"><tspan x="0" y="0">Center for Accelerator Mass Spectrometry, </tspan><tspan x="0" y="23">Yamagata University</tspan></text><text class="cls-23" transform="translate(19.931 891.198)"><tspan x="0" y="0">Fuyuki TOKANAI</tspan></text><text class="cls-23" transform="translate(19.931 688.837)"><tspan x="0" y="0">Masayo MINAMI</tspan></text><polyline class="cls-21" points="695.859 817.879 704.186 811.93 695.875 805.959"/><polyline class="cls-21" points="387.805 529.749 393.181 521.041 399.697 528.932"/><path class="cls-21" d="M703.879,812.013c-164.565-3.141-300.246-127.541-310.724-290.21"/><circle class="cls-27" cx="581.738" cy="792.884" r="80"/><text class="cls-3" transform="translate(546.582 785.897)"><tspan x="0" y="0">Cultural</tspan><tspan x="-10.166" y="23">properties</tspan></text><circle class="cls-27" cx="461.799" cy="696.715" r="80"/><text class="cls-3" transform="translate(407.855 703.483)"><tspan x="0" y="0">Archaeology</tspan></text><text class="cls-6" transform="translate(19.931 577.165)"><tspan x="0" y="0">Cataclysmic Disasters </tspan><tspan x="0" y="35">and Dating</tspan></text><text class="cls-9" transform="translate(19.931 577.165)"><tspan x="0" y="0">Cataclysmic Disasters </tspan><tspan x="0" y="35">and Dating</tspan></text></g><g id="literature-science"><rect class="cls-29" x="724.584" y="21.515" width="691.05" height="475.314" rx="10" ry="10"/><text class="cls-23" transform="translate(1198.217 146.771)"><tspan x="0" y="0">Yoshizumi MIYOSHI</tspan></text><text class="cls-23" transform="translate(1243.684 176.085)"><tspan x="0" y="0">Yuichi OTSUKA</tspan></text><text class="cls-23" transform="translate(1222.335 266.383)"><tspan x="0" y="0">Akira KADOKURA</tspan><tspan x="-24.829" y="28.893">Yoshimasa TANAKA</tspan><tspan x="46.82" y="57.785">Genta UENO</tspan><tspan x="3.973" y="86.678">Shin&apos;ya NAKANO</tspan></text><text class="cls-6" transform="translate(810.253 68.241)"><tspan x="0" y="0">Interdisciplinary Database Research</tspan><tspan x="190.339" y="35">and Development Group</tspan></text><text class="cls-7" transform="translate(810.253 68.241)"><tspan x="0" y="0">Interdisciplinary Database Research</tspan><tspan x="190.339" y="35">and Development Group</tspan></text><polyline class="cls-21" points="1029.11 497.671 1023.48 506.217 1017.199 498.137"/><polyline class="cls-21" points="725.768 186.95 717.442 181.001 725.753 175.031"/><path class="cls-21" d="M717.819,181.072c169.774,5.153,305.822,144.402,305.822,315.426,0,1.52-.011,7.587-.032,9.101"/><circle class="cls-25" cx="841.537" cy="206.364" r="80"/><text class="cls-3" transform="translate(787.163 213.131)"><tspan x="0" y="0">Data science</tspan></text><circle class="cls-25" cx="961.623" cy="300.029" r="80"/><text class="cls-1" transform="translate(902.006 300.031)"><tspan x="0" y="0">Mathematical</tspan><tspan x="9.576" y="23">Informatics</tspan></text><text class="cls-5" transform="translate(965.835 211.047)"><tspan x="0" y="0">Research Organization of Information and Systems,</tspan><tspan x="113.626" y="23">Joint Support-Center for Data Science</tspan></text><text class="cls-24" transform="translate(1062.341 405.124)"><tspan class="cls-35" x="0" y="0">​</tspan><tspan x="0" y="0">Specially Appointed Assistant Professor</tspan><tspan x="140.955" y="21">(Planned Recruitment)</tspan></text><text class="cls-24" transform="translate(1155.797 455.407)"><tspan x="0" y="0">Graduate Research Assistant</tspan><tspan x="48.869" y="21">(Planned Recruitment)</tspan></text></g><g id="solar-terrestrial"><rect class="cls-30" x="5.633" y="21.822" width="691.05" height="475.314" rx="10" ry="10"/><text class="cls-23" transform="translate(19.931 105.29)"><tspan x="0" y="0">Hisashi HAYAKAWA</tspan></text><text class="cls-5" transform="translate(19.931 150.399)"><tspan x="0" y="0">Center for Digital Humanities and Social Sciences, </tspan><tspan x="0" y="23">Nagoya University</tspan></text><text class="cls-23" transform="translate(19.954 209.673)"><tspan x="0" y="0">Jun&apos;ichi SAKUMA</tspan><tspan x="0" y="28.893">Yukiko KAWAMOTO</tspan><tspan x="0" y="57.785">Naoya IWATA</tspan></text><text class="cls-24" transform="translate(19.931 319.61)"><tspan x="0" y="0">Researcher (Planned Recruitment)</tspan></text><text class="cls-24" transform="translate(19.931 346.027)"><tspan x="0" y="0">Graduate Research Assistant</tspan><tspan x="0" y="21">(Planned Recruitment)</tspan></text><text class="cls-24" transform="translate(19.93 942.072)"><tspan x="0" y="0">Researcher (Planned Recruitment)</tspan></text><text class="cls-24" transform="translate(19.931 968.401)"><tspan x="0" y="0">Graduate Research Assistant (Planned Recruitment)</tspan></text><text class="cls-13" transform="translate(19.931 68.242)"><tspan x="0" y="0">Solar-Terrestrial Environmental History Group</tspan></text><text class="cls-12" transform="translate(19.931 68.242)"><tspan x="0" y="0">Solar-Terrestrial Environmental History Group</tspan></text><path class="cls-21" d="M392.315,506.008c-.023-1.566-.034-8.133-.034-9.705,0-1.388.009-2.773.027-4.157"/><polyline class="cls-21" points="398.258 498.509 392.628 507.054 386.347 498.975"/><polyline class="cls-21" points="695.619 186.95 703.946 181.001 695.635 175.031"/><path class="cls-21" d="M392.52,492.341c2.197-170.195,140.748-307.901,310.638-311.351"/><circle class="cls-22" cx="581.738" cy="206.364" r="80"/><text class="cls-3" transform="translate(520.882 209.434)"><tspan x="0" y="0">Documentary </tspan><tspan x="30.199" y="23">history</tspan></text><circle class="cls-22" cx="461.799" cy="300.529" r="80"/><text class="cls-3" transform="translate(417.924 287.835)"><tspan x="0" y="0">Historical </tspan><tspan x="-10.315" y="23">Information </tspan><tspan x="10.675" y="46">Science</tspan></text></g><g id="archaeomagnetism"><rect class="cls-28" x="724.584" y="529.529" width="691.05" height="475.314" rx="10" ry="10"/><text class="cls-23" transform="translate(1237.207 647.396)"><tspan x="0" y="0">Masayo MINAMI</tspan></text><text class="cls-5" transform="translate(1241.013 682.407)"><tspan x="0" y="0">Kyushu University,</tspan><tspan x="-101.794" y="20">Advanced Asian Archaeological</tspan><tspan x="20.808" y="40">Research Center</tspan></text><text class="cls-5" transform="translate(994.383 810.125)"><tspan x="0" y="0">Marine Core Research Institute, Kochi University</tspan></text><text class="cls-5" transform="translate(941.716 875.024)"><tspan x="0" y="0">Research Institute of Frontier Science and Technology,</tspan><tspan x="198.54" y="20">Okayama University of Science</tspan></text><text class="cls-23" transform="translate(1262.192 750.784)"><tspan x="0" y="0">Masao OHNO</tspan><tspan x="28.402" y="26">Chie KATO</tspan></text><text class="cls-23" transform="translate(1222.252 838.318)"><tspan x="0" y="0">Yuhji YAMAMOTO</tspan></text><text class="cls-23" transform="translate(1159.966 926.378)"><tspan x="0" y="0">Tadahiro HATAKEYAMA</tspan></text><polyline class="cls-21" points="725.768 817.879 717.442 811.93 725.753 805.959"/><polyline class="cls-21" points="1016.576 526.727 1023.063 518.812 1028.47 527.5"/><path class="cls-21" d="M1023.031,519.365c-10.005,161.806-141.939,287.517-305.042,292.554"/><circle class="cls-33" cx="841.537" cy="792.884" r="80"/><text class="cls-3" transform="translate(768.41 799.651)"><tspan x="0" y="0">Paleomagnetism</tspan></text><circle class="cls-33" cx="961.623" cy="696.715" r="80"/><text class="cls-3" transform="translate(894.93 703.483)"><tspan x="0" y="0">Geoinformatics</tspan></text><text class="cls-24" transform="translate(1110.482 961.509)"><tspan x="0" y="0">Researcher (Planned Recruitment)</tspan></text><text class="cls-24" transform="translate(966.382 986.602)"><tspan x="0" y="0">Graduate Research Assistant (Planned Recruitment)</tspan></text><text class="cls-6" transform="translate(956.059 577.165)"><tspan x="0" y="0">Archaeomagnetic Research</tspan><tspan x="342.106" y="35">Group</tspan></text><text class="cls-10" transform="translate(956.059 577.165)"><tspan x="0" y="0">Archaeomagnetic Research</tspan><tspan x="342.106" y="35">Group</tspan></text></g><g id="isee-trans-disciplinary-network"><circle class="cls-32" cx="710.813" cy="498.551" r="225.146"/><circle class="cls-19" cx="710.675" cy="497.529" r="225.146"/><circle class="cls-16" cx="647.964" cy="529.184" r="75"/><circle class="cls-16" cx="777.564" cy="529.184" r="75"/><circle class="cls-16" cx="710" cy="636.674" r="75"/><circle class="cls-20" cx="647.964" cy="529.184" r="75"/><circle class="cls-20" cx="777.564" cy="529.184" r="75"/><circle class="cls-20" cx="710" cy="636.674" r="75"/><text class="cls-15" transform="translate(523.624 379.831)"><tspan x="0" y="0">Office for the Promotion of </tspan><tspan x="-75.585" y="34">Transdisciplinary Network Formation,</tspan></text><text class="cls-2" transform="translate(523.624 379.831)"><tspan x="0" y="0">Office for the Promotion of </tspan><tspan x="-75.585" y="34">Transdisciplinary Network Formation,</tspan></text><text class="cls-11" transform="translate(448.32 447.317)"><tspan x="0" y="0" xml:space="preserve"> Institute for Space-Earth Environmental Research,</tspan><tspan x="165.94" y="28" xml:space="preserve"> Nagoya University</tspan></text><text class="cls-14" transform="translate(448.32 447.317)"><tspan x="0" y="0" xml:space="preserve"> Institute for Space-Earth Environmental Research,</tspan><tspan x="165.94" y="28" xml:space="preserve"> Nagoya University</tspan></text><rect class="cls-34" x="638.551" y="307.496" width="142.095" height="33.514" rx="15.859" ry="15.859"/><text class="cls-8" transform="translate(657.185 333.471)"><tspan x="0" y="0">Core Hub</tspan></text><text class="cls-4" transform="translate(662.609 624.936)"><tspan x="0" y="0">cutting-edge</tspan><tspan x="1.14" y="17">observation </tspan><tspan x="-20.062" y="34">and measurement</tspan><tspan x="-.255" y="51">technologies</tspan></text><text class="cls-4" transform="translate(757.299 524.371)"><tspan x="0" y="0">Earth</tspan><tspan x="-7.155" y="17">science</tspan></text><text class="cls-4" transform="translate(621.059 524.37)"><tspan x="0" y="0">Space</tspan><tspan x="-5.168" y="17">science</tspan></text><path class="cls-18" d="M687.492,559.434c-2.19-2.74-4.416-4.116-6.678-4.116-1.22,0-2.218.327-2.995.979-.776.654-1.164,1.391-1.164,2.209s.277,1.596.832,2.326c.754.975,3.027,3.067,6.82,6.278.228.19.435.364.65.546.351-2.395,1.012-4.783,2.019-7.111.163-.377.338-.746.515-1.111Z"/><path class="cls-18" d="M688.526,557.502c.058-.1.117-.199.178-.299-.061.1-.119.199-.178.299Z"/><path class="cls-18" d="M687.919,558.598c.055-.103.107-.209.164-.31-.057.101-.109.207-.164.31Z"/><path class="cls-18" d="M689.196,556.412c.041-.065.084-.129.127-.192-.043.063-.086.128-.127.192Z"/><path d="M738.528,582.854c-.916,2.115-2.064,4.057-3.395,5.814v3.607c9.419,1.057,18.369,2.691,26.675,4.822v-9.725h-17.439v-12.856h17.439v-8.935h-17.439v-8.836h17.439v-9.102h-26.675v7.092c5.909,7.81,7.561,18.488,3.395,28.117Z"/><path class="cls-36" d="M708.649,556.746h10.573l-3.823,8.836h-6.75v-8.836ZM708.649,581.179l2.883-6.661h-2.883v6.661ZM689.196,556.412c-.169.26-.332.523-.492.791-.061.1-.119.199-.178.299-.151.259-.3.52-.443.785-.057.101-.109.207-.164.31-.144.275-.289.553-.427.836h0c-.177.365-.352.734-.515,1.111-1.008,2.328-1.669,4.717-2.019,7.111,3.154,2.645,5.1,4.342,5.806,5.068,1.886,1.904,3.222,3.726,4.01,5.464.788,1.738,1.181,3.638,1.181,5.697,0,2.88-.727,5.394-2.156,7.552,1.857-.129,3.73-.236,5.617-.32v-43.473h23.746l.745-1.72c-10.903-4.719-23.149-1.977-31.056,5.96-1.303,1.308-2.486,2.757-3.527,4.336-.043.063-.086.128-.127.192Z"/><path class="cls-17" d="M735.133,554.737c-2.826-3.736-6.62-6.819-11.227-8.812l-.745,1.72h2.928v9.102h-6.866l-3.823,8.836h10.689v8.935h-14.557l-2.883,6.661v6.194h17.439v4.076c2.058.145,4.098.318,6.117.516,1.053-1.01,2.031-2.113,2.927-3.297,1.331-1.758,2.479-3.699,3.395-5.814,4.166-9.629,2.514-20.307-3.395-28.117Z"/><path d="M661.704,547.644h-9.234v50.946c2.986-.875,6.066-1.684,9.234-2.422v-48.524Z"/><path class="cls-16" d="M726.089,556.746v-9.102h-26.674v43.473c1.659-.076,3.328-.135,5.009-.174,1.8-.041,3.61-.064,5.433-.064,5.516,0,10.936.197,16.232.57v-4.076h-17.439v-12.856h17.439v-8.935h-17.439v-8.836h17.439Z"/><path d="M688.704,557.203c.16-.268.323-.531.492-.791-.169.26-.332.523-.492.791Z"/><path d="M687.919,558.598c-.144.275-.289.553-.427.836h0c.138-.283.282-.561.427-.836Z"/><path d="M692.851,551.884c-1.303,1.308-2.486,2.756-3.527,4.336,1.041-1.579,2.225-3.028,3.527-4.336Z"/><path d="M688.083,558.287c.144-.266.292-.526.443-.785-.151.259-.3.52-.443.785Z"/><path d="M694.773,578.189c-.788-1.738-2.124-3.559-4.01-5.464-.706-.727-2.651-2.424-5.806-5.068-.216-.182-.422-.355-.65-.546-3.793-3.211-6.066-5.304-6.82-6.278-.555-.73-.832-1.506-.832-2.326s.388-1.555,1.164-2.209c.777-.652,1.775-.979,2.995-.979,2.262,0,4.487,1.376,6.678,4.116.138-.283.282-.561.427-.836.055-.103.107-.209.164-.31.144-.266.292-.526.443-.785.058-.1.117-.199.178-.299.16-.268.323-.531.492-.791.041-.065.084-.129.127-.192,1.041-1.58,2.225-3.028,3.527-4.336h0c-1.731-1.716-3.375-2.981-4.927-3.775-2.206-1.129-4.528-1.694-6.968-1.694-3.791,0-6.978,1.212-9.561,3.638-2.583,2.425-3.875,5.331-3.875,8.72,0,2.347.776,4.7,2.329,7.059,1.553,2.358,4.992,5.708,10.316,10.049,2.795,2.281,4.603,3.976,5.424,5.083.82,1.107,1.23,2.215,1.23,3.321,0,1.218-.543,2.292-1.63,3.222-1.087.93-2.429,1.397-4.025,1.397-3.062,0-5.767-2.16-8.118-6.478h-9.123c.692,6.07,4.145,9.859,6.742,11.891,7.069-1.287,14.488-2.24,22.174-2.809.319-.023.639-.047.959-.068,1.43-2.158,2.156-4.672,2.156-7.552,0-2.06-.393-3.959-1.181-5.697Z"/><path class="cls-26" d="M785.36,611.787c-17.981-10.297-45.105-16.853-75.449-16.853s-57.289,6.516-75.271,16.752c21.049-7.379,47.059-11.742,75.217-11.742s54.405,4.402,75.504,11.844Z"/></g></svg>