<?xml version="1.0" encoding="UTF-8"?><svg xmlns="http://www.w3.org/2000/svg" width="1420" height="1029.466" xmlns:xlink="http://www.w3.org/1999/xlink" viewBox="0 0 1420 1029.466"><defs><style>.cls-1{letter-spacing:-.06em;}.cls-2{fill:#80350e;}.cls-2,.cls-3,.cls-4,.cls-5,.cls-6,.cls-7,.cls-8,.cls-9,.cls-10,.cls-11,.cls-12,.cls-13,.cls-14{font-family:NotoSansCJKjp-Bold-90ms-RKSJ-H, 'Noto Sans CJK JP';font-weight:700;}.cls-2,.cls-4,.cls-10,.cls-12,.cls-13{font-size:36.055px;}.cls-15{letter-spacing:-.5em;}.cls-16{fill:url(#linear-gradient-2);}.cls-3{stroke-width:4.705px;}.cls-3,.cls-8{font-size:35.643px;}.cls-3,.cls-17,.cls-18,.cls-12,.cls-19,.cls-20,.cls-14{fill:none;}.cls-3,.cls-12,.cls-20,.cls-14{stroke-linecap:round;stroke-linejoin:round;}.cls-3,.cls-12,.cls-14{stroke:#fff;}.cls-4{fill:#ed7d31;}.cls-21{letter-spacing:-.18em;}.cls-5,.cls-6{font-size:17.606px;}.cls-6,.cls-22,.cls-7{fill:#fff;}.cls-7{font-size:23.319px;}.cls-23{font-size:22.269px;}.cls-23,.cls-24{font-family:NotoSansCJKjp-Regular-90ms-RKSJ-H, 'Noto Sans CJK JP';}.cls-8,.cls-11{fill:#333;}.cls-25{letter-spacing:-.52em;}.cls-9{font-size:24.854px;}.cls-18{stroke:#eabd00;}.cls-18,.cls-19{stroke-miterlimit:10;}.cls-10{fill:#c55a11;}.cls-26{letter-spacing:-.12em;}.cls-27{fill:#936c00;}.cls-24{font-size:21.747px;}.cls-11,.cls-14{font-size:31.66px;}.cls-12{stroke-width:7.812px;}.cls-28{fill:#80350e;}.cls-29{fill:#ed6c00;}.cls-19{stroke:#999;stroke-width:.75px;}.cls-30{fill:#c55a11;}.cls-31{fill:#fcebe0;stroke:#ed7d31;}.cls-31,.cls-32,.cls-33,.cls-34{stroke-width:.977px;}.cls-35{fill:#ffe783;opacity:.6;}.cls-36{fill:#ed7d31;}.cls-37{letter-spacing:-.58em;}.cls-32{fill:#ece1db;stroke:#80350e;}.cls-38{fill:gray;}.cls-13{fill:#936c00;}.cls-33{fill:#f3ebd1;stroke:#936c00;}.cls-20{stroke:#666;stroke-width:3px;}.cls-39{letter-spacing:-.48em;}.cls-40{fill:url(#linear-gradient);}.cls-34{fill:#f9ede5;stroke:#c55a11;}.cls-14{stroke-width:5.105px;}</style><linearGradient id="linear-gradient" x1="685.575" y1="589.538" x2="720.426" y2="548.005" gradientUnits="userSpaceOnUse"><stop offset="0" stop-color="#036eb7"/><stop offset=".6" stop-color="#00b9ef"/></linearGradient><linearGradient id="linear-gradient-2" x1="645.086" y1="672.949" x2="738.505" y2="561.617" gradientUnits="userSpaceOnUse"><stop offset=".7" stop-color="#007440"/><stop offset=".9" stop-color="#6fba2c"/></linearGradient></defs><g id="severe-disaster"><rect class="cls-31" x="724.001" y="525.044" width="693.532" height="477.021" rx="10" ry="10"/><polyline class="cls-20" points="725.19 814.43 716.833 808.459 725.174 802.467"/><polyline class="cls-20" points="1017.041 522.232 1023.552 514.289 1028.979 523.008"/><path class="cls-20" d="M1023.52,514.843c-10.04,162.387-142.449,288.55-306.138,293.605"/><text class="cls-23" transform="translate(1323.296 619.245)"><tspan x="0" y="0" xml:space="preserve">南  雅</tspan><tspan class="cls-39" x="54.516" y="0">代</tspan></text><text class="cls-9" transform="translate(1300.016 667.134)"><tspan x="0" y="0">九州大学</tspan><tspan x="-248.541" y="28.996">アジア埋蔵文化財研究センター</tspan></text><text class="cls-9" transform="translate(1076.329 800.153)"><tspan x="0" y="0">高知大学海洋コア国際研究所</tspan></text><text class="cls-9" transform="translate(952.058 878.732)"><tspan x="0" y="0">岡山理科大学フロンティア理工学研究所</tspan></text><text class="cls-23" transform="translate(1310.357 724.86)"><tspan x="0" y="0">大野正夫</tspan><tspan x="0" y="28.996">加藤千恵</tspan></text><text class="cls-23" transform="translate(1305.368 828.92)"><tspan x="0" y="0">山本 裕二</tspan></text><text class="cls-23" transform="translate(1310.357 907.113)"><tspan x="0" y="0">畠山唯達</tspan></text><text class="cls-24" transform="translate(1229.071 952.683)"><tspan x="0" y="0">研究</tspan><tspan class="cls-25" x="43.494" y="0">員</tspan><tspan x="53.933" y="0">（採用予定</tspan><tspan class="cls-15" x="162.668" y="0">）</tspan></text><text class="cls-24" transform="translate(1131.035 980.574)"><tspan x="0" y="0">研究ア</tspan><tspan class="cls-26" x="65.241" y="0">シ</tspan><tspan class="cls-1" x="84.379" y="0">ス</tspan><tspan x="104.821" y="0">タ</tspan><tspan class="cls-21" x="126.568" y="0">ン</tspan><tspan class="cls-37" x="144.4" y="0">ト</tspan><tspan x="153.534" y="0">（採用予定</tspan><tspan class="cls-15" x="262.27" y="0">）</tspan></text><text class="cls-12" transform="translate(1004.723 575.862)"><tspan x="0" y="0">考古地磁気研究グループ</tspan></text><text class="cls-4" transform="translate(1004.723 575.862)"><tspan x="0" y="0">考古地磁気研究グループ</tspan></text><circle class="cls-36" cx="870.366" cy="764.811" r="65.484"/><text class="cls-6" transform="translate(826.355 771.602)"><tspan x="0" y="0">古地磁気学</tspan></text><circle class="cls-36" cx="968.622" cy="679.221" r="65.484"/><text class="cls-6" transform="translate(924.611 686.011)"><tspan x="0" y="0">地球情報学</tspan></text></g><g id="literature-science"><rect class="cls-32" x="724.001" y="15.205" width="693.532" height="477.021" rx="10" ry="10"/><polyline class="cls-20" points="1029.62 493.072 1023.97 501.648 1017.667 493.54"/><polyline class="cls-20" points="725.19 181.235 716.833 175.265 725.174 169.273"/><path class="cls-20" d="M717.212,175.336c170.384,5.172,306.92,144.921,306.92,316.559,0,1.525-.011,7.614-.032,9.134"/><text class="cls-23" transform="translate(1310.356 110.402)"><tspan x="0" y="0">三好由純</tspan></text><text class="cls-23" transform="translate(1310.356 139.822)"><tspan x="0" y="0">大塚雄一</tspan></text><text class="cls-9" transform="translate(1138.465 191.452)"><tspan x="0" y="0">情報・システム研究機構</tspan><tspan x="-136.697" y="28.996">データサイエンス共同利用基盤施設</tspan></text><text class="cls-23" transform="translate(1322.648 252.941)"><tspan x="0" y="0" xml:space="preserve">門倉  昭</tspan><tspan x="-12.292" y="28.996">田中良昌</tspan><tspan x="-12.292" y="57.993">上野玄太</tspan><tspan x="-12.292" y="86.989">中野慎也</tspan></text><text class="cls-24" transform="translate(1195.3 392.579)"><tspan x="0" y="0">特任助教（採用予定</tspan><tspan class="cls-15" x="195.724" y="0">）</tspan></text><text class="cls-24" transform="translate(1130.252 421.302)"><tspan x="0" y="0">研究ア</tspan><tspan class="cls-26" x="65.241" y="0">シ</tspan><tspan class="cls-1" x="84.379" y="0">ス</tspan><tspan x="104.821" y="0">タ</tspan><tspan class="cls-21" x="126.568" y="0">ン</tspan><tspan class="cls-37" x="144.4" y="0">ト</tspan><tspan x="153.534" y="0">（採用予定</tspan><tspan class="cls-15" x="262.27" y="0">）</tspan></text><rect class="cls-17" x="732.876" y="30.549" width="666.558" height="44.585"/><text class="cls-12" transform="translate(752.338 65.109)"><tspan x="0" y="0">文理融合データベース研究開発グループ</tspan></text><text class="cls-2" transform="translate(752.338 65.109)"><tspan x="0" y="0">文理融合データベース研究開発グループ</tspan></text><circle class="cls-28" cx="869.941" cy="219.654" r="65.484"/><text class="cls-6" transform="translate(825.933 226.445)"><tspan x="0" y="0">データ科学</tspan></text><circle class="cls-28" cx="968.622" cy="305.258" r="65.484"/><text class="cls-6" transform="translate(915.808 312.05)"><tspan x="0" y="0">情報数理科学</tspan></text></g><g id="solar-terrestrial"><rect class="cls-33" x="2.468" y="15.513" width="693.532" height="477.021" rx="10" ry="10"/><path class="cls-20" d="M390.761,501.876c-.023-1.733-.035-8.998-.035-10.737,0-1.535.009-3.068.027-4.599"/><polyline class="cls-20" points="396.502 493.912 390.852 502.489 384.549 494.38"/><polyline class="cls-20" points="694.932 181.235 703.289 175.265 694.948 169.273"/><path class="cls-20" d="M390.744,487.723c2.205-170.806,141.253-309.007,311.754-312.469"/><rect class="cls-17" x="20.838" y="30.549" width="672.606" height="44.585"/><text class="cls-23" transform="translate(18.718 109.317)"><tspan x="0" y="0">早川尚志</tspan></text><text class="cls-9" transform="translate(18.719 158.603)"><tspan x="0" y="0">名古屋大学</tspan><tspan x="0" y="28.996">デジタル人文社会科学研究推進センター</tspan></text><text class="cls-23" transform="translate(18.718 218.091)"><tspan x="0" y="0">佐久間淳一</tspan><tspan x="0" y="28.996">川本悠紀子</tspan><tspan x="0" y="57.993">岩田直也</tspan></text><text class="cls-24" transform="translate(20.719 323.021)"><tspan x="0" y="0">研究</tspan><tspan class="cls-25" x="43.494" y="0">員</tspan><tspan x="53.933" y="0">（採用予定</tspan><tspan class="cls-15" x="162.668" y="0">）</tspan></text><text class="cls-24" transform="translate(20.68 350.312)"><tspan x="0" y="0">研究ア</tspan><tspan class="cls-26" x="65.241" y="0">シ</tspan><tspan class="cls-1" x="84.379" y="0">ス</tspan><tspan x="104.821" y="0">タ</tspan><tspan class="cls-21" x="126.568" y="0">ン</tspan><tspan class="cls-37" x="144.4" y="0">ト</tspan><tspan x="153.534" y="0">（採用予定</tspan><tspan class="cls-15" x="262.27" y="0">）</tspan></text><text class="cls-12" transform="translate(20.735 65.109)"><tspan x="0" y="0">太陽地球環境史グループ</tspan></text><text class="cls-13" transform="translate(20.735 65.109)"><tspan x="0" y="0">太陽地球環境史グループ</tspan></text><circle class="cls-27" cx="548.304" cy="219.654" r="65.484"/><text class="cls-6" transform="translate(513.095 226.445)"><tspan x="0" y="0">文献史学</tspan></text><circle class="cls-27" cx="450.234" cy="305.258" r="65.484"/><text class="cls-6" transform="translate(406.222 312.05)"><tspan x="0" y="0">歴史情報学</tspan></text></g><g id="archaeomagnetism"><rect class="cls-34" x="2.468" y="525.044" width="693.532" height="477.021" rx="10" ry="10"/><polyline class="cls-20" points="695.173 814.43 703.529 808.459 695.188 802.467"/><polyline class="cls-20" points="386.012 525.265 391.407 516.526 397.947 524.445"/><path class="cls-20" d="M703.221,808.543c-165.156-3.152-301.324-127.999-311.84-291.253"/><rect class="cls-17" x="21.963" y="534.55" width="541.761" height="44.585"/><text class="cls-23" transform="translate(18.719 619.246)"><tspan x="0" y="0">三宅芙沙</tspan></text><text class="cls-9" transform="translate(18.717 704.941)"><tspan x="0" y="0">国立歴史民俗博物館</tspan></text><text class="cls-23" transform="translate(18.718 736.39)"><tspan x="0" y="0" xml:space="preserve">坂本  稔</tspan><tspan x="0" y="28.996">箱崎真隆</tspan></text><text class="cls-9" transform="translate(18.719 824.669)"><tspan x="0" y="0">山形大学高感度加速器質量分析センター</tspan></text><text class="cls-23" transform="translate(18.718 854)"><tspan x="0" y="0">門叶冬樹</tspan></text><text class="cls-24" transform="translate(18.718 905.899)"><tspan x="0" y="0">研究</tspan><tspan class="cls-25" x="43.494" y="0">員</tspan><tspan x="53.933" y="0">（採用予定</tspan><tspan class="cls-15" x="162.668" y="0">）</tspan></text><text class="cls-24" transform="translate(16.547 933.028)"><tspan x="0" y="0">研究ア</tspan><tspan class="cls-26" x="65.241" y="0">シ</tspan><tspan class="cls-1" x="84.379" y="0">ス</tspan><tspan x="104.821" y="0">タ</tspan><tspan class="cls-21" x="126.568" y="0">ン</tspan><tspan class="cls-37" x="144.4" y="0">ト</tspan><tspan x="153.534" y="0">（採用予定</tspan><tspan class="cls-15" x="262.27" y="0">）</tspan></text><text class="cls-23" transform="translate(18.718 649.305)"><tspan x="0" y="0" xml:space="preserve">南  雅代</tspan></text><text class="cls-12" transform="translate(17.819 575.862)"><tspan x="0" y="0">激甚災害と年代測定グループ</tspan></text><text class="cls-10" transform="translate(17.819 575.862)"><tspan x="0" y="0">激甚災害と年代測定グループ</tspan></text><circle class="cls-30" cx="548.742" cy="764.811" r="65.484"/><text class="cls-6" transform="translate(504.731 771.602)"><tspan x="0" y="0">文化財科学</tspan></text><circle class="cls-30" cx="450.683" cy="679.221" r="65.484"/><text class="cls-6" transform="translate(424.275 686.01)"><tspan x="0" y="0">考古学</tspan></text></g><g id="isee-trans-disciplinary-network"><circle class="cls-35" cx="710.181" cy="493.955" r="225.955"/><circle class="cls-18" cx="710.042" cy="492.929" r="225.955"/><circle class="cls-22" cx="657.581" cy="537.631" r="65.484"/><text class="cls-5" transform="translate(622.372 542.036)"><tspan x="0" y="0">宇宙科学</tspan></text><circle class="cls-22" cx="766.163" cy="537.631" r="65.484"/><text class="cls-5" transform="translate(730.954 542.471)"><tspan x="0" y="0">地球科学</tspan></text><circle class="cls-22" cx="713.908" cy="631.835" r="65.484"/><text class="cls-5" transform="translate(661.093 632.963)"><tspan x="0" y="0">先端高度観測</tspan><tspan x="17.606" y="20.007">計測技術</tspan></text><circle class="cls-19" cx="657.581" cy="537.631" r="65.484"/><circle class="cls-19" cx="766.163" cy="537.631" r="65.484"/><circle class="cls-19" cx="713.908" cy="631.835" r="65.484"/><text class="cls-14" transform="translate(484.785 414.76)"><tspan x="0" y="0">名古屋大学 宇宙地球環境研究所</tspan></text><text class="cls-11" transform="translate(484.785 414.76)"><tspan x="0" y="0">名古屋大学 宇宙地球環境研究所</tspan></text><text class="cls-3" transform="translate(460.502 456.517)"><tspan x="0" y="0">超学際ネットワーク形成推進室</tspan></text><text class="cls-8" transform="translate(460.502 456.517)"><tspan x="0" y="0">超学際ネットワーク形成推進室</tspan></text><rect class="cls-38" x="638.881" y="334.638" width="142.605" height="33.634" rx="15.859" ry="15.859"/><text class="cls-7" transform="translate(663.547 359.702)"><tspan x="0" y="0">中核拠点</tspan></text><path class="cls-17" d="M687.492,564.434c-2.19-2.74-4.416-4.116-6.678-4.116-1.22,0-2.218.327-2.995.979-.776.654-1.164,1.391-1.164,2.209s.277,1.596.832,2.326c.754.975,3.027,3.067,6.82,6.278.228.19.435.364.65.546.351-2.395,1.012-4.783,2.019-7.111.163-.377.338-.746.515-1.111Z"/><path class="cls-17" d="M688.526,562.503c.058-.1.117-.199.178-.299-.061.1-.119.199-.178.299Z"/><path class="cls-17" d="M687.919,563.598c.055-.103.107-.209.164-.31-.057.101-.109.207-.164.31Z"/><path class="cls-17" d="M689.196,561.413c.041-.065.084-.129.127-.192-.043.063-.086.128-.127.192Z"/><path d="M738.528,587.854c-.916,2.115-2.064,4.057-3.395,5.814v3.607c9.419,1.057,18.369,2.691,26.675,4.822v-9.725h-17.439v-12.856h17.439v-8.935h-17.439v-8.836h17.439v-9.102h-26.675v7.092c5.909,7.81,7.561,18.488,3.395,28.117Z"/><path class="cls-40" d="M708.649,561.747h10.573l-3.823,8.836h-6.75v-8.836ZM708.649,586.179l2.883-6.661h-2.883v6.661ZM689.196,561.413c-.169.26-.332.523-.492.791-.061.1-.119.199-.178.299-.151.259-.3.52-.443.785-.057.101-.109.207-.164.31-.144.275-.289.553-.427.836h0c-.177.365-.352.734-.515,1.111-1.008,2.328-1.669,4.717-2.019,7.111,3.154,2.645,5.1,4.342,5.806,5.068,1.886,1.904,3.222,3.726,4.01,5.464.788,1.738,1.181,3.638,1.181,5.697,0,2.88-.727,5.394-2.156,7.552,1.857-.129,3.73-.236,5.617-.32v-43.473h23.746l.745-1.72c-10.903-4.719-23.149-1.977-31.056,5.96-1.303,1.308-2.486,2.757-3.527,4.336-.043.063-.086.128-.127.192Z"/><path class="cls-16" d="M735.133,559.737c-2.826-3.736-6.62-6.819-11.227-8.812l-.745,1.72h2.928v9.102h-6.866l-3.823,8.836h10.689v8.935h-14.557l-2.883,6.661v6.194h17.439v4.076c2.058.145,4.098.318,6.117.516,1.053-1.01,2.031-2.113,2.927-3.297,1.331-1.758,2.479-3.699,3.395-5.814,4.166-9.629,2.514-20.307-3.395-28.117Z"/><path d="M661.704,552.645h-9.234v50.946c2.986-.875,6.066-1.684,9.234-2.422v-48.524Z"/><path class="cls-22" d="M726.089,561.747v-9.102h-26.674v43.473c1.659-.076,3.328-.135,5.009-.174,1.8-.041,3.61-.064,5.433-.064,5.516,0,10.936.197,16.232.57v-4.076h-17.439v-12.856h17.439v-8.935h-17.439v-8.836h17.439Z"/><path d="M688.704,562.204c.16-.268.323-.531.492-.791-.169.26-.332.523-.492.791Z"/><path d="M687.919,563.598c-.144.275-.289.553-.427.836h0c.138-.283.282-.561.427-.836Z"/><path d="M692.851,556.885c-1.303,1.308-2.486,2.756-3.527,4.336,1.041-1.579,2.225-3.028,3.527-4.336Z"/><path d="M688.083,563.288c.144-.266.292-.526.443-.785-.151.259-.3.52-.443.785Z"/><path d="M694.773,583.189c-.788-1.738-2.124-3.559-4.01-5.464-.706-.727-2.651-2.424-5.806-5.068-.216-.182-.422-.355-.65-.546-3.793-3.211-6.066-5.304-6.82-6.278-.555-.73-.832-1.506-.832-2.326s.388-1.555,1.164-2.209c.777-.652,1.775-.979,2.995-.979,2.262,0,4.487,1.376,6.678,4.116.138-.283.282-.561.427-.836.055-.103.107-.209.164-.31.144-.266.292-.526.443-.785.058-.1.117-.199.178-.299.16-.268.323-.531.492-.791.041-.065.084-.129.127-.192,1.041-1.58,2.225-3.028,3.527-4.336h0c-1.731-1.716-3.375-2.981-4.927-3.775-2.206-1.129-4.528-1.694-6.968-1.694-3.791,0-6.978,1.212-9.561,3.638-2.583,2.425-3.875,5.331-3.875,8.72,0,2.347.776,4.7,2.329,7.059,1.553,2.358,4.992,5.708,10.316,10.049,2.795,2.281,4.603,3.976,5.424,5.083.82,1.107,1.23,2.215,1.23,3.321,0,1.218-.543,2.292-1.63,3.222-1.087.93-2.429,1.397-4.025,1.397-3.062,0-5.767-2.16-8.118-6.478h-9.123c.692,6.07,4.145,9.859,6.742,11.891,7.069-1.287,14.488-2.24,22.174-2.809.319-.023.639-.047.959-.068,1.43-2.158,2.156-4.672,2.156-7.552,0-2.06-.393-3.959-1.181-5.697Z"/><path class="cls-29" d="M785.36,616.788c-17.981-10.297-45.105-16.853-75.449-16.853s-57.289,6.516-75.271,16.752c21.049-7.379,47.059-11.742,75.217-11.742s54.405,4.402,75.504,11.844Z"/></g></svg>