<svg width="200" height="60" viewBox="0 0 200 60" fill="none" xmlns="http://www.w3.org/2000/svg">
<g filter="url(#filter0_b_19653_1366)">
<rect width="200" height="60" fill="white"/>
</g>
<mask id="mask0_19653_1366" style="mask-type:luminance" maskUnits="userSpaceOnUse" x="17" y="15" width="10" height="30">
<path d="M17 15C19.2317 15.564 20.8934 17.7472 20.8934 20.1426V39.8218C20.8934 42.2233 19.2257 44.4065 17 44.9644H26.691V15H17Z" fill="white"/>
</mask>
<g mask="url(#mask0_19653_1366)">
<path d="M26.691 15H17V44.9705H26.691V15Z" fill="url(#paint0_linear_19653_1366)"/>
</g>
<mask id="mask1_19653_1366" style="mask-type:luminance" maskUnits="userSpaceOnUse" x="45" y="15" width="15" height="30">
<path d="M58.1239 15H54.8248C51.9927 15 49.6822 17.3166 49.6822 20.1426V39.8218C49.6822 42.2233 48.0145 44.4065 45.7888 44.9644H50.3372C53.1692 44.9644 55.4798 42.6478 55.4798 39.8218V20.1426C55.4798 17.7411 57.1475 15.5579 59.3732 15H58.1239Z" fill="white"/>
</mask>
<g mask="url(#mask1_19653_1366)">
<path d="M59.3732 15H45.7888V44.9705H59.3732V15Z" fill="url(#paint1_linear_19653_1366)"/>
</g>
<mask id="mask2_19653_1366" style="mask-type:luminance" maskUnits="userSpaceOnUse" x="26" y="15" width="15" height="30">
<path d="M27.856 15H26.6067C28.8384 15.564 30.5001 17.7472 30.5001 20.1426V39.8218C30.5001 42.2233 28.8323 44.4065 26.6067 44.9644H31.155C33.9871 44.9644 36.2977 42.6478 36.2977 39.8218V30.8585H40.094V28.4449H36.2977V20.1487C36.2977 17.3166 33.9811 15.0061 31.155 15.0061H27.856V15Z" fill="white"/>
</mask>
<g mask="url(#mask2_19653_1366)">
<path d="M40.094 15H26.6067V44.9705H40.094V15Z" fill="url(#paint2_linear_19653_1366)"/>
</g>
<mask id="mask3_19653_1366" style="mask-type:luminance" maskUnits="userSpaceOnUse" x="36" y="30" width="10" height="15">
<path d="M40.0936 30.8584V39.8216C40.0936 42.2232 38.4258 44.4064 36.2002 44.9643H40.7485C43.5806 44.9643 45.8912 42.6477 45.8912 39.8216V30.8584H40.0996H40.0936Z" fill="white"/>
</mask>
<g mask="url(#mask3_19653_1366)">
<path d="M45.8856 30.8584H36.1946V44.9704H45.8856V30.8584Z" fill="url(#paint3_linear_19653_1366)"/>
</g>
<mask id="mask4_19653_1366" style="mask-type:luminance" maskUnits="userSpaceOnUse" x="40" y="15" width="10" height="14">
<path d="M48.5356 15H45.2365C42.4044 15 40.0939 17.3166 40.0939 20.1426V28.4388H45.8854V20.1426C45.8854 17.7411 47.5531 15.5579 49.7788 15H48.5295H48.5356Z" fill="white"/>
</mask>
<g mask="url(#mask4_19653_1366)">
<path d="M49.7849 15H40.0939V28.4449H49.7849V15Z" fill="url(#paint4_linear_19653_1366)"/>
</g>
<path d="M68.7185 20.3429H76.0807C76.3173 20.3429 76.6084 20.3186 76.8691 20.2944V20.9493C76.6447 20.9251 76.3294 20.9129 76.0807 20.9129H72.8241C72.7999 22.2168 72.6422 23.369 72.1692 24.2787C71.7507 25.0489 70.9078 25.8676 69.986 26.3649L69.4462 25.9404C70.3559 25.528 71.1807 24.8366 71.6173 24.0543C72.1328 23.1628 72.2116 22.1076 72.2359 20.9129H68.7124C68.3607 20.9129 68.0939 20.9251 67.7906 20.9493V20.2944C68.0817 20.3186 68.3668 20.3429 68.7124 20.3429M70.0588 17.4077H74.0916C74.3706 17.4077 74.7466 17.3956 75.0498 17.347V18.0081C74.7466 17.9838 74.3766 17.9717 74.0916 17.9717H70.083C69.7252 17.9717 69.4159 17.9838 69.1612 18.0081V17.347C69.4523 17.3834 69.7131 17.4077 70.0648 17.4077M76.5113 17.9171L76.0747 18.1415C75.8624 17.6563 75.4561 16.9468 75.1529 16.492L75.5835 16.2918C75.8624 16.7163 76.2687 17.4198 76.5174 17.9171M77.7121 17.4623L77.2754 17.6745C77.0268 17.153 76.6569 16.492 76.3294 16.0492L76.7478 15.8491C77.0511 16.2858 77.4938 17.0135 77.7181 17.4623" fill="#231815"/>
<path d="M81.89 21.21L81.5625 21.7436C81.0531 21.3495 79.8038 20.5126 79.161 20.1669L79.4764 19.6575C80.0949 20.0032 81.4594 20.8764 81.8839 21.21M83.4486 24.1148C85.2922 22.9869 86.7234 21.4829 87.6512 19.8212L88.003 20.4277C87.069 21.9923 85.5347 23.5448 83.7579 24.6485C82.6299 25.3581 81.1138 25.8796 80.0404 26.1282L79.7007 25.5097C80.9258 25.2853 82.357 24.7759 83.4486 24.1088M83.5335 18.675L83.1817 19.1845C82.6966 18.7721 81.4352 17.8806 80.8287 17.5107L81.1562 17.0012C81.7748 17.3772 83.1029 18.3294 83.5335 18.675ZM86.9902 19.0025L86.5414 19.2269C86.2928 18.669 85.8319 17.8381 85.4923 17.353L85.9229 17.1407C86.1958 17.5349 86.7234 18.4203 86.9902 19.0025ZM88.4457 18.4264L87.9969 18.6508C87.7361 18.0928 87.2752 17.2863 86.9174 16.8011L87.348 16.5889C87.627 16.9709 88.1667 17.8563 88.4517 18.4264" fill="#231815"/>
<path d="M94.1348 17.3591C94.0317 17.5592 93.9104 17.7836 93.777 18.014H97.258C97.5369 18.014 97.7189 17.9898 97.8523 17.9291L98.3617 18.2384C98.295 18.3658 98.204 18.6205 98.1676 18.7357C97.8523 19.9183 97.2095 21.3919 96.3422 22.6109C96.8153 22.9808 97.2519 23.3325 97.634 23.6661L97.2155 24.1755C96.8638 23.842 96.4271 23.4781 95.9541 23.096C94.9656 24.3029 93.5223 25.4551 91.5149 26.2253L90.9995 25.7401C92.8552 25.1579 94.4441 23.9875 95.4932 22.7322C94.6503 22.0833 93.7163 21.4283 92.9037 20.8946L93.2858 20.4944C94.1166 21.0038 95.0323 21.6345 95.8631 22.2591C96.6818 21.1069 97.3126 19.6878 97.5733 18.5841H93.4192C92.746 19.615 91.7636 20.7915 90.4355 21.7497L89.9503 21.3555C91.8546 20.1002 93.0796 18.2263 93.5769 17.1104C93.6557 16.9467 93.8012 16.601 93.8498 16.3645L94.5108 16.5889C94.3774 16.8375 94.2197 17.1589 94.1287 17.3591" fill="#231815"/>
<path d="M101.709 22.6531C102.037 21.5251 102.049 19.0993 102.049 17.8258C102.049 17.5529 102.025 17.3285 101.982 17.1041H102.655C102.631 17.2921 102.613 17.5529 102.613 17.8258C102.613 19.0811 102.571 21.6525 102.261 22.829C101.922 24.0601 101.194 25.2123 100.26 25.9946L99.7202 25.6126C100.642 24.9151 101.352 23.8721 101.715 22.647M104.911 25.0486V17.844C104.911 17.4437 104.875 17.1769 104.869 17.0496H105.536C105.512 17.183 105.5 17.4437 105.5 17.844V25.0607C106.615 24.5149 108.168 23.3505 109.078 21.8951L109.423 22.4166C108.423 23.8599 106.888 25.0364 105.572 25.7217C105.415 25.8066 105.3 25.8855 105.233 25.9461L104.839 25.6004C104.881 25.4367 104.905 25.2305 104.905 25.0425" fill="#231815"/>
<path d="M115.99 16.8134C116.081 18.2567 116.7 24.0786 121.036 26.1284C120.891 26.2497 120.709 26.4498 120.618 26.6014C117.428 25.0368 116.227 21.483 115.766 19.039C115.372 21.5376 114.268 24.8973 111.06 26.6014C110.969 26.4559 110.787 26.28 110.642 26.1648C115.269 23.8057 115.36 17.9596 115.439 16.3828H116.015L115.99 16.8073V16.8134Z" fill="#231815"/>
<path d="M130.618 18.6146C129.92 20.7007 128.974 22.3381 127.713 23.6299C128.986 24.8185 130.563 25.6918 132.467 26.1648C132.346 26.2982 132.164 26.5469 132.073 26.7106C130.151 26.1769 128.574 25.2733 127.288 24.0422C126.027 25.2066 124.487 26.0556 122.607 26.7106C122.552 26.565 122.37 26.2982 122.249 26.1648C124.129 25.5705 125.663 24.7518 126.888 23.6299C125.639 22.2896 124.705 20.5976 124.038 18.6146H122.34V18.0566H127.07V15.9705H127.61V18.0566H132.407V18.6146H130.63H130.618ZM124.614 18.6146C125.22 20.4157 126.112 21.9682 127.307 23.2235C128.477 22.0167 129.344 20.5067 129.987 18.6146H124.614Z" fill="#231815"/>
<path d="M138.005 23.1811C137.69 22.8354 136.877 22.0531 136.337 21.5558V26.7106H135.81V21.7681C135.179 22.4412 134.512 23.0234 133.875 23.46C133.808 23.3206 133.651 23.0901 133.56 22.9992C134.955 22.0774 136.501 20.4521 137.308 18.7419H133.93V18.2082H135.81V15.9705H136.337V18.2082H137.587L137.69 18.1719L138.017 18.3962C137.647 19.318 137.083 20.2216 136.453 21.0161C136.938 21.4285 138.041 22.4352 138.333 22.7081L138.005 23.169V23.1811ZM144.106 25.807V26.3649H137.787V25.807H140.795V20.5067H138.229V19.9487H140.795V16.0432H141.334V19.9548H143.882V20.5127H141.334V25.8131H144.106V25.807Z" fill="#231815"/>
<path d="M150.594 15.9827C151.789 17.7474 153.845 19.4091 155.628 20.2399C155.5 20.3612 155.367 20.5735 155.27 20.7251C153.493 19.8154 151.474 18.1659 150.358 16.5406C149.448 18.0203 147.556 19.7062 145.615 20.7736C145.549 20.6341 145.409 20.44 145.288 20.3127C147.235 19.306 149.151 17.5655 150.061 15.9887H150.588L150.594 15.9827ZM145.822 21.9683H155.1V22.5019H149.66C149.224 23.4844 148.672 24.6973 148.15 25.6069C149.715 25.5584 151.577 25.4857 153.396 25.4068C152.881 24.764 152.268 24.0908 151.686 23.5693L152.122 23.2964C153.172 24.2546 154.306 25.5463 154.839 26.4378L154.366 26.7592C154.221 26.5105 154.015 26.2134 153.79 25.9162C150.952 26.0375 147.944 26.177 146.01 26.2619L145.931 25.6797C146.404 25.6676 146.943 25.6555 147.544 25.6312C148.053 24.7276 148.635 23.4601 149.005 22.5019H145.822V21.9683ZM153.105 20.2399H147.689V19.6941H153.105V20.2399Z" fill="#231815"/>
<path d="M159.454 20.1428C159.812 20.5794 160.837 22.0167 161.086 22.3806L160.728 22.8293C160.515 22.4048 159.885 21.4042 159.454 20.7796V26.6803H158.927V20.8584C158.417 22.2108 157.708 23.6117 157.047 24.4C156.992 24.2484 156.847 24.0301 156.743 23.9149C157.508 23.0355 158.375 21.3314 158.848 19.8517H156.925V19.3059H158.927V17.244C158.35 17.3713 157.744 17.4805 157.204 17.5775C157.168 17.4441 157.095 17.2561 157.022 17.1288C158.284 16.9044 159.794 16.5708 160.6 16.1706L160.958 16.6315C160.54 16.8074 160.024 16.9772 159.448 17.1166V19.312H161.225V19.8578H159.448V20.1428H159.454ZM165.591 23.5328V26.6985H165.064V23.6177L161.213 24.2484L161.122 23.7148L165.064 23.0719V15.9705H165.591V22.987L167.035 22.7505L167.114 23.2721L165.591 23.5328ZM163.79 21.9682C163.342 21.4588 162.438 20.7371 161.674 20.2702L162.001 19.9245C162.765 20.3732 163.693 21.0767 164.13 21.574L163.79 21.9682ZM164.015 18.8389C163.645 18.3538 162.82 17.6624 162.135 17.2137L162.474 16.8559C163.184 17.2804 163.996 17.9475 164.379 18.4326L164.021 18.8329L164.015 18.8389Z" fill="#231815"/>
<path d="M178.46 23.1747H173.779V25.9219C173.779 26.3222 173.675 26.5163 173.33 26.6072C172.99 26.7043 172.384 26.7043 171.328 26.7043C171.286 26.5526 171.171 26.3283 171.068 26.1585C172.038 26.1827 172.735 26.1827 172.972 26.1585C173.208 26.1342 173.245 26.0857 173.245 25.9219V23.1747H168.618V22.6411H173.245V21.7253H173.524C174.27 21.3918 175.052 20.9188 175.628 20.4457H170.425V19.9242H176.192L176.313 19.8878L176.671 20.1728C175.95 20.9188 174.791 21.6465 173.779 22.1074V22.6411H178.46V23.1747ZM169.412 20.4761H168.897V17.9896H170.734C170.51 17.5166 170.079 16.8495 169.673 16.3522L170.122 16.14C170.558 16.6494 171.031 17.3347 171.225 17.8138L170.91 17.9896H173.487C173.342 17.4681 172.972 16.6858 172.584 16.1036L173.045 15.9277C173.439 16.522 173.833 17.3165 173.979 17.8138L173.572 17.9896H175.701C176.162 17.456 176.738 16.6251 177.065 16.043L177.593 16.2673C177.211 16.8495 176.738 17.4863 176.307 17.9896H178.224V20.4761H177.696V18.5051H169.406V20.4761H169.412Z" fill="#231815"/>
<path d="M68.2756 30.1247H70.8105V30.5977H69.6643C69.5491 31.2527 69.3853 31.8834 69.1973 32.4595H70.671V35.7101H69.1913V36.3286H68.7728V33.4844C68.6455 33.727 68.5181 33.9453 68.3726 34.1454C68.3423 34.0302 68.227 33.7513 68.1482 33.63C68.6637 32.8962 69.0033 31.7864 69.2034 30.5917H68.2695V30.1187L68.2756 30.1247ZM70.2404 32.9265H69.1913V35.2552H70.2404V32.9265ZM74.8373 33.3571H74.0064V36.6864H73.5456V33.3571H72.2902C72.2599 34.5336 72.078 35.801 71.2532 36.7168C71.1744 36.6319 70.9924 36.4863 70.8711 36.4257C71.6353 35.5827 71.799 34.4062 71.8233 33.3571H71.0046V32.8719H71.8233V30.6099H71.2047V30.1247H74.6857V30.6099H73.9943V32.8719H74.8251V33.3571H74.8373ZM73.5456 30.6099H72.2902V32.8719H73.5456V30.6099Z" fill="#231815"/>
<path d="M81.5926 36.1466C81.7988 36.1466 81.8351 36.0011 81.8533 34.9944C81.9625 35.0853 82.1747 35.1702 82.3142 35.2066C82.2657 36.3467 82.1323 36.6318 81.6471 36.6318H80.8648C80.3493 36.6318 80.1917 36.4862 80.1917 35.904V34.1878H78.7423C78.6089 35.0975 78.0509 36.0799 76.0072 36.6985C75.9405 36.5833 75.801 36.4074 75.6858 36.2922C77.5476 35.7464 78.0934 34.9277 78.2389 34.1939H76.177V33.7087H78.2935V32.7566H78.7787V33.7087H80.689V35.9101C80.689 36.1163 80.7253 36.1466 80.9376 36.1466H81.5926ZM78.3663 30.8766C78.1965 32.1562 77.7295 32.8718 76.086 33.2357C76.0436 33.1144 75.9284 32.9203 75.8313 32.8294C77.3293 32.5201 77.7174 31.9379 77.8569 30.8706H76.4075V31.7438H75.9344V30.4036H78.7483V29.688H79.2274V30.4036H82.102V31.6953H81.6047V30.8766H80.0219V32.2775C80.0219 32.4594 80.0643 32.4837 80.3372 32.4837H81.3075C81.5137 32.4837 81.5562 32.417 81.5744 31.9015C81.6714 31.9803 81.8655 32.0531 82.0049 32.0956C81.9443 32.7748 81.8109 32.9446 81.35 32.9446H80.2948C79.6944 32.9446 79.5428 32.8172 79.5428 32.2836V30.8706H78.3663V30.8766Z" fill="#231815"/>
<path d="M85.4197 33.5329L84.6314 33.7937V36.0557C84.6314 36.3529 84.5647 36.4984 84.3888 36.5954C84.2069 36.6743 83.9218 36.6864 83.4488 36.6803C83.4367 36.559 83.37 36.3347 83.3033 36.1952C83.6368 36.2073 83.94 36.2073 84.031 36.2012C84.128 36.2012 84.1644 36.1709 84.1644 36.0557V33.9574L83.1577 34.2849L83.0425 33.7876C83.3457 33.7027 83.7338 33.5814 84.1644 33.448V31.7317H83.1577V31.2648H84.1644V29.7062H84.6314V31.2648H85.3591V31.7317H84.6314V33.3024L85.3591 33.072L85.4197 33.5329ZM89.7801 36.2801H86.4507V36.6803H85.9837V32.1866C85.8079 32.4777 85.6138 32.7384 85.4137 32.9689C85.3409 32.8597 85.1772 32.6535 85.0741 32.5565C85.723 31.8712 86.2384 30.816 86.5356 29.6941L86.9965 29.8154C86.8631 30.2763 86.7054 30.725 86.5174 31.1496H87.7C87.888 30.719 88.0881 30.1429 88.2094 29.7244L88.7127 29.8578C88.549 30.2823 88.3549 30.7614 88.173 31.1556H89.6588V31.6226H88.1427V32.7021H89.489V33.1448H88.1427V34.2485H89.489V34.6912H88.1427V35.8192H89.7801V36.2801ZM87.6939 31.6165H86.4446V32.696H87.6939V31.6165ZM87.6939 33.1387H86.4446V34.2424H87.6939V33.1387ZM86.4507 35.8192H87.7V34.6912H86.4507V35.8192Z" fill="#231815"/>
<path d="M92.0485 35.1826C92.4063 35.7648 93.0673 36.0316 93.9406 36.0619C94.735 36.0983 96.3967 36.0801 97.2518 36.0255C97.1911 36.1408 97.1123 36.3712 97.1002 36.5228C96.2997 36.5531 94.7532 36.5713 93.9527 36.541C92.9824 36.5046 92.3153 36.2257 91.8544 35.6192C91.5269 35.9588 91.1934 36.2863 90.8356 36.6138L90.5748 36.1286C90.8781 35.8739 91.2601 35.5525 91.5937 35.225V33.1934H90.6476V32.7083H92.0546V35.1765L92.0485 35.1826ZM91.8848 31.459C91.6725 31.0769 91.1752 30.5372 90.7264 30.1733L91.0964 29.8883C91.5512 30.24 92.0546 30.7677 92.2789 31.1437L91.8848 31.459ZM93.0734 31.835C92.8551 32.114 92.6246 32.3747 92.382 32.587C92.3093 32.4778 92.1273 32.2959 92.0121 32.2049C92.7277 31.6167 93.3584 30.6949 93.7223 29.7185L94.1953 29.858C94.0498 30.2279 93.88 30.5797 93.6859 30.9132H94.9109C95.0686 30.5554 95.2384 30.1006 95.3415 29.7731L95.857 29.8944C95.7114 30.234 95.5416 30.5979 95.3839 30.9132H96.9849V31.3498H95.3294V32.211H96.803V32.6416H95.3294V33.5088H96.7848V33.9454H95.3294V34.8248H97.1002V35.2675H93.0673V31.8289L93.0734 31.835ZM94.8624 31.3559H93.5343V32.2171H94.8624V31.3559ZM94.8624 32.6416H93.5343V33.5088H94.8624V32.6416ZM94.8624 33.9454H93.5343V34.8248H94.8624V33.9454Z" fill="#231815"/>
<path d="M99.9499 32.775C99.1979 32.9387 98.5369 33.0721 98.2458 33.1449L98.1427 32.5688C98.4702 32.5203 99.1676 32.3929 99.9499 32.2413V30.8829C99.9499 30.6585 99.9438 30.428 99.9075 30.2097H100.52C100.49 30.4341 100.478 30.6706 100.478 30.8829V32.1321C101.745 31.8714 103.079 31.5863 103.376 31.5136C103.522 31.4833 103.655 31.4347 103.734 31.3923L104.122 31.7016C104.074 31.7804 104.001 31.9017 103.946 31.9927C103.613 32.6234 103.055 33.5694 102.461 34.2183L102.006 33.9333C102.558 33.3996 103.109 32.5324 103.328 32.0594C103.219 32.0836 101.812 32.3808 100.478 32.6658V34.9946C100.478 35.5343 100.672 35.698 101.557 35.698C102.442 35.698 103.103 35.6192 103.825 35.4737L103.801 36.0619C103.146 36.1589 102.436 36.2256 101.502 36.2256C100.205 36.2256 99.9499 35.8557 99.9499 35.128V32.775Z" fill="#231815"/>
<path d="M108.452 34.5277C109.562 33.7939 110.436 32.6659 110.848 31.7259L111.163 32.3081C110.678 33.2421 109.847 34.2851 108.756 35.0129C108.028 35.498 107.106 35.9771 105.857 36.2258L105.523 35.6678C106.815 35.4616 107.767 34.9826 108.452 34.5277ZM107.943 32.108L107.543 32.5386C107.179 32.1444 106.275 31.3257 105.73 30.9436L106.099 30.5312C106.615 30.8891 107.549 31.6896 107.943 32.1141" fill="#231815"/>
<path d="M114.741 30.6644C114.693 30.7615 114.632 30.8706 114.565 30.9858H116.627C116.815 30.9858 116.961 30.9616 117.07 30.9191L117.507 31.192C117.446 31.2891 117.385 31.471 117.349 31.5741C117.161 32.3018 116.755 33.2176 116.197 33.9999C116.512 34.2364 116.797 34.4668 117.034 34.673L116.645 35.14C116.427 34.9338 116.148 34.6973 115.845 34.4486C115.202 35.2128 114.292 35.9284 113.037 36.4196L112.576 35.989C113.801 35.6009 114.753 34.8671 115.42 34.109C114.887 33.7027 114.323 33.2964 113.838 32.9811L114.189 32.6051C114.687 32.9022 115.238 33.2843 115.766 33.6724C116.251 32.9811 116.639 32.132 116.791 31.471H114.256C113.807 32.1502 113.158 32.9022 112.328 33.5087L111.897 33.1569C113.146 32.3382 113.904 31.1617 114.238 30.4582C114.305 30.337 114.414 30.0762 114.456 29.8882L115.044 30.0883C114.929 30.2824 114.814 30.5189 114.741 30.6584" fill="#231815"/>
<path d="M119.762 32.8657H123.771C124.141 32.8657 124.39 32.8415 124.541 32.8293V33.4964C124.396 33.4904 124.104 33.4661 123.777 33.4661H119.762C119.362 33.4661 118.998 33.4843 118.78 33.4964V32.8293C118.992 32.8536 119.35 32.8657 119.762 32.8657Z" fill="#231815"/>
<path d="M70.3249 41.5318C70.2643 41.083 69.8761 40.9011 69.4577 40.9011C68.5177 40.9011 68.2327 41.7562 68.2327 42.5082C68.2327 43.2602 68.5177 44.1152 69.4577 44.1152C69.864 44.1152 70.2703 43.9151 70.3613 43.4542H70.7191C70.6099 44.0728 70.0459 44.4245 69.4577 44.4245C68.3418 44.4245 67.8749 43.527 67.8749 42.5082C67.8749 41.4893 68.3479 40.5918 69.4577 40.5918C70.0581 40.5918 70.6281 40.8647 70.6767 41.5257H70.3188L70.3249 41.5318Z" fill="#231815"/>
<path d="M71.5506 43.139C71.5627 43.6848 71.8114 44.1396 72.436 44.1396C72.7999 44.1396 73.0971 43.8789 73.1759 43.5271H73.4973C73.3396 44.1396 72.9576 44.4186 72.3451 44.4186C71.5809 44.4186 71.2231 43.7636 71.2231 43.0662C71.2231 42.3688 71.6052 41.7139 72.3633 41.7139C73.2183 41.7139 73.5276 42.3385 73.5276 43.139H71.5506ZM73.1941 42.86C73.1577 42.3688 72.8909 41.9928 72.3633 41.9928C71.866 41.9928 71.5991 42.4113 71.5567 42.86H73.188H73.1941Z" fill="#231815"/>
<path d="M74.5042 44.3459H74.201V42.3689C74.201 42.1687 74.1828 41.9686 74.1768 41.7927H74.4921L74.5042 42.1687L74.5164 42.1809C74.6922 41.8655 74.9833 41.72 75.3169 41.72C76.1538 41.72 76.2144 42.4598 76.2144 42.7509V44.3459H75.9112V42.6963C75.9112 42.2536 75.6565 41.9929 75.238 41.9929C74.7347 41.9929 74.5042 42.4174 74.5042 42.8722V44.3398V44.3459Z" fill="#231815"/>
<path d="M77.251 42.0717H76.7416V41.7927H77.251V41.2469L77.5542 41.1135V41.7927H78.1364V42.0717H77.5542V43.7819C77.5542 44.0184 77.6694 44.1457 77.9059 44.1457C77.9969 44.1457 78.0879 44.1457 78.1728 44.1154V44.3823C78.0758 44.4065 77.9666 44.4308 77.8635 44.4308C77.2146 44.4308 77.251 44.0184 77.251 43.6727V42.0778V42.0717Z" fill="#231815"/>
<path d="M78.9002 43.139C78.9124 43.6848 79.161 44.1396 79.7856 44.1396C80.1495 44.1396 80.4467 43.8789 80.5255 43.5271H80.8469C80.6892 44.1396 80.3072 44.4186 79.6947 44.4186C78.9306 44.4186 78.5728 43.7636 78.5728 43.0662C78.5728 42.3688 78.9548 41.7139 79.7129 41.7139C80.568 41.7139 80.8772 42.3385 80.8772 43.139H78.9002ZM80.5437 42.86C80.5073 42.3688 80.2405 41.9928 79.7129 41.9928C79.2156 41.9928 78.9488 42.4113 78.9063 42.86H80.5376H80.5437Z" fill="#231815"/>
<path d="M81.8599 44.3458H81.5567V42.3688C81.5567 42.1687 81.5446 41.9686 81.5325 41.7927H81.8478L81.8599 42.1687H81.8721C81.963 41.9079 82.1935 41.726 82.4482 41.7139C82.5513 41.7139 82.6544 41.7139 82.7514 41.7139V42.011C82.6908 42.011 82.6241 41.9928 82.5634 41.9928C82.1086 41.9928 81.8721 42.3203 81.8599 42.8055V44.3458Z" fill="#231815"/>
<path d="M84.88 44.346V42.0719H84.3645V41.7929H84.88V41.2471C84.88 40.8105 85.0558 40.6104 85.4986 40.6104C85.5956 40.6104 85.6987 40.6467 85.7896 40.6649V40.9075C85.729 40.8954 85.6623 40.8893 85.6016 40.8893C85.1832 40.8893 85.1711 41.0955 85.1893 41.4654V41.7929H85.7715V42.0719H85.1893V44.346H84.886H84.88Z" fill="#231815"/>
<path d="M88.5551 43.0662C88.5551 43.7394 88.1791 44.4186 87.3665 44.4186C86.5539 44.4186 86.1779 43.7394 86.1779 43.0662C86.1779 42.3931 86.5539 41.7139 87.3665 41.7139C88.1791 41.7139 88.5551 42.3931 88.5551 43.0662ZM87.3665 41.9928C86.7479 41.9928 86.5053 42.5932 86.5053 43.0662C86.5053 43.5393 86.7479 44.1396 87.3665 44.1396C87.9851 44.1396 88.2276 43.5393 88.2276 43.0662C88.2276 42.5932 87.9851 41.9928 87.3665 41.9928Z" fill="#231815"/>
<path d="M89.4952 44.3458H89.192V42.3688C89.192 42.1687 89.1738 41.9686 89.1677 41.7927H89.4831L89.4952 42.1687H89.5073C89.5983 41.9079 89.8288 41.726 90.0835 41.7139C90.1866 41.7139 90.2896 41.7139 90.3867 41.7139V42.011C90.326 42.011 90.2593 41.9928 90.1987 41.9928C89.7438 41.9928 89.5073 42.3203 89.4952 42.8055V44.3458Z" fill="#231815"/>
<path d="M93.3456 40.6709C94.5525 40.6709 95.2377 41.2895 95.2377 42.5084C95.2377 43.7274 94.5525 44.346 93.3456 44.346H92.3511V40.6709H93.3456ZM93.4305 44.0367C94.4615 44.0367 94.886 43.4302 94.886 42.5024C94.886 41.4168 94.2492 40.9377 93.2062 40.9741H92.6846V44.0367H93.4305Z" fill="#231815"/>
<path d="M96.3118 41.053H95.954V40.6709H96.3118V41.053ZM96.2875 44.346H95.9843V41.7928H96.2875V44.346Z" fill="#231815"/>
<path d="M98.8827 41.7927H99.198C99.1859 41.9686 99.1738 42.1687 99.1738 42.3689V43.9032C99.1738 44.4126 99.198 44.9463 98.634 45.2131C98.4278 45.3101 98.2944 45.3283 98.0518 45.3283C97.591 45.3283 97.0391 45.1706 97.0391 44.643H97.3726C97.409 44.9463 97.7668 45.0494 98.0943 45.0494C98.4946 45.0494 98.8584 44.7704 98.8706 44.3398V43.8607H98.8584C98.7129 44.1639 98.3611 44.3398 98.0276 44.3398C97.2574 44.3398 96.9299 43.7576 96.9299 43.0541C96.9299 42.3507 97.2392 41.72 98.0215 41.72C98.3915 41.72 98.6583 41.8958 98.8645 42.193L98.8766 42.1748L98.8948 41.7988L98.8827 41.7927ZM98.0458 41.9929C97.4879 41.9929 97.2574 42.5508 97.2574 43.0238C97.2574 43.4969 97.4939 44.0548 98.0579 44.0548C98.6219 44.0548 98.8645 43.509 98.8645 43.0117C98.8645 42.5144 98.5916 41.9929 98.0458 41.9929Z" fill="#231815"/>
<path d="M100.271 41.053H99.9136V40.6709H100.271V41.053ZM100.241 44.346H99.9378V41.7928H100.241V44.346Z" fill="#231815"/>
<path d="M101.284 42.0717H100.775V41.7927H101.284V41.2469L101.588 41.1135V41.7927H102.17V42.0717H101.588V43.7819C101.588 44.0184 101.703 44.1457 101.939 44.1457C102.03 44.1457 102.121 44.1457 102.206 44.1154V44.3823C102.109 44.4065 102 44.4308 101.897 44.4308C101.248 44.4308 101.284 44.0184 101.284 43.6727V42.0778V42.0717Z" fill="#231815"/>
<path d="M104.201 42.5447C104.171 42.1262 103.958 41.9928 103.595 41.9928C103.273 41.9928 103.012 42.0899 102.97 42.4355H102.642C102.721 41.914 103.109 41.7139 103.601 41.7139C104.165 41.7139 104.516 41.9746 104.504 42.5568V43.7697C104.504 43.9698 104.516 44.17 104.528 44.3458H104.213L104.201 43.9698H104.189L104.171 44.0062C104.061 44.2185 103.716 44.4247 103.37 44.4247C102.897 44.4247 102.521 44.1336 102.521 43.6363C102.521 43.2906 102.727 43.0238 103.037 42.8964C103.376 42.7509 103.819 42.7994 104.189 42.7812V42.5447H104.201ZM103.437 44.1396C104.104 44.1396 104.231 43.5878 104.201 43.0541C103.77 43.0662 102.861 42.9874 102.861 43.6302C102.861 43.9759 103.128 44.1396 103.437 44.1396Z" fill="#231815"/>
<path d="M105.608 40.6709H105.305V44.346H105.608V40.6709Z" fill="#231815"/>
<path d="M107.943 44.346V40.6709H108.276V42.284H110.278V40.6709H110.611V44.346H110.278V42.5873H108.276V44.346H107.943Z" fill="#231815"/>
<path d="M113.231 41.7927H113.534V43.7697C113.534 43.9699 113.552 44.17 113.558 44.3459H113.243L113.231 43.9699L113.219 43.9577C113.043 44.2731 112.752 44.4186 112.418 44.4186C111.581 44.4186 111.515 43.6788 111.515 43.3877V41.7927H111.818V43.4423C111.818 43.885 112.073 44.1457 112.491 44.1457C112.994 44.1457 113.225 43.7212 113.225 43.2664V41.7927H113.231Z" fill="#231815"/>
<path d="M114.65 42.1687L114.662 42.1809C114.838 41.8655 115.129 41.72 115.463 41.72C115.863 41.72 116.179 41.9444 116.294 42.2779C116.482 41.9747 116.779 41.72 117.173 41.72C118.01 41.72 118.077 42.4598 118.077 42.7509V44.3459H117.773V42.6963C117.773 42.2536 117.519 41.9929 117.1 41.9929C116.597 41.9929 116.367 42.4174 116.367 42.8722V44.3459H116.063V42.6963C116.063 42.2536 115.809 41.9929 115.39 41.9929C114.887 41.9929 114.656 42.4174 114.656 42.8722V44.3459H114.353V42.3689C114.353 42.1687 114.335 41.9686 114.329 41.7927H114.644L114.656 42.1687H114.65Z" fill="#231815"/>
<path d="M120.32 42.5447C120.29 42.1262 120.078 41.9928 119.714 41.9928C119.393 41.9928 119.132 42.0899 119.089 42.4355H118.762C118.841 41.914 119.229 41.7139 119.72 41.7139C120.284 41.7139 120.636 41.9746 120.624 42.5568V43.7697C120.624 43.9698 120.636 44.17 120.648 44.3458H120.333L120.32 43.9698H120.308L120.29 44.0062C120.181 44.2185 119.835 44.4247 119.49 44.4247C119.017 44.4247 118.641 44.1336 118.641 43.6363C118.641 43.2906 118.847 43.0238 119.156 42.8964C119.496 42.7509 119.938 42.7994 120.308 42.7812V42.5447H120.32ZM119.556 44.1396C120.223 44.1396 120.351 43.5878 120.32 43.0541C119.89 43.0662 118.98 42.9874 118.98 43.6302C118.98 43.9759 119.247 44.1396 119.556 44.1396Z" fill="#231815"/>
<path d="M121.728 44.3459H121.425V42.3689C121.425 42.1687 121.413 41.9686 121.401 41.7927H121.716L121.728 42.1687L121.74 42.1809C121.916 41.8655 122.207 41.72 122.541 41.72C123.378 41.72 123.438 42.4598 123.438 42.7509V44.3459H123.135V42.6963C123.135 42.2536 122.88 41.9929 122.462 41.9929C121.959 41.9929 121.728 42.4174 121.728 42.8722V44.3398V44.3459Z" fill="#231815"/>
<path d="M124.59 41.053H124.233V40.6709H124.59V41.053ZM124.56 44.346H124.257V41.7928H124.56V44.346Z" fill="#231815"/>
<path d="M125.603 42.0717H125.093V41.7927H125.603V41.2469L125.906 41.1135V41.7927H126.488V42.0717H125.906V43.7819C125.906 44.0184 126.021 44.1457 126.258 44.1457C126.349 44.1457 126.44 44.1457 126.524 44.1154V44.3823C126.427 44.4065 126.318 44.4308 126.215 44.4308C125.566 44.4308 125.603 44.0184 125.603 43.6727V42.0778V42.0717Z" fill="#231815"/>
<path d="M127.41 41.053H127.052V40.6709H127.41V41.053ZM127.386 44.346H127.083V41.7928H127.386V44.346Z" fill="#231815"/>
<path d="M128.387 43.139C128.399 43.6848 128.647 44.1396 129.272 44.1396C129.636 44.1396 129.933 43.8789 130.012 43.5271H130.333C130.176 44.1396 129.794 44.4186 129.181 44.4186C128.417 44.4186 128.059 43.7636 128.059 43.0662C128.059 42.3688 128.441 41.7139 129.199 41.7139C130.054 41.7139 130.364 42.3385 130.364 43.139H128.387ZM130.03 42.86C129.994 42.3688 129.727 41.9928 129.199 41.9928C128.702 41.9928 128.435 42.4113 128.393 42.86H130.024H130.03Z" fill="#231815"/>
<path d="M131.886 41.7138C132.371 41.7138 132.777 41.8836 132.82 42.4233H132.486C132.456 42.1019 132.171 41.9928 131.856 41.9928C131.571 41.9928 131.279 42.108 131.279 42.4051C131.279 42.7811 131.771 42.7447 132.468 42.9873C132.735 43.0783 132.899 43.3087 132.899 43.5816C132.899 44.1578 132.365 44.4185 131.825 44.4185C131.383 44.4185 130.873 44.2123 130.861 43.6423H131.195C131.219 44.0243 131.552 44.1335 131.904 44.1335C132.232 44.1335 132.571 43.9819 132.571 43.6241C132.571 43.2663 132.171 43.1935 131.765 43.1025C131.364 43.0055 130.958 42.8903 130.958 42.4173C130.958 41.8897 131.443 41.7017 131.892 41.7017" fill="#231815"/>
<path d="M136.44 42.5447C136.41 42.1262 136.198 41.9928 135.834 41.9928C135.512 41.9928 135.251 42.0899 135.209 42.4355H134.882C134.96 41.914 135.349 41.7139 135.84 41.7139C136.404 41.7139 136.755 41.9746 136.743 42.5568V43.7697C136.743 43.9698 136.755 44.17 136.768 44.3458H136.452L136.44 43.9698H136.428L136.41 44.0062C136.301 44.2185 135.955 44.4247 135.609 44.4247C135.136 44.4247 134.76 44.1336 134.76 43.6363C134.76 43.2906 134.966 43.0238 135.276 42.8964C135.615 42.7509 136.058 42.7994 136.428 42.7812V42.5447H136.44ZM135.676 44.1396C136.343 44.1396 136.47 43.5878 136.44 43.0541C136.01 43.0662 135.1 42.9874 135.1 43.6302C135.1 43.9759 135.367 44.1396 135.676 44.1396Z" fill="#231815"/>
<path d="M137.847 44.3459H137.544V42.3689C137.544 42.1687 137.525 41.9686 137.519 41.7927H137.835L137.847 42.1687L137.859 42.1809C138.035 41.8655 138.326 41.72 138.66 41.72C139.496 41.72 139.557 42.4598 139.557 42.7509V44.3459H139.254V42.6963C139.254 42.2536 138.999 41.9929 138.581 41.9929C138.077 41.9929 137.847 42.4174 137.847 42.8722V44.3398V44.3459Z" fill="#231815"/>
<path d="M142.135 43.9699L142.123 43.9517C141.917 44.2549 141.601 44.4248 141.25 44.4248C140.492 44.4248 140.201 43.7031 140.201 43.0603C140.201 42.4174 140.492 41.7139 141.25 41.7139C141.589 41.7139 141.947 41.8777 142.123 42.1748L142.135 42.1627V40.6648H142.438V43.7637C142.438 43.9639 142.45 44.164 142.463 44.3398H142.147L142.135 43.9639V43.9699ZM141.298 41.9929C140.716 41.9929 140.528 42.5326 140.528 43.0239C140.528 43.5151 140.668 44.1458 141.25 44.1458C141.917 44.1458 142.123 43.5939 142.123 43.0117C142.123 42.4902 141.893 41.999 141.298 41.999" fill="#231815"/>
<path d="M145.597 44.4187C145.015 44.4187 144.517 43.9881 144.505 43.3877H144.863C144.875 43.9517 145.294 44.1154 145.785 44.1154C146.197 44.1154 146.67 43.8789 146.67 43.4059C146.67 43.042 146.403 42.8662 146.094 42.7631C145.5 42.5629 144.596 42.375 144.596 41.5805C144.596 40.9377 145.184 40.5859 145.767 40.5859C146.252 40.5859 146.883 40.7557 146.961 41.4592H146.604C146.591 41.0044 146.179 40.8892 145.803 40.8892C145.427 40.8892 144.948 41.0832 144.948 41.532C144.948 42.5751 147.022 42.102 147.022 43.3695C147.022 44.17 146.337 44.4126 145.597 44.4126" fill="#231815"/>
<path d="M149.921 43.0662C149.921 43.7394 149.545 44.4186 148.733 44.4186C147.92 44.4186 147.544 43.7394 147.544 43.0662C147.544 42.3931 147.92 41.7139 148.733 41.7139C149.545 41.7139 149.921 42.3931 149.921 43.0662ZM148.733 41.9928C148.114 41.9928 147.871 42.5932 147.871 43.0662C147.871 43.5393 148.114 44.1396 148.733 44.1396C149.351 44.1396 149.594 43.5393 149.594 43.0662C149.594 42.5932 149.351 41.9928 148.733 41.9928Z" fill="#231815"/>
<path d="M152.171 42.575C152.147 42.1808 151.898 41.9928 151.474 41.9928C151.007 41.9928 150.716 42.4841 150.716 43.0602C150.716 43.6363 151.007 44.1396 151.474 44.1396C151.868 44.1396 152.147 43.8971 152.171 43.5453H152.505C152.426 44.1275 152.086 44.4186 151.51 44.4186C150.746 44.4186 150.388 43.7636 150.388 43.0662C150.388 42.3688 150.77 41.7139 151.528 41.7139C152.05 41.7139 152.481 42.0292 152.505 42.575H152.171Z" fill="#231815"/>
<path d="M153.439 41.053H153.081V40.6709H153.439V41.053ZM153.409 44.346H153.105V41.7928H153.409V44.346Z" fill="#231815"/>
<path d="M155.676 42.5447C155.646 42.1262 155.434 41.9928 155.07 41.9928C154.749 41.9928 154.488 42.0899 154.445 42.4355H154.118C154.197 41.914 154.585 41.7139 155.076 41.7139C155.64 41.7139 155.992 41.9746 155.98 42.5568V43.7697C155.98 43.9698 155.992 44.17 156.004 44.3458H155.689L155.676 43.9698H155.664L155.646 44.0062C155.537 44.2185 155.191 44.4247 154.846 44.4247C154.373 44.4247 153.997 44.1336 153.997 43.6363C153.997 43.2906 154.203 43.0238 154.512 42.8964C154.852 42.7509 155.294 42.7994 155.664 42.7812V42.5447H155.676ZM154.912 44.1396C155.579 44.1396 155.707 43.5878 155.676 43.0541C155.246 43.0662 154.336 42.9874 154.336 43.6302C154.336 43.9759 154.603 44.1396 154.912 44.1396Z" fill="#231815"/>
<path d="M157.084 40.6709H156.781V44.346H157.084V40.6709Z" fill="#231815"/>
<path d="M160.303 44.4187C159.721 44.4187 159.224 43.9881 159.212 43.3877H159.569C159.581 43.9517 160 44.1154 160.491 44.1154C160.904 44.1154 161.377 43.8789 161.377 43.4059C161.377 43.042 161.11 42.8662 160.8 42.7631C160.206 42.5629 159.303 42.375 159.303 41.5805C159.303 40.9377 159.891 40.5859 160.473 40.5859C160.958 40.5859 161.589 40.7557 161.668 41.4592H161.31C161.298 41.0044 160.885 40.8892 160.509 40.8892C160.133 40.8892 159.654 41.0832 159.654 41.532C159.654 42.5751 161.728 42.102 161.728 43.3695C161.728 44.17 161.043 44.4126 160.303 44.4126" fill="#231815"/>
<path d="M164.046 42.575C164.021 42.1808 163.773 41.9928 163.348 41.9928C162.881 41.9928 162.59 42.4841 162.59 43.0602C162.59 43.6363 162.881 44.1396 163.348 44.1396C163.742 44.1396 164.021 43.8971 164.046 43.5453H164.379C164.3 44.1275 163.961 44.4186 163.385 44.4186C162.621 44.4186 162.263 43.7636 162.263 43.0662C162.263 42.3688 162.645 41.7139 163.403 41.7139C163.924 41.7139 164.355 42.0292 164.379 42.575H164.046Z" fill="#231815"/>
<path d="M165.312 41.053H164.954V40.6709H165.312V41.053ZM165.288 44.346H164.985V41.7928H165.288V44.346Z" fill="#231815"/>
<path d="M166.284 43.139C166.296 43.6848 166.544 44.1396 167.169 44.1396C167.533 44.1396 167.83 43.8789 167.909 43.5271H168.23C168.073 44.1396 167.69 44.4186 167.078 44.4186C166.314 44.4186 165.956 43.7636 165.956 43.0662C165.956 42.3688 166.338 41.7139 167.096 41.7139C167.951 41.7139 168.261 42.3385 168.261 43.139H166.284ZM167.927 42.86C167.891 42.3688 167.624 41.9928 167.096 41.9928C166.599 41.9928 166.332 42.4113 166.29 42.86H167.921H167.927Z" fill="#231815"/>
<path d="M169.242 44.3459H168.939V42.3689C168.939 42.1687 168.921 41.9686 168.915 41.7927H169.23L169.242 42.1687L169.255 42.1809C169.43 41.8655 169.721 41.72 170.055 41.72C170.892 41.72 170.953 42.4598 170.953 42.7509V44.3459H170.649V42.6963C170.649 42.2536 170.395 41.9929 169.976 41.9929C169.473 41.9929 169.242 42.4174 169.242 42.8722V44.3398V44.3459Z" fill="#231815"/>
<path d="M173.378 42.575C173.354 42.1808 173.105 41.9928 172.681 41.9928C172.214 41.9928 171.923 42.4841 171.923 43.0602C171.923 43.6363 172.214 44.1396 172.681 44.1396C173.075 44.1396 173.354 43.8971 173.378 43.5453H173.712C173.633 44.1275 173.293 44.4186 172.717 44.4186C171.953 44.4186 171.595 43.7636 171.595 43.0662C171.595 42.3688 171.977 41.7139 172.735 41.7139C173.257 41.7139 173.687 42.0292 173.712 42.575H173.378Z" fill="#231815"/>
<path d="M174.488 43.139C174.501 43.6848 174.749 44.1396 175.374 44.1396C175.738 44.1396 176.035 43.8789 176.114 43.5271H176.435C176.277 44.1396 175.895 44.4186 175.283 44.4186C174.519 44.4186 174.161 43.7636 174.161 43.0662C174.161 42.3688 174.543 41.7139 175.301 41.7139C176.156 41.7139 176.465 42.3385 176.465 43.139H174.488ZM176.132 42.86C176.095 42.3688 175.829 41.9928 175.301 41.9928C174.804 41.9928 174.537 42.4113 174.494 42.86H176.126H176.132Z" fill="#231815"/>
<path d="M177.988 41.7138C178.473 41.7138 178.879 41.8836 178.922 42.4233H178.588C178.558 42.1019 178.273 41.9928 177.957 41.9928C177.672 41.9928 177.381 42.108 177.381 42.4051C177.381 42.7811 177.872 42.7447 178.57 42.9873C178.837 43.0783 179 43.3087 179 43.5816C179 44.1578 178.467 44.4185 177.927 44.4185C177.484 44.4185 176.975 44.2123 176.963 43.6423H177.296C177.321 44.0243 177.654 44.1335 178.006 44.1335C178.333 44.1335 178.673 43.9819 178.673 43.6241C178.673 43.2663 178.273 43.1935 177.866 43.1025C177.466 43.0055 177.06 42.8903 177.06 42.4173C177.06 41.8897 177.545 41.7017 177.994 41.7017" fill="#231815"/>
<defs>
<filter id="filter0_b_19653_1366" x="-20" y="-20" width="240" height="100" filterUnits="userSpaceOnUse" color-interpolation-filters="sRGB">
<feFlood flood-opacity="0" result="BackgroundImageFix"/>
<feGaussianBlur in="BackgroundImageFix" stdDeviation="10"/>
<feComposite in2="SourceAlpha" operator="in" result="effect1_backgroundBlur_19653_1366"/>
<feBlend mode="normal" in="SourceGraphic" in2="effect1_backgroundBlur_19653_1366" result="shape"/>
</filter>
<linearGradient id="paint0_linear_19653_1366" x1="22.3972" y1="14.5038" x2="22.3972" y2="44.1546" gradientUnits="userSpaceOnUse">
<stop stop-color="#0099D9"/>
<stop offset="0.56" stop-color="#3071B9"/>
<stop offset="1" stop-color="#2D2162"/>
</linearGradient>
<linearGradient id="paint1_linear_19653_1366" x1="52.9287" y1="14.5038" x2="52.9287" y2="44.1546" gradientUnits="userSpaceOnUse">
<stop stop-color="#0099D9"/>
<stop offset="0.56" stop-color="#3071B9"/>
<stop offset="1" stop-color="#2D2162"/>
</linearGradient>
<linearGradient id="paint2_linear_19653_1366" x1="33.7877" y1="14.5038" x2="33.7877" y2="44.1546" gradientUnits="userSpaceOnUse">
<stop stop-color="#0099D9"/>
<stop offset="0.56" stop-color="#3071B9"/>
<stop offset="1" stop-color="#2D2162"/>
</linearGradient>
<linearGradient id="paint3_linear_19653_1366" x1="41.5021" y1="14.4916" x2="41.5021" y2="44.1423" gradientUnits="userSpaceOnUse">
<stop stop-color="#0099D9"/>
<stop offset="0.56" stop-color="#3071B9"/>
<stop offset="1" stop-color="#2D2162"/>
</linearGradient>
<linearGradient id="paint4_linear_19653_1366" x1="45.5712" y1="14.5038" x2="45.5712" y2="44.1546" gradientUnits="userSpaceOnUse">
<stop stop-color="#0099D9"/>
<stop offset="0.56" stop-color="#3071B9"/>
<stop offset="1" stop-color="#2D2162"/>
</linearGradient>
</defs>
</svg>
