<?xml version="1.0" encoding="UTF-8"?><svg id="_レイヤー_2" xmlns="http://www.w3.org/2000/svg" width="156.603mm" height="30.223mm" viewBox="0 0 443.913 85.672"><defs><style>.cls-1{fill:#040000;}</style></defs><g id="_レイヤー_1-2"><path class="cls-1" d="M63.762,5.69c3.032-.249,5.897-.457,8.806-.623.913-.041,1.702-.166,2.325-.54,1.495.706,2.368,1.329,3.572,2.617.623.706,1.121,1.37,1.121,2.076,0,.54-.54,1.039-2.035,1.537-1.453.498-2.699.872-4.734,1.412-.54,0-.706-.208-.706-.415,0-.166.083-.374.249-.582.623-.913,1.62-2.326,1.952-3.239-8.806.291-15.118.83-24.962,2.159-.291,2.908-1.371,5.399-2.991,5.399-1.287,0-1.993-1.578-1.993-2.491,0-.748.166-1.205.664-1.911.831-1.204,1.579-2.782,1.662-4.984,0-.498.124-.955.415-.955.581,0,1.578,1.163,1.952,2.077,3.655-.457,7.31-.831,10.965-1.205v-1.246c0-1.702-.166-2.699-.54-3.488-.166-.332-.29-.706-.29-.955,0-.167.332-.333.622-.333,1.039,0,2.825.457,3.987,1.039.623.332.873.664.873,1.038,0,.249-.166.623-.333.872-.415.54-.581,1.246-.581,2.077v.664ZM60.106,17.943c0-.706-.124-1.288-.291-1.869-.124-.332-.207-.706-.249-.955-1.744.207-3.488.415-5.15.664-.498,0-.747-.083-1.412-.872-.54-.54-.955-1.121-.955-1.454,0-.249.083-.29.748-.373,5.482-.54,8.847-.956,11.546-1.329,1.08-.166,1.745-.333,2.741-.748,2.16.125,3.489,1.288,3.489,2.035,0,.955-.291,1.121-2.16,1.246-2.118.125-4.402.332-6.729.581.291.125.623.291.997.457.789.374,1.495.997,1.495,1.412,0,.208-.041.457-.124.748-.125.415-.208.914-.25,1.329,2.326-.208,4.32-.374,5.773-.457,1.246-.083,2.077-.249,2.991-.706,2.325.166,4.402,1.454,4.402,2.533,0,.997-.291,1.205-1.786,1.205-.748-.042-2.409-.083-3.862-.083-1.869,0-4.486.124-7.56.415,0,1.246-.042,2.575-.042,3.946,0,2.367.042,4.776.125,6.895-.125,1.287-.332,2.076-.789,2.907-.623,1.08-1.163,1.412-1.703,1.412-.872,0-2.616-1.246-5.274-3.987-.333-.332-.665-.706-.665-.955,0-.291.249-.457.499-.457,1.453.208,2.782.374,4.194.415v-9.844c-3.571.333-7.476.831-11.297,1.371-.416,0-.789-.166-1.288-.748-.913-1.038-1.163-1.453-1.163-1.827,0-.249.166-.332.748-.374,4.402-.457,8.972-.913,13-1.329v-1.204Z"/><path class="cls-1" d="M102.934,6.438c2.99-.25,5.814-.457,8.39-.623,1.537-.083,2.243-.208,3.073-.499.623.208,1.579.706,2.783,1.745,1.163.996,1.744,1.827,1.744,2.658,0,.789-.457,1.121-1.619,1.536-1.537.54-4.237,1.163-5.109,1.163-.249,0-.457-.083-.457-.332,0-.125.083-.374.208-.582.706-1.038,1.246-2.076,1.495-2.865-7.892.332-15.617.83-24.215,2.035-.249,3.447-1.536,5.233-2.907,5.233-1.121,0-1.869-.955-1.869-2.409,0-.789.083-1.121.706-1.91,1.08-1.288,1.579-2.949,1.703-4.818.042-.623.083-.789.54-.789.498,0,1.204.789,1.62,1.869,3.364-.416,6.77-.748,10.176-1.08v-1.371c0-1.702-.166-2.699-.54-3.488-.166-.333-.291-.706-.291-.955,0-.167.333-.333.623-.333,1.039,0,2.824.457,3.987,1.039.623.332.872.664.872,1.038,0,.249-.166.623-.332.872-.415.54-.581,1.246-.581,2.077v.789ZM99.361,14.911c0-.789-.125-1.786-.291-2.616-.166-.706-.373-1.288-.373-1.62s.166-.457.623-.457c.498,0,1.578.125,2.99.665.955.373,1.163.664,1.163,1.079,0,.249-.166.706-.291,1.122-.208.789-.332,1.827-.332,3.031l-.042,1.537,4.444-.249c1.744-.083,2.741-.332,3.322-.748.956.291,1.869.706,2.7,1.329,1.121.873,1.578,1.495,1.578,1.911,0,.374-.249.789-.581,1.246-.249.374-.332.623-.457,1.869l-.955,7.767c-.333,2.699-.54,3.447-.831,4.278-.332.83-.789,1.163-1.495,1.163-.623,0-1.412-.831-1.827-2.243-5.026.083-10.094.291-15.119.747-.124,1.246-.581,1.703-1.287,1.703-1.08,0-2.16-1.287-2.409-3.198.041-.249.125-.54.125-1.329,0-.955-.084-2.658-.291-5.897-.332-5.067-.623-5.939-1.038-6.854-.125-.249-.291-.706-.291-1.08,0-.249.207-.415.457-.415.54,0,1.578.291,2.99.955l7.518-.664v-3.032ZM99.32,20.851c-2.077.166-4.154.332-6.272.54l.208,3.696,6.064-.457v-3.779ZM99.32,27.288c-1.952.125-3.531.25-5.939.457l.207,4.236,5.69-.415.042-4.278ZM109.205,31.109l.332-4.277-6.853.249-.042,4.277,6.562-.249ZM106.09,24.215c.789-.041,1.205-.166,1.62-.374.498.083,1.246.457,1.952.914l.374-4.527c-2.575.083-4.943.208-7.269.374l-.042,3.779,3.364-.166Z"/><path class="cls-1" d="M132.345,13.416c.498-.083.997-.249,1.412-.498,1.703.249,2.866,1.079,2.866,1.951,0,.665-.499.956-1.454,1.039-1.038.124-2.076.249-3.115.374l-.083,7.476c1.246-.623,2.451-1.246,3.53-1.91.208-.125.416-.208.582-.208.291,0,.498.208.498.457,0,.208-.083.415-.332.623-2.7,2.658-5.441,4.942-8.141,6.854-.831.581-1.329.913-1.786,1.412-.291.29-.623.456-.955.456-.582-.041-1.205-.623-1.952-1.661-.665-.913-.997-1.744-.997-2.118,0-.249.208-.415.457-.457,1.744-.166,2.492-.373,3.613-.872.665-.291,1.412-.623,2.284-1.038l-.124-8.474c-1.246.208-2.492.457-3.78.706-.498,0-.83-.166-1.453-1.038s-.789-1.121-.789-1.412c0-.249.166-.332.581-.374,1.911-.207,3.696-.456,5.399-.706l-.041-4.527c0-1.453-.249-2.575-.54-3.239-.166-.332-.291-.706-.291-.997,0-.249.208-.415.582-.415.581,0,1.951.332,2.782.664,1.038.416,1.661.914,1.661,1.371,0,.498-.124.831-.29,1.163-.166.374-.333,1.121-.333,2.409l-.041,3.031.249-.041ZM141.897,14.703c1.039-.415,2.077-.789,3.157-1.204.041-3.364.041-4.652.041-7.269,0-.997-.208-2.077-.415-2.783-.125-.539-.291-.913-.291-1.246,0-.249.166-.456.498-.456.457,0,1.869.332,3.198.955.706.332,1.122.747,1.122,1.163,0,.373-.125.789-.291,1.246s-.249.955-.291,1.744c-.041,1.537-.124,3.447-.166,5.399,1.122-.374,2.16-.748,3.157-1.121,1.162-.416,1.744-.789,2.408-1.412.873.249,1.745.581,2.7,1.204,1.08.706,1.495,1.204,1.495,1.703,0,.374-.208.747-.498,1.08-.291.332-.54.872-.623,1.287-.706,3.073-1.828,6.688-2.949,7.85-.498.54-1.163.914-1.661.914-.416,0-.997-.332-1.412-.83-1.039-1.329-1.662-2.451-2.16-3.406-.083-.208-.125-.374-.125-.498,0-.208.125-.333.333-.333.166,0,.415.042.581.125.706.291,1.952.748,2.243.748.207,0,.374-.125.498-.416.623-1.536,1.122-3.738,1.454-5.814-1.911.664-3.738,1.329-5.524,1.952-.083,3.322-.124,6.313-.124,7.601,0,1.91-.748,2.783-1.62,2.783s-1.703-.789-1.994-3.074c.166-.664.249-1.91.333-6.022-1.039.416-2.119.831-3.198,1.288-.125,3.239-.208,6.936-.208,9.47,0,2.076.789,2.492,5.731,2.492,5.773,0,6.937-.208,7.934-.582.872-.332,1.495-.996,1.744-1.661.249-.664.498-1.578.623-2.699.042-.416.208-.582.415-.582s.457.125.706.457c1.412,1.703,2.575,3.862,2.575,4.818,0,.83-.54,1.619-1.827,2.242-1.91.914-4.153,1.246-12.128,1.246-7.394,0-8.972-1.827-8.972-6.063,0-2.243.042-4.984.042-7.768-.416.166-.831.333-1.288.54-.166.042-.291.083-.415.083-.208,0-.374-.083-.54-.207-1.661-1.329-1.911-1.62-1.911-1.828,0-.166.084-.291.291-.374,1.412-.539,2.7-.996,3.904-1.453.042-1.329.042-2.617.083-3.821,0-1.038-.207-1.91-.415-2.533-.125-.333-.291-.706-.291-.997,0-.249.208-.374.54-.374.54,0,2.035.498,3.115,1.08.747.415,1.038.789,1.038,1.121,0,.416-.166.789-.291,1.122-.207.498-.249,1.245-.29,1.91l-.042,1.204Z"/><path class="cls-1" d="M171.767,10.758c0-1.371-.084-2.201-.291-2.949-1.412.166-2.741.332-3.696.457-.416,0-.748-.166-1.039-.54-.913-1.121-1.163-1.703-1.163-2.076,0-.167.125-.25.582-.25,2.824-.124,6.687-.498,9.927-.996.581-.083,1.121-.25,1.744-.54,1.371,0,3.073.955,3.073,2.035,0,.789-.415,1.08-2.035,1.204-.996.083-2.284.208-3.654.332.207.291.29.582.29.79s-.041.373-.124.706c-.125.581-.208,1.412-.208,2.325l-.041,1.62h.083c.581-.083,1.121-.249,1.744-.54,1.37,0,2.824.706,2.824,1.661,0,.706-.415.997-2.035,1.205-.831.124-1.744.249-2.658.374l-.125,6.729c1.371-.499,2.658-.997,3.987-1.579.167-.083.374-.124.582-.124.374,0,.623.249.623.581,0,.208-.125.457-.415.706-2.16,1.662-5.067,3.489-8.723,5.192-.623.29-1.246.623-1.495.872s-.499.332-.831.332-.997-.291-2.118-1.495c-.914-1.038-1.121-1.537-1.121-1.869,0-.249.29-.374.581-.374,1.163-.041,2.035-.124,3.53-.54l2.326-.664-.083-7.311c-1.121.125-2.243.291-3.281.416-.415,0-.747-.166-1.038-.54-.831-.997-1.163-1.537-1.163-1.911,0-.166.208-.207.664-.249,1.205-.083,3.24-.291,4.818-.457l-.041-2.533ZM182.938,28.036c-.539.623-.789.914-1.079,1.287-.208.291-.457.499-.831.499-.581,0-1.204-.332-2.533-1.786-.79-.872-.873-1.246-.873-1.661,0-.208.25-.374.54-.416,1.122-.083,1.911-.249,2.617-.664,1.993-1.163,3.322-2.243,5.15-3.738.249-.208.457-.291.664-.291.291,0,.54.25.54.582,0,.166-.083.374-.208.581-1.246,2.118-2.325,3.613-3.987,5.607ZM191.412,18.566c2.076-1.661,3.281-2.824,4.07-3.78.581-.706.789-1.245.789-1.952,0-.415.208-.706.54-.706.166,0,.415.042.623.167.997.539,1.536.955,2.492,1.785.207.208.498.582.498.873,0,.539-.166.996-1.454,1.578-1.702,1.163-4.36,2.284-6.77,3.073,1.91,1.869,3.738,3.489,5.98,5.358,1.911,1.578,3.447,2.616,5.566,3.696.498.249.747.498.747.789,0,.249-.332.498-.872.623-1.038.249-2.616.457-4.444.457-.914,0-1.246-.249-1.786-.997-2.45-3.364-4.153-5.648-5.98-8.1,0,3.78.083,6.688.124,10.094-.166,1.619-.373,2.533-.83,3.447-.499.955-1.08,1.536-1.412,1.536-.499,0-1.163-.415-2.326-1.495-1.08-1.038-1.827-1.91-2.7-3.115-.207-.29-.29-.54-.29-.747s.166-.333.457-.333l.29.042c1.163.249,2.035.374,3.323.415V11.547c-2.201.249-4.403.498-6.604.789-.457-.041-.747-.166-1.453-1.121-.623-.831-.706-1.246-.706-1.454s.124-.291.498-.332c3.115-.208,5.856-.457,8.266-.665,0-1.495,0-2.99-.083-4.485-.083-1.786-.291-2.492-.54-3.115-.125-.249-.166-.415-.166-.581,0-.332.207-.499.664-.499.665,0,2.451.582,3.821,1.454.581.374.789.623.789.955,0,.291-.249.706-.374,1.038-.332.831-.581,2.409-.664,4.901l2.741-.332c.831-.083,1.537-.332,2.326-.748,2.159.125,3.821,1.246,3.821,2.451,0,.747-.748,1.038-2.409,1.08-2.118.041-4.32.166-6.521.373l-.041,7.311ZM185.556,18.358c0,.955-.54,1.412-1.329,1.412-.623,0-1.288-.291-2.077-1.08-.872-.872-1.744-1.91-2.242-2.99-.125-.249-.166-.415-.166-.581,0-.25.166-.374.539-.374.79,0,2.825.54,4.278,1.827.665.582.997,1.246.997,1.786ZM199.844,5.067c0,.789-.623,1.412-1.412,1.412-.623,0-1.454-.415-2.409-1.329-.582-.581-1.288-1.412-2.077-2.409-.166-.207-.249-.373-.249-.498,0-.291.374-.457.706-.457.665,0,2.741.457,3.987,1.205,1.08.664,1.454,1.329,1.454,2.076Z"/><path class="cls-1" d="M214.345,11.63c0-1.578-.125-2.575-.291-3.405-1.371.124-2.7.29-3.779.415-.416,0-.748-.166-1.288-.872-.664-.789-.913-1.371-.913-1.745,0-.166.124-.249.581-.249,2.824-.124,6.562-.498,9.429-.83.581-.084,1.162-.291,1.785-.582,1.205.125,3.074,1.121,3.074,2.118,0,.748-.416.997-2.035,1.122-1.08.083-2.326.207-3.697.332.499.415.748.872.748,1.163,0,.207-.042.373-.125.706-.124.581-.207,1.412-.207,2.325v.748c.373-.083.747-.249,1.163-.498,1.536,0,2.741.955,2.741,1.869,0,.706-.416.996-2.035,1.204l-1.911.249-.041,5.524c1.287-.582,2.616-1.246,3.696-1.828.208-.124.374-.166.498-.166.374,0,.623.291.623.623,0,.208-.124.457-.374.706-2.533,2.326-5.772,4.403-8.681,6.147-.623.374-.913.54-1.287.872-.415.374-.706.457-1.204.457-.416,0-.873-.291-1.662-1.204-1.079-1.246-1.246-1.745-1.246-2.077,0-.249.25-.415.54-.415,1.163-.042,1.994-.166,3.655-.789l2.367-.956-.083-6.479c-1.121.125-2.284.291-3.447.457-.415,0-.747-.166-1.038-.54-.914-1.121-1.163-1.536-1.163-1.91,0-.166.166-.208.623-.249,1.454-.125,3.281-.291,4.984-.499v-1.744ZM233.782,34.931c0,1.869-.623,2.326-1.536,2.326-1.08,0-2.201-2.201-2.201-3.655.166-.415.29-.789.373-1.537.125-1.246.166-2.865.166-6.646-3.613,3.406-8.016,6.147-12.294,7.809-.415.166-.747.208-.955.208-.291,0-.498-.166-.498-.498,0-.25.249-.54.747-.831,4.195-2.45,8.847-6.354,11.921-10.301-.582.083-1.163.125-1.703.208-.083.54-.415,1.08-1.163,1.08-1.038,0-1.62-.665-1.827-1.994-.416-2.907-.706-3.904-1.205-4.942-.166-.332-.249-.498-.249-.748,0-.124.083-.332.706-.332.54,0,1.371.249,2.326.748,4.194-.499,7.144-.872,9.885-1.08.831-.083,1.412-.166,2.201-.623.873.125,1.537.332,2.285.747,1.162.665,1.578,1.122,1.578,1.62,0,.457-.208.706-.665,1.08-.373.291-.54.498-1.08,1.246l-.456.623c.415.291.664.664.664.914,0,.083,0,.124-.041.249.54.207,1.246.623,2.076,1.246.623.457.872.83.872,1.08,0,.498-.166.623-1.163,1.079-1.91,1.039-3.447,1.786-5.232,2.492.996.706,1.91,1.246,2.824,1.786,2.242,1.329,3.114,1.703,5.15,2.492.581.208,1.287.54,2.118.955.456.249.83.416.83.748s-.249.581-1.163.789c-1.204.291-3.322.623-4.111.623-.623,0-.997-.291-2.035-1.163-2.534-2.201-4.652-4.07-7.062-6.23l-.083,8.432ZM222.859,13.748c-.789-.83-.956-1.121-.956-1.37,0-.167.167-.333.748-.374,5.025-.54,10.259-1.08,14.62-1.412,1.869-.125,2.741-.291,3.821-.748,1.827.249,3.447,1.288,3.447,2.077,0,.747-.332.997-1.371.997-1.536,0-2.99.041-4.319.124-5.565.249-11.671.955-14.786,1.371-.457,0-.706-.083-1.204-.665ZM225.85,10.799c-1.038,0-1.62-.664-1.827-1.993-.582-3.53-.831-4.444-1.329-5.482-.167-.332-.25-.499-.25-.748,0-.124.083-.332.582-.332.374,0,1.121.208,1.952.54,5.897-.623,9.968-.997,13-1.163,1.412-.083,1.994-.249,2.783-.664.747.124,1.578.581,2.242,1.121.997.831,1.412,1.37,1.412,1.869,0,.457-.124.706-.581,1.08-.374.29-.623.581-.997,1.412-1.204,2.616-1.62,3.156-2.533,3.156-.54,0-.872-.208-1.122-.581-1.952.041-8.307.498-12.045.955-.166.415-.623.83-1.287.83ZM229.214,7.809c-.083-1.495-.208-2.492-.415-3.364-.748.083-1.454.166-2.202.249l.416,3.323,2.201-.208ZM227.677,20.02c3.323-.373,6.022-.623,9.429-.913.208-.748.415-1.579.581-2.409-3.115.249-6.229.581-10.176,1.08l.166,2.242ZM234.073,7.352c.083-1.204.125-2.45.166-3.447-.955.083-1.536.125-2.533.208l.083,3.447,2.284-.208ZM233.45,22.429c.457.54.54.789.54,1.163,0,.125,0,.249-.042.415.623.499,1.413,1.122,2.119,1.62,1.121-.997,2.491-2.326,3.571-3.655.208-.249.333-.581.333-.955-.291.042-.623.083-1.039.083-1.412.042-3.032.125-4.651.249-.249.374-.54.706-.831,1.08ZM236.648,7.186c1.163-.083,1.869-.124,2.533-.166.291-1.287.499-2.326.665-3.447-.831.042-1.703.083-2.533.125l-.665,3.488Z"/><path class="cls-1" d="M260.827,10.176c.456-.083.955-.249,1.329-.498,1.578.249,2.699.955,2.865,1.744.083-.041.291-.083.623-.124,1.62-.166,3.323-.332,4.984-.457-.415-1.08-.914-2.077-1.578-3.032-.415.042-.872.125-1.288.166-.373,0-.623-.124-1.246-.747-.706-.748-.872-1.039-.872-1.288s.166-.332.582-.373c2.409-.208,4.776-.416,7.144-.623v-.457c0-1.495-.249-2.7-.664-3.489-.125-.208-.167-.374-.167-.54,0-.249.167-.457.582-.457,1.495.166,2.699.499,3.489.831.664.291.872.581.872.872,0,.249-.208.706-.333.955-.207.457-.332,1.163-.373,1.745v.207l2.699-.249c.872-.083,1.62-.249,2.326-.581,1.744.332,2.99.996,2.99,1.827,0,.748-.54.997-2.159,1.08l-1.869.124c.415.25.706.582.706.914s-.166.665-.333.872c-.415.54-.83.997-1.246,1.454l1.952-.166c1.122-.083,1.745-.333,2.451-.665,2.201.457,3.405,1.288,3.405,1.994,0,.747-.373.996-1.91,1.038-5.981.208-12.46.665-18.939,1.495-.25,0-.457-.083-.789-.415-.706-.706-.997-1.08-1.122-1.288-.166.374-.623.54-1.37.623-.956.083-1.869.208-2.783.374l-.083,7.228c1.204-.665,2.367-1.329,3.406-1.994.207-.125.373-.166.54-.166.332,0,.539.166.539.457,0,.166-.083.332-.249.54-2.658,2.699-5.814,5.316-8.515,7.227-.83.582-1.329.914-1.786,1.412-.29.291-.622.457-.955.457-.581-.042-1.204-.623-1.952-1.661-.664-.914-.996-1.745-.996-2.118,0-.249.207-.416.456-.457,1.745-.166,2.492-.415,3.614-.872.789-.333,1.702-.748,2.699-1.205l-.124-8.265c-1.288.249-2.617.498-3.946.789-.498,0-.831-.166-1.454-1.039-.622-.872-.789-1.121-.789-1.412,0-.249.167-.332.582-.373,1.993-.208,3.821-.54,5.565-.831l-.042-4.61c0-1.454-.249-2.575-.539-3.239-.167-.333-.291-.707-.291-.997,0-.249.208-.416.581-.416.582,0,1.952.333,2.783.665,1.038.415,1.661.914,1.661,1.37,0,.499-.124.831-.291,1.163-.166.374-.332,1.122-.332,2.409l-.041,3.073ZM272.29,24.672c1.122.872,1.495,1.412,1.495,1.952,0,.415-.207.789-.83,1.495-2.534,3.987-6.604,6.688-12.128,8.016-.125.042-.25.042-.333.042-.415,0-.623-.249-.623-.498s.167-.499.54-.665c4.527-1.993,7.809-5.274,9.387-8.515.208-.374.333-.789.374-1.163-.207.291-.498.457-.872.457-.831,0-1.578-.747-1.869-2.159,0-.167.042-.374.042-.665,0-.498-.042-1.287-.125-2.616-.125-2.16-.374-3.614-.789-4.693-.083-.208-.125-.416-.125-.54,0-.291.166-.416.416-.416.373,0,1.329.291,2.325.748,3.821-.498,7.186-.831,9.844-.997.748-.041,1.163-.207,1.911-.664.872.29,1.619.747,2.326,1.287.872.665,1.329,1.205,1.329,1.661,0,.416-.208.748-.457,1.08-.333.457-.499.872-.582,1.205-.374,1.91-.83,3.987-1.163,4.983-.332,1.039-.789,1.495-1.453,1.495s-1.122-.415-1.412-1.287c-.291,0-.582,0-1.952.083.332.166.664.374,1.038.623.332.208.54.457.54.706,0,.291-.083.54-.208.872-.166.416-.207,1.246-.249,2.326l-.083,2.741c0,1.329.332,1.661,2.866,1.661,2.948,0,3.779-.29,4.402-1.121.332-.457.623-1.578.623-3.156,0-.416.125-.623.457-.623.415,0,1.08.623,2.326,2.865.415.748.747,1.662.747,2.284s-.457,1.288-1.453,1.786c-1.288.582-2.991.956-7.269.956-4.901,0-5.939-1.579-5.939-4.278,0-.955.041-2.617.041-3.946,0-1.37-.041-2.492-.457-3.571l-2.658.249ZM270.214,19.189c2.907-.374,5.274-.623,7.186-.748.373-.041.747-.083,1.287-.332.332.083.872.249,1.454.457l.166-1.911c-3.447.125-6.562.374-10.176.914l.083,1.62ZM270.38,22.72c3.073-.332,6.188-.54,9.262-.706l.291-1.869c-3.239.208-6.438.457-9.636.872l.083,1.703ZM277.149,10.26c.333-1.039.665-2.16.748-3.281-2.616.207-3.987.332-5.358.456.374.291.499.665.54,1.039.042.373.125,1.246.166,2.118,1.911-.166,2.908-.249,3.904-.332Z"/><path class="cls-1" d="M303.903,33.477c0,1.828-.582,2.783-1.703,2.783-1.205,0-2.243-2.118-2.243-3.862.332-1.205.499-1.994.54-3.364.125-3.24.249-6.313.332-9.678-2.118,2.658-4.111,4.444-6.729,6.23-.415.29-.872.415-1.287.415s-.582-.291-.582-.582c0-.207.291-.456.582-.789,2.035-2.159,4.61-4.817,7.103-9.677-1.828.332-3.614.664-5.15.955-.333,0-.789-.125-1.412-.872-.706-.831-.956-1.163-.956-1.495,0-.25.167-.333.582-.374,2.741-.291,5.524-.706,7.85-1.08v-2.16c0-1.121-.041-1.91-.166-2.575-1.91.582-3.779.997-5.233,1.246-.457,0-.789-.083-.789-.498,0-.374.208-.415.789-.665,2.824-1.287,5.233-2.699,7.228-4.277.581-.457.913-.914.996-1.371.083-.54.125-.914.706-.914.665,0,1.786.831,2.285,1.329.581.54,1.079,1.163,1.079,1.662,0,.457-.207.747-.581.955-1.08.581-2.367,1.163-3.738,1.661.748.457,1.163.914,1.163,1.661,0,.333-.083.665-.208,1.163-.083.291-.124,1.122-.166,2.243,1.163-.208,1.703-.415,2.16-.748,1.703.499,2.492,1.288,2.492,2.035,0,.54-.499.914-1.661,1.039-.914.083-1.952.249-3.074.415l-.041,1.952c2.118.042,5.233,1.371,5.233,3.239,0,1.08-.789,1.537-1.329,1.537-.582,0-1.08-.208-1.412-.54-1.039-1.121-1.786-1.952-2.492-2.575l-.166,15.575ZM323.715,19.771c1.827-.374,2.16-.457,3.198-1.038,1.412.208,3.696.955,3.696,2.533,0,.914-.374.914-1.786,1.08-2.076.166-4.028.332-5.939.582l-.041,8.764c0,3.904-.706,5.606-1.952,5.606-.955,0-1.661-2.035-1.661-5.606,0-2.783.041-5.566.041-8.308-3.322.457-6.562,1.039-10.134,1.745-.374,0-.582,0-.831-.249-.457-.416-1.246-1.288-1.578-1.869-.083-.125-.083-.208-.083-.291,0-.208.166-.374.54-.415,4.194-.623,8.099-1.246,12.128-1.869.041-4.818.041-9.637.083-14.496,0-2.284-.166-3.987-.499-4.859-.041-.166-.083-.332-.083-.457,0-.332.208-.581.748-.581.955.083,2.284.54,3.156.955s1.08.872,1.08,1.329c0,.249-.083.457-.332,1.038-.291.623-.499,1.288-.499,3.323l-.083,13.208.831-.125ZM315.117,17.984c-.748,0-1.537-.29-2.45-1.246-.914-.955-1.786-2.201-2.16-3.031-.083-.166-.125-.333-.125-.416,0-.373.25-.457.665-.457.831,0,2.907.499,4.029,1.205,1.121.664,1.744,1.37,1.744,2.409,0,.872-.582,1.536-1.703,1.536ZM316.488,11.256c-.748,0-1.537-.29-2.451-1.246-.913-.955-1.786-2.201-2.159-3.031-.083-.167-.125-.333-.125-.416,0-.374.249-.457.665-.457.872,0,2.907.499,4.028,1.205,1.121.664,1.744,1.37,1.744,2.409,0,.872-.581,1.536-1.702,1.536Z"/><path class="cls-1" d="M359.398,2.949c.124-.291.166-.581.166-.914,0-.415-.083-.83-.291-1.329,0-.332.208-.623.748-.623.706,0,1.869.582,3.156,1.454.457.291.997.831.997,1.287,0,.416-.208.873-.623,1.205-1.537,1.744-2.824,2.949-4.485,4.111,1.536-.124,3.031-.207,4.526-.29,1.537-.083,2.243-.208,3.074-.499.623.208,1.578.789,2.782,1.828,1.163.996,1.745,1.952,1.745,2.575,0,.581-.457,1.038-1.62,1.37-1.952.54-4.236.997-5.108.997-.25,0-.457-.125-.457-.332,0-.249.083-.374.207-.582.706-1.038.997-1.619,1.496-2.575-7.851.125-16.614.789-25.378,1.828-.166,3.613-1.371,5.482-2.783,5.482-1.163,0-1.827-1.205-1.827-2.367,0-.79.166-1.08.706-1.869.872-1.246,1.329-3.24,1.329-4.984,0-.623.083-.789.457-.789s1.204.789,1.703,1.869c5.523-.582,11.048-1.08,16.572-1.495,1.287-1.869,2.159-3.448,2.907-5.358ZM355.369,21.432c3.074-.249,5.607-.415,7.435-.456,1.122-.042,2.118-.291,2.783-.582,2.616.665,4.319,2.035,4.319,3.198,0,.706-.457.997-1.62.997-2.907-.332-5.482-.415-7.975-.415-1.079,0-2.408.041-3.945.124.208.831.291,1.744.291,2.7,0,4.651-.914,7.476-3.447,9.345-.416.332-.873.457-1.288.457-.457,0-.664-.083-1.038-.457-1.329-1.412-2.326-2.575-3.281-3.987-.208-.291-.374-.581-.374-.83,0-.208.166-.333.291-.333.166,0,.581.042,1.038.166,1.08.291,2.534.582,3.281.582.208,0,.332-.125.457-.374.457-1.038.789-2.699.789-5.191,0-.665-.041-1.288-.083-1.869-4.361.332-9.553.872-14.495,1.619-.706,0-.997-.166-1.329-.539-1.288-1.454-1.371-1.786-1.371-2.119,0-.249.249-.332,1.08-.415,5.482-.54,10.882-1.038,15.534-1.412-.333-.872-.79-1.578-1.371-2.243-.457-.498-.706-.789-.706-1.079,0-.208.166-.374.498-.374.706,0,1.537.332,2.285.83,1.204-.996,2.284-1.952,3.405-3.281-2.824.25-6.354.623-9.844,1.246-.498,0-.955-.373-1.495-.913-.706-.748-.831-1.039-.831-1.371,0-.207.167-.291.623-.332,5.607-.457,7.934-.706,10.467-.955,2.118-.208,2.824-.582,3.281-.872.997.332,1.828.83,2.783,1.785.54.54.789.956.789,1.412,0,.416-.332.707-.997.873-.457.124-.83.332-1.578.747-1.91,1.038-3.364,1.911-5.316,2.741.374.457.789,1.205.955,1.578ZM341.04,2.575c-.083-.249-.125-.415-.125-.581,0-.332.208-.499.457-.499.083,0,.208,0,.332.042,2.202.789,4.984,2.99,4.984,5.191,0,1.246-.706,1.828-1.661,1.828-.665,0-1.287-.499-1.91-1.578-.748-1.205-1.496-2.783-2.077-4.403ZM354.248,5.192c0,1.287-.498,2.118-1.661,2.118-.789,0-1.454-.623-1.994-1.828-1.038-2.242-1.453-4.277-1.453-4.9,0-.249.166-.54.539-.54.208,0,.416.083.707.249,2.076,1.246,3.862,3.156,3.862,4.901Z"/><path class="cls-1" d="M381.463,11.759c-.189-.798-.418-1.482-.95-2.128-.113-.152-.304-.418-.304-.607,0-.456.532-.608,1.026-.608.607,0,2.355.494,3.153.836.874.38,1.025.646,1.025,1.025,0,.494-.189,1.103-.189,1.482,0,.304.038,1.063.189,2.014.229,1.443.646,3.762,1.406,5.509,1.976-1.025,4.104-2.165,6.421-3.457.988-.57,1.368-.95,1.52-1.596.152-.646.342-1.026.608-1.026.38,0,.684.076,1.063.342,1.444.988,2.432,2.432,2.432,3.306,0,.57-.342.836-1.481,1.178-6.649,2.622-10.98,4.521-13.716,6.346-2.318,1.558-4.18,3.457-4.18,5.433,0,2.204,1.786,3.382,7.181,3.382,3.268,0,5.775-.229,7.827-.608.76-.38,1.33-.531,1.748-.531,1.899,0,3.305,1.405,3.305,2.47,0,.873-.531,1.291-1.634,1.481-1.938.342-5.585.494-9.688.494-6.725,0-11.246-1.748-11.246-6.497,0-3.268,1.71-5.737,7.144-9.195-.912-2.165-1.634-4.635-2.66-9.042Z"/><path class="cls-1" d="M5.773,54.687c-.374,0-.706-.207-1.371-1.163-.623-.789-.664-1.08-.664-1.329,0-.124.083-.249.456-.29,9.429-.623,16.78-1.08,22.886-1.496.955-.083,2.077-.166,3.323-.789,2.699.499,4.111,1.537,4.111,2.492s-.29,1.122-2.45,1.163c-7.892.125-14.745.499-22.844,1.121.913.831,1.038,1.122,1.038,2.119,0,.207-.083.789-.208,1.37-1.37,7.352-3.862,14.786-8.847,19.313-.249.249-.54.374-.747.374-.25,0-.457-.208-.457-.498,0-.208.083-.457.249-.707,3.447-5.066,4.984-11.505,5.856-16.904.208-1.204.291-1.869.291-2.367,0-1.038-.042-1.62-.333-2.45l-.29.041ZM25.004,73.336c1.163-.166,1.952-.416,2.741-.831,2.409.125,3.654,1.163,3.654,2.118,0,.706-.664,1.038-1.785,1.08-2.077.083-4.486.291-6.937.623l-.083,4.07,6.646-.208c1.163-.041,1.786-.083,2.907-.456,2.741.706,3.613,1.619,3.613,2.616,0,.789-.581.955-1.453.955-2.492-.207-4.86-.29-7.311-.29-5.191,0-11.007.29-18.898,1.162-.581,0-.955-.207-1.619-.996-.872-.997-.914-1.205-.914-1.412,0-.25.166-.333.706-.374,2.035-.166,3.987-.291,5.773-.416l-.208-2.367c-.207-2.326-.581-3.239-.872-3.904-.125-.332-.291-.623-.291-.872s.166-.54.54-.54c.457,0,1.412.125,2.492.499,1.288.456,1.578.955,1.578,1.37,0,.249-.083.623-.166.914-.041.207-.083.457-.083.913,0,.333.042.748.042,1.246l.083,2.534c1.412-.042,2.782-.125,4.194-.208l-.083-5.98c-.041-2.326-.207-3.323-.457-3.987-.124-.333-.249-.706-.249-.997,0-.249.208-.498.582-.498.498,0,1.495.29,2.575.747,1.246.54,1.619,1.08,1.619,1.495s-.124.789-.249,1.08c-.124.249-.207.54-.291,1.246l2.202-.332ZM14.62,64.199c-1.703,2.035-3.572,3.779-5.69,5.108-.166.083-.291.125-.415.125-.291,0-.499-.208-.499-.457,0-.208.125-.415.333-.623,1.827-1.786,3.779-4.485,5.149-7.103l-1.536.166c-.499,0-.665-.083-.955-.374-.748-.913-1.08-1.37-1.08-1.578s.124-.29.664-.332c1.371-.125,2.617-.208,4.029-.291v-.623c0-1.163-.125-1.952-.332-2.575-.083-.29-.167-.415-.167-.581s.167-.291.499-.291c.415,0,1.495.208,2.824.914.374.208.498.415.498.623,0,.291-.083.54-.332.955-.208.374-.249.748-.291,1.329.623-.083,1.08-.166,1.662-.498,1.412.374,2.367,1.121,2.367,1.91,0,.54-.374.623-1.661.748l-2.368.166v.706c.873.083,1.911.374,2.658.789.623.374,1.039.831,1.039,1.537s-.499,1.246-1.288,1.246c-.249,0-.747-.208-1.121-.665-.415-.498-.831-.955-1.288-1.454v6.438c0,1.62-.54,2.159-1.204,2.159-.914,0-1.62-.955-1.869-2.533.249-.914.332-1.62.374-3.53v-1.412ZM25.627,63.576c-1.786,1.869-3.946,3.322-6.313,4.402-.125.042-.249.083-.374.083-.332,0-.54-.207-.54-.498,0-.166.083-.374.332-.582,1.994-1.536,4.361-4.194,5.856-6.521l-1.287.125c-.457,0-.665-.083-.955-.374-.789-.914-1.122-1.329-1.122-1.537s.125-.332.706-.374c1.205-.083,2.451-.207,3.697-.332v-.415c0-1.163-.083-1.952-.333-2.575-.124-.291-.166-.415-.166-.582,0-.166.166-.29.499-.29.415,0,1.536.249,2.865.955.374.208.499.415.499.623,0,.291-.083.54-.333.955-.166.332-.249.623-.29,1.08l1.495-.166c.913-.125,1.536-.332,2.201-.582,1.703.416,2.45,1.08,2.45,1.828,0,.706-.373.955-1.702.997-1.122.041-2.451.124-3.78.249,2.16,1.827,3.904,3.156,6.188,4.568.333.208.831.457,1.454.789.415.208.831.416,1.329.706.54.291.747.499.747.789,0,.25-.373.416-.913.54-1.163.249-2.326.333-3.115.333-.831,0-1.246-.042-1.994-.873-1.661-1.827-2.99-3.239-4.36-4.859v6.978c0,1.62-.499,2.16-1.288,2.16-.872,0-1.62-1.121-1.827-2.533.249-.914.374-1.62.374-3.406v-1.661Z"/><path class="cls-1" d="M67.747,63.534c.664.416,1.038.956,1.038,1.412,0,.665-.789.873-2.284.914-2.824.042-5.607.166-8.39.291-.333,2.409-.873,4.776-1.869,6.978,3.613,2.45,6.604,4.278,9.138,5.607,1.619.872,3.281,1.495,4.734,1.993,1.994.665,2.783.955,4.361,1.745.374.207.498.456.498.623,0,.415-.373.664-.955.789-1.703.415-4.485.706-6.147.706-.913,0-1.245-.083-1.827-.54-2.99-2.284-6.646-5.026-11.131-8.557-.665,1.039-1.454,1.994-2.409,2.908-2.409,2.284-6.105,4.61-11.713,5.648-.457,0-.664-.291-.664-.582,0-.207.124-.415.332-.498,3.447-1.454,7.601-3.946,9.844-6.562.789-.914,1.412-1.91,1.993-2.99-2.076-1.62-2.824-2.201-3.613-2.658-.498-.291-1.121-.499-1.454-.623-.415-.166-.581-.415-.581-.789,0-.166.291-.291.664-.374.582-.125,1.288-.208,2.036-.208.789,0,1.287.249,1.951.872.665.499,1.329.956,1.994,1.412.498-1.495.872-3.073,1.121-4.651-1.412.083-3.405.208-5.108.415-.125.997-.706,1.288-1.412,1.288-.831,0-1.703-.623-2.118-2.368,0-.706,0-1.121-.415-4.028-.416-3.032-.707-3.862-1.205-4.735-.249-.415-.291-.747-.291-.913,0-.249.333-.457.789-.457.623,0,1.745.415,2.908,1.163,2.45-.291,4.942-.499,7.435-.706v-3.614c0-1.536-.208-2.325-.499-2.948-.207-.499-.29-.789-.29-.997,0-.249.207-.457.581-.457.914,0,2.118.374,2.949.748,1.287.581,1.869,1.121,1.869,1.703,0,.373-.125.664-.333.996-.207.333-.373,1.205-.415,2.118-.041.665-.041,1.371-.083,2.16,1.911-.166,3.779-.291,5.524-.374.747-.041,1.37-.249,2.159-.789.997.166,1.662.54,2.617,1.288.955.747,1.37,1.329,1.37,1.827,0,.415-.166.664-.498.997-.374.374-.623.623-1.038,1.702l-1.163,3.115ZM49.14,64.24c1.869-.166,3.738-.29,5.607-.415.166-1.537.249-3.53.249-5.274-2.077.166-4.195.373-6.271.623l.415,5.066ZM64.424,63.202c.333-1.703.623-3.53.873-5.316-2.285.125-4.486.249-6.604.374-.083,1.993-.125,3.405-.291,5.316l6.022-.374Z"/><path class="cls-1" d="M101.478,51.157c.125-.291.166-.581.166-.914,0-.415-.083-.83-.29-1.329,0-.332.207-.623.747-.623.706,0,1.869.582,3.157,1.454.456.291.996.831.996,1.287,0,.416-.207.873-.623,1.205-1.536,1.744-2.824,2.949-4.485,4.111,1.537-.124,3.032-.207,4.527-.29,1.537-.083,2.243-.208,3.073-.499.623.208,1.578.789,2.783,1.828,1.163.996,1.744,1.952,1.744,2.575,0,.581-.457,1.038-1.62,1.37-1.952.54-4.236.997-5.108.997-.249,0-.457-.125-.457-.332,0-.249.083-.374.208-.582.706-1.038.997-1.619,1.495-2.575-7.85.125-16.613.789-25.378,1.828-.166,3.613-1.37,5.482-2.782,5.482-1.163,0-1.828-1.205-1.828-2.367,0-.79.167-1.08.707-1.869.872-1.246,1.329-3.24,1.329-4.984,0-.623.083-.789.456-.789s1.205.789,1.703,1.869c5.524-.582,11.048-1.08,16.572-1.495,1.288-1.869,2.16-3.448,2.907-5.358ZM97.449,69.639c3.073-.249,5.606-.415,7.435-.456,1.121-.042,2.118-.291,2.782-.582,2.617.665,4.32,2.035,4.32,3.198,0,.706-.457.997-1.62.997-2.907-.332-5.482-.415-7.975-.415-1.08,0-2.409.041-3.945.124.207.831.29,1.744.29,2.7,0,4.651-.913,7.476-3.447,9.345-.415.332-.872.457-1.287.457-.457,0-.665-.083-1.039-.457-1.329-1.412-2.325-2.575-3.281-3.987-.207-.291-.373-.581-.373-.83,0-.208.166-.333.29-.333.166,0,.582.042,1.039.166,1.079.291,2.533.582,3.281.582.207,0,.332-.125.456-.374.457-1.038.79-2.699.79-5.191,0-.665-.042-1.288-.084-1.869-4.36.332-9.553.872-14.495,1.619-.706,0-.997-.166-1.329-.539-1.287-1.454-1.37-1.786-1.37-2.119,0-.249.249-.332,1.079-.415,5.482-.54,10.883-1.038,15.534-1.412-.332-.872-.789-1.578-1.37-2.243-.457-.498-.707-.789-.707-1.079,0-.208.167-.374.499-.374.706,0,1.537.332,2.284.83,1.204-.996,2.284-1.952,3.406-3.281-2.824.25-6.355.623-9.844,1.246-.499,0-.955-.373-1.495-.913-.706-.748-.831-1.039-.831-1.371,0-.207.166-.291.623-.332,5.607-.457,7.933-.706,10.467-.955,2.118-.208,2.824-.582,3.281-.872.997.332,1.827.83,2.782,1.785.54.54.789.956.789,1.412,0,.416-.332.707-.996.873-.457.124-.831.332-1.578.747-1.911,1.038-3.364,1.911-5.316,2.741.373.457.789,1.205.955,1.578ZM83.119,50.783c-.083-.249-.124-.415-.124-.581,0-.332.208-.499.457-.499.083,0,.207,0,.332.042,2.201.789,4.984,2.99,4.984,5.191,0,1.246-.706,1.828-1.662,1.828-.664,0-1.287-.499-1.91-1.578-.748-1.205-1.495-2.783-2.077-4.403ZM96.327,53.4c0,1.287-.498,2.118-1.661,2.118-.789,0-1.453-.623-1.993-1.828-1.039-2.242-1.454-4.277-1.454-4.9,0-.249.166-.54.54-.54.208,0,.415.083.706.249,2.077,1.246,3.862,3.156,3.862,4.901Z"/><path class="cls-1" d="M127.938,66.566c0,2.035-1.495,3.53-3.53,3.53s-3.53-1.495-3.53-3.53,1.495-3.53,3.53-3.53,3.53,1.495,3.53,3.53Z"/><path class="cls-1" d="M163.496,58.757c1.246-.083,1.993-.332,2.907-.789,2.907.54,4.319,1.661,4.319,2.7,0,.706-.54,1.038-1.246,1.038-4.61,0-8.972.166-13.208.457-1.163.997-2.409,1.993-3.655,2.949.083.207.083.373.083.622,0,.416,0,.831-.083,1.33,2.451-.873,4.278-1.745,5.15-2.368.416-.29.623-.498.665-.789l.041-.332c.042-.332.166-.499.623-.499.291,0,.831.208,1.703.665,1.246.748,1.703,1.329,1.703,1.952,0,.54-.457.997-1.288,1.287-.872.291-1.785.582-3.073.914-2.575.665-4.402.997-5.814,1.121-.125.582-.25,1.246-.416,2.077,2.991-.415,5.358-.664,7.145-.831.457-.041,1.08-.249,1.495-.456.789.166,1.703.539,3.032,1.952.83.913.913,1.329.913,1.827,0,.457-.166.789-.664,1.163-.374.291-.54.54-.706.913l-.499,1.246c-1.246,3.24-3.405,6.396-5.648,8.183-.54.415-.914.582-1.329.582-.581,0-.997-.25-1.744-1.163-.706-.831-1.495-1.911-2.16-2.908-.332-.539-.457-.913-.457-1.121s.167-.332.291-.332c.54,0,.914.083,1.454.332.913.374,1.869.582,2.409.582.249,0,.539-.291.955-.831,1.744-2.284,2.865-4.444,3.613-7.518-3.364.374-5.524.747-7.352,1.204-.498.125-1.038.374-1.371.582-.332.207-.664.332-.955.332-1.038,0-2.243-1.703-2.243-2.824.291-.457.374-.623.54-1.122.25-.747.54-2.159.665-3.405-4.112,2.741-8.557,4.984-13.25,6.479-.581.207-.913.207-1.162.207-.333,0-.582-.373-.582-.623s.249-.456.748-.706c5.15-2.658,10.757-6.271,15.699-10.217-3.696.415-7.435.913-11.339,1.536-.415,0-.913-.207-1.245-.54-1.246-1.37-1.413-1.619-1.413-2.076,0-.208.167-.249.748-.332,4.278-.499,8.556-.956,12.876-1.329l-.042-3.24c-1.62.208-3.364.415-5.191.665-.582,0-.955-.208-1.828-1.246-.498-.706-.664-.997-.664-1.412,0-.25.166-.374.581-.416,2.326-.083,4.693-.249,7.062-.456v-1.662c0-1.495-.208-2.45-.499-3.073-.166-.332-.29-.706-.29-.997,0-.249.207-.374.581-.374.748,0,2.533.499,3.696,1.122.789.457,1.08.83,1.08,1.163,0,.415-.166.872-.332,1.246-.208.456-.415,1.37-.457,2.159l.457-.041c1.08-.125,1.62-.291,2.159-.623,1.662.332,2.534,1.038,2.783,1.661.54-.623,1.038-1.246,1.495-1.869.332-.457.665-1.121.789-1.454.042-.124.083-.29.083-.498,0-.166-.041-.374-.083-.54,0-.291.125-.54.416-.54,1.619,0,3.779,1.994,3.779,2.949,0,.415-.249.789-.955,1.246-.333.249-.623.498-1.205,1.163-1.329,1.453-2.699,2.865-4.111,4.236l3.821-.291ZM154.441,59.505c1.287-1.122,2.492-2.367,3.655-3.572-1.537.083-2.825.208-4.154.332l-.083,3.281.582-.041Z"/><path class="cls-1" d="M202.377,81.518c-4.485,0-9.47.291-14.412.789-.166.873-.789,1.496-1.454,1.496-1.246,0-2.035-1.08-2.45-2.991,0-1.744-.125-2.824-.499-6.063-.332-3.032-.872-4.361-1.287-5.192-.166-.29-.291-.664-.291-.955s.208-.415.582-.415c.706,0,1.993.415,3.281,1.08,3.281-.333,4.9-.499,6.562-.665l-.042-7.186c-4.236.416-8.972.997-13.54,1.703-.499,0-.706,0-1.371-.789-1.163-1.412-1.329-1.827-1.329-2.16,0-.249.333-.332.748-.373,5.648-.623,10.716-1.122,15.492-1.537v-2.658c0-3.198-.208-4.444-.665-5.399-.166-.332-.207-.582-.207-.789,0-.416.374-.54.997-.54.872,0,3.073.789,4.153,1.453.373.25.623.54.623.956,0,.332-.166.747-.291.996-.374.748-.581,1.786-.623,3.738l-.042,1.911c2.658-.208,5.192-.416,7.685-.582.955-.083,2.741-.374,3.821-.872,3.198.748,4.61,1.952,4.61,3.115,0,.706-.499,1.246-1.745,1.246-1.412-.083-2.865-.166-4.734-.166-1.371,0-2.907.041-4.859.124-1.413.083-3.032.166-4.818.291l-.083,7.186c1.453-.125,2.824-.208,4.153-.332,1.038-.083,1.91-.291,2.7-.748,1.038.208,2.035.789,2.824,1.371.913.706,1.536,1.412,1.536,1.91,0,.457-.207.748-.581,1.204-.332.416-.623,1.08-.831,1.828-.498,1.744-.997,3.572-1.578,5.399.665.498,1.08,1.038,1.08,1.537,0,.747-.582,1.079-1.952,1.079h-1.163ZM187.757,79.4c4.361-.374,8.723-.664,13.125-.913.498-2.617.955-5.524,1.163-7.602-4.901.166-9.595.54-15.036,1.205l.748,7.31Z"/><path class="cls-1" d="M241.881,51.157c.125-.291.166-.581.166-.914,0-.415-.083-.83-.29-1.329,0-.332.207-.623.747-.623.706,0,1.869.582,3.157,1.454.456.291.996.831.996,1.287,0,.416-.207.873-.623,1.205-1.536,1.744-2.824,2.949-4.485,4.111,1.537-.124,3.032-.207,4.527-.29,1.537-.083,2.243-.208,3.073-.499.623.208,1.578.789,2.783,1.828,1.163.996,1.744,1.952,1.744,2.575,0,.581-.457,1.038-1.62,1.37-1.952.54-4.236.997-5.108.997-.249,0-.457-.125-.457-.332,0-.249.083-.374.208-.582.706-1.038.997-1.619,1.495-2.575-7.85.125-16.613.789-25.378,1.828-.166,3.613-1.37,5.482-2.782,5.482-1.163,0-1.828-1.205-1.828-2.367,0-.79.167-1.08.707-1.869.872-1.246,1.329-3.24,1.329-4.984,0-.623.083-.789.456-.789s1.205.789,1.703,1.869c5.524-.582,11.048-1.08,16.572-1.495,1.288-1.869,2.16-3.448,2.907-5.358ZM237.853,69.639c3.073-.249,5.606-.415,7.435-.456,1.121-.042,2.118-.291,2.782-.582,2.617.665,4.32,2.035,4.32,3.198,0,.706-.457.997-1.62.997-2.907-.332-5.482-.415-7.975-.415-1.08,0-2.409.041-3.945.124.207.831.29,1.744.29,2.7,0,4.651-.913,7.476-3.447,9.345-.415.332-.872.457-1.287.457-.457,0-.665-.083-1.039-.457-1.329-1.412-2.325-2.575-3.281-3.987-.207-.291-.373-.581-.373-.83,0-.208.166-.333.29-.333.166,0,.582.042,1.039.166,1.079.291,2.533.582,3.281.582.207,0,.332-.125.456-.374.457-1.038.79-2.699.79-5.191,0-.665-.042-1.288-.084-1.869-4.36.332-9.553.872-14.495,1.619-.706,0-.997-.166-1.329-.539-1.287-1.454-1.37-1.786-1.37-2.119,0-.249.249-.332,1.079-.415,5.482-.54,10.883-1.038,15.534-1.412-.332-.872-.789-1.578-1.37-2.243-.457-.498-.707-.789-.707-1.079,0-.208.167-.374.499-.374.706,0,1.537.332,2.284.83,1.204-.996,2.284-1.952,3.406-3.281-2.824.25-6.355.623-9.844,1.246-.499,0-.955-.373-1.495-.913-.706-.748-.831-1.039-.831-1.371,0-.207.166-.291.623-.332,5.607-.457,7.933-.706,10.467-.955,2.118-.208,2.824-.582,3.281-.872.997.332,1.827.83,2.782,1.785.54.54.789.956.789,1.412,0,.416-.332.707-.996.873-.457.124-.831.332-1.578.747-1.911,1.038-3.364,1.911-5.316,2.741.373.457.789,1.205.955,1.578ZM223.522,50.783c-.083-.249-.124-.415-.124-.581,0-.332.208-.499.457-.499.083,0,.207,0,.332.042,2.201.789,4.984,2.99,4.984,5.191,0,1.246-.706,1.828-1.662,1.828-.664,0-1.287-.499-1.91-1.578-.748-1.205-1.495-2.783-2.077-4.403ZM236.73,53.4c0,1.287-.498,2.118-1.661,2.118-.789,0-1.453-.623-1.993-1.828-1.039-2.242-1.454-4.277-1.454-4.9,0-.249.166-.54.54-.54.208,0,.415.083.706.249,2.077,1.246,3.862,3.156,3.862,4.901Z"/><path class="cls-1" d="M273.347,73.3c-4.552,1.887-6.217,3.552-6.217,5.254,0,1.554,1.517,2.553,5.069,2.553,2.923,0,4.292-.147,5.957-.406.593-.111,1.222-.333,1.888-.556,2.553.111,3.626.999,3.626,1.961,0,.777-.592,1.333-1.554,1.518-1.332.259-4.515.444-7.808.444-5.847,0-9.51-1.332-9.51-5.181,0-3.589,3.256-5.884,8.399-8.215-.148-1.591-.518-2.812-2.109-2.812-1.702,0-3.663.666-5.402,1.924-1.073.777-1.812,1.48-2.627,2.405-.444.48-.814.703-1.295.703-.814,0-1.222-.999-1.222-2.184,0-.74.111-1.146.889-1.591.813-.481,1.479-.999,2.442-1.888.888-.851,1.998-2.108,3.589-4.292-1.702.222-3.33.37-4.811.444-.48,0-1.036-.333-1.739-1.222-.333-.406-.48-.702-.48-.962,0-.222.147-.296.592-.296,2.85-.037,5.402-.185,7.955-.518,1.147-2.072,1.406-2.924,1.406-3.774,0-.259-.073-.592-.222-.999-.074-.186-.185-.407-.185-.556,0-.259.147-.406.739-.406,1.629,0,3.997,1.036,3.997,1.961,0,.48-.186.666-.593,1.073-.48.518-.888,1.073-1.702,2.294,1.555-.259,2.442-.444,3.516-.703.666-.148,1.073-.333,1.702-.74,2.294.074,3.367.814,3.367,1.702,0,.74-.259.925-1.185,1.11-2.441.48-5.291.888-8.954,1.369-1.11,1.406-2.072,2.516-3.293,3.996,1.442-.444,2.96-.592,4.144-.592,2.628,0,3.737,1.369,4.403,3.404,2.664-1.036,4.403-1.776,6.217-2.738.444-.223.703-.703.703-1.222,0-.48.074-.666.48-.666.333,0,.889.223,1.702.889,1.259.999,1.851,1.812,1.851,2.59,0,.629-.296.888-1.702,1.11-3.146.776-5.254,1.479-8.807,2.775.037,1.332.037,2.812.037,4.144-.037,1.296-.555,1.962-1.665,1.962-.999,0-1.665-.666-1.665-2.184.037-.518.074-1.185.074-1.851v-1.035Z"/><path class="cls-1" d="M302.765,68.02c.955.623,1.163.996,1.163,1.246,0,.415-.208.789-.581,1.246-.914,1.121-2.077,2.242-3.489,3.031-.208.125-.498.208-.706.208-.125,0-.249-.042-.332-.083l.041,6.854c0,1.827-.457,2.533-1.37,2.533-.997,0-1.703-.914-1.911-2.824.166-1.952.249-4.112.249-6.688,0-3.571-.207-4.734-.706-6.063-.124-.332-.29-.748-.29-1.038,0-.167.166-.416.664-.416.332,0,.831.166,1.412.416,5.15-.623,8.515-.997,11.547-1.288,1.786-.166,2.367-.415,2.907-.706.955.291,1.786.914,2.492,1.537.665.581.914,1.08.914,1.495,0,.332-.125.623-.374.913-.332.416-.498.956-.498,2.202,0,2.45-.167,7.559-.291,9.636-.582,3.281-1.495,4.319-2.575,4.319-.457,0-1.121-.332-2.866-2.201-1.329-1.495-1.536-1.952-1.536-2.243,0-.249.207-.415.415-.415,1.038.125,2.492.291,3.322.291.167-2.284.25-5.233.291-8.058-.581.166-.955.207-2.492.207-2.616,0-3.073-.664-3.073-2.325v-2.035l-2.326.249ZM310.781,53.441c-3.655.208-8.598.665-12.419,1.163-.499-.041-.748-.124-1.371-.914-.664-.872-.789-1.079-.789-1.37,0-.249.166-.332.665-.374,4.07-.208,7.892-.623,10.757-1.038.499-.083,1.08-.291,1.495-.54,1.869.291,3.24,1.121,3.24,1.993,0,.79-.623,1.039-1.578,1.08ZM310.158,61.416c.54.333.747.665.747,1.039,0,.622-.581.747-1.661.789-2.824.124-5.233.373-8.141.747-.083.623-.415,1.038-1.038,1.038-.831,0-1.745-.706-1.869-2.035,0-.789-.042-.996-.166-2.45-.167-1.744-.333-2.45-.748-3.405-.125-.333-.208-.54-.208-.79,0-.207.25-.373.54-.373.499,0,1.371.207,2.285.706,3.114-.416,5.316-.665,6.812-.831.747-.083,1.204-.249,1.702-.581.623.083,1.371.332,2.243.913.706.457,1.121.997,1.121,1.454,0,.415-.207.706-.581,1.121-.249.249-.415.582-.498.872l-.54,1.786ZM298.819,68.518v4.402c.041-.083.083-.124.166-.207.997-1.205,1.661-2.368,1.952-3.447.041-.166.083-.333.083-.457,0-.249-.083-.416-.125-.582l-2.076.291ZM305.963,80.023c0,1.454-.664,1.994-1.412,1.994-.831,0-1.537-1.371-1.661-2.409.249-.831.332-1.412.332-2.533v-1.371c-.581.042-1.163.125-1.744.208-.374,0-.665-.208-.956-.582-.456-.54-.747-.997-.747-1.204,0-.249.166-.291.457-.291,1.952-.166,3.945-.374,5.482-.581.872-.125,1.163-.208,1.744-.54,1.745.498,2.243,1.038,2.243,1.661,0,.54-.291.748-1.246.831-.831.041-1.661.124-2.45.207l-.042,4.61ZM301.021,61.707c1.952-.249,4.07-.457,6.188-.665l.498-2.907c-2.035.125-4.319.333-6.853.706l.166,2.866ZM310.739,67.272c-1.163.083-2.284.208-3.364.291.291.291.415.54.415.706,0,.208-.083.415-.207.623v.747c0,.25.124.374.664.374.416,0,.706-.083,1.205-.374.498.084.913.291,1.246.499l.041-2.866ZM323.656,75.579c1.122-.332,2.243-.706,3.323-1.079-.332-.914-.706-1.869-.955-2.617-.083-.208-.125-.374-.125-.54,0-.374.166-.581.498-.581.167,0,.416.083.665.249,1.37.914,3.073,2.824,4.028,4.236.707,1.08,1.08,2.284,1.08,2.907,0,1.246-.789,1.994-1.578,1.994-.914,0-1.537-.582-2.326-2.409-.124-.332-.373-.914-.664-1.661-2.7,1.453-5.773,2.824-8.598,4.028-.415.208-.748.333-1.038.54-.333.208-.54.291-.873.291-.456,0-1.121-.457-2.242-2.035-.249-.332-.499-.831-.499-1.121,0-.208.25-.416.748-.416.706,0,1.329,0,2.741-.29.955-.208,1.91-.416,2.907-.665v-6.771l-2.326.291c0,.914-.539,1.329-1.37,1.329-.706,0-1.578-.664-1.827-2.284,0-1.703-.042-2.45-.457-5.648-.125-.997-.291-1.495-.623-2.16-.166-.374-.249-.623-.249-.872s.207-.498.539-.498c.665,0,1.496.207,2.825.83,1.121-.166,2.284-.332,3.447-.54v-2.782c0-3.572-.208-4.527-.54-5.275-.083-.207-.125-.374-.125-.54,0-.29.166-.457.582-.457.623,0,2.242.374,3.405,1.122.499.332.665.581.665.913,0,.25-.166.623-.291.956-.291.747-.415,1.91-.457,3.405l-.041,2.201,1.412-.166c1.412-.166,1.952-.457,2.45-.747,1.121.249,2.035.872,2.99,1.786.374.332.499.664.499.955s-.125.54-.333.789c-.332.374-.498.706-.623,1.08-.332,1.038-.872,2.408-1.246,3.488.623.333.956.665.956,1.122,0,.789-.416,1.038-2.16,1.038-.997,0-2.45.125-4.07.291l-.125,6.312ZM320.708,67.314v-4.818c-.914.125-1.828.249-2.741.415l.332,4.735,2.409-.332ZM323.781,66.94c.789-.125,1.578-.208,2.367-.291.333-1.62.54-3.239.789-4.9-.789.041-1.869.166-3.073.332l-.083,4.859Z"/><path class="cls-1" d="M366.774,61.042c1.578,1.205,2.991,1.994,4.527,2.742,1.163.581,2.284,1.204,3.281,1.785.415.25.831.582.831.831,0,.457-.332.581-.872.748-1.703.456-3.406.706-5.399.706-1.246,0-1.745-.333-2.742-1.412-3.613-3.987-7.102-7.809-11.588-12.752-4.485,6.854-9.885,11.879-16.779,15.202-.291.124-.748.208-1.039.208-.249,0-.415-.167-.415-.374,0-.291.083-.54.581-.955,5.649-4.444,9.678-8.64,13.416-14.953.748-1.246,1.163-2.284,1.163-2.948,0-.291-.042-.79-.125-1.246,0-.374.291-.499.706-.499.665,0,1.786.582,3.738,1.911.332.249.54.664.54.955,0,.332-.124.54-.374.831,4.153,3.987,7.726,7.061,10.55,9.22ZM347.378,84.965c-1.246,0-1.952-.789-2.284-2.658.041-.456.125-.913.125-1.578,0-.747-.084-1.786-.25-3.571-.415-3.904-.664-4.32-1.121-5.192-.166-.332-.249-.664-.249-.955,0-.249.249-.415.623-.415.623.041,1.703.373,2.699.872,4.32-.499,7.809-.831,11.962-1.163,1.039-.083,1.911-.249,2.7-.706,1.038.208,2.035.706,2.824,1.287,1.204.914,1.661,1.412,1.661,2.035,0,.457-.207.665-.706,1.08-.207.208-.664,1.08-.872,1.828-.415,1.453-.789,2.658-1.204,3.987,1.038.498,1.578,1.204,1.578,2.035,0,.623-.499.83-2.201.83-5.275,0-9.637.208-13.873.623-.124.997-.664,1.661-1.412,1.661ZM358.634,62.33c2.16.374,3.489,1.329,3.489,2.16,0,.789-.54,1.204-1.952,1.37-3.115.332-7.726.789-11.671,1.288-.291,0-.582-.208-1.08-.831-.956-1.204-1.039-1.454-1.039-1.786,0-.208.208-.249.665-.291,3.53-.29,7.352-.747,10.01-1.204.706-.125,1.08-.332,1.578-.706ZM348.666,80.605c4.028-.374,6.604-.54,11.173-.789l1.038-6.771c-4.236.208-8.058.54-12.502,1.08l.291,6.479Z"/><path class="cls-1" d="M400.049,56.639c2.783-.207,4.195-.332,5.69-.498.498-.083.997-.125,1.619-.457.956.166,1.869.415,2.7.914.789.498,1.204,1.038,1.204,1.744,0,.789-.706,1.08-2.076,1.08-1.62-.125-3.073-.166-4.61-.166-1.578,0-3.115.041-4.652.166l-.166,8.016c.291,1.412.499,2.492.499,4.07,0,7.56-6.438,10.966-13.167,11.547-.83,0-1.329-.125-1.329-.664,0-.416.291-.623,1.039-.873,5.025-1.536,7.725-3.862,9.137-6.77-.456.207-1.038.291-2.159.291-3.655,0-6.313-2.16-6.313-5.939,0-3.115,2.575-6.272,6.064-6.272,1.162,0,2.159.291,2.99.872v-4.07c-5.192.457-10.259,1.122-15.409,1.994-.249,0-.582-.125-.955-.498-1.205-1.122-1.371-1.496-1.371-2.119,0-.207.291-.29.955-.373,6.188-.665,10.426-1.122,16.738-1.745v-1.038c0-2.076-.29-3.281-.872-4.361-.083-.166-.124-.332-.124-.54,0-.332.332-.456.955-.456.83,0,2.492.373,3.488.872.54.249.914.664.914.996s-.166.706-.374.997c-.29.457-.332,1.163-.373,2.16l-.042,1.121ZM393.528,64.739c-1.579,0-3.489,1.661-3.489,4.277,0,1.745,1.495,2.908,3.655,2.908,1.661,0,2.907-.914,2.907-2.741-.291-2.658-1.412-4.444-3.073-4.444Z"/><path class="cls-1" d="M439.801,71.799c0-3.613-2.284-5.939-6.022-5.939-4.734,0-9.262,1.827-15.159,8.141-.873.955-1.288,1.163-1.703,1.163-.54,0-.914-.332-1.329-1.08-.374-.664-.582-1.329-.582-1.993,0-.332.083-.582.582-.872.332-.208.83-.582,1.744-1.412,4.901-4.486,9.387-9.221,14.537-14.994-2.035.374-4.942,1.038-8.224,1.869-.54.249-.914.332-1.288.332-.498,0-.913-.166-1.786-1.163-.913-1.08-1.162-1.495-1.162-2.035,0-.291.166-.374.623-.374.913.083,1.993.083,2.242.083,1.039,0,3.364-.29,6.729-.789,3.032-.457,4.07-.789,4.444-1.08.332-.249.706-.498,1.163-.498.415,0,.914.208,1.91.997.914.747,1.579,1.453,1.579,1.993,0,.623-.333.955-1.579,1.537-3.364,3.032-7.019,6.23-11.131,10.051,2.99-1.412,6.188-2.159,8.307-2.159,6.189,0,10.218,3.156,10.218,8.432,0,7.31-5.607,10.591-13.416,10.591-4.942,0-7.808-1.952-7.808-5.191,0-2.326,2.284-3.987,5.191-3.987,4.112,0,6.895,2.45,8.141,5.025,2.907-1.578,3.779-3.696,3.779-6.646ZM427.383,75.662c-1.496,0-2.534.79-2.534,1.745,0,1.412,1.911,2.616,4.693,2.616,1.122,0,1.994-.041,3.074-.29-1.039-1.911-3.115-4.071-5.233-4.071Z"/></g></svg>