<?xml version="1.0" encoding="UTF-8"?><svg id="_レイヤー_2" xmlns="http://www.w3.org/2000/svg" width="252.689mm" height="25.402mm" viewBox="0 0 716.285 72.007"><defs><style>.cls-1{fill:#231815;}</style></defs><g id="_レイヤー_5"><path class="cls-1" d="M11.907,22.689v.621H0v-.621h.756c.661,0,1.192-.118,1.595-.353.291-.157.515-.426.672-.807.123-.269.185-.974.185-2.116V4.434c0-1.164-.062-1.892-.185-2.184-.123-.291-.372-.546-.747-.764-.375-.219-.882-.327-1.52-.327h-.756v-.622h11.907v.622h-.756c-.661,0-1.192.117-1.595.353-.292.156-.521.426-.688.806-.124.269-.185.975-.185,2.116v14.98c0,1.165.064,1.893.193,2.184.128.291.38.546.756.764.375.219.881.328,1.52.328h.756Z"/><path class="cls-1" d="M20.271,7.607v2.032c.806-.873,1.579-1.509,2.318-1.906.739-.396,1.534-.596,2.385-.596,1.019,0,1.864.283,2.536.848.672.565,1.12,1.269,1.344,2.108.179.638.269,1.864.269,3.678v6.113c0,1.209.109,1.962.328,2.259s.674.484,1.369.562v.604h-7.944v-.604c.593-.078,1.019-.325,1.276-.739.179-.279.269-.974.269-2.082v-6.986c0-1.288-.051-2.1-.151-2.436s-.271-.597-.512-.781-.507-.276-.798-.276c-.963,0-1.858.688-2.687,2.065v8.414c0,1.176.109,1.92.328,2.233s.624.51,1.217.588v.604h-7.943v-.604c.66-.067,1.13-.28,1.411-.639.19-.246.286-.974.286-2.183v-8.868c0-1.187-.109-1.925-.328-2.217-.218-.291-.675-.48-1.369-.57v-.622h6.398Z"/><path class="cls-1" d="M39.215,1.864v5.743h3.729v1.663h-3.729v9.69c0,.907.042,1.492.126,1.755.084.264.232.476.445.638.212.163.408.244.588.244.728,0,1.416-.555,2.065-1.663l.504.37c-.907,2.149-2.379,3.225-4.417,3.225-.997,0-1.839-.277-2.527-.832-.688-.554-1.128-1.173-1.318-1.855-.112-.381-.168-1.411-.168-3.09v-8.481h-2.049v-.588c1.41-.996,2.611-2.043,3.603-3.141.99-1.097,1.855-2.323,2.595-3.678h.554Z"/><path class="cls-1" d="M57.739,14.896h-8.615c.101,2.083.655,3.729,1.663,4.938.772.93,1.701,1.395,2.787,1.395.672,0,1.282-.188,1.831-.563.548-.375,1.136-1.049,1.764-2.023l.57.369c-.851,1.736-1.791,2.965-2.821,3.687-1.03.723-2.223,1.084-3.577,1.084-2.329,0-4.093-.896-5.29-2.688-.963-1.444-1.444-3.235-1.444-5.374,0-2.62.708-4.705,2.124-6.256,1.417-1.551,3.076-2.326,4.979-2.326,1.59,0,2.97.652,4.141,1.956,1.169,1.305,1.799,3.239,1.889,5.803ZM53.608,13.771c0-1.803-.099-3.04-.294-3.712-.196-.672-.502-1.181-.916-1.528-.234-.201-.548-.302-.94-.302-.582,0-1.058.285-1.427.856-.661.996-.991,2.362-.991,4.098v.588h4.568Z"/><path class="cls-1" d="M69.781,7.793h5.29v1.847h-3.006c.548.549.929,1.047,1.142,1.495.269.604.403,1.237.403,1.897,0,1.12-.311,2.091-.933,2.914-.621.823-1.467,1.467-2.535,1.932-1.069.465-2.019.696-2.847.696-.067,0-.739-.027-2.016-.084-.504,0-.927.166-1.268.496-.342.33-.513.725-.513,1.184,0,.403.153.733.462.991.308.258.809.386,1.503.386l2.905-.033c2.352,0,3.969.258,4.854.772,1.266.717,1.898,1.819,1.898,3.309,0,.951-.292,1.816-.874,2.595s-1.349,1.352-2.301,1.722c-1.444.548-3.106.822-4.987.822-1.411,0-2.698-.137-3.863-.411-1.164-.274-1.998-.655-2.502-1.142-.504-.487-.756-1-.756-1.537,0-.516.193-.977.579-1.386.387-.408,1.105-.753,2.158-1.032-1.455-.717-2.184-1.714-2.184-2.99,0-.772.297-1.522.891-2.25.593-.728,1.534-1.36,2.821-1.897-1.5-.549-2.586-1.271-3.258-2.167-.672-.896-1.008-1.932-1.008-3.106,0-1.534.627-2.864,1.881-3.989s2.866-1.688,4.837-1.688c1.041,0,2.116.218,3.225.655ZM65.885,25.628c-1.142,0-1.897.096-2.268.286-.638.347-.957.816-.957,1.41,0,.571.33,1.089.991,1.554.66.465,1.903.697,3.729.697,1.556,0,2.779-.208,3.669-.622.891-.414,1.335-.996,1.335-1.746,0-.28-.084-.516-.252-.705-.302-.336-.758-.566-1.368-.689s-2.236-.185-4.879-.185ZM66.876,8.179c-.649,0-1.198.327-1.646.982-.447.655-.672,2.013-.672,4.073,0,1.668.222,2.812.664,3.434.442.622.966.933,1.57.933.672,0,1.231-.308,1.679-.924.448-.615.672-1.813.672-3.594,0-2.004-.252-3.37-.756-4.098-.358-.538-.862-.807-1.511-.807Z"/><path class="cls-1" d="M83.418,7.607v3.561c1.041-1.623,1.954-2.701,2.737-3.232.784-.532,1.539-.798,2.268-.798.627,0,1.128.193,1.503.579.375.387.562.933.562,1.638,0,.75-.182,1.332-.546,1.746-.364.415-.804.622-1.318.622-.594,0-1.108-.19-1.545-.571s-.694-.594-.772-.638c-.112-.067-.241-.102-.387-.102-.324,0-.632.124-.923.37-.46.381-.807.924-1.042,1.629-.358,1.086-.537,2.284-.537,3.594v3.611l.017.94c0,.638.039,1.047.118,1.226.134.303.333.523.596.663.263.141.708.227,1.335.261v.604h-8.48v-.604c.683-.056,1.145-.243,1.385-.562.241-.319.361-1.162.361-2.527v-8.684c0-.896-.045-1.466-.134-1.713-.112-.312-.275-.543-.487-.688-.213-.146-.588-.246-1.125-.302v-.622h6.415Z"/><path class="cls-1" d="M100.834,20.993c-1.915,1.69-3.634,2.536-5.156,2.536-.896,0-1.641-.294-2.233-.882-.594-.588-.891-1.324-.891-2.209,0-1.197.516-2.275,1.546-3.232,1.029-.958,3.274-2.231,6.734-3.821v-1.578c0-1.187-.064-1.935-.193-2.242s-.372-.576-.73-.807c-.358-.229-.762-.344-1.209-.344-.729,0-1.327.162-1.797.487-.292.201-.438.437-.438.705,0,.235.157.526.471.873.426.481.638.946.638,1.395,0,.548-.204,1.016-.612,1.402-.409.386-.943.579-1.604.579-.705,0-1.296-.213-1.771-.639-.476-.425-.714-.924-.714-1.494,0-.807.319-1.576.957-2.31.639-.733,1.528-1.296,2.671-1.688,1.142-.392,2.328-.588,3.561-.588,1.488,0,2.667.316,3.535.949.867.632,1.43,1.318,1.688,2.057.156.471.235,1.551.235,3.241v6.097c0,.717.027,1.167.084,1.352.056.186.14.322.252.412.111.09.24.134.386.134.291,0,.588-.207.891-.621l.504.403c-.561.828-1.14,1.43-1.738,1.805-.6.375-1.279.563-2.041.563-.896,0-1.595-.21-2.099-.63s-.812-1.056-.924-1.906ZM100.834,19.767v-5.256c-1.355.795-2.362,1.646-3.023,2.553-.437.604-.654,1.215-.654,1.83,0,.516.185.969.554,1.36.279.303.672.453,1.176.453.56,0,1.209-.312,1.948-.94Z"/><path class="cls-1" d="M115.596,1.864v5.743h3.729v1.663h-3.729v9.69c0,.907.042,1.492.126,1.755.084.264.232.476.445.638.212.163.408.244.588.244.728,0,1.416-.555,2.065-1.663l.504.37c-.907,2.149-2.379,3.225-4.417,3.225-.997,0-1.839-.277-2.527-.832-.688-.554-1.128-1.173-1.318-1.855-.112-.381-.168-1.411-.168-3.09v-8.481h-2.049v-.588c1.41-.996,2.611-2.043,3.603-3.141.99-1.097,1.855-2.323,2.595-3.678h.554Z"/><path class="cls-1" d="M126.949,7.607v12.445c0,1.108.129,1.816.386,2.124.258.309.762.484,1.512.529v.604h-8.48v-.604c.693-.022,1.209-.224,1.545-.604.224-.258.336-.94.336-2.049v-9.17c0-1.108-.129-1.816-.387-2.125-.258-.308-.756-.483-1.494-.528v-.622h6.583ZM124.598,0c.728,0,1.344.255,1.848.764.504.51.756,1.123.756,1.84s-.255,1.326-.765,1.83c-.509.504-1.122.756-1.839.756s-1.326-.252-1.83-.756-.756-1.114-.756-1.83.252-1.33.756-1.84c.504-.509,1.113-.764,1.83-.764Z"/><path class="cls-1" d="M136.79,7.607v2.032c.807-.873,1.579-1.509,2.318-1.906.738-.396,1.533-.596,2.385-.596,1.019,0,1.863.283,2.535.848.672.565,1.12,1.269,1.344,2.108.179.638.269,1.864.269,3.678v6.113c0,1.209.109,1.962.328,2.259.218.297.674.484,1.368.562v.604h-7.943v-.604c.593-.078,1.019-.325,1.276-.739.179-.279.269-.974.269-2.082v-6.986c0-1.288-.051-2.1-.151-2.436s-.271-.597-.512-.781c-.241-.185-.507-.276-.798-.276-.963,0-1.858.688-2.688,2.065v8.414c0,1.176.109,1.92.328,2.233.218.313.624.51,1.217.588v.604h-7.943v-.604c.66-.067,1.131-.28,1.411-.639.189-.246.285-.974.285-2.183v-8.868c0-1.187-.109-1.925-.327-2.217-.219-.291-.675-.48-1.369-.57v-.622h6.398Z"/><path class="cls-1" d="M159.58,7.793h5.291v1.847h-3.007c.549.549.93,1.047,1.143,1.495.269.604.402,1.237.402,1.897,0,1.12-.311,2.091-.932,2.914s-1.467,1.467-2.536,1.932-2.019.696-2.847.696c-.067,0-.739-.027-2.016-.084-.503,0-.926.166-1.268.496s-.513.725-.513,1.184c0,.403.154.733.462.991.309.258.81.386,1.504.386l2.905-.033c2.351,0,3.969.258,4.854.772,1.265.717,1.897,1.819,1.897,3.309,0,.951-.291,1.816-.873,2.595s-1.35,1.352-2.301,1.722c-1.444.548-3.107.822-4.988.822-1.41,0-2.698-.137-3.862-.411-1.165-.274-1.999-.655-2.503-1.142-.504-.487-.756-1-.756-1.537,0-.516.193-.977.58-1.386.386-.408,1.105-.753,2.158-1.032-1.456-.717-2.184-1.714-2.184-2.99,0-.772.297-1.522.89-2.25.594-.728,1.534-1.36,2.822-1.897-1.501-.549-2.587-1.271-3.259-2.167-.672-.896-1.008-1.932-1.008-3.106,0-1.534.627-2.864,1.882-3.989,1.253-1.125,2.865-1.688,4.836-1.688,1.042,0,2.116.218,3.225.655ZM155.685,25.628c-1.143,0-1.898.096-2.268.286-.639.347-.957.816-.957,1.41,0,.571.33,1.089.99,1.554.661.465,1.903.697,3.729.697,1.557,0,2.779-.208,3.67-.622.89-.414,1.335-.996,1.335-1.746,0-.28-.084-.516-.252-.705-.303-.336-.759-.566-1.369-.689s-2.236-.185-4.878-.185ZM156.675,8.179c-.649,0-1.198.327-1.646.982-.448.655-.672,2.013-.672,4.073,0,1.668.221,2.812.663,3.434.442.622.966.933,1.57.933.672,0,1.231-.308,1.68-.924.447-.615.672-1.813.672-3.594,0-2.004-.252-3.37-.756-4.098-.358-.538-.862-.807-1.512-.807Z"/><path class="cls-1" d="M190.298.017l.185,7.591h-.688c-.325-1.903-1.123-3.434-2.394-4.593s-2.645-1.738-4.123-1.738c-1.142,0-2.046.305-2.712.915s-.999,1.313-.999,2.107c0,.504.117.952.353,1.344.324.526.845,1.047,1.562,1.562.526.369,1.741,1.024,3.645,1.965,2.664,1.31,4.461,2.547,5.391,3.711.918,1.165,1.377,2.497,1.377,3.997,0,1.904-.741,3.541-2.225,4.913-1.484,1.371-3.367,2.057-5.651,2.057-.717,0-1.395-.072-2.032-.218-.639-.146-1.438-.42-2.401-.823-.538-.224-.98-.336-1.327-.336-.291,0-.599.112-.924.336-.324.225-.588.565-.789,1.024h-.621v-8.599h.621c.492,2.418,1.441,4.263,2.847,5.534,1.405,1.271,2.919,1.905,4.543,1.905,1.254,0,2.253-.341,2.998-1.024.744-.683,1.116-1.478,1.116-2.385,0-.537-.143-1.058-.428-1.562-.286-.504-.72-.982-1.302-1.436-.582-.454-1.612-1.044-3.09-1.772-2.072-1.019-3.561-1.886-4.468-2.603s-1.604-1.518-2.091-2.401c-.487-.885-.73-1.858-.73-2.923,0-1.813.666-3.358,1.998-4.635,1.333-1.276,3.012-1.915,5.039-1.915.738,0,1.455.09,2.149.269.526.135,1.167.384,1.923.748.756.363,1.285.546,1.587.546.291,0,.521-.09.688-.27.168-.179.325-.609.471-1.293h.504Z"/><path class="cls-1" d="M200.508,21.715v5.845c0,.806.064,1.354.193,1.646s.327.504.597.639c.269.134.795.201,1.578.201v.621h-8.951v-.621c.694-.022,1.209-.218,1.545-.588.224-.258.336-.924.336-1.998V10.883c0-1.108-.129-1.816-.386-2.125-.258-.308-.756-.483-1.495-.528v-.622h6.583v2.066c.549-.807,1.108-1.389,1.68-1.747.817-.526,1.707-.789,2.67-.789,1.153,0,2.203.364,3.149,1.092s1.665,1.732,2.158,3.015c.492,1.282.739,2.661.739,4.14,0,1.59-.255,3.043-.765,4.358s-1.248,2.317-2.217,3.006-2.046,1.033-3.232,1.033c-.862,0-1.669-.191-2.419-.571-.56-.291-1.147-.789-1.764-1.495ZM200.508,20.019c.963,1.366,1.993,2.049,3.091,2.049.604,0,1.103-.318,1.494-.957.582-.94.874-2.731.874-5.374,0-2.709-.319-4.562-.958-5.559-.426-.661-.996-.991-1.713-.991-1.131,0-2.061.817-2.788,2.452v8.38Z"/><path class="cls-1" d="M222.224,20.993c-1.915,1.69-3.634,2.536-5.156,2.536-.896,0-1.641-.294-2.233-.882-.594-.588-.891-1.324-.891-2.209,0-1.197.516-2.275,1.546-3.232,1.029-.958,3.274-2.231,6.734-3.821v-1.578c0-1.187-.064-1.935-.193-2.242s-.372-.576-.73-.807c-.358-.229-.762-.344-1.209-.344-.729,0-1.327.162-1.797.487-.292.201-.438.437-.438.705,0,.235.157.526.471.873.426.481.638.946.638,1.395,0,.548-.204,1.016-.612,1.402-.409.386-.943.579-1.604.579-.705,0-1.296-.213-1.771-.639-.476-.425-.714-.924-.714-1.494,0-.807.319-1.576.957-2.31.639-.733,1.528-1.296,2.671-1.688,1.142-.392,2.328-.588,3.561-.588,1.488,0,2.667.316,3.535.949.867.632,1.43,1.318,1.688,2.057.156.471.235,1.551.235,3.241v6.097c0,.717.027,1.167.084,1.352.056.186.14.322.252.412.111.09.24.134.386.134.291,0,.588-.207.891-.621l.504.403c-.561.828-1.14,1.43-1.738,1.805-.6.375-1.279.563-2.041.563-.896,0-1.595-.21-2.099-.63s-.812-1.056-.924-1.906ZM222.224,19.767v-5.256c-1.355.795-2.362,1.646-3.023,2.553-.437.604-.654,1.215-.654,1.83,0,.516.185.969.554,1.36.279.303.672.453,1.176.453.56,0,1.209-.312,1.948-.94Z"/><path class="cls-1" d="M243.569,19.263l.521.403c-.739,1.389-1.66,2.422-2.763,3.099-1.104.678-2.276,1.017-3.519,1.017-2.094,0-3.768-.79-5.021-2.368-1.254-1.579-1.881-3.477-1.881-5.693,0-2.139.57-4.02,1.713-5.644,1.377-1.959,3.274-2.938,5.693-2.938,1.623,0,2.913.409,3.871,1.226.957.817,1.436,1.73,1.436,2.737,0,.639-.193,1.148-.579,1.528-.387.381-.894.571-1.521.571-.66,0-1.206-.218-1.637-.655-.432-.437-.697-1.214-.798-2.334-.067-.705-.229-1.198-.487-1.478-.258-.28-.56-.42-.907-.42-.537,0-.996.285-1.377.856-.582.862-.873,2.183-.873,3.963,0,1.479.235,2.892.705,4.241.471,1.349,1.114,2.354,1.932,3.015.615.481,1.344.722,2.184.722.548,0,1.068-.129,1.562-.386.492-.258,1.075-.745,1.747-1.462Z"/><path class="cls-1" d="M259.322,14.896h-8.616c.102,2.083.655,3.729,1.663,4.938.772.93,1.702,1.395,2.788,1.395.672,0,1.281-.188,1.83-.563.549-.375,1.137-1.049,1.764-2.023l.571.369c-.852,1.736-1.792,2.965-2.821,3.687-1.03.723-2.223,1.084-3.577,1.084-2.329,0-4.093-.896-5.291-2.688-.963-1.444-1.444-3.235-1.444-5.374,0-2.62.708-4.705,2.125-6.256,1.416-1.551,3.076-2.326,4.979-2.326,1.59,0,2.97.652,4.14,1.956,1.17,1.305,1.8,3.239,1.89,5.803ZM255.19,13.771c0-1.803-.098-3.04-.294-3.712s-.501-1.181-.915-1.528c-.235-.201-.549-.302-.94-.302-.582,0-1.059.285-1.428.856-.66.996-.991,2.362-.991,4.098v.588h4.568Z"/><path class="cls-1" d="M276.979,13.358h-15.073v-2.031h15.073v2.031Z"/><path class="cls-1" d="M285.072,1.848v9.271h.454c1.444,0,2.491-.454,3.141-1.36.648-.907,1.063-2.245,1.242-4.015h.639v11.925h-.639c-.134-1.299-.417-2.362-.848-3.191-.432-.828-.933-1.386-1.503-1.671-.571-.285-1.4-.429-2.486-.429v6.416c0,1.254.054,2.021.16,2.301s.305.51.596.688c.291.18.762.269,1.411.269h1.36c2.127,0,3.832-.492,5.114-1.478,1.281-.985,2.202-2.485,2.762-4.501h.622l-1.024,7.238h-19.684v-.621h.756c.661,0,1.192-.118,1.596-.353.291-.157.515-.426.672-.807.123-.269.185-.974.185-2.116V4.434c0-1.03-.028-1.662-.084-1.897-.112-.392-.319-.694-.621-.907-.426-.313-1.008-.47-1.747-.47h-.756v-.622h19.062v6.734h-.638c-.325-1.646-.781-2.826-1.369-3.543s-1.419-1.243-2.493-1.579c-.628-.201-1.804-.302-3.527-.302h-2.352Z"/><path class="cls-1" d="M308.467,20.993c-1.915,1.69-3.634,2.536-5.156,2.536-.896,0-1.641-.294-2.233-.882-.594-.588-.891-1.324-.891-2.209,0-1.197.516-2.275,1.546-3.232,1.029-.958,3.274-2.231,6.734-3.821v-1.578c0-1.187-.064-1.935-.193-2.242s-.372-.576-.73-.807c-.358-.229-.762-.344-1.209-.344-.729,0-1.327.162-1.797.487-.292.201-.438.437-.438.705,0,.235.157.526.471.873.426.481.638.946.638,1.395,0,.548-.204,1.016-.612,1.402-.409.386-.943.579-1.604.579-.705,0-1.296-.213-1.771-.639-.476-.425-.714-.924-.714-1.494,0-.807.319-1.576.957-2.31.639-.733,1.528-1.296,2.671-1.688,1.142-.392,2.328-.588,3.561-.588,1.488,0,2.667.316,3.535.949.867.632,1.43,1.318,1.688,2.057.156.471.235,1.551.235,3.241v6.097c0,.717.027,1.167.084,1.352.056.186.14.322.252.412.111.09.24.134.386.134.291,0,.588-.207.891-.621l.504.403c-.561.828-1.14,1.43-1.738,1.805-.6.375-1.279.563-2.041.563-.896,0-1.595-.21-2.099-.63s-.812-1.056-.924-1.906ZM308.467,19.767v-5.256c-1.355.795-2.362,1.646-3.023,2.553-.437.604-.654,1.215-.654,1.83,0,.516.185.969.554,1.36.279.303.672.453,1.176.453.56,0,1.209-.312,1.948-.94Z"/><path class="cls-1" d="M323.514,7.607v3.561c1.042-1.623,1.954-2.701,2.738-3.232.783-.532,1.539-.798,2.267-.798.627,0,1.128.193,1.503.579.375.387.563.933.563,1.638,0,.75-.183,1.332-.546,1.746-.364.415-.804.622-1.318.622-.594,0-1.108-.19-1.545-.571-.438-.381-.694-.594-.773-.638-.111-.067-.24-.102-.386-.102-.325,0-.633.124-.924.37-.459.381-.806.924-1.041,1.629-.358,1.086-.538,2.284-.538,3.594v3.611l.018.94c0,.638.039,1.047.117,1.226.135.303.333.523.597.663.263.141.708.227,1.335.261v.604h-8.481v-.604c.683-.056,1.145-.243,1.386-.562.24-.319.361-1.162.361-2.527v-8.684c0-.896-.045-1.466-.135-1.713-.112-.312-.274-.543-.487-.688s-.588-.246-1.125-.302v-.622h6.415Z"/><path class="cls-1" d="M338.496,1.864v5.743h3.728v1.663h-3.728v9.69c0,.907.042,1.492.126,1.755.084.264.231.476.444.638.213.163.409.244.588.244.728,0,1.416-.555,2.066-1.663l.503.37c-.906,2.149-2.379,3.225-4.416,3.225-.997,0-1.84-.277-2.528-.832-.688-.554-1.128-1.173-1.318-1.855-.111-.381-.168-1.411-.168-3.09v-8.481h-2.049v-.588c1.411-.996,2.611-2.043,3.603-3.141.991-1.097,1.855-2.323,2.595-3.678h.555Z"/><path class="cls-1" d="M350.133.537v9.086c.862-.907,1.651-1.548,2.368-1.923s1.461-.562,2.233-.562c.985,0,1.828.28,2.528.84.699.56,1.164,1.218,1.394,1.973.229.756.345,2.03.345,3.821v6.13c0,1.198.111,1.945.335,2.242.225.297.678.484,1.36.562v.604h-7.96v-.604c.56-.078.979-.303,1.26-.672.201-.291.302-1.002.302-2.133v-7.003c0-1.299-.05-2.113-.151-2.444-.101-.33-.271-.588-.512-.772-.241-.185-.513-.276-.814-.276-.448,0-.885.153-1.311.461-.425.309-.884.849-1.377,1.621v8.414c0,1.12.084,1.819.252,2.1.213.38.649.615,1.311.705v.604h-7.961v-.604c.66-.067,1.131-.28,1.411-.639.189-.246.285-.968.285-2.166V3.946c0-1.187-.109-1.925-.327-2.217-.219-.291-.675-.481-1.369-.57v-.622h6.398Z"/><path class="cls-1" d="M379.658,1.848v9.271h.454c1.444,0,2.491-.454,3.141-1.36.648-.907,1.063-2.245,1.242-4.015h.639v11.925h-.639c-.134-1.299-.417-2.362-.848-3.191-.432-.828-.933-1.386-1.503-1.671-.571-.285-1.4-.429-2.486-.429v6.416c0,1.254.054,2.021.16,2.301s.305.51.596.688c.291.18.762.269,1.411.269h1.36c2.127,0,3.832-.492,5.114-1.478,1.281-.985,2.202-2.485,2.762-4.501h.622l-1.024,7.238h-19.684v-.621h.756c.661,0,1.192-.118,1.596-.353.291-.157.515-.426.672-.807.123-.269.185-.974.185-2.116V4.434c0-1.03-.028-1.662-.084-1.897-.112-.392-.319-.694-.621-.907-.426-.313-1.008-.47-1.747-.47h-.756v-.622h19.062v6.734h-.638c-.325-1.646-.781-2.826-1.369-3.543s-1.419-1.243-2.493-1.579c-.628-.201-1.804-.302-3.527-.302h-2.352Z"/><path class="cls-1" d="M400.802,7.607v2.032c.806-.873,1.578-1.509,2.317-1.906.739-.396,1.534-.596,2.385-.596,1.019,0,1.864.283,2.536.848.672.565,1.119,1.269,1.344,2.108.179.638.269,1.864.269,3.678v6.113c0,1.209.109,1.962.327,2.259.219.297.675.484,1.369.562v.604h-7.944v-.604c.594-.078,1.02-.325,1.276-.739.18-.279.27-.974.27-2.082v-6.986c0-1.288-.051-2.1-.151-2.436s-.271-.597-.513-.781c-.24-.185-.507-.276-.798-.276-.963,0-1.858.688-2.687,2.065v8.414c0,1.176.109,1.92.327,2.233.219.313.624.51,1.218.588v.604h-7.943v-.604c.66-.067,1.13-.28,1.41-.639.19-.246.286-.974.286-2.183v-8.868c0-1.187-.109-1.925-.328-2.217-.218-.291-.675-.48-1.368-.57v-.622h6.398Z"/><path class="cls-1" d="M420.603,23.781l-5.291-12.177c-.638-1.466-1.136-2.396-1.494-2.787-.258-.291-.639-.487-1.142-.588v-.622h8.347v.622c-.526,0-.885.095-1.075.285-.269.246-.403.537-.403.873,0,.415.246,1.192.739,2.335l2.586,5.895,2.066-5.089c.593-1.455.89-2.485.89-3.09,0-.347-.126-.63-.378-.849-.252-.218-.697-.338-1.335-.36v-.622h5.139v.622c-.492.066-.896.252-1.209.554-.313.303-.783,1.192-1.41,2.671l-5.24,12.327h-.789Z"/><path class="cls-1" d="M436.843,7.607v12.445c0,1.108.129,1.816.386,2.124.258.309.762.484,1.512.529v.604h-8.48v-.604c.693-.022,1.209-.224,1.545-.604.224-.258.336-.94.336-2.049v-9.17c0-1.108-.129-1.816-.387-2.125-.258-.308-.756-.483-1.494-.528v-.622h6.583ZM434.492,0c.728,0,1.344.255,1.848.764.504.51.756,1.123.756,1.84s-.255,1.326-.765,1.83c-.509.504-1.122.756-1.839.756s-1.326-.252-1.83-.756-.756-1.114-.756-1.83.252-1.33.756-1.84c.504-.509,1.113-.764,1.83-.764Z"/><path class="cls-1" d="M446.785,7.607v3.561c1.042-1.623,1.954-2.701,2.738-3.232.783-.532,1.539-.798,2.267-.798.627,0,1.128.193,1.503.579.375.387.563.933.563,1.638,0,.75-.183,1.332-.546,1.746-.364.415-.804.622-1.318.622-.594,0-1.108-.19-1.545-.571-.438-.381-.694-.594-.773-.638-.111-.067-.24-.102-.386-.102-.325,0-.633.124-.924.37-.459.381-.806.924-1.041,1.629-.358,1.086-.538,2.284-.538,3.594v3.611l.018.94c0,.638.039,1.047.117,1.226.135.303.333.523.597.663.263.141.708.227,1.335.261v.604h-8.481v-.604c.683-.056,1.145-.243,1.386-.562.24-.319.361-1.162.361-2.527v-8.684c0-.896-.045-1.466-.135-1.713-.112-.312-.274-.543-.487-.688s-.588-.246-1.125-.302v-.622h6.415Z"/><path class="cls-1" d="M462.32,7.138c1.366,0,2.637.353,3.812,1.058,1.176.706,2.068,1.708,2.679,3.007s.916,2.721.916,4.266c0,2.228-.566,4.092-1.696,5.593-1.366,1.813-3.253,2.721-5.66,2.721-2.362,0-4.182-.829-5.458-2.486-1.276-1.656-1.915-3.577-1.915-5.76,0-2.251.652-4.213,1.957-5.887,1.304-1.674,3.093-2.511,5.365-2.511ZM462.387,8.33c-.57,0-1.061.216-1.47.646-.408.431-.677,1.282-.806,2.553s-.193,3.037-.193,5.299c0,1.198.078,2.317.235,3.358.123.795.387,1.4.789,1.814.403.414.862.621,1.377.621.504,0,.924-.14,1.26-.42.437-.381.728-.912.874-1.596.224-1.063.335-3.213.335-6.449,0-1.903-.106-3.21-.318-3.921-.213-.711-.526-1.229-.94-1.554-.292-.235-.672-.353-1.143-.353Z"/><path class="cls-1" d="M478.527,7.607v2.032c.807-.873,1.579-1.509,2.317-1.906.739-.396,1.534-.596,2.385-.596,1.019,0,1.864.283,2.536.848.672.565,1.119,1.269,1.344,2.108.179.638.269,1.864.269,3.678v6.113c0,1.209.109,1.962.327,2.259.219.297.675.484,1.369.562v.604h-7.943v-.604c.593-.078,1.019-.325,1.276-.739.179-.279.269-.974.269-2.082v-6.986c0-1.288-.051-2.1-.151-2.436s-.271-.597-.512-.781c-.241-.185-.507-.276-.798-.276-.964,0-1.859.688-2.688,2.065v8.414c0,1.176.109,1.92.327,2.233.219.313.624.51,1.218.588v.604h-7.943v-.604c.66-.067,1.13-.28,1.41-.639.19-.246.286-.974.286-2.183v-8.868c0-1.187-.109-1.925-.328-2.217-.218-.291-.675-.48-1.368-.57v-.622h6.398Z"/><path class="cls-1" d="M497.757,7.607v2.066c.862-.94,1.66-1.599,2.394-1.974s1.536-.562,2.41-.562c1.008,0,1.853.235,2.536.705.683.471,1.209,1.188,1.578,2.149.896-1.007,1.755-1.735,2.578-2.183.823-.448,1.682-.672,2.578-.672,1.086,0,1.95.249,2.595.747.644.498,1.092,1.131,1.343,1.897.252.768.378,1.99.378,3.67v6.433c0,1.209.109,1.959.328,2.25.218.291.674.481,1.368.571v.604h-8.111v-.604c.639-.056,1.108-.303,1.411-.739.201-.302.302-.996.302-2.082v-6.752c0-1.399-.056-2.289-.168-2.67s-.288-.663-.529-.849c-.24-.185-.523-.276-.848-.276-.481,0-.969.176-1.461.528-.493.354-.991.882-1.495,1.588v8.431c0,1.131.096,1.842.286,2.133.257.414.75.644,1.478.688v.604h-8.129v-.604c.438-.022.781-.132,1.033-.327.252-.196.42-.432.504-.706s.126-.87.126-1.788v-6.752c0-1.422-.057-2.312-.168-2.67-.112-.358-.3-.639-.562-.84-.264-.201-.546-.302-.849-.302-.447,0-.856.117-1.226.353-.526.347-1.086.94-1.68,1.78v8.431c0,1.108.109,1.839.328,2.191.218.353.674.562,1.368.63v.604h-8.095v-.604c.66-.067,1.131-.28,1.411-.639.189-.246.285-.974.285-2.183v-8.868c0-1.187-.109-1.925-.327-2.217-.219-.291-.675-.48-1.369-.57v-.622h6.398Z"/><path class="cls-1" d="M533.193,14.896h-8.615c.101,2.083.654,3.729,1.662,4.938.772.93,1.702,1.395,2.788,1.395.672,0,1.282-.188,1.831-.563.548-.375,1.136-1.049,1.763-2.023l.571.369c-.851,1.736-1.791,2.965-2.821,3.687-1.03.723-2.223,1.084-3.577,1.084-2.329,0-4.093-.896-5.29-2.688-.964-1.444-1.444-3.235-1.444-5.374,0-2.62.708-4.705,2.124-6.256s3.076-2.326,4.979-2.326c1.59,0,2.97.652,4.14,1.956,1.17,1.305,1.8,3.239,1.89,5.803ZM529.061,13.771c0-1.803-.098-3.04-.294-3.712-.195-.672-.501-1.181-.915-1.528-.235-.201-.549-.302-.94-.302-.582,0-1.058.285-1.428.856-.66.996-.99,2.362-.99,4.098v.588h4.567Z"/><path class="cls-1" d="M541.573,7.607v2.032c.807-.873,1.579-1.509,2.317-1.906.739-.396,1.534-.596,2.385-.596,1.019,0,1.864.283,2.536.848.672.565,1.119,1.269,1.344,2.108.179.638.269,1.864.269,3.678v6.113c0,1.209.109,1.962.327,2.259.219.297.675.484,1.369.562v.604h-7.943v-.604c.593-.078,1.019-.325,1.276-.739.179-.279.269-.974.269-2.082v-6.986c0-1.288-.051-2.1-.151-2.436s-.271-.597-.512-.781c-.241-.185-.507-.276-.798-.276-.964,0-1.859.688-2.688,2.065v8.414c0,1.176.109,1.92.327,2.233.219.313.624.51,1.218.588v.604h-7.943v-.604c.66-.067,1.131-.28,1.41-.639.19-.246.286-.974.286-2.183v-8.868c0-1.187-.109-1.925-.328-2.217-.218-.291-.674-.48-1.368-.57v-.622h6.398Z"/><path class="cls-1" d="M560.517,1.864v5.743h3.729v1.663h-3.729v9.69c0,.907.042,1.492.126,1.755.084.264.232.476.445.638.212.163.408.244.587.244.729,0,1.417-.555,2.066-1.663l.504.37c-.907,2.149-2.38,3.225-4.417,3.225-.997,0-1.839-.277-2.527-.832-.689-.554-1.129-1.173-1.318-1.855-.112-.381-.168-1.411-.168-3.09v-8.481h-2.049v-.588c1.41-.996,2.611-2.043,3.602-3.141.991-1.097,1.856-2.323,2.595-3.678h.555Z"/><path class="cls-1" d="M574.407,20.993c-1.915,1.69-3.634,2.536-5.156,2.536-.896,0-1.641-.294-2.233-.882-.594-.588-.891-1.324-.891-2.209,0-1.197.515-2.275,1.545-3.232,1.03-.958,3.275-2.231,6.735-3.821v-1.578c0-1.187-.065-1.935-.193-2.242-.129-.308-.373-.576-.73-.807-.358-.229-.762-.344-1.21-.344-.728,0-1.326.162-1.797.487-.291.201-.437.437-.437.705,0,.235.157.526.471.873.425.481.638.946.638,1.395,0,.548-.204,1.016-.613,1.402-.408.386-.943.579-1.604.579-.705,0-1.296-.213-1.771-.639-.477-.425-.714-.924-.714-1.494,0-.807.319-1.576.957-2.31.639-.733,1.528-1.296,2.671-1.688,1.142-.392,2.328-.588,3.56-.588,1.489,0,2.668.316,3.535.949.868.632,1.431,1.318,1.688,2.057.156.471.235,1.551.235,3.241v6.097c0,.717.027,1.167.084,1.352.056.186.14.322.252.412.111.09.24.134.386.134.291,0,.588-.207.891-.621l.503.403c-.56.828-1.139,1.43-1.737,1.805-.6.375-1.279.563-2.041.563-.896,0-1.596-.21-2.1-.63s-.812-1.056-.923-1.906ZM574.407,19.767v-5.256c-1.355.795-2.363,1.646-3.023,2.553-.437.604-.655,1.215-.655,1.83,0,.516.185.969.555,1.36.279.303.672.453,1.176.453.56,0,1.209-.312,1.948-.94Z"/><path class="cls-1" d="M589.085.537v19.516c0,1.108.129,1.816.386,2.124.258.309.762.484,1.512.529v.604h-8.481v-.604c.694-.022,1.21-.224,1.546-.604.224-.258.336-.94.336-2.049V3.796c0-1.098-.129-1.8-.387-2.108-.258-.308-.756-.483-1.495-.528v-.622h6.584Z"/><path class="cls-1" d="M616.09.017l.185,7.591h-.688c-.325-1.903-1.123-3.434-2.394-4.593s-2.645-1.738-4.123-1.738c-1.142,0-2.046.305-2.712.915s-.999,1.313-.999,2.107c0,.504.117.952.353,1.344.324.526.845,1.047,1.562,1.562.526.369,1.741,1.024,3.645,1.965,2.665,1.31,4.462,2.547,5.392,3.711.917,1.165,1.377,2.497,1.377,3.997,0,1.904-.742,3.541-2.226,4.913-1.483,1.371-3.367,2.057-5.651,2.057-.717,0-1.394-.072-2.032-.218-.638-.146-1.438-.42-2.401-.823-.537-.224-.979-.336-1.327-.336-.291,0-.599.112-.923.336-.325.225-.588.565-.79,1.024h-.621v-8.599h.621c.493,2.418,1.441,4.263,2.847,5.534,1.405,1.271,2.92,1.905,4.543,1.905,1.254,0,2.253-.341,2.998-1.024.744-.683,1.116-1.478,1.116-2.385,0-.537-.143-1.058-.428-1.562s-.72-.982-1.302-1.436c-.582-.454-1.612-1.044-3.09-1.772-2.071-1.019-3.561-1.886-4.468-2.603-.906-.717-1.604-1.518-2.091-2.401-.487-.885-.73-1.858-.73-2.923,0-1.813.666-3.358,1.999-4.635,1.332-1.276,3.012-1.915,5.038-1.915.739,0,1.455.09,2.149.269.526.135,1.167.384,1.923.748.756.363,1.285.546,1.587.546.291,0,.521-.09.688-.27.168-.179.325-.609.471-1.293h.504Z"/><path class="cls-1" d="M633.035,19.263l.521.403c-.738,1.389-1.659,2.422-2.763,3.099-1.103.678-2.275,1.017-3.518,1.017-2.094,0-3.769-.79-5.021-2.368-1.255-1.579-1.882-3.477-1.882-5.693,0-2.139.571-4.02,1.714-5.644,1.377-1.959,3.274-2.938,5.692-2.938,1.624,0,2.914.409,3.871,1.226.958.817,1.437,1.73,1.437,2.737,0,.639-.193,1.148-.579,1.528-.387.381-.894.571-1.521.571-.66,0-1.206-.218-1.638-.655-.431-.437-.696-1.214-.797-2.334-.067-.705-.23-1.198-.487-1.478-.258-.28-.561-.42-.907-.42-.537,0-.996.285-1.377.856-.582.862-.873,2.183-.873,3.963,0,1.479.234,2.892.705,4.241.471,1.349,1.114,2.354,1.932,3.015.615.481,1.344.722,2.183.722.549,0,1.069-.129,1.562-.386.492-.258,1.074-.745,1.746-1.462Z"/><path class="cls-1" d="M641.617,7.607v12.445c0,1.108.128,1.816.386,2.124.258.309.762.484,1.512.529v.604h-8.481v-.604c.694-.022,1.21-.224,1.545-.604.225-.258.336-.94.336-2.049v-9.17c0-1.108-.129-1.816-.386-2.125-.258-.308-.756-.483-1.495-.528v-.622h6.584ZM639.265,0c.728,0,1.344.255,1.848.764.504.51.756,1.123.756,1.84s-.255,1.326-.765,1.83-1.122.756-1.839.756-1.327-.252-1.83-.756c-.504-.504-.756-1.114-.756-1.83s.252-1.33.756-1.84c.503-.509,1.113-.764,1.83-.764Z"/><path class="cls-1" d="M658.344,14.896h-8.615c.101,2.083.654,3.729,1.662,4.938.772.93,1.702,1.395,2.788,1.395.672,0,1.282-.188,1.831-.563.548-.375,1.136-1.049,1.763-2.023l.571.369c-.851,1.736-1.791,2.965-2.821,3.687-1.03.723-2.223,1.084-3.577,1.084-2.329,0-4.093-.896-5.29-2.688-.964-1.444-1.444-3.235-1.444-5.374,0-2.62.708-4.705,2.124-6.256s3.076-2.326,4.979-2.326c1.59,0,2.97.652,4.14,1.956,1.17,1.305,1.8,3.239,1.89,5.803ZM654.213,13.771c0-1.803-.098-3.04-.294-3.712-.195-.672-.501-1.181-.915-1.528-.235-.201-.549-.302-.94-.302-.582,0-1.058.285-1.428.856-.66.996-.99,2.362-.99,4.098v.588h4.567Z"/><path class="cls-1" d="M666.724,7.607v2.032c.807-.873,1.579-1.509,2.317-1.906.739-.396,1.534-.596,2.385-.596,1.019,0,1.864.283,2.536.848.672.565,1.119,1.269,1.344,2.108.179.638.269,1.864.269,3.678v6.113c0,1.209.109,1.962.327,2.259.219.297.675.484,1.369.562v.604h-7.943v-.604c.593-.078,1.019-.325,1.276-.739.179-.279.269-.974.269-2.082v-6.986c0-1.288-.051-2.1-.151-2.436s-.271-.597-.512-.781c-.241-.185-.507-.276-.798-.276-.964,0-1.859.688-2.688,2.065v8.414c0,1.176.109,1.92.327,2.233.219.313.624.51,1.218.588v.604h-7.943v-.604c.66-.067,1.131-.28,1.41-.639.19-.246.286-.974.286-2.183v-8.868c0-1.187-.109-1.925-.328-2.217-.218-.291-.674-.48-1.368-.57v-.622h6.398Z"/><path class="cls-1" d="M692.252,19.263l.521.403c-.738,1.389-1.659,2.422-2.763,3.099-1.103.678-2.275,1.017-3.518,1.017-2.094,0-3.769-.79-5.021-2.368-1.255-1.579-1.882-3.477-1.882-5.693,0-2.139.571-4.02,1.714-5.644,1.377-1.959,3.274-2.938,5.692-2.938,1.624,0,2.914.409,3.871,1.226.958.817,1.437,1.73,1.437,2.737,0,.639-.193,1.148-.579,1.528-.387.381-.894.571-1.521.571-.66,0-1.206-.218-1.638-.655-.431-.437-.696-1.214-.797-2.334-.067-.705-.23-1.198-.487-1.478-.258-.28-.561-.42-.907-.42-.537,0-.996.285-1.377.856-.582.862-.873,2.183-.873,3.963,0,1.479.234,2.892.705,4.241.471,1.349,1.114,2.354,1.932,3.015.615.481,1.344.722,2.183.722.549,0,1.069-.129,1.562-.386.492-.258,1.074-.745,1.746-1.462Z"/><path class="cls-1" d="M708.006,14.896h-8.615c.101,2.083.654,3.729,1.662,4.938.772.93,1.702,1.395,2.788,1.395.672,0,1.282-.188,1.831-.563.548-.375,1.136-1.049,1.763-2.023l.571.369c-.851,1.736-1.791,2.965-2.821,3.687-1.03.723-2.223,1.084-3.577,1.084-2.329,0-4.093-.896-5.29-2.688-.964-1.444-1.444-3.235-1.444-5.374,0-2.62.708-4.705,2.124-6.256s3.076-2.326,4.979-2.326c1.59,0,2.97.652,4.14,1.956,1.17,1.305,1.8,3.239,1.89,5.803ZM703.874,13.771c0-1.803-.098-3.04-.294-3.712-.195-.672-.501-1.181-.915-1.528-.235-.201-.549-.302-.94-.302-.582,0-1.058.285-1.428.856-.66.996-.99,2.362-.99,4.098v.588h4.567Z"/><path class="cls-1" d="M710.524,29.34v-.739c1.299-.56,2.242-1.284,2.83-2.175.588-.89.882-1.8.882-2.729,0-.191-.04-.336-.118-.438-.078-.089-.156-.134-.234-.134-.067,0-.168.039-.303.117-.325.19-.728.286-1.209.286-.661,0-1.234-.258-1.722-.773-.487-.515-.73-1.119-.73-1.813,0-.739.279-1.388.84-1.948s1.237-.84,2.032-.84c.963,0,1.785.373,2.469,1.117.683.745,1.024,1.767,1.024,3.065,0,1.601-.484,3.022-1.453,4.266-.969,1.242-2.404,2.155-4.308,2.737Z"/><path class="cls-1" d="M177.769,53.634v7.054c0,1.165.064,1.893.193,2.184s.381.546.756.764c.375.219.882.328,1.52.328h.756v.621h-11.907v-.621h.756c.66,0,1.192-.118,1.596-.353.291-.157.515-.426.672-.807.123-.269.185-.974.185-2.116v-14.98c0-1.164-.062-1.892-.185-2.184-.124-.291-.373-.546-.748-.764-.375-.219-.881-.327-1.52-.327h-.756v-.622h11.907v.622h-.756c-.66,0-1.192.117-1.595.353-.292.156-.521.426-.689.806-.123.269-.185.975-.185,2.116v6.449h8.045v-6.449c0-1.164-.062-1.892-.185-2.184-.124-.291-.376-.546-.756-.764-.381-.219-.891-.327-1.528-.327h-.739v-.622h11.891v.622h-.739c-.672,0-1.203.117-1.595.353-.292.156-.521.426-.689.806-.123.269-.185.975-.185,2.116v14.98c0,1.165.062,1.893.185,2.184s.375.546.756.764c.381.219.891.328,1.528.328h.739v.621h-11.891v-.621h.739c.672,0,1.203-.118,1.596-.353.291-.157.521-.426.688-.807.123-.269.185-.974.185-2.116v-7.054h-8.045Z"/><path class="cls-1" d="M202.407,48.881v12.445c0,1.108.129,1.816.386,2.124.258.309.762.484,1.512.529v.604h-8.48v-.604c.693-.022,1.209-.224,1.545-.604.224-.258.336-.94.336-2.049v-9.17c0-1.108-.129-1.816-.387-2.125-.258-.308-.756-.483-1.494-.528v-.622h6.583ZM200.056,41.273c.728,0,1.344.255,1.848.764.504.51.756,1.123.756,1.84s-.255,1.326-.765,1.83c-.509.504-1.122.756-1.839.756s-1.326-.252-1.83-.756-.756-1.114-.756-1.83.252-1.33.756-1.84c.504-.509,1.113-.764,1.83-.764Z"/><path class="cls-1" d="M215.759,48.444l.252,5.357h-.571c-.683-1.59-1.391-2.676-2.124-3.258s-1.464-.873-2.191-.873c-.46,0-.852.153-1.176.462-.325.308-.487.663-.487,1.066,0,.302.111.593.336.873.358.459,1.36,1.245,3.006,2.359,1.646,1.114,2.729,2.061,3.25,2.839s.781,1.648.781,2.611c0,.873-.219,1.729-.655,2.569s-1.053,1.483-1.848,1.932c-.795.447-1.674.672-2.637.672-.75,0-1.752-.235-3.006-.706-.336-.123-.565-.185-.688-.185-.37,0-.678.28-.924.84h-.555l-.269-5.643h.571c.504,1.478,1.195,2.586,2.074,3.325.879.738,1.71,1.108,2.494,1.108.537,0,.977-.165,1.318-.496.341-.33.512-.73.512-1.2,0-.538-.168-1.002-.504-1.395-.336-.392-1.086-.984-2.25-1.78-1.713-1.187-2.821-2.093-3.325-2.721-.739-.917-1.108-1.931-1.108-3.039,0-1.209.417-2.304,1.251-3.283s2.04-1.47,3.619-1.47c.851,0,1.674.207,2.469.621.303.168.549.252.739.252.201,0,.363-.042.486-.126s.319-.321.588-.714h.571Z"/><path class="cls-1" d="M225.449,43.138v5.743h3.728v1.663h-3.728v9.69c0,.907.042,1.492.126,1.755.084.264.231.476.444.638.213.163.409.244.588.244.728,0,1.416-.555,2.066-1.663l.503.37c-.906,2.149-2.379,3.225-4.416,3.225-.997,0-1.84-.277-2.528-.832-.688-.554-1.128-1.173-1.318-1.855-.111-.381-.168-1.411-.168-3.09v-8.481h-2.049v-.588c1.411-.996,2.611-2.043,3.603-3.141.991-1.097,1.855-2.323,2.595-3.678h.555Z"/><path class="cls-1" d="M238.078,48.411c1.366,0,2.637.353,3.812,1.058,1.176.706,2.068,1.708,2.679,3.007s.916,2.721.916,4.266c0,2.228-.566,4.092-1.696,5.593-1.366,1.813-3.253,2.721-5.66,2.721-2.362,0-4.182-.829-5.458-2.486-1.276-1.656-1.915-3.577-1.915-5.76,0-2.251.652-4.213,1.957-5.887,1.304-1.674,3.093-2.511,5.365-2.511ZM238.145,49.604c-.57,0-1.061.216-1.47.646-.408.431-.677,1.282-.806,2.553s-.193,3.037-.193,5.299c0,1.198.078,2.317.235,3.358.123.795.387,1.4.789,1.814.403.414.862.621,1.377.621.504,0,.924-.14,1.26-.42.437-.381.728-.912.874-1.596.224-1.063.335-3.213.335-6.449,0-1.903-.106-3.21-.318-3.921-.213-.711-.526-1.229-.94-1.554-.292-.235-.672-.353-1.143-.353Z"/><path class="cls-1" d="M254.386,48.881v3.561c1.041-1.623,1.954-2.701,2.737-3.232.784-.532,1.539-.798,2.268-.798.627,0,1.128.193,1.503.579.375.387.562.933.562,1.638,0,.75-.182,1.332-.546,1.746-.364.415-.804.622-1.318.622-.594,0-1.108-.19-1.545-.571s-.694-.594-.772-.638c-.112-.067-.241-.102-.387-.102-.324,0-.632.124-.923.37-.46.381-.807.924-1.042,1.629-.358,1.086-.537,2.284-.537,3.594v3.611l.017.94c0,.638.039,1.047.118,1.226.134.303.333.523.596.663.263.141.708.227,1.335.261v.604h-8.48v-.604c.683-.056,1.145-.243,1.385-.562.241-.319.361-1.162.361-2.527v-8.684c0-.896-.045-1.466-.134-1.713-.112-.312-.275-.543-.487-.688-.213-.146-.588-.246-1.125-.302v-.622h6.415Z"/><path class="cls-1" d="M270.341,65.223l-5.072-11.639c-.762-1.758-1.324-2.839-1.688-3.241-.364-.403-.804-.684-1.318-.84v-.622h8.347v.622c-.549.022-.936.129-1.159.318-.224.191-.336.42-.336.689,0,.425.28,1.265.84,2.519l2.688,6.146,1.83-4.752c.66-1.69.991-2.866.991-3.527,0-.414-.138-.744-.412-.991-.274-.246-.758-.38-1.452-.402v-.622h5.257v.622c-.516.056-.936.255-1.26.596-.325.342-.868,1.503-1.629,3.485l-4.484,11.639c-1.131,2.91-1.971,4.702-2.52,5.374-.772.94-1.741,1.41-2.905,1.41-.93,0-1.682-.266-2.259-.798-.576-.531-.864-1.173-.864-1.923,0-.649.198-1.187.596-1.612s.888-.638,1.47-.638c.56,0,1.01.179,1.352.537s.518.912.529,1.663c.011.425.062.699.151.822.089.123.218.186.386.186.269,0,.555-.163.856-.487.448-.471.975-1.545,1.579-3.225l.487-1.31Z"/><path class="cls-1" d="M278.989,70.613v-.739c1.299-.56,2.242-1.284,2.83-2.175.588-.89.882-1.8.882-2.729,0-.191-.039-.336-.117-.438-.079-.089-.157-.134-.235-.134-.067,0-.168.039-.303.117-.324.19-.728.286-1.209.286-.661,0-1.234-.258-1.722-.773-.486-.515-.73-1.119-.73-1.813,0-.739.28-1.388.84-1.948.56-.56,1.237-.84,2.032-.84.963,0,1.786.373,2.469,1.117.683.745,1.024,1.767,1.024,3.065,0,1.601-.484,3.022-1.452,4.266-.969,1.242-2.405,2.155-4.309,2.737Z"/><path class="cls-1" d="M304.299,62.267c-1.915,1.69-3.634,2.536-5.156,2.536-.896,0-1.641-.294-2.233-.882-.594-.588-.891-1.324-.891-2.209,0-1.197.516-2.275,1.546-3.232,1.029-.958,3.274-2.231,6.734-3.821v-1.578c0-1.187-.064-1.935-.193-2.242s-.372-.576-.73-.807c-.358-.229-.762-.344-1.209-.344-.729,0-1.327.162-1.797.487-.292.201-.438.437-.438.705,0,.235.157.526.471.873.426.481.638.946.638,1.395,0,.548-.204,1.016-.612,1.402-.409.386-.943.579-1.604.579-.705,0-1.296-.213-1.771-.639-.476-.425-.714-.924-.714-1.494,0-.807.319-1.576.957-2.31.639-.733,1.528-1.296,2.671-1.688,1.142-.392,2.328-.588,3.561-.588,1.488,0,2.667.316,3.535.949.867.632,1.43,1.318,1.688,2.057.156.471.235,1.551.235,3.241v6.097c0,.717.027,1.167.084,1.352.056.186.14.322.252.412.111.09.24.134.386.134.291,0,.588-.207.891-.621l.504.403c-.561.828-1.14,1.43-1.738,1.805-.6.375-1.279.563-2.041.563-.896,0-1.595-.21-2.099-.63s-.812-1.056-.924-1.906ZM304.299,61.04v-5.256c-1.355.795-2.362,1.646-3.023,2.553-.437.604-.654,1.215-.654,1.83,0,.516.185.969.554,1.36.279.303.672.453,1.176.453.56,0,1.209-.312,1.948-.94Z"/><path class="cls-1" d="M319.245,48.881v2.032c.807-.873,1.579-1.509,2.318-1.906.738-.396,1.533-.596,2.385-.596,1.019,0,1.863.283,2.535.848.672.565,1.12,1.269,1.344,2.108.179.638.269,1.864.269,3.678v6.113c0,1.209.109,1.962.328,2.259.218.297.674.484,1.368.562v.604h-7.943v-.604c.593-.078,1.019-.325,1.276-.739.179-.279.269-.974.269-2.082v-6.986c0-1.288-.051-2.1-.151-2.436s-.271-.597-.512-.781c-.241-.185-.507-.276-.798-.276-.963,0-1.858.688-2.688,2.065v8.414c0,1.176.109,1.92.328,2.233.218.313.624.51,1.217.588v.604h-7.943v-.604c.66-.067,1.131-.28,1.411-.639.189-.246.285-.974.285-2.183v-8.868c0-1.187-.109-1.925-.327-2.217-.219-.291-.675-.48-1.369-.57v-.622h6.398Z"/><path class="cls-1" d="M347.224,41.811v18.071c0,1.22.034,1.942.102,2.166.089.37.26.645.512.823s.691.291,1.318.336v.554l-6.634,1.294v-2.486c-.795.963-1.503,1.618-2.124,1.965-.622.348-1.324.521-2.108.521-2.004,0-3.588-.896-4.753-2.688-.94-1.455-1.41-3.241-1.41-5.357,0-1.69.291-3.205.873-4.543s1.38-2.349,2.394-3.031c1.013-.683,2.102-1.024,3.267-1.024.75,0,1.416.146,1.998.437s1.203.801,1.864,1.528v-4.736c0-1.197-.051-1.92-.151-2.166-.134-.325-.336-.565-.604-.723-.269-.156-.772-.234-1.512-.234v-.706h6.97ZM342.522,52.458c-.829-1.589-1.842-2.385-3.04-2.385-.414,0-.756.112-1.024.336-.414.348-.753.958-1.016,1.831-.264.873-.395,2.211-.395,4.014,0,1.981.146,3.448.437,4.4.291.951.688,1.641,1.192,2.065.257.213.61.319,1.058.319.985,0,1.915-.772,2.788-2.317v-8.264Z"/><path class="cls-1" d="M370.938,58.102h-8.045l-.957,2.217c-.313.739-.47,1.35-.47,1.83,0,.639.257,1.108.772,1.411.302.179,1.047.313,2.233.403v.621h-7.574v-.621c.817-.123,1.489-.462,2.016-1.017.525-.554,1.175-1.698,1.948-3.435l8.145-18.171h.319l8.213,18.675c.783,1.77,1.427,2.884,1.931,3.343.381.347.918.548,1.612.604v.621h-11.017v-.621h.453c.885,0,1.506-.123,1.864-.37.246-.179.369-.437.369-.772,0-.201-.033-.408-.101-.621-.022-.101-.19-.521-.504-1.26l-1.209-2.838ZM370.367,56.858l-3.393-7.843-3.493,7.843h6.886Z"/><path class="cls-1" d="M389.143,48.881v3.561c1.041-1.623,1.954-2.701,2.737-3.232.784-.532,1.539-.798,2.268-.798.627,0,1.128.193,1.503.579.375.387.562.933.562,1.638,0,.75-.182,1.332-.546,1.746-.364.415-.804.622-1.318.622-.594,0-1.108-.19-1.545-.571s-.694-.594-.772-.638c-.112-.067-.241-.102-.387-.102-.324,0-.632.124-.923.37-.46.381-.807.924-1.042,1.629-.358,1.086-.537,2.284-.537,3.594v3.611l.017.94c0,.638.039,1.047.118,1.226.134.303.333.523.596.663.263.141.708.227,1.335.261v.604h-8.48v-.604c.683-.056,1.145-.243,1.385-.562.241-.319.361-1.162.361-2.527v-8.684c0-.896-.045-1.466-.134-1.713-.112-.312-.275-.543-.487-.688-.213-.146-.588-.246-1.125-.302v-.622h6.415Z"/><path class="cls-1" d="M410.087,60.536l.521.403c-.739,1.389-1.66,2.422-2.763,3.099-1.104.678-2.276,1.017-3.519,1.017-2.094,0-3.768-.79-5.021-2.368-1.254-1.579-1.881-3.477-1.881-5.693,0-2.139.57-4.02,1.713-5.644,1.377-1.959,3.274-2.938,5.693-2.938,1.623,0,2.913.409,3.871,1.226.957.817,1.436,1.73,1.436,2.737,0,.639-.193,1.148-.579,1.528-.387.381-.894.571-1.521.571-.66,0-1.206-.218-1.637-.655-.432-.437-.697-1.214-.798-2.334-.067-.705-.229-1.198-.487-1.478-.258-.28-.56-.42-.907-.42-.537,0-.996.285-1.377.856-.582.862-.873,2.183-.873,3.963,0,1.479.235,2.892.705,4.241.471,1.349,1.114,2.354,1.932,3.015.615.481,1.344.722,2.184.722.548,0,1.068-.129,1.562-.386.492-.258,1.075-.745,1.747-1.462Z"/><path class="cls-1" d="M418.954,41.811v9.086c.862-.907,1.651-1.548,2.368-1.923.716-.375,1.461-.562,2.233-.562.985,0,1.827.28,2.527.84.699.56,1.164,1.218,1.394,1.973.229.756.345,2.03.345,3.821v6.13c0,1.198.112,1.945.336,2.242s.678.484,1.36.562v.604h-7.961v-.604c.561-.078.979-.303,1.26-.672.202-.291.303-1.002.303-2.133v-7.003c0-1.299-.051-2.113-.151-2.444-.101-.33-.271-.588-.513-.772-.24-.185-.512-.276-.814-.276-.447,0-.884.153-1.31.461-.426.309-.885.849-1.377,1.621v8.414c0,1.12.084,1.819.252,2.1.212.38.649.615,1.31.705v.604h-7.96v-.604c.66-.067,1.13-.28,1.41-.639.19-.246.286-.968.286-2.166v-15.955c0-1.187-.109-1.925-.328-2.217-.218-.291-.675-.481-1.368-.57v-.622h6.398Z"/><path class="cls-1" d="M440.333,62.267c-1.914,1.69-3.633,2.536-5.155,2.536-.896,0-1.641-.294-2.234-.882-.593-.588-.89-1.324-.89-2.209,0-1.197.515-2.275,1.545-3.232,1.03-.958,3.275-2.231,6.734-3.821v-1.578c0-1.187-.064-1.935-.193-2.242-.128-.308-.372-.576-.73-.807-.358-.229-.761-.344-1.209-.344-.728,0-1.326.162-1.797.487-.291.201-.437.437-.437.705,0,.235.156.526.47.873.426.481.639.946.639,1.395,0,.548-.204,1.016-.613,1.402-.408.386-.943.579-1.604.579-.705,0-1.296-.213-1.771-.639-.477-.425-.714-.924-.714-1.494,0-.807.318-1.576.957-2.31.638-.733,1.528-1.296,2.67-1.688,1.143-.392,2.329-.588,3.561-.588,1.489,0,2.668.316,3.535.949.868.632,1.431,1.318,1.688,2.057.156.471.234,1.551.234,3.241v6.097c0,.717.028,1.167.084,1.352.057.186.141.322.252.412.112.09.241.134.387.134.291,0,.588-.207.89-.621l.504.403c-.56.828-1.14,1.43-1.738,1.805s-1.279.563-2.04.563c-.896,0-1.596-.21-2.1-.63s-.812-1.056-.924-1.906ZM440.333,61.04v-5.256c-1.354.795-2.362,1.646-3.022,2.553-.437.604-.655,1.215-.655,1.83,0,.516.185.969.555,1.36.279.303.671.453,1.175.453.561,0,1.21-.312,1.948-.94Z"/><path class="cls-1" d="M462.166,56.17h-8.616c.102,2.083.655,3.729,1.663,4.938.772.93,1.702,1.395,2.788,1.395.672,0,1.281-.188,1.83-.563.549-.375,1.137-1.049,1.764-2.023l.571.369c-.852,1.736-1.792,2.965-2.821,3.687-1.03.723-2.223,1.084-3.577,1.084-2.329,0-4.093-.896-5.291-2.688-.963-1.444-1.444-3.235-1.444-5.374,0-2.62.708-4.705,2.125-6.256,1.416-1.551,3.076-2.326,4.979-2.326,1.59,0,2.97.652,4.14,1.956,1.17,1.305,1.8,3.239,1.89,5.803ZM458.034,55.045c0-1.803-.098-3.04-.294-3.712s-.501-1.181-.915-1.528c-.235-.201-.549-.302-.94-.302-.582,0-1.059.285-1.428.856-.66.996-.991,2.362-.991,4.098v.588h4.568Z"/><path class="cls-1" d="M471.537,48.411c1.366,0,2.637.353,3.812,1.058,1.176.706,2.068,1.708,2.679,3.007s.915,2.721.915,4.266c0,2.228-.565,4.092-1.696,5.593-1.366,1.813-3.253,2.721-5.659,2.721-2.363,0-4.183-.829-5.459-2.486-1.276-1.656-1.914-3.577-1.914-5.76,0-2.251.652-4.213,1.956-5.887,1.305-1.674,3.093-2.511,5.366-2.511ZM471.604,49.604c-.571,0-1.062.216-1.47.646-.409.431-.678,1.282-.807,2.553-.128,1.271-.192,3.037-.192,5.299,0,1.198.078,2.317.234,3.358.123.795.387,1.4.79,1.814.402.414.861.621,1.377.621.504,0,.924-.14,1.26-.42.437-.381.728-.912.873-1.596.224-1.063.336-3.213.336-6.449,0-1.903-.106-3.21-.319-3.921s-.526-1.229-.94-1.554c-.291-.235-.672-.353-1.142-.353Z"/><path class="cls-1" d="M487.475,41.811v19.516c0,1.108.129,1.816.385,2.124.258.309.762.484,1.512.529v.604h-8.48v-.604c.693-.022,1.209-.224,1.545-.604.225-.258.336-.94.336-2.049v-16.257c0-1.098-.129-1.8-.387-2.108-.258-.308-.756-.483-1.494-.528v-.622h6.584Z"/><path class="cls-1" d="M498.291,48.411c1.365,0,2.637.353,3.812,1.058,1.175.706,2.067,1.708,2.679,3.007.609,1.299.915,2.721.915,4.266,0,2.228-.565,4.092-1.696,5.593-1.366,1.813-3.253,2.721-5.66,2.721-2.362,0-4.182-.829-5.458-2.486-1.276-1.656-1.914-3.577-1.914-5.76,0-2.251.651-4.213,1.956-5.887s3.093-2.511,5.366-2.511ZM498.357,49.604c-.57,0-1.061.216-1.469.646-.409.431-.678,1.282-.807,2.553s-.193,3.037-.193,5.299c0,1.198.079,2.317.235,3.358.123.795.387,1.4.79,1.814.402.414.861.621,1.377.621.504,0,.924-.14,1.26-.42.437-.381.728-.912.873-1.596.224-1.063.336-3.213.336-6.449,0-1.903-.106-3.21-.319-3.921s-.526-1.229-.94-1.554c-.291-.235-.672-.353-1.143-.353Z"/><path class="cls-1" d="M518.158,49.066h5.29v1.847h-3.006c.549.549.929,1.047,1.142,1.495.27.604.403,1.237.403,1.897,0,1.12-.311,2.091-.932,2.914-.622.823-1.467,1.467-2.536,1.932s-2.019.696-2.847.696c-.067,0-.739-.027-2.016-.084-.504,0-.927.166-1.268.496-.342.33-.513.725-.513,1.184,0,.403.154.733.462.991s.809.386,1.503.386l2.906-.033c2.351,0,3.969.258,4.854.772,1.265.717,1.897,1.819,1.897,3.309,0,.951-.291,1.816-.873,2.595-.583.778-1.35,1.352-2.301,1.722-1.444.548-3.107.822-4.988.822-1.411,0-2.698-.137-3.862-.411-1.165-.274-1.999-.655-2.503-1.142-.504-.487-.756-1-.756-1.537,0-.516.193-.977.58-1.386.386-.408,1.105-.753,2.157-1.032-1.455-.717-2.183-1.714-2.183-2.99,0-.772.296-1.522.89-2.25s1.534-1.36,2.821-1.897c-1.5-.549-2.586-1.271-3.258-2.167-.672-.896-1.008-1.932-1.008-3.106,0-1.534.627-2.864,1.881-3.989s2.866-1.688,4.837-1.688c1.041,0,2.116.218,3.225.655ZM514.262,66.901c-1.142,0-1.897.096-2.267.286-.639.347-.958.816-.958,1.41,0,.571.33,1.089.991,1.554.66.465,1.903.697,3.729.697,1.556,0,2.779-.208,3.669-.622.891-.414,1.336-.996,1.336-1.746,0-.28-.084-.516-.252-.705-.303-.336-.759-.566-1.369-.689s-2.236-.185-4.879-.185ZM515.253,49.452c-.649,0-1.198.327-1.646.982-.448.655-.672,2.013-.672,4.073,0,1.668.221,2.812.663,3.434.442.622.966.933,1.57.933.672,0,1.231-.308,1.68-.924.447-.615.672-1.813.672-3.594,0-2.004-.252-3.37-.756-4.098-.358-.538-.862-.807-1.512-.807Z"/><path class="cls-1" d="M532.483,65.223l-5.071-11.639c-.762-1.758-1.324-2.839-1.688-3.241-.363-.403-.803-.684-1.318-.84v-.622h8.347v.622c-.548.022-.935.129-1.158.318-.225.191-.336.42-.336.689,0,.425.279,1.265.84,2.519l2.687,6.146,1.831-4.752c.66-1.69.991-2.866.991-3.527,0-.414-.138-.744-.412-.991-.274-.246-.759-.38-1.452-.402v-.622h5.256v.622c-.515.056-.935.255-1.259.596-.325.342-.868,1.503-1.63,3.485l-4.483,11.639c-1.131,2.91-1.971,4.702-2.52,5.374-.772.94-1.741,1.41-2.905,1.41-.93,0-1.683-.266-2.259-.798-.577-.531-.865-1.173-.865-1.923,0-.649.199-1.187.597-1.612s.887-.638,1.47-.638c.56,0,1.01.179,1.352.537s.518.912.529,1.663c.011.425.062.699.15.822.09.123.219.186.387.186.269,0,.554-.163.856-.487.447-.471.974-1.545,1.579-3.225l.486-1.31Z"/><path class="cls-1" d="M543.105,50.689c0-1.272.86-2.167,2.063-2.167s1.995.895,2.029,2.167c0,1.203-.791,2.132-2.063,2.132-1.203,0-2.029-.929-2.029-2.132ZM543.105,62.83c0-1.272.86-2.167,2.063-2.167s1.995.895,2.029,2.167c0,1.203-.791,2.132-2.063,2.132-1.203,0-2.029-.929-2.029-2.132Z"/></g></svg>