<?xml version="1.0" encoding="UTF-8"?><svg id="_レイヤー_2" xmlns="http://www.w3.org/2000/svg" width="284.39mm" height="13.41mm" viewBox="0 0 806.14 38"><defs><style>.cls-1{fill:#040000;}</style></defs><g id="_レイヤー_1-2"><path class="cls-1" d="M19.4,6.23c3.03-.25,5.9-.46,8.81-.62.91-.04,1.7-.17,2.33-.54,1.5.71,2.37,1.33,3.57,2.62.62.71,1.12,1.37,1.12,2.08,0,.54-.54,1.04-2.04,1.54-1.45.5-2.7.87-4.73,1.41-.54,0-.71-.21-.71-.42,0-.17.08-.37.25-.58.62-.91,1.62-2.33,1.95-3.24-8.81.29-15.12.83-24.96,2.16-.29,2.91-1.37,5.4-2.99,5.4-1.29,0-1.99-1.58-1.99-2.49,0-.75.17-1.21.66-1.91.83-1.2,1.58-2.78,1.66-4.98,0-.5.12-.96.42-.96.58,0,1.58,1.16,1.95,2.08,3.66-.46,7.31-.83,10.96-1.21v-1.25c0-1.7-.17-2.7-.54-3.49-.17-.33-.29-.71-.29-.96,0-.17.33-.33.62-.33,1.04,0,2.83.46,3.99,1.04.62.33.87.66.87,1.04,0,.25-.17.62-.33.87-.42.54-.58,1.25-.58,2.08v.66ZM15.74,18.48c0-.71-.12-1.29-.29-1.87-.12-.33-.21-.71-.25-.96-1.74.21-3.49.42-5.15.66-.5,0-.75-.08-1.41-.87-.54-.54-.96-1.12-.96-1.45,0-.25.08-.29.75-.37,5.48-.54,8.85-.96,11.55-1.33,1.08-.17,1.75-.33,2.74-.75,2.16.12,3.49,1.29,3.49,2.04,0,.96-.29,1.12-2.16,1.25-2.12.12-4.4.33-6.73.58.29.12.62.29,1,.46.79.37,1.5,1,1.5,1.41,0,.21-.04.46-.12.75-.12.42-.21.91-.25,1.33,2.33-.21,4.32-.37,5.77-.46,1.25-.08,2.08-.25,2.99-.71,2.33.17,4.4,1.45,4.4,2.53,0,1-.29,1.21-1.79,1.21-.75-.04-2.41-.08-3.86-.08-1.87,0-4.49.12-7.56.42,0,1.25-.04,2.58-.04,3.95,0,2.37.04,4.78.12,6.89-.12,1.29-.33,2.08-.79,2.91-.62,1.08-1.16,1.41-1.7,1.41-.87,0-2.62-1.25-5.27-3.99-.33-.33-.67-.71-.67-.96,0-.29.25-.46.5-.46,1.45.21,2.78.37,4.19.42v-9.84c-3.57.33-7.48.83-11.3,1.37-.42,0-.79-.17-1.29-.75-.91-1.04-1.16-1.45-1.16-1.83,0-.25.17-.33.75-.37,4.4-.46,8.97-.91,13-1.33v-1.2Z"/><path class="cls-1" d="M58.57,6.98c2.99-.25,5.81-.46,8.39-.62,1.54-.08,2.24-.21,3.07-.5.62.21,1.58.71,2.78,1.75,1.16,1,1.74,1.83,1.74,2.66s-.46,1.12-1.62,1.54c-1.54.54-4.24,1.16-5.11,1.16-.25,0-.46-.08-.46-.33,0-.12.08-.37.21-.58.71-1.04,1.25-2.08,1.5-2.87-7.89.33-15.62.83-24.21,2.04-.25,3.45-1.54,5.23-2.91,5.23-1.12,0-1.87-.96-1.87-2.41,0-.79.08-1.12.71-1.91,1.08-1.29,1.58-2.95,1.7-4.82.04-.62.08-.79.54-.79.5,0,1.2.79,1.62,1.87,3.36-.42,6.77-.75,10.18-1.08v-1.37c0-1.7-.17-2.7-.54-3.49-.17-.33-.29-.71-.29-.96,0-.17.33-.33.62-.33,1.04,0,2.82.46,3.99,1.04.62.33.87.66.87,1.04,0,.25-.17.62-.33.87-.42.54-.58,1.25-.58,2.08v.79ZM55,15.45c0-.79-.12-1.79-.29-2.62-.17-.71-.37-1.29-.37-1.62s.17-.46.62-.46c.5,0,1.58.12,2.99.67.96.37,1.16.66,1.16,1.08,0,.25-.17.71-.29,1.12-.21.79-.33,1.83-.33,3.03l-.04,1.54,4.44-.25c1.74-.08,2.74-.33,3.32-.75.96.29,1.87.71,2.7,1.33,1.12.87,1.58,1.5,1.58,1.91,0,.37-.25.79-.58,1.25-.25.37-.33.62-.46,1.87l-.96,7.77c-.33,2.7-.54,3.45-.83,4.28-.33.83-.79,1.16-1.5,1.16-.62,0-1.41-.83-1.83-2.24-5.03.08-10.09.29-15.12.75-.12,1.25-.58,1.7-1.29,1.7-1.08,0-2.16-1.29-2.41-3.2.04-.25.12-.54.12-1.33,0-.96-.08-2.66-.29-5.9-.33-5.07-.62-5.94-1.04-6.85-.12-.25-.29-.71-.29-1.08,0-.25.21-.42.46-.42.54,0,1.58.29,2.99.96l7.52-.66v-3.03ZM54.96,21.39c-2.08.17-4.15.33-6.27.54l.21,3.7,6.06-.46v-3.78ZM54.96,27.83c-1.95.12-3.53.25-5.94.46l.21,4.24,5.69-.42.04-4.28ZM64.84,31.65l.33-4.28-6.85.25-.04,4.28,6.56-.25ZM61.72,24.75c.79-.04,1.21-.17,1.62-.37.5.08,1.25.46,1.95.91l.37-4.53c-2.58.08-4.94.21-7.27.37l-.04,3.78,3.36-.17Z"/><path class="cls-1" d="M87.98,13.96c.5-.08,1-.25,1.41-.5,1.7.25,2.87,1.08,2.87,1.95,0,.67-.5.96-1.45,1.04-1.04.12-2.08.25-3.12.37l-.08,7.48c1.25-.62,2.45-1.25,3.53-1.91.21-.12.42-.21.58-.21.29,0,.5.21.5.46,0,.21-.08.42-.33.62-2.7,2.66-5.44,4.94-8.14,6.85-.83.58-1.33.91-1.79,1.41-.29.29-.62.46-.96.46-.58-.04-1.21-.62-1.95-1.66-.67-.91-1-1.74-1-2.12,0-.25.21-.42.46-.46,1.74-.17,2.49-.37,3.61-.87.67-.29,1.41-.62,2.28-1.04l-.12-8.47c-1.25.21-2.49.46-3.78.71-.5,0-.83-.17-1.45-1.04s-.79-1.12-.79-1.41c0-.25.17-.33.58-.37,1.91-.21,3.7-.46,5.4-.71l-.04-4.53c0-1.45-.25-2.58-.54-3.24-.17-.33-.29-.71-.29-1,0-.25.21-.42.58-.42.58,0,1.95.33,2.78.66,1.04.42,1.66.91,1.66,1.37,0,.5-.12.83-.29,1.16-.17.37-.33,1.12-.33,2.41l-.04,3.03.25-.04ZM97.53,15.24c1.04-.42,2.08-.79,3.16-1.2.04-3.36.04-4.65.04-7.27,0-1-.21-2.08-.42-2.78-.12-.54-.29-.91-.29-1.25,0-.25.17-.46.5-.46.46,0,1.87.33,3.2.96.71.33,1.12.75,1.12,1.16,0,.37-.12.79-.29,1.25s-.25.96-.29,1.74c-.04,1.54-.12,3.45-.17,5.4,1.12-.37,2.16-.75,3.16-1.12,1.16-.42,1.74-.79,2.41-1.41.87.25,1.75.58,2.7,1.2,1.08.71,1.5,1.2,1.5,1.7,0,.37-.21.75-.5,1.08-.29.33-.54.87-.62,1.29-.71,3.07-1.83,6.69-2.95,7.85-.5.54-1.16.91-1.66.91-.42,0-1-.33-1.41-.83-1.04-1.33-1.66-2.45-2.16-3.41-.08-.21-.12-.37-.12-.5,0-.21.12-.33.33-.33.17,0,.42.04.58.12.71.29,1.95.75,2.24.75.21,0,.37-.12.5-.42.62-1.54,1.12-3.74,1.45-5.81-1.91.66-3.74,1.33-5.52,1.95-.08,3.32-.12,6.31-.12,7.6,0,1.91-.75,2.78-1.62,2.78s-1.7-.79-1.99-3.07c.17-.66.25-1.91.33-6.02-1.04.42-2.12.83-3.2,1.29-.12,3.24-.21,6.94-.21,9.47,0,2.08.79,2.49,5.73,2.49,5.77,0,6.94-.21,7.93-.58.87-.33,1.5-1,1.74-1.66.25-.66.5-1.58.62-2.7.04-.42.21-.58.42-.58s.46.12.71.46c1.41,1.7,2.58,3.86,2.58,4.82,0,.83-.54,1.62-1.83,2.24-1.91.91-4.15,1.25-12.13,1.25-7.39,0-8.97-1.83-8.97-6.06,0-2.24.04-4.98.04-7.77-.42.17-.83.33-1.29.54-.17.04-.29.08-.42.08-.21,0-.37-.08-.54-.21-1.66-1.33-1.91-1.62-1.91-1.83,0-.17.08-.29.29-.37,1.41-.54,2.7-1,3.9-1.45.04-1.33.04-2.62.08-3.82,0-1.04-.21-1.91-.42-2.53-.12-.33-.29-.71-.29-1,0-.25.21-.37.54-.37.54,0,2.04.5,3.12,1.08.75.42,1.04.79,1.04,1.12,0,.42-.17.79-.29,1.12-.21.5-.25,1.25-.29,1.91l-.04,1.2Z"/><path class="cls-1" d="M127.4,11.3c0-1.37-.08-2.2-.29-2.95-1.41.17-2.74.33-3.7.46-.42,0-.75-.17-1.04-.54-.91-1.12-1.16-1.7-1.16-2.08,0-.17.12-.25.58-.25,2.82-.12,6.69-.5,9.93-1,.58-.08,1.12-.25,1.74-.54,1.37,0,3.07.96,3.07,2.04,0,.79-.42,1.08-2.04,1.2-1,.08-2.28.21-3.65.33.21.29.29.58.29.79s-.04.37-.12.71c-.12.58-.21,1.41-.21,2.33l-.04,1.62h.08c.58-.08,1.12-.25,1.74-.54,1.37,0,2.82.71,2.82,1.66,0,.71-.42,1-2.04,1.21-.83.12-1.74.25-2.66.37l-.12,6.73c1.37-.5,2.66-1,3.99-1.58.17-.08.37-.12.58-.12.37,0,.62.25.62.58,0,.21-.12.46-.42.71-2.16,1.66-5.07,3.49-8.72,5.19-.62.29-1.25.62-1.5.87s-.5.33-.83.33-1-.29-2.12-1.5c-.91-1.04-1.12-1.54-1.12-1.87,0-.25.29-.37.58-.37,1.16-.04,2.04-.12,3.53-.54l2.33-.66-.08-7.31c-1.12.12-2.24.29-3.28.42-.42,0-.75-.17-1.04-.54-.83-1-1.16-1.54-1.16-1.91,0-.17.21-.21.66-.25,1.21-.08,3.24-.29,4.82-.46l-.04-2.53ZM138.57,28.58c-.54.62-.79.91-1.08,1.29-.21.29-.46.5-.83.5-.58,0-1.2-.33-2.53-1.79-.79-.87-.87-1.25-.87-1.66,0-.21.25-.37.54-.42,1.12-.08,1.91-.25,2.62-.66,1.99-1.16,3.32-2.24,5.15-3.74.25-.21.46-.29.66-.29.29,0,.54.25.54.58,0,.17-.08.37-.21.58-1.25,2.12-2.33,3.61-3.99,5.61ZM147.05,19.11c2.08-1.66,3.28-2.82,4.07-3.78.58-.71.79-1.25.79-1.95,0-.42.21-.71.54-.71.17,0,.42.04.62.17,1,.54,1.54.96,2.49,1.79.21.21.5.58.5.87,0,.54-.17,1-1.45,1.58-1.7,1.16-4.36,2.28-6.77,3.07,1.91,1.87,3.74,3.49,5.98,5.36,1.91,1.58,3.45,2.62,5.57,3.7.5.25.75.5.75.79,0,.25-.33.5-.87.62-1.04.25-2.62.46-4.44.46-.91,0-1.25-.25-1.79-1-2.45-3.36-4.15-5.65-5.98-8.1,0,3.78.08,6.69.12,10.09-.17,1.62-.37,2.53-.83,3.45-.5.96-1.08,1.54-1.41,1.54-.5,0-1.16-.42-2.33-1.5-1.08-1.04-1.83-1.91-2.7-3.12-.21-.29-.29-.54-.29-.75s.17-.33.46-.33l.29.04c1.16.25,2.04.37,3.32.42V12.09c-2.2.25-4.4.5-6.6.79-.46-.04-.75-.17-1.45-1.12-.62-.83-.71-1.25-.71-1.45s.12-.29.5-.33c3.12-.21,5.86-.46,8.27-.67,0-1.5,0-2.99-.08-4.49-.08-1.79-.29-2.49-.54-3.12-.12-.25-.17-.42-.17-.58,0-.33.21-.5.66-.5.67,0,2.45.58,3.82,1.45.58.37.79.62.79.96,0,.29-.25.71-.37,1.04-.33.83-.58,2.41-.66,4.9l2.74-.33c.83-.08,1.54-.33,2.33-.75,2.16.12,3.82,1.25,3.82,2.45,0,.75-.75,1.04-2.41,1.08-2.12.04-4.32.17-6.52.37l-.04,7.31ZM141.19,18.9c0,.96-.54,1.41-1.33,1.41-.62,0-1.29-.29-2.08-1.08-.87-.87-1.74-1.91-2.24-2.99-.12-.25-.17-.42-.17-.58,0-.25.17-.37.54-.37.79,0,2.83.54,4.28,1.83.67.58,1,1.25,1,1.79ZM155.48,5.61c0,.79-.62,1.41-1.41,1.41-.62,0-1.45-.42-2.41-1.33-.58-.58-1.29-1.41-2.08-2.41-.17-.21-.25-.37-.25-.5,0-.29.37-.46.71-.46.67,0,2.74.46,3.99,1.21,1.08.66,1.45,1.33,1.45,2.08Z"/><path class="cls-1" d="M169.98,12.17c0-1.58-.12-2.58-.29-3.41-1.37.12-2.7.29-3.78.42-.42,0-.75-.17-1.29-.87-.66-.79-.91-1.37-.91-1.75,0-.17.12-.25.58-.25,2.82-.12,6.56-.5,9.43-.83.58-.08,1.16-.29,1.79-.58,1.21.12,3.07,1.12,3.07,2.12,0,.75-.42,1-2.04,1.12-1.08.08-2.33.21-3.7.33.5.42.75.87.75,1.16,0,.21-.04.37-.12.71-.12.58-.21,1.41-.21,2.33v.75c.37-.08.75-.25,1.16-.5,1.54,0,2.74.96,2.74,1.87,0,.71-.42,1-2.04,1.2l-1.91.25-.04,5.52c1.29-.58,2.62-1.25,3.7-1.83.21-.12.37-.17.5-.17.37,0,.62.29.62.62,0,.21-.12.46-.37.71-2.53,2.33-5.77,4.4-8.68,6.15-.62.37-.91.54-1.29.87-.42.37-.71.46-1.2.46-.42,0-.87-.29-1.66-1.2-1.08-1.25-1.25-1.75-1.25-2.08,0-.25.25-.42.54-.42,1.16-.04,1.99-.17,3.66-.79l2.37-.96-.08-6.48c-1.12.12-2.28.29-3.45.46-.42,0-.75-.17-1.04-.54-.91-1.12-1.16-1.54-1.16-1.91,0-.17.17-.21.62-.25,1.45-.12,3.28-.29,4.98-.5v-1.74ZM189.42,35.47c0,1.87-.62,2.33-1.54,2.33-1.08,0-2.2-2.2-2.2-3.66.17-.42.29-.79.37-1.54.12-1.25.17-2.87.17-6.65-3.61,3.41-8.02,6.15-12.29,7.81-.42.17-.75.21-.96.21-.29,0-.5-.17-.5-.5,0-.25.25-.54.75-.83,4.2-2.45,8.85-6.35,11.92-10.3-.58.08-1.16.12-1.7.21-.08.54-.42,1.08-1.16,1.08-1.04,0-1.62-.67-1.83-1.99-.42-2.91-.71-3.9-1.21-4.94-.17-.33-.25-.5-.25-.75,0-.12.08-.33.71-.33.54,0,1.37.25,2.33.75,4.19-.5,7.14-.87,9.88-1.08.83-.08,1.41-.17,2.2-.62.87.12,1.54.33,2.29.75,1.16.67,1.58,1.12,1.58,1.62,0,.46-.21.71-.67,1.08-.37.29-.54.5-1.08,1.25l-.46.62c.42.29.66.66.66.91,0,.08,0,.12-.04.25.54.21,1.25.62,2.08,1.25.62.46.87.83.87,1.08,0,.5-.17.62-1.16,1.08-1.91,1.04-3.45,1.79-5.23,2.49,1,.71,1.91,1.25,2.82,1.79,2.24,1.33,3.11,1.7,5.15,2.49.58.21,1.29.54,2.12.96.46.25.83.42.83.75s-.25.58-1.16.79c-1.2.29-3.32.62-4.11.62-.62,0-1-.29-2.04-1.16-2.53-2.2-4.65-4.07-7.06-6.23l-.08,8.43ZM178.49,14.29c-.79-.83-.96-1.12-.96-1.37,0-.17.17-.33.75-.37,5.03-.54,10.26-1.08,14.62-1.41,1.87-.12,2.74-.29,3.82-.75,1.83.25,3.45,1.29,3.45,2.08,0,.75-.33,1-1.37,1-1.54,0-2.99.04-4.32.12-5.57.25-11.67.96-14.79,1.37-.46,0-.71-.08-1.2-.67ZM181.48,11.34c-1.04,0-1.62-.66-1.83-1.99-.58-3.53-.83-4.44-1.33-5.48-.17-.33-.25-.5-.25-.75,0-.12.08-.33.58-.33.37,0,1.12.21,1.95.54,5.9-.62,9.97-1,13-1.16,1.41-.08,1.99-.25,2.78-.66.75.12,1.58.58,2.24,1.12,1,.83,1.41,1.37,1.41,1.87,0,.46-.12.71-.58,1.08-.37.29-.62.58-1,1.41-1.2,2.62-1.62,3.16-2.53,3.16-.54,0-.87-.21-1.12-.58-1.95.04-8.31.5-12.04.96-.17.42-.62.83-1.29.83ZM184.85,8.35c-.08-1.5-.21-2.49-.42-3.36-.75.08-1.45.17-2.2.25l.42,3.32,2.2-.21ZM183.31,20.56c3.32-.37,6.02-.62,9.43-.91.21-.75.42-1.58.58-2.41-3.12.25-6.23.58-10.18,1.08l.17,2.24ZM189.71,7.89c.08-1.2.12-2.45.17-3.45-.96.08-1.54.12-2.53.21l.08,3.45,2.28-.21ZM189.08,22.97c.46.54.54.79.54,1.16,0,.12,0,.25-.04.42.62.5,1.41,1.12,2.12,1.62,1.12-1,2.49-2.33,3.57-3.66.21-.25.33-.58.33-.96-.29.04-.62.08-1.04.08-1.41.04-3.03.12-4.65.25-.25.37-.54.71-.83,1.08ZM192.28,7.73c1.16-.08,1.87-.12,2.53-.17.29-1.29.5-2.33.67-3.45-.83.04-1.7.08-2.53.12l-.67,3.49Z"/><path class="cls-1" d="M216.46,10.72c.46-.08.96-.25,1.33-.5,1.58.25,2.7.96,2.87,1.74.08-.04.29-.08.62-.12,1.62-.17,3.32-.33,4.98-.46-.42-1.08-.91-2.08-1.58-3.03-.42.04-.87.12-1.29.17-.37,0-.62-.12-1.25-.75-.71-.75-.87-1.04-.87-1.29s.17-.33.58-.37c2.41-.21,4.78-.42,7.14-.62v-.46c0-1.5-.25-2.7-.66-3.49-.12-.21-.17-.37-.17-.54,0-.25.17-.46.58-.46,1.5.17,2.7.5,3.49.83.66.29.87.58.87.87,0,.25-.21.71-.33.96-.21.46-.33,1.16-.37,1.75v.21l2.7-.25c.87-.08,1.62-.25,2.33-.58,1.74.33,2.99,1,2.99,1.83,0,.75-.54,1-2.16,1.08l-1.87.12c.42.25.71.58.71.91s-.17.67-.33.87c-.42.54-.83,1-1.25,1.45l1.95-.17c1.12-.08,1.75-.33,2.45-.67,2.2.46,3.41,1.29,3.41,1.99,0,.75-.37,1-1.91,1.04-5.98.21-12.46.67-18.94,1.5-.25,0-.46-.08-.79-.42-.71-.71-1-1.08-1.12-1.29-.17.37-.62.54-1.37.62-.96.08-1.87.21-2.78.37l-.08,7.23c1.2-.67,2.37-1.33,3.41-1.99.21-.12.37-.17.54-.17.33,0,.54.17.54.46,0,.17-.08.33-.25.54-2.66,2.7-5.81,5.32-8.51,7.23-.83.58-1.33.91-1.79,1.41-.29.29-.62.46-.96.46-.58-.04-1.2-.62-1.95-1.66-.66-.91-1-1.75-1-2.12,0-.25.21-.42.46-.46,1.75-.17,2.49-.42,3.61-.87.79-.33,1.7-.75,2.7-1.21l-.12-8.26c-1.29.25-2.62.5-3.95.79-.5,0-.83-.17-1.45-1.04-.62-.87-.79-1.12-.79-1.41,0-.25.17-.33.58-.37,1.99-.21,3.82-.54,5.57-.83l-.04-4.61c0-1.45-.25-2.58-.54-3.24-.17-.33-.29-.71-.29-1,0-.25.21-.42.58-.42.58,0,1.95.33,2.78.67,1.04.42,1.66.91,1.66,1.37,0,.5-.12.83-.29,1.16-.17.37-.33,1.12-.33,2.41l-.04,3.07ZM227.92,25.21c1.12.87,1.5,1.41,1.5,1.95,0,.42-.21.79-.83,1.5-2.53,3.99-6.6,6.69-12.13,8.02-.12.04-.25.04-.33.04-.42,0-.62-.25-.62-.5s.17-.5.54-.67c4.53-1.99,7.81-5.27,9.39-8.51.21-.37.33-.79.37-1.16-.21.29-.5.46-.87.46-.83,0-1.58-.75-1.87-2.16,0-.17.04-.37.04-.67,0-.5-.04-1.29-.12-2.62-.12-2.16-.37-3.61-.79-4.69-.08-.21-.12-.42-.12-.54,0-.29.17-.42.42-.42.37,0,1.33.29,2.33.75,3.82-.5,7.19-.83,9.84-1,.75-.04,1.16-.21,1.91-.66.87.29,1.62.75,2.33,1.29.87.67,1.33,1.21,1.33,1.66,0,.42-.21.75-.46,1.08-.33.46-.5.87-.58,1.21-.37,1.91-.83,3.99-1.16,4.98-.33,1.04-.79,1.5-1.45,1.5s-1.12-.42-1.41-1.29c-.29,0-.58,0-1.95.08.33.17.66.37,1.04.62.33.21.54.46.54.71,0,.29-.08.54-.21.87-.17.42-.21,1.25-.25,2.33l-.08,2.74c0,1.33.33,1.66,2.87,1.66,2.95,0,3.78-.29,4.4-1.12.33-.46.62-1.58.62-3.16,0-.42.12-.62.46-.62.42,0,1.08.62,2.33,2.87.42.75.75,1.66.75,2.28s-.46,1.29-1.45,1.79c-1.29.58-2.99.96-7.27.96-4.9,0-5.94-1.58-5.94-4.28,0-.96.04-2.62.04-3.95s-.04-2.49-.46-3.57l-2.66.25ZM225.85,19.73c2.91-.37,5.27-.62,7.19-.75.37-.04.75-.08,1.29-.33.33.08.87.25,1.45.46l.17-1.91c-3.45.12-6.56.37-10.18.91l.08,1.62ZM226.01,23.26c3.07-.33,6.19-.54,9.26-.71l.29-1.87c-3.24.21-6.44.46-9.64.87l.08,1.7ZM232.78,10.8c.33-1.04.67-2.16.75-3.28-2.62.21-3.99.33-5.36.46.37.29.5.67.54,1.04.04.37.12,1.25.17,2.12,1.91-.17,2.91-.25,3.9-.33Z"/><path class="cls-1" d="M259.54,34.02c0,1.83-.58,2.78-1.7,2.78-1.21,0-2.24-2.12-2.24-3.86.33-1.21.5-1.99.54-3.36.12-3.24.25-6.31.33-9.68-2.12,2.66-4.11,4.44-6.73,6.23-.42.29-.87.42-1.29.42s-.58-.29-.58-.58c0-.21.29-.46.58-.79,2.04-2.16,4.61-4.82,7.1-9.68-1.83.33-3.61.66-5.15.96-.33,0-.79-.12-1.41-.87-.71-.83-.96-1.16-.96-1.5,0-.25.17-.33.58-.37,2.74-.29,5.52-.71,7.85-1.08v-2.16c0-1.12-.04-1.91-.17-2.58-1.91.58-3.78,1-5.23,1.25-.46,0-.79-.08-.79-.5,0-.37.21-.42.79-.67,2.82-1.29,5.23-2.7,7.23-4.28.58-.46.91-.91,1-1.37.08-.54.12-.91.71-.91.67,0,1.79.83,2.29,1.33.58.54,1.08,1.16,1.08,1.66,0,.46-.21.75-.58.96-1.08.58-2.37,1.16-3.74,1.66.75.46,1.16.91,1.16,1.66,0,.33-.08.67-.21,1.16-.08.29-.12,1.12-.17,2.24,1.16-.21,1.7-.42,2.16-.75,1.7.5,2.49,1.29,2.49,2.04,0,.54-.5.91-1.66,1.04-.91.08-1.95.25-3.07.42l-.04,1.95c2.12.04,5.23,1.37,5.23,3.24,0,1.08-.79,1.54-1.33,1.54-.58,0-1.08-.21-1.41-.54-1.04-1.12-1.79-1.95-2.49-2.58l-.17,15.58ZM279.35,20.31c1.83-.37,2.16-.46,3.2-1.04,1.41.21,3.7.96,3.7,2.53,0,.91-.37.91-1.79,1.08-2.08.17-4.03.33-5.94.58l-.04,8.76c0,3.9-.71,5.61-1.95,5.61-.96,0-1.66-2.04-1.66-5.61,0-2.78.04-5.57.04-8.31-3.32.46-6.56,1.04-10.13,1.75-.37,0-.58,0-.83-.25-.46-.42-1.25-1.29-1.58-1.87-.08-.12-.08-.21-.08-.29,0-.21.17-.37.54-.42,4.19-.62,8.1-1.25,12.13-1.87.04-4.82.04-9.64.08-14.5,0-2.28-.17-3.99-.5-4.86-.04-.17-.08-.33-.08-.46,0-.33.21-.58.75-.58.96.08,2.28.54,3.16.96s1.08.87,1.08,1.33c0,.25-.08.46-.33,1.04-.29.62-.5,1.29-.5,3.32l-.08,13.21.83-.12ZM270.75,18.52c-.75,0-1.54-.29-2.45-1.25-.91-.96-1.79-2.2-2.16-3.03-.08-.17-.12-.33-.12-.42,0-.37.25-.46.67-.46.83,0,2.91.5,4.03,1.21,1.12.66,1.74,1.37,1.74,2.41,0,.87-.58,1.54-1.7,1.54ZM272.12,11.8c-.75,0-1.54-.29-2.45-1.25-.91-.96-1.79-2.2-2.16-3.03-.08-.17-.12-.33-.12-.42,0-.37.25-.46.67-.46.87,0,2.91.5,4.03,1.21,1.12.66,1.74,1.37,1.74,2.41,0,.87-.58,1.54-1.7,1.54Z"/><path class="cls-1" d="M315.03,3.49c.12-.29.17-.58.17-.91,0-.42-.08-.83-.29-1.33,0-.33.21-.62.75-.62.71,0,1.87.58,3.16,1.45.46.29,1,.83,1,1.29,0,.42-.21.87-.62,1.21-1.54,1.74-2.82,2.95-4.49,4.11,1.54-.12,3.03-.21,4.53-.29,1.54-.08,2.24-.21,3.07-.5.62.21,1.58.79,2.78,1.83,1.16,1,1.75,1.95,1.75,2.58,0,.58-.46,1.04-1.62,1.37-1.95.54-4.24,1-5.11,1-.25,0-.46-.12-.46-.33,0-.25.08-.37.21-.58.71-1.04,1-1.62,1.5-2.58-7.85.12-16.61.79-25.38,1.83-.17,3.61-1.37,5.48-2.78,5.48-1.16,0-1.83-1.21-1.83-2.37,0-.79.17-1.08.71-1.87.87-1.25,1.33-3.24,1.33-4.98,0-.62.08-.79.46-.79s1.2.79,1.7,1.87c5.52-.58,11.05-1.08,16.57-1.5,1.29-1.87,2.16-3.45,2.91-5.36ZM311,21.97c3.07-.25,5.61-.42,7.43-.46,1.12-.04,2.12-.29,2.78-.58,2.62.67,4.32,2.04,4.32,3.2,0,.71-.46,1-1.62,1-2.91-.33-5.48-.42-7.97-.42-1.08,0-2.41.04-3.95.12.21.83.29,1.74.29,2.7,0,4.65-.91,7.48-3.45,9.34-.42.33-.87.46-1.29.46-.46,0-.66-.08-1.04-.46-1.33-1.41-2.33-2.58-3.28-3.99-.21-.29-.37-.58-.37-.83,0-.21.17-.33.29-.33.17,0,.58.04,1.04.17,1.08.29,2.53.58,3.28.58.21,0,.33-.12.46-.37.46-1.04.79-2.7.79-5.19,0-.67-.04-1.29-.08-1.87-4.36.33-9.55.87-14.5,1.62-.71,0-1-.17-1.33-.54-1.29-1.45-1.37-1.79-1.37-2.12,0-.25.25-.33,1.08-.42,5.48-.54,10.88-1.04,15.53-1.41-.33-.87-.79-1.58-1.37-2.24-.46-.5-.71-.79-.71-1.08,0-.21.17-.37.5-.37.71,0,1.54.33,2.29.83,1.2-1,2.28-1.95,3.41-3.28-2.82.25-6.35.62-9.84,1.25-.5,0-.96-.37-1.5-.91-.71-.75-.83-1.04-.83-1.37,0-.21.17-.29.62-.33,5.61-.46,7.93-.71,10.47-.96,2.12-.21,2.82-.58,3.28-.87,1,.33,1.83.83,2.78,1.79.54.54.79.96.79,1.41,0,.42-.33.71-1,.87-.46.12-.83.33-1.58.75-1.91,1.04-3.36,1.91-5.32,2.74.37.46.79,1.21.96,1.58ZM296.67,3.12c-.08-.25-.12-.42-.12-.58,0-.33.21-.5.46-.5.08,0,.21,0,.33.04,2.2.79,4.98,2.99,4.98,5.19,0,1.25-.71,1.83-1.66,1.83-.67,0-1.29-.5-1.91-1.58-.75-1.21-1.5-2.78-2.08-4.4ZM309.88,5.73c0,1.29-.5,2.12-1.66,2.12-.79,0-1.45-.62-1.99-1.83-1.04-2.24-1.45-4.28-1.45-4.9,0-.25.17-.54.54-.54.21,0,.42.08.71.25,2.08,1.25,3.86,3.16,3.86,4.9Z"/><path class="cls-1" d="M337.1,12.3c-.19-.8-.42-1.48-.95-2.13-.11-.15-.3-.42-.3-.61,0-.46.53-.61,1.03-.61.61,0,2.36.49,3.15.84.87.38,1.03.65,1.03,1.03,0,.49-.19,1.1-.19,1.48,0,.3.04,1.06.19,2.01.23,1.44.65,3.76,1.41,5.51,1.98-1.03,4.1-2.17,6.42-3.46.99-.57,1.37-.95,1.52-1.6.15-.65.34-1.03.61-1.03.38,0,.68.08,1.06.34,1.44.99,2.43,2.43,2.43,3.31,0,.57-.34.84-1.48,1.18-6.65,2.62-10.98,4.52-13.72,6.35-2.32,1.56-4.18,3.46-4.18,5.43,0,2.2,1.79,3.38,7.18,3.38,3.27,0,5.78-.23,7.83-.61.76-.38,1.33-.53,1.75-.53,1.9,0,3.3,1.41,3.3,2.47,0,.87-.53,1.29-1.63,1.48-1.94.34-5.58.49-9.69.49-6.72,0-11.25-1.75-11.25-6.5,0-3.27,1.71-5.74,7.14-9.2-.91-2.17-1.63-4.63-2.66-9.04Z"/><path class="cls-1" d="M368,7.02c-.37,0-.71-.21-1.37-1.16-.62-.79-.66-1.08-.66-1.33,0-.12.08-.25.46-.29,9.43-.62,16.78-1.08,22.89-1.5.96-.08,2.08-.17,3.32-.79,2.7.5,4.11,1.54,4.11,2.49s-.29,1.12-2.45,1.16c-7.89.12-14.75.5-22.84,1.12.91.83,1.04,1.12,1.04,2.12,0,.21-.08.79-.21,1.37-1.37,7.35-3.86,14.79-8.85,19.31-.25.25-.54.37-.75.37-.25,0-.46-.21-.46-.5,0-.21.08-.46.25-.71,3.45-5.07,4.98-11.5,5.86-16.9.21-1.2.29-1.87.29-2.37,0-1.04-.04-1.62-.33-2.45l-.29.04ZM387.23,25.67c1.16-.17,1.95-.42,2.74-.83,2.41.12,3.65,1.16,3.65,2.12,0,.71-.66,1.04-1.79,1.08-2.08.08-4.49.29-6.94.62l-.08,4.07,6.65-.21c1.16-.04,1.79-.08,2.91-.46,2.74.71,3.61,1.62,3.61,2.62,0,.79-.58.96-1.45.96-2.49-.21-4.86-.29-7.31-.29-5.19,0-11.01.29-18.9,1.16-.58,0-.96-.21-1.62-1-.87-1-.91-1.21-.91-1.41,0-.25.17-.33.71-.37,2.04-.17,3.99-.29,5.77-.42l-.21-2.37c-.21-2.33-.58-3.24-.87-3.9-.12-.33-.29-.62-.29-.87s.17-.54.54-.54c.46,0,1.41.12,2.49.5,1.29.46,1.58.96,1.58,1.37,0,.25-.08.62-.17.91-.04.21-.08.46-.08.91,0,.33.04.75.04,1.25l.08,2.53c1.41-.04,2.78-.12,4.19-.21l-.08-5.98c-.04-2.33-.21-3.32-.46-3.99-.12-.33-.25-.71-.25-1,0-.25.21-.5.58-.5.5,0,1.5.29,2.58.75,1.25.54,1.62,1.08,1.62,1.5s-.12.79-.25,1.08c-.12.25-.21.54-.29,1.25l2.2-.33ZM376.85,16.53c-1.7,2.04-3.57,3.78-5.69,5.11-.17.08-.29.12-.42.12-.29,0-.5-.21-.5-.46,0-.21.12-.42.33-.62,1.83-1.79,3.78-4.49,5.15-7.1l-1.54.17c-.5,0-.67-.08-.96-.37-.75-.91-1.08-1.37-1.08-1.58s.12-.29.66-.33c1.37-.12,2.62-.21,4.03-.29v-.62c0-1.16-.12-1.95-.33-2.58-.08-.29-.17-.42-.17-.58s.17-.29.5-.29c.42,0,1.5.21,2.82.91.37.21.5.42.5.62,0,.29-.08.54-.33.96-.21.37-.25.75-.29,1.33.62-.08,1.08-.17,1.66-.5,1.41.37,2.37,1.12,2.37,1.91,0,.54-.37.62-1.66.75l-2.37.17v.71c.87.08,1.91.37,2.66.79.62.37,1.04.83,1.04,1.54s-.5,1.25-1.29,1.25c-.25,0-.75-.21-1.12-.67-.42-.5-.83-.96-1.29-1.45v6.44c0,1.62-.54,2.16-1.2,2.16-.91,0-1.62-.96-1.87-2.53.25-.91.33-1.62.37-3.53v-1.41ZM387.85,15.91c-1.79,1.87-3.95,3.32-6.31,4.4-.12.04-.25.08-.37.08-.33,0-.54-.21-.54-.5,0-.17.08-.37.33-.58,1.99-1.54,4.36-4.19,5.86-6.52l-1.29.12c-.46,0-.67-.08-.96-.37-.79-.91-1.12-1.33-1.12-1.54s.12-.33.71-.37c1.21-.08,2.45-.21,3.7-.33v-.42c0-1.16-.08-1.95-.33-2.58-.12-.29-.17-.42-.17-.58s.17-.29.5-.29c.42,0,1.54.25,2.87.96.37.21.5.42.5.62,0,.29-.08.54-.33.96-.17.33-.25.62-.29,1.08l1.5-.17c.91-.12,1.54-.33,2.2-.58,1.7.42,2.45,1.08,2.45,1.83,0,.71-.37.96-1.7,1-1.12.04-2.45.12-3.78.25,2.16,1.83,3.9,3.16,6.19,4.57.33.21.83.46,1.45.79.42.21.83.42,1.33.71.54.29.75.5.75.79,0,.25-.37.42-.91.54-1.16.25-2.33.33-3.12.33-.83,0-1.25-.04-1.99-.87-1.66-1.83-2.99-3.24-4.36-4.86v6.98c0,1.62-.5,2.16-1.29,2.16-.87,0-1.62-1.12-1.83-2.53.25-.91.37-1.62.37-3.41v-1.66Z"/><path class="cls-1" d="M429.97,15.87c.66.42,1.04.96,1.04,1.41,0,.67-.79.87-2.28.91-2.82.04-5.61.17-8.39.29-.33,2.41-.87,4.78-1.87,6.98,3.61,2.45,6.6,4.28,9.14,5.61,1.62.87,3.28,1.5,4.73,1.99,1.99.67,2.78.96,4.36,1.75.37.21.5.46.5.62,0,.42-.37.66-.96.79-1.7.42-4.49.71-6.15.71-.91,0-1.25-.08-1.83-.54-2.99-2.28-6.65-5.03-11.13-8.56-.67,1.04-1.45,1.99-2.41,2.91-2.41,2.28-6.11,4.61-11.71,5.65-.46,0-.66-.29-.66-.58,0-.21.12-.42.33-.5,3.45-1.45,7.6-3.95,9.84-6.56.79-.91,1.41-1.91,1.99-2.99-2.08-1.62-2.82-2.2-3.61-2.66-.5-.29-1.12-.5-1.45-.62-.42-.17-.58-.42-.58-.79,0-.17.29-.29.66-.37.58-.12,1.29-.21,2.04-.21.79,0,1.29.25,1.95.87.67.5,1.33.96,1.99,1.41.5-1.5.87-3.07,1.12-4.65-1.41.08-3.41.21-5.11.42-.12,1-.71,1.29-1.41,1.29-.83,0-1.7-.62-2.12-2.37,0-.71,0-1.12-.42-4.03-.42-3.03-.71-3.86-1.21-4.74-.25-.42-.29-.75-.29-.91,0-.25.33-.46.79-.46.62,0,1.75.42,2.91,1.16,2.45-.29,4.94-.5,7.43-.71v-3.61c0-1.54-.21-2.33-.5-2.95-.21-.5-.29-.79-.29-1,0-.25.21-.46.58-.46.91,0,2.12.37,2.95.75,1.29.58,1.87,1.12,1.87,1.7,0,.37-.12.66-.33,1-.21.33-.37,1.21-.42,2.12-.04.67-.04,1.37-.08,2.16,1.91-.17,3.78-.29,5.52-.37.75-.04,1.37-.25,2.16-.79,1,.17,1.66.54,2.62,1.29.96.75,1.37,1.33,1.37,1.83,0,.42-.17.66-.5,1-.37.37-.62.62-1.04,1.7l-1.16,3.12ZM411.37,16.57c1.87-.17,3.74-.29,5.61-.42.17-1.54.25-3.53.25-5.27-2.08.17-4.2.37-6.27.62l.42,5.07ZM426.65,15.53c.33-1.7.62-3.53.87-5.32-2.29.12-4.49.25-6.6.37-.08,1.99-.12,3.41-.29,5.32l6.02-.37Z"/><path class="cls-1" d="M463.71,3.49c.12-.29.17-.58.17-.91,0-.42-.08-.83-.29-1.33,0-.33.21-.62.75-.62.71,0,1.87.58,3.16,1.45.46.29,1,.83,1,1.29,0,.42-.21.87-.62,1.21-1.54,1.74-2.82,2.95-4.49,4.11,1.54-.12,3.03-.21,4.53-.29,1.54-.08,2.24-.21,3.07-.5.62.21,1.58.79,2.78,1.83,1.16,1,1.74,1.95,1.74,2.58,0,.58-.46,1.04-1.62,1.37-1.95.54-4.24,1-5.11,1-.25,0-.46-.12-.46-.33,0-.25.08-.37.21-.58.71-1.04,1-1.62,1.5-2.58-7.85.12-16.61.79-25.38,1.83-.17,3.61-1.37,5.48-2.78,5.48-1.16,0-1.83-1.21-1.83-2.37,0-.79.17-1.08.71-1.87.87-1.25,1.33-3.24,1.33-4.98,0-.62.08-.79.46-.79s1.21.79,1.7,1.87c5.52-.58,11.05-1.08,16.57-1.5,1.29-1.87,2.16-3.45,2.91-5.36ZM459.68,21.97c3.07-.25,5.61-.42,7.43-.46,1.12-.04,2.12-.29,2.78-.58,2.62.67,4.32,2.04,4.32,3.2,0,.71-.46,1-1.62,1-2.91-.33-5.48-.42-7.97-.42-1.08,0-2.41.04-3.95.12.21.83.29,1.74.29,2.7,0,4.65-.91,7.48-3.45,9.34-.42.33-.87.46-1.29.46-.46,0-.67-.08-1.04-.46-1.33-1.41-2.33-2.58-3.28-3.99-.21-.29-.37-.58-.37-.83,0-.21.17-.33.29-.33.17,0,.58.04,1.04.17,1.08.29,2.53.58,3.28.58.21,0,.33-.12.46-.37.46-1.04.79-2.7.79-5.19,0-.67-.04-1.29-.08-1.87-4.36.33-9.55.87-14.5,1.62-.71,0-1-.17-1.33-.54-1.29-1.45-1.37-1.79-1.37-2.12,0-.25.25-.33,1.08-.42,5.48-.54,10.88-1.04,15.53-1.41-.33-.87-.79-1.58-1.37-2.24-.46-.5-.71-.79-.71-1.08,0-.21.17-.37.5-.37.71,0,1.54.33,2.28.83,1.2-1,2.28-1.95,3.41-3.28-2.82.25-6.36.62-9.84,1.25-.5,0-.96-.37-1.5-.91-.71-.75-.83-1.04-.83-1.37,0-.21.17-.29.62-.33,5.61-.46,7.93-.71,10.47-.96,2.12-.21,2.82-.58,3.28-.87,1,.33,1.83.83,2.78,1.79.54.54.79.96.79,1.41,0,.42-.33.71-1,.87-.46.12-.83.33-1.58.75-1.91,1.04-3.36,1.91-5.32,2.74.37.46.79,1.21.96,1.58ZM445.35,3.12c-.08-.25-.12-.42-.12-.58,0-.33.21-.5.46-.5.08,0,.21,0,.33.04,2.2.79,4.98,2.99,4.98,5.19,0,1.25-.71,1.83-1.66,1.83-.66,0-1.29-.5-1.91-1.58-.75-1.21-1.5-2.78-2.08-4.4ZM458.55,5.73c0,1.29-.5,2.12-1.66,2.12-.79,0-1.45-.62-1.99-1.83-1.04-2.24-1.45-4.28-1.45-4.9,0-.25.17-.54.54-.54.21,0,.42.08.71.25,2.08,1.25,3.86,3.16,3.86,4.9Z"/><path class="cls-1" d="M490.17,18.9c0,2.04-1.5,3.53-3.53,3.53s-3.53-1.5-3.53-3.53,1.5-3.53,3.53-3.53,3.53,1.5,3.53,3.53Z"/><path class="cls-1" d="M525.72,11.09c1.25-.08,1.99-.33,2.91-.79,2.91.54,4.32,1.66,4.32,2.7,0,.71-.54,1.04-1.25,1.04-4.61,0-8.97.17-13.21.46-1.16,1-2.41,1.99-3.66,2.95.08.21.08.37.08.62,0,.42,0,.83-.08,1.33,2.45-.87,4.28-1.75,5.15-2.37.42-.29.62-.5.67-.79l.04-.33c.04-.33.17-.5.62-.5.29,0,.83.21,1.7.67,1.25.75,1.7,1.33,1.7,1.95,0,.54-.46,1-1.29,1.29-.87.29-1.79.58-3.07.91-2.58.67-4.4,1-5.81,1.12-.12.58-.25,1.25-.42,2.08,2.99-.42,5.36-.66,7.14-.83.46-.04,1.08-.25,1.5-.46.79.17,1.7.54,3.03,1.95.83.91.91,1.33.91,1.83,0,.46-.17.79-.66,1.16-.37.29-.54.54-.71.91l-.5,1.25c-1.25,3.24-3.41,6.4-5.65,8.18-.54.42-.91.58-1.33.58-.58,0-1-.25-1.74-1.16-.71-.83-1.5-1.91-2.16-2.91-.33-.54-.46-.91-.46-1.12s.17-.33.29-.33c.54,0,.91.08,1.45.33.91.37,1.87.58,2.41.58.25,0,.54-.29.96-.83,1.74-2.28,2.87-4.44,3.61-7.52-3.36.37-5.52.75-7.35,1.2-.5.12-1.04.37-1.37.58-.33.21-.66.33-.96.33-1.04,0-2.24-1.7-2.24-2.82.29-.46.37-.62.54-1.12.25-.75.54-2.16.67-3.41-4.11,2.74-8.56,4.98-13.25,6.48-.58.21-.91.21-1.16.21-.33,0-.58-.37-.58-.62s.25-.46.75-.71c5.15-2.66,10.76-6.27,15.7-10.22-3.7.42-7.43.91-11.34,1.54-.42,0-.91-.21-1.25-.54-1.25-1.37-1.41-1.62-1.41-2.08,0-.21.17-.25.75-.33,4.28-.5,8.56-.96,12.88-1.33l-.04-3.24c-1.62.21-3.36.42-5.19.67-.58,0-.96-.21-1.83-1.25-.5-.71-.66-1-.66-1.41,0-.25.17-.37.58-.42,2.33-.08,4.69-.25,7.06-.46v-1.66c0-1.5-.21-2.45-.5-3.07-.17-.33-.29-.71-.29-1,0-.25.21-.37.58-.37.75,0,2.53.5,3.7,1.12.79.46,1.08.83,1.08,1.16,0,.42-.17.87-.33,1.25-.21.46-.42,1.37-.46,2.16l.46-.04c1.08-.12,1.62-.29,2.16-.62,1.66.33,2.53,1.04,2.78,1.66.54-.62,1.04-1.25,1.5-1.87.33-.46.67-1.12.79-1.45.04-.12.08-.29.08-.5,0-.17-.04-.37-.08-.54,0-.29.12-.54.42-.54,1.62,0,3.78,1.99,3.78,2.95,0,.42-.25.79-.96,1.25-.33.25-.62.5-1.21,1.16-1.33,1.45-2.7,2.87-4.11,4.24l3.82-.29ZM516.67,11.84c1.29-1.12,2.49-2.37,3.66-3.57-1.54.08-2.83.21-4.15.33l-.08,3.28.58-.04Z"/><path class="cls-1" d="M564.6,33.85c-4.49,0-9.47.29-14.41.79-.17.87-.79,1.5-1.45,1.5-1.25,0-2.04-1.08-2.45-2.99,0-1.74-.12-2.82-.5-6.06-.33-3.03-.87-4.36-1.29-5.19-.17-.29-.29-.66-.29-.96s.21-.42.58-.42c.71,0,1.99.42,3.28,1.08,3.28-.33,4.9-.5,6.56-.67l-.04-7.19c-4.24.42-8.97,1-13.54,1.7-.5,0-.71,0-1.37-.79-1.16-1.41-1.33-1.83-1.33-2.16,0-.25.33-.33.75-.37,5.65-.62,10.72-1.12,15.49-1.54v-2.66c0-3.2-.21-4.44-.67-5.4-.17-.33-.21-.58-.21-.79,0-.42.37-.54,1-.54.87,0,3.07.79,4.15,1.45.37.25.62.54.62.96,0,.33-.17.75-.29,1-.37.75-.58,1.79-.62,3.74l-.04,1.91c2.66-.21,5.19-.42,7.68-.58.96-.08,2.74-.37,3.82-.87,3.2.75,4.61,1.95,4.61,3.12,0,.71-.5,1.25-1.75,1.25-1.41-.08-2.87-.17-4.73-.17-1.37,0-2.91.04-4.86.12-1.41.08-3.03.17-4.82.29l-.08,7.19c1.45-.12,2.82-.21,4.15-.33,1.04-.08,1.91-.29,2.7-.75,1.04.21,2.04.79,2.82,1.37.91.71,1.54,1.41,1.54,1.91,0,.46-.21.75-.58,1.2-.33.42-.62,1.08-.83,1.83-.5,1.74-1,3.57-1.58,5.4.67.5,1.08,1.04,1.08,1.54,0,.75-.58,1.08-1.95,1.08h-1.16ZM549.98,31.73c4.36-.37,8.72-.66,13.12-.91.5-2.62.96-5.52,1.16-7.6-4.9.17-9.59.54-15.04,1.21l.75,7.31Z"/><path class="cls-1" d="M604.11,3.49c.12-.29.17-.58.17-.91,0-.42-.08-.83-.29-1.33,0-.33.21-.62.75-.62.71,0,1.87.58,3.16,1.45.46.29,1,.83,1,1.29,0,.42-.21.87-.62,1.21-1.54,1.74-2.82,2.95-4.49,4.11,1.54-.12,3.03-.21,4.53-.29,1.54-.08,2.24-.21,3.07-.5.62.21,1.58.79,2.78,1.83,1.16,1,1.74,1.95,1.74,2.58,0,.58-.46,1.04-1.62,1.37-1.95.54-4.24,1-5.11,1-.25,0-.46-.12-.46-.33,0-.25.08-.37.21-.58.71-1.04,1-1.62,1.5-2.58-7.85.12-16.61.79-25.38,1.83-.17,3.61-1.37,5.48-2.78,5.48-1.16,0-1.83-1.21-1.83-2.37,0-.79.17-1.08.71-1.87.87-1.25,1.33-3.24,1.33-4.98,0-.62.08-.79.46-.79s1.21.79,1.7,1.87c5.52-.58,11.05-1.08,16.57-1.5,1.29-1.87,2.16-3.45,2.91-5.36ZM600.08,21.97c3.07-.25,5.61-.42,7.43-.46,1.12-.04,2.12-.29,2.78-.58,2.62.67,4.32,2.04,4.32,3.2,0,.71-.46,1-1.62,1-2.91-.33-5.48-.42-7.97-.42-1.08,0-2.41.04-3.95.12.21.83.29,1.74.29,2.7,0,4.65-.91,7.48-3.45,9.34-.42.33-.87.46-1.29.46-.46,0-.67-.08-1.04-.46-1.33-1.41-2.33-2.58-3.28-3.99-.21-.29-.37-.58-.37-.83,0-.21.17-.33.29-.33.17,0,.58.04,1.04.17,1.08.29,2.53.58,3.28.58.21,0,.33-.12.46-.37.46-1.04.79-2.7.79-5.19,0-.67-.04-1.29-.08-1.87-4.36.33-9.55.87-14.5,1.62-.71,0-1-.17-1.33-.54-1.29-1.45-1.37-1.79-1.37-2.12,0-.25.25-.33,1.08-.42,5.48-.54,10.88-1.04,15.53-1.41-.33-.87-.79-1.58-1.37-2.24-.46-.5-.71-.79-.71-1.08,0-.21.17-.37.5-.37.71,0,1.54.33,2.28.83,1.2-1,2.28-1.95,3.41-3.28-2.82.25-6.36.62-9.84,1.25-.5,0-.96-.37-1.5-.91-.71-.75-.83-1.04-.83-1.37,0-.21.17-.29.62-.33,5.61-.46,7.93-.71,10.47-.96,2.12-.21,2.82-.58,3.28-.87,1,.33,1.83.83,2.78,1.79.54.54.79.96.79,1.41,0,.42-.33.71-1,.87-.46.12-.83.33-1.58.75-1.91,1.04-3.36,1.91-5.32,2.74.37.46.79,1.21.96,1.58ZM585.75,3.12c-.08-.25-.12-.42-.12-.58,0-.33.21-.5.46-.5.08,0,.21,0,.33.04,2.2.79,4.98,2.99,4.98,5.19,0,1.25-.71,1.83-1.66,1.83-.66,0-1.29-.5-1.91-1.58-.75-1.21-1.5-2.78-2.08-4.4ZM598.96,5.73c0,1.29-.5,2.12-1.66,2.12-.79,0-1.45-.62-1.99-1.83-1.04-2.24-1.45-4.28-1.45-4.9,0-.25.17-.54.54-.54.21,0,.42.08.71.25,2.08,1.25,3.86,3.16,3.86,4.9Z"/><path class="cls-1" d="M635.57,25.63c-4.55,1.89-6.22,3.55-6.22,5.25,0,1.55,1.52,2.55,5.07,2.55,2.92,0,4.29-.15,5.96-.41.59-.11,1.22-.33,1.89-.56,2.55.11,3.63,1,3.63,1.96,0,.78-.59,1.33-1.55,1.52-1.33.26-4.51.44-7.81.44-5.85,0-9.51-1.33-9.51-5.18,0-3.59,3.26-5.88,8.4-8.21-.15-1.59-.52-2.81-2.11-2.81-1.7,0-3.66.67-5.4,1.92-1.07.78-1.81,1.48-2.63,2.41-.44.48-.81.7-1.29.7-.81,0-1.22-1-1.22-2.18,0-.74.11-1.15.89-1.59.81-.48,1.48-1,2.44-1.89.89-.85,2-2.11,3.59-4.29-1.7.22-3.33.37-4.81.44-.48,0-1.04-.33-1.74-1.22-.33-.41-.48-.7-.48-.96,0-.22.15-.3.59-.3,2.85-.04,5.4-.18,7.96-.52,1.15-2.07,1.41-2.92,1.41-3.77,0-.26-.07-.59-.22-1-.07-.19-.18-.41-.18-.56,0-.26.15-.41.74-.41,1.63,0,4,1.04,4,1.96,0,.48-.19.67-.59,1.07-.48.52-.89,1.07-1.7,2.29,1.55-.26,2.44-.44,3.52-.7.67-.15,1.07-.33,1.7-.74,2.29.07,3.37.81,3.37,1.7,0,.74-.26.92-1.18,1.11-2.44.48-5.29.89-8.95,1.37-1.11,1.41-2.07,2.52-3.29,4,1.44-.44,2.96-.59,4.14-.59,2.63,0,3.74,1.37,4.4,3.4,2.66-1.04,4.4-1.78,6.22-2.74.44-.22.7-.7.7-1.22,0-.48.07-.67.48-.67.33,0,.89.22,1.7.89,1.26,1,1.85,1.81,1.85,2.59,0,.63-.3.89-1.7,1.11-3.15.78-5.25,1.48-8.81,2.78.04,1.33.04,2.81.04,4.14-.04,1.3-.55,1.96-1.67,1.96-1,0-1.67-.67-1.67-2.18.04-.52.07-1.18.07-1.85v-1.04Z"/><path class="cls-1" d="M664.99,20.35c.96.62,1.16,1,1.16,1.25,0,.42-.21.79-.58,1.25-.91,1.12-2.08,2.24-3.49,3.03-.21.12-.5.21-.71.21-.12,0-.25-.04-.33-.08l.04,6.85c0,1.83-.46,2.53-1.37,2.53-1,0-1.7-.91-1.91-2.82.17-1.95.25-4.11.25-6.69,0-3.57-.21-4.73-.71-6.06-.12-.33-.29-.75-.29-1.04,0-.17.17-.42.66-.42.33,0,.83.17,1.41.42,5.15-.62,8.51-1,11.55-1.29,1.79-.17,2.37-.42,2.91-.71.96.29,1.79.91,2.49,1.54.67.58.91,1.08.91,1.5,0,.33-.12.62-.37.91-.33.42-.5.96-.5,2.2,0,2.45-.17,7.56-.29,9.64-.58,3.28-1.5,4.32-2.58,4.32-.46,0-1.12-.33-2.87-2.2-1.33-1.5-1.54-1.95-1.54-2.24,0-.25.21-.42.42-.42,1.04.12,2.49.29,3.32.29.17-2.28.25-5.23.29-8.06-.58.17-.96.21-2.49.21-2.62,0-3.07-.66-3.07-2.33v-2.04l-2.33.25ZM673.01,5.77c-3.66.21-8.6.67-12.42,1.16-.5-.04-.75-.12-1.37-.91-.66-.87-.79-1.08-.79-1.37,0-.25.17-.33.67-.37,4.07-.21,7.89-.62,10.76-1.04.5-.08,1.08-.29,1.5-.54,1.87.29,3.24,1.12,3.24,1.99,0,.79-.62,1.04-1.58,1.08ZM672.39,13.75c.54.33.75.67.75,1.04,0,.62-.58.75-1.66.79-2.82.12-5.23.37-8.14.75-.08.62-.42,1.04-1.04,1.04-.83,0-1.75-.71-1.87-2.04,0-.79-.04-1-.17-2.45-.17-1.74-.33-2.45-.75-3.41-.12-.33-.21-.54-.21-.79,0-.21.25-.37.54-.37.5,0,1.37.21,2.29.71,3.11-.42,5.32-.67,6.81-.83.75-.08,1.2-.25,1.7-.58.62.08,1.37.33,2.24.91.71.46,1.12,1,1.12,1.45,0,.42-.21.71-.58,1.12-.25.25-.42.58-.5.87l-.54,1.79ZM661.05,20.85v4.4c.04-.08.08-.12.17-.21,1-1.21,1.66-2.37,1.95-3.45.04-.17.08-.33.08-.46,0-.25-.08-.42-.12-.58l-2.08.29ZM668.19,32.36c0,1.45-.66,1.99-1.41,1.99-.83,0-1.54-1.37-1.66-2.41.25-.83.33-1.41.33-2.53v-1.37c-.58.04-1.16.12-1.74.21-.37,0-.67-.21-.96-.58-.46-.54-.75-1-.75-1.2,0-.25.17-.29.46-.29,1.95-.17,3.95-.37,5.48-.58.87-.12,1.16-.21,1.74-.54,1.75.5,2.24,1.04,2.24,1.66,0,.54-.29.75-1.25.83-.83.04-1.66.12-2.45.21l-.04,4.61ZM663.25,14.04c1.95-.25,4.07-.46,6.19-.67l.5-2.91c-2.04.12-4.32.33-6.85.71l.17,2.87ZM672.97,19.6c-1.16.08-2.28.21-3.36.29.29.29.42.54.42.71,0,.21-.08.42-.21.62v.75c0,.25.12.37.66.37.42,0,.71-.08,1.21-.37.5.08.91.29,1.25.5l.04-2.87ZM685.88,27.91c1.12-.33,2.24-.71,3.32-1.08-.33-.91-.71-1.87-.96-2.62-.08-.21-.12-.37-.12-.54,0-.37.17-.58.5-.58.17,0,.42.08.67.25,1.37.91,3.07,2.82,4.03,4.24.71,1.08,1.08,2.28,1.08,2.91,0,1.25-.79,1.99-1.58,1.99-.91,0-1.54-.58-2.33-2.41-.12-.33-.37-.91-.66-1.66-2.7,1.45-5.77,2.82-8.6,4.03-.42.21-.75.33-1.04.54-.33.21-.54.29-.87.29-.46,0-1.12-.46-2.24-2.04-.25-.33-.5-.83-.5-1.12,0-.21.25-.42.75-.42.71,0,1.33,0,2.74-.29.96-.21,1.91-.42,2.91-.67v-6.77l-2.33.29c0,.91-.54,1.33-1.37,1.33-.71,0-1.58-.66-1.83-2.28,0-1.7-.04-2.45-.46-5.65-.12-1-.29-1.5-.62-2.16-.17-.37-.25-.62-.25-.87s.21-.5.54-.5c.67,0,1.5.21,2.83.83,1.12-.17,2.28-.33,3.45-.54v-2.78c0-3.57-.21-4.53-.54-5.28-.08-.21-.12-.37-.12-.54,0-.29.17-.46.58-.46.62,0,2.24.37,3.41,1.12.5.33.67.58.67.91,0,.25-.17.62-.29.96-.29.75-.42,1.91-.46,3.41l-.04,2.2,1.41-.17c1.41-.17,1.95-.46,2.45-.75,1.12.25,2.04.87,2.99,1.79.37.33.5.66.5.96s-.12.54-.33.79c-.33.37-.5.71-.62,1.08-.33,1.04-.87,2.41-1.25,3.49.62.33.96.67.96,1.12,0,.79-.42,1.04-2.16,1.04-1,0-2.45.12-4.07.29l-.12,6.31ZM682.94,19.65v-4.82c-.91.12-1.83.25-2.74.42l.33,4.74,2.41-.33ZM686.01,19.27c.79-.12,1.58-.21,2.37-.29.33-1.62.54-3.24.79-4.9-.79.04-1.87.17-3.07.33l-.08,4.86Z"/><path class="cls-1" d="M729,13.37c1.58,1.21,2.99,1.99,4.53,2.74,1.16.58,2.28,1.2,3.28,1.79.42.25.83.58.83.83,0,.46-.33.58-.87.75-1.7.46-3.41.71-5.4.71-1.25,0-1.75-.33-2.74-1.41-3.61-3.99-7.1-7.81-11.59-12.75-4.49,6.85-9.88,11.88-16.78,15.2-.29.12-.75.21-1.04.21-.25,0-.42-.17-.42-.37,0-.29.08-.54.58-.96,5.65-4.44,9.68-8.64,13.42-14.95.75-1.25,1.16-2.28,1.16-2.95,0-.29-.04-.79-.12-1.25,0-.37.29-.5.71-.5.67,0,1.79.58,3.74,1.91.33.25.54.66.54.96,0,.33-.12.54-.37.83,4.15,3.99,7.73,7.06,10.55,9.22ZM709.61,37.3c-1.25,0-1.95-.79-2.28-2.66.04-.46.12-.91.12-1.58,0-.75-.08-1.79-.25-3.57-.42-3.9-.66-4.32-1.12-5.19-.17-.33-.25-.66-.25-.96,0-.25.25-.42.62-.42.62.04,1.7.37,2.7.87,4.32-.5,7.81-.83,11.96-1.16,1.04-.08,1.91-.25,2.7-.71,1.04.21,2.04.71,2.82,1.29,1.2.91,1.66,1.41,1.66,2.04,0,.46-.21.67-.71,1.08-.21.21-.66,1.08-.87,1.83-.42,1.45-.79,2.66-1.2,3.99,1.04.5,1.58,1.2,1.58,2.04,0,.62-.5.83-2.2.83-5.28,0-9.64.21-13.87.62-.12,1-.66,1.66-1.41,1.66ZM720.86,14.66c2.16.37,3.49,1.33,3.49,2.16s-.54,1.2-1.95,1.37c-3.12.33-7.73.79-11.67,1.29-.29,0-.58-.21-1.08-.83-.96-1.2-1.04-1.45-1.04-1.79,0-.21.21-.25.67-.29,3.53-.29,7.35-.75,10.01-1.2.71-.12,1.08-.33,1.58-.71ZM710.89,32.94c4.03-.37,6.6-.54,11.17-.79l1.04-6.77c-4.24.21-8.06.54-12.5,1.08l.29,6.48Z"/><path class="cls-1" d="M762.28,8.97c2.78-.21,4.2-.33,5.69-.5.5-.08,1-.12,1.62-.46.96.17,1.87.42,2.7.91.79.5,1.2,1.04,1.2,1.74,0,.79-.71,1.08-2.08,1.08-1.62-.12-3.07-.17-4.61-.17s-3.12.04-4.65.17l-.17,8.02c.29,1.41.5,2.49.5,4.07,0,7.56-6.44,10.97-13.17,11.55-.83,0-1.33-.12-1.33-.66,0-.42.29-.62,1.04-.87,5.03-1.54,7.72-3.86,9.14-6.77-.46.21-1.04.29-2.16.29-3.66,0-6.31-2.16-6.31-5.94,0-3.12,2.58-6.27,6.06-6.27,1.16,0,2.16.29,2.99.87v-4.07c-5.19.46-10.26,1.12-15.41,1.99-.25,0-.58-.12-.96-.5-1.21-1.12-1.37-1.5-1.37-2.12,0-.21.29-.29.96-.37,6.19-.67,10.43-1.12,16.74-1.75v-1.04c0-2.08-.29-3.28-.87-4.36-.08-.17-.12-.33-.12-.54,0-.33.33-.46.96-.46.83,0,2.49.37,3.49.87.54.25.91.66.91,1s-.17.71-.37,1c-.29.46-.33,1.16-.37,2.16l-.04,1.12ZM755.76,17.07c-1.58,0-3.49,1.66-3.49,4.28,0,1.75,1.5,2.91,3.66,2.91,1.66,0,2.91-.91,2.91-2.74-.29-2.66-1.41-4.44-3.07-4.44Z"/><path class="cls-1" d="M802.03,24.13c0-3.61-2.28-5.94-6.02-5.94-4.73,0-9.26,1.83-15.16,8.14-.87.96-1.29,1.16-1.7,1.16-.54,0-.91-.33-1.33-1.08-.37-.66-.58-1.33-.58-1.99,0-.33.08-.58.58-.87.33-.21.83-.58,1.74-1.41,4.9-4.49,9.39-9.22,14.54-14.99-2.04.37-4.94,1.04-8.22,1.87-.54.25-.91.33-1.29.33-.5,0-.91-.17-1.79-1.16-.91-1.08-1.16-1.5-1.16-2.04,0-.29.17-.37.62-.37.91.08,1.99.08,2.24.08,1.04,0,3.36-.29,6.73-.79,3.03-.46,4.07-.79,4.44-1.08.33-.25.71-.5,1.16-.5.42,0,.91.21,1.91,1,.91.75,1.58,1.45,1.58,1.99,0,.62-.33.96-1.58,1.54-3.36,3.03-7.02,6.23-11.13,10.05,2.99-1.41,6.19-2.16,8.31-2.16,6.19,0,10.22,3.16,10.22,8.43,0,7.31-5.61,10.59-13.42,10.59-4.94,0-7.81-1.95-7.81-5.19,0-2.33,2.28-3.99,5.19-3.99,4.11,0,6.89,2.45,8.14,5.03,2.91-1.58,3.78-3.7,3.78-6.65ZM789.61,27.99c-1.5,0-2.53.79-2.53,1.75,0,1.41,1.91,2.62,4.69,2.62,1.12,0,1.99-.04,3.07-.29-1.04-1.91-3.12-4.07-5.23-4.07Z"/></g></svg>