<svg width="200" height="60" viewBox="0 0 200 60" fill="none" xmlns="http://www.w3.org/2000/svg">
<g filter="url(#filter0_b_19707_363)">
<rect width="200" height="60" fill="white"/>
</g>
<path d="M181.611 32.0301V33.6501H174.981V32.0301H181.611ZM179.586 36.3651H177.171V38.2701H179.586V36.3651ZM181.296 39.8751H177.141C177.051 41.7051 176.736 43.8501 175.806 45.3201C175.521 45.0201 174.786 44.4651 174.396 44.2551C175.386 42.6501 175.461 40.3101 175.461 38.5851V34.7751H181.296V39.8751ZM188.691 36.3501V38.0751H187.356V45.3051H185.586V38.0751H183.846C183.711 40.3701 183.156 43.2801 181.161 45.2751C180.921 44.9001 180.261 44.2851 179.841 44.0751C181.926 41.9601 182.136 38.9901 182.136 36.7701V32.6301L183.366 32.9151C184.761 32.5101 186.156 31.9701 187.026 31.4451L188.601 32.7951C187.221 33.4551 185.496 34.0101 183.876 34.4001V36.3501H188.691Z" fill="#1E3A75"/>
<path d="M167.451 34.1749H165.801C165.471 36.4849 164.616 37.9099 160.881 38.6449C160.731 38.1949 160.296 37.5349 159.966 37.2049C163.071 36.6949 163.686 35.7649 163.911 34.1749H162.051V35.6449H160.251V32.5849H165.771V31.2949H167.601V32.5849H173.211V35.5099H171.336V34.1749H169.221V36.1849C169.221 36.5899 169.281 36.6349 169.731 36.6349H170.931C171.291 36.6349 171.366 36.4999 171.426 35.6149C171.756 35.8549 172.491 36.1249 172.971 36.2299C172.776 37.7899 172.311 38.2099 171.126 38.2099H169.446C167.811 38.2099 167.451 37.7149 167.451 36.2149V34.1749ZM170.841 43.4449H171.666C171.981 43.4449 172.041 43.1899 172.101 41.3149C172.461 41.6299 173.301 41.9299 173.781 42.0649C173.616 44.5399 173.151 45.1999 171.861 45.1999H170.511C169.041 45.1999 168.591 44.6899 168.591 42.9349V40.8349H166.476C166.101 42.5749 164.826 44.3749 160.926 45.3799C160.671 44.9299 160.116 44.2999 159.741 43.9099C162.861 43.1299 164.091 41.9749 164.556 40.8349H160.866V39.1849H164.796V37.5349H166.596V39.1849H170.466V42.9199C170.466 43.3849 170.526 43.4449 170.841 43.4449Z" fill="#1E3A75"/>
<path d="M148.581 41.93V38.18H147.231V41.93H148.581ZM150.291 33.62H148.101C147.891 34.625 147.621 35.645 147.291 36.605H150.096V43.505H147.231V44.6H145.746V39.95C145.551 40.235 145.356 40.505 145.146 40.76C145.086 40.28 144.771 39.14 144.531 38.63C145.446 37.4 146.061 35.585 146.436 33.62H144.846V32H150.291V33.62ZM153.711 37.4H155.391V33.695H153.711V37.4ZM158.661 37.4V39.08H157.086V45.32H155.391V39.08H153.681C153.591 41.285 153.156 43.79 151.611 45.425C151.311 45.11 150.666 44.615 150.261 44.39C151.551 42.995 151.926 40.91 152.016 39.08H150.621V37.4H152.046V33.695H151.011V32.045H158.361V33.695H157.086V37.4H158.661Z" fill="#1E3A75"/>
<path d="M131.871 35.24V37.31H130.191V33.665H132.231C131.961 33.17 131.556 32.585 131.196 32.12L132.711 31.445C133.236 32.03 133.836 32.825 134.076 33.41L133.536 33.665H135.891C135.681 33.08 135.306 32.36 134.946 31.79L136.521 31.22C137.001 31.865 137.496 32.78 137.691 33.38L136.971 33.665H139.236C139.731 32.96 140.241 32.09 140.526 31.385L142.461 31.97C142.056 32.54 141.606 33.14 141.201 33.665H143.196V37.31H141.441V35.24H131.871ZM143.346 39.755V41.39H137.571V43.385C137.571 44.315 137.376 44.78 136.641 45.035C135.936 45.29 135.006 45.32 133.731 45.32C133.611 44.81 133.266 44.06 132.996 43.58C133.956 43.625 135.066 43.625 135.366 43.61C135.681 43.61 135.756 43.55 135.756 43.34V41.39H129.996V39.755H135.756V38.765H136.611C137.001 38.525 137.406 38.24 137.766 37.94H132.681V36.395H139.416L139.806 36.305L140.931 37.175C140.076 38.09 138.906 39.05 137.676 39.755H143.346Z" fill="#1E3A75"/>
<path d="M122.631 42.47H128.511V44.27H114.876V42.47H120.591V34.715H115.686V32.855H127.671V34.715H122.631V42.47Z" fill="#1E3A75"/>
<path d="M104.541 40.625L104.841 42.305C103.191 42.89 101.391 43.46 99.9514 43.925L99.5464 42.11C100.071 41.975 100.686 41.81 101.376 41.615V38.09H99.8615V36.455H101.376V33.815H99.7264V32.15H104.676V33.815H103.071V36.455H104.421V38.09H103.071V41.09C103.566 40.94 104.061 40.79 104.541 40.625ZM106.851 36.095V37.385H108.396V36.095H106.851ZM106.851 33.44V34.7H108.396V33.44H106.851ZM111.381 34.7V33.44H109.896V34.7H111.381ZM111.381 37.385V36.095H109.896V37.385H111.381ZM110.061 43.22H113.751V44.84H104.106V43.22H108.246V41.795H105.141V40.19H108.246V38.9H105.246V31.925H113.076V38.9H110.061V40.19H113.241V41.795H110.061V43.22Z" fill="#1E3A75"/>
<path d="M98.4814 33.845C98.3164 34.04 98.0314 34.4 97.8964 34.625C97.1914 35.795 95.7664 37.685 94.2964 38.735L92.7364 37.49C93.9364 36.755 95.1064 35.435 95.4964 34.7H87.6814C87.0514 34.7 86.5564 34.745 85.8514 34.805V32.72C86.4214 32.81 87.0514 32.87 87.6814 32.87H95.7664C96.1864 32.87 97.0114 32.825 97.2964 32.735L98.4814 33.845ZM92.3614 35.87C92.3614 39.59 92.2864 42.65 88.2064 44.84L86.4514 43.415C86.9314 43.25 87.4714 42.995 88.0264 42.59C89.9314 41.27 90.2914 39.68 90.2914 37.22C90.2914 36.755 90.2614 36.35 90.1864 35.87H92.3614Z" fill="#1E3A75"/>
<path d="M70.7614 39.7249C72.7114 39.3049 74.9464 38.2999 76.1314 37.5799C77.5864 36.6949 79.1014 35.3449 79.8664 34.3699L81.3514 35.8249C80.6464 36.6049 79.3264 37.6699 77.9914 38.5549V43.6999C77.9914 44.2249 78.0064 45.0199 78.0964 45.3199H75.8764C75.9064 45.0199 75.9514 44.2249 75.9514 43.6999V39.7399C74.6314 40.3999 72.9514 41.0899 71.6464 41.4949L70.7614 39.7249Z" fill="#1E3A75"/>
<path d="M58.065 32.4949C58.56 32.5699 59.175 32.5999 59.67 32.5999H65.7C66.21 32.5999 66.81 32.5699 67.32 32.4949V34.4299C66.81 34.3999 66.225 34.3699 65.7 34.3699H59.685C59.16 34.3699 58.53 34.3999 58.065 34.4299V32.4949ZM56.325 36.3349C56.775 36.3799 57.3 36.4249 57.765 36.4249H67.59C67.905 36.4249 68.565 36.3949 68.955 36.3349V38.2849C68.58 38.2549 68.01 38.2399 67.59 38.2399H63.975C63.885 39.7849 63.555 41.0449 63.015 42.0949C62.49 43.1299 61.335 44.2999 60 44.9749L58.245 43.6999C59.31 43.2949 60.36 42.4249 60.96 41.5549C61.575 40.6249 61.83 39.4999 61.89 38.2399H57.765C57.315 38.2399 56.745 38.2699 56.325 38.2999V36.3349Z" fill="#1E3A75"/>
<path d="M43.665 32.5999C44.715 33.3049 46.665 34.8649 47.535 35.7799L46.005 37.3399C45.225 36.4999 43.35 34.8649 42.255 34.0999L43.665 32.5999ZM41.79 42.5899C44.13 42.2599 46.08 41.4949 47.535 40.6249C50.1 39.1099 52.05 36.8149 52.995 34.7899L54.165 36.9049C53.025 38.9299 51.03 40.9999 48.615 42.4549C47.1 43.3699 45.165 44.2099 43.05 44.5699L41.79 42.5899Z" fill="#1E3A75"/>
<path d="M26.94 33.365C27.555 33.38 28.125 33.395 28.53 33.395H36.78C37.155 33.395 37.725 33.395 38.265 33.365C38.235 33.815 38.235 34.37 38.235 34.82V42.17C38.235 42.755 38.265 44.195 38.265 44.255H36.195C36.195 44.225 36.21 43.88 36.21 43.445H28.98C28.995 43.865 28.995 44.21 28.995 44.255H26.925C26.925 44.18 26.97 42.875 26.97 42.155V34.82C26.97 34.4 26.97 33.785 26.94 33.365ZM28.98 35.3V41.525H36.225V35.3H28.98Z" fill="#1E3A75"/>
<path d="M23.385 34.0099C23.25 34.3099 23.13 34.7449 23.055 35.0599C22.71 36.5299 22.05 38.8549 20.805 40.5199C19.44 42.3199 17.445 43.8049 14.775 44.6599L13.14 42.8749C16.11 42.1699 17.805 40.8649 19.02 39.3499C20.01 38.1049 20.58 36.3949 20.775 35.1199H13.785C13.11 35.1199 12.39 35.1499 12 35.1799V33.0649C12.45 33.1099 13.305 33.1849 13.8 33.1849H20.73C21.03 33.1849 21.51 33.1699 21.915 33.0649L23.385 34.0099Z" fill="#1E3A75"/>
<path d="M72.948 19.8601V21.6241H71.904V18.8761H73.632C73.416 18.4441 73.044 17.9041 72.696 17.4961L73.656 17.0641C74.088 17.5441 74.568 18.2161 74.772 18.6721L74.34 18.8761H76.56C76.392 18.3961 76.044 17.7361 75.72 17.2321L76.692 16.8721C77.1 17.4121 77.508 18.1681 77.664 18.6481L77.076 18.8761H79.104C79.524 18.3241 79.992 17.5681 80.268 17.0041L81.444 17.3761C81.096 17.8921 80.7 18.4201 80.328 18.8761H82.068V21.6241H80.964V19.8601H72.948ZM82.248 23.6521V24.6841H77.52V26.6881C77.52 27.3001 77.364 27.6121 76.872 27.7801C76.38 27.9361 75.672 27.9481 74.628 27.9481C74.544 27.6361 74.328 27.1801 74.16 26.8681C75 26.9041 75.84 26.9041 76.08 26.8921C76.32 26.8801 76.38 26.8321 76.38 26.6521V24.6841H71.7V23.6521H76.38V22.8241H76.944C77.412 22.5721 77.892 22.2481 78.3 21.9241H73.74V20.9521H79.368L79.608 20.8921L80.328 21.4321C79.608 22.2001 78.552 22.9681 77.52 23.4961V23.6521H82.248Z" fill="#1E3A75"/>
<path d="M70.212 21.4081H65.832C66.648 23.9041 68.16 25.9321 70.428 26.8801C70.152 27.1201 69.78 27.5881 69.6 27.9241C67.356 26.8801 65.904 24.9361 64.968 22.3921C64.356 24.5641 63.06 26.6401 60.336 27.9241C60.156 27.6241 59.796 27.2281 59.484 26.9881C62.34 25.7401 63.504 23.5801 63.984 21.4081H59.724V20.2561H64.188C64.332 19.0561 64.32 17.9041 64.332 16.9441H65.544C65.532 17.9161 65.52 19.0681 65.376 20.2561H70.212V21.4081Z" fill="#1E3A75"/>
<path d="M55.5 19.3801L54.72 20.0881C54.36 19.5841 53.544 18.8521 52.86 18.3481L53.592 17.7121C54.276 18.1801 55.104 18.8761 55.5 19.3801ZM55.176 22.5121L54.42 23.2441C54.024 22.7281 53.148 21.9601 52.416 21.4561L53.124 20.8081C53.844 21.2881 54.756 22.0081 55.176 22.5121ZM52.08 23.4001L51.408 24.2761C51.24 23.9161 50.832 23.2441 50.472 22.6921V27.9361H49.392V23.0761C48.948 24.1681 48.408 25.1881 47.856 25.8721C47.748 25.5721 47.484 25.1161 47.316 24.8401C48.024 24.0241 48.792 22.5961 49.236 21.3241H47.472V20.2801H49.392V18.6721C48.876 18.7681 48.36 18.8401 47.88 18.9121C47.844 18.6721 47.688 18.2761 47.568 18.0481C48.912 17.8321 50.448 17.4841 51.384 17.0761L52.02 17.9881C51.564 18.1681 51.036 18.3121 50.472 18.4441V20.2801H52.152V21.3241H50.472V21.4921C50.832 21.8641 51.852 23.0881 52.08 23.4001ZM58.512 24.6121L57.036 24.8641V27.9361H55.932V25.0561L52.152 25.6921L51.984 24.6241L55.932 23.9641V16.9321H57.036V23.7841L58.344 23.5681L58.512 24.6121Z" fill="#1E3A75"/>
<path d="M39.228 24.4442L39.42 25.5002C38.112 25.9562 36.72 26.4242 35.64 26.7722L35.376 25.6322C35.808 25.5122 36.336 25.3682 36.912 25.1882V22.1402H35.616V21.1082H36.912V18.7202H35.496V17.6882H39.312V18.7202H37.98V21.1082H39.12V22.1402H37.98V24.8522C38.388 24.7202 38.82 24.5882 39.228 24.4442ZM40.848 20.6162V21.9242H42.42V20.6162H40.848ZM40.848 18.4202V19.7162H42.42V18.4202H40.848ZM44.904 19.7162V18.4202H43.368V19.7162H44.904ZM44.904 21.9242V20.6162H43.368V21.9242H44.904ZM43.464 26.5442H46.512V27.5642H38.844V26.5442H42.324V25.1162H39.72V24.1082H42.324V22.8722H39.828V17.4722H45.972V22.8722H43.464V24.1082H46.128V25.1162H43.464V26.5442Z" fill="#1E3A75"/>
<path d="M32.58 19.764H33.732V27.768H32.58V26.904H25.332V27.792H24.192V19.788H25.332V25.764H28.308V17.208H29.484V25.764H32.58V19.764Z" fill="#1E3A75"/>
<path d="M19.692 26.328H18.732V25.74H15.096V26.52H14.148V22.5H15.096V24.816H16.392V21.72H13.584V20.784H15.156C15.048 20.292 14.712 19.548 14.352 19.02L15.24 18.72C15.636 19.248 15.996 19.98 16.104 20.472L15.264 20.784H18.528L17.724 20.544C18 20.028 18.36 19.212 18.528 18.648L19.62 18.936C19.272 19.596 18.9 20.316 18.576 20.784H20.424V21.72H17.412V24.816H18.732V22.5H19.692V26.328ZM21.948 17.532V26.676C21.948 27.276 21.816 27.588 21.432 27.768C21.048 27.936 20.46 27.96 19.5 27.96C19.44 27.672 19.272 27.192 19.128 26.916C19.764 26.952 20.4 26.952 20.592 26.94C20.784 26.928 20.856 26.868 20.856 26.664V18.588H13.092V27.936H12V17.532H21.948Z" fill="#1E3A75"/>
<defs>
<filter id="filter0_b_19707_363" x="-20" y="-20" width="240" height="100" filterUnits="userSpaceOnUse" color-interpolation-filters="sRGB">
<feFlood flood-opacity="0" result="BackgroundImageFix"/>
<feGaussianBlur in="BackgroundImageFix" stdDeviation="10"/>
<feComposite in2="SourceAlpha" operator="in" result="effect1_backgroundBlur_19707_363"/>
<feBlend mode="normal" in="SourceGraphic" in2="effect1_backgroundBlur_19707_363" result="shape"/>
</filter>
</defs>
</svg>
