<svg width="200" height="60" viewBox="0 0 200 60" fill="none" xmlns="http://www.w3.org/2000/svg">
<g filter="url(#filter0_b_19653_1456)">
<rect width="200" height="60" fill="white"/>
</g>
<path d="M20.0773 15.1072C19.8915 14.414 21.2702 14.2129 22.2433 14.1011C23.5628 13.9543 27.331 13.6814 31.2938 15.6929C35.2867 17.7209 38.6259 21.7029 36.7377 22.7933C35.5064 23.5045 34.7771 22.8481 34.3201 22.1587C32.7535 19.7883 30.8489 17.6743 28.2121 16.653C27.4812 16.3713 26.7168 16.1198 25.9529 15.9368C24.8154 15.6617 23.6466 15.5406 22.4811 15.4765C21.8433 15.4403 20.9387 15.4891 20.5233 15.3872C20.4428 15.3664 20.1315 15.3088 20.0773 15.1072Z" fill="url(#paint0_linear_19653_1456)"/>
<path d="M9.10627 34.1101C8.41366 34.2953 8.21147 32.9156 8.10188 31.943C7.95393 30.6246 7.68105 26.8575 9.69258 22.8941C11.7205 18.9012 15.7019 15.562 16.7929 17.4503C17.5036 18.6815 16.8482 19.4108 16.1573 19.8673C13.7869 21.4328 11.6718 23.3374 10.652 25.9736C10.3693 26.7068 10.1189 27.4706 9.93477 28.2345C9.66079 29.3709 9.54189 30.5402 9.4734 31.7068C9.43887 32.3446 9.48929 33.2477 9.38463 33.6641C9.3649 33.7441 9.30846 34.0564 9.10627 34.1101Z" fill="url(#paint1_linear_19653_1456)"/>
<path d="M28.1098 45.0799C28.2944 45.7747 26.9163 45.9763 25.9432 46.0859C24.6231 46.2328 20.8554 46.5062 16.8927 44.4941C12.8998 42.4673 9.56057 38.4842 11.4488 37.3933C12.6811 36.6826 13.4105 37.339 13.8664 38.0289C15.4335 40.3999 17.3371 42.5144 19.9738 43.5347C20.7053 43.8174 21.4702 44.0684 22.2341 44.2519C23.3722 44.5265 24.5399 44.6465 25.7075 44.7117C26.3437 44.7484 27.2484 44.6974 27.6637 44.8015C27.7432 44.8213 28.055 44.8788 28.1098 45.0799Z" fill="url(#paint2_linear_19653_1456)"/>
<path d="M39.0806 26.0776C39.7743 25.8929 39.977 27.271 40.085 28.2436C40.2346 29.5642 40.5069 33.3313 38.4948 37.293C36.4674 41.2876 32.4849 44.6273 31.3945 42.7385C30.6827 41.5073 31.3402 40.7758 32.0296 40.3204C34.4005 38.7539 36.5151 36.8497 37.5354 34.213C37.8187 33.482 38.0685 32.716 38.2521 31.9533C38.5261 30.8163 38.6466 29.6464 38.7129 28.4798C38.748 27.8442 38.697 26.939 38.8022 26.5225C38.8225 26.4425 38.8789 26.1313 39.0806 26.0776Z" fill="url(#paint3_linear_19653_1456)"/>
<path d="M28.8015 19.229L24.093 30.0937C27.093 31.3935 30.5802 30.0154 31.8805 27.0148C33.1802 24.0148 31.8021 20.5282 28.8015 19.229Z" fill="url(#paint4_linear_19653_1456)"/>
<path d="M24.0926 30.0937C22.8795 29.5671 21.4685 30.1249 20.9425 31.3386C20.417 32.5523 20.9743 33.9622 22.188 34.4888L24.0926 30.0937Z" fill="url(#paint5_linear_19653_1456)"/>
<path d="M22.1884 34.489L19.3845 40.9587C21.1708 41.7324 23.247 40.9115 24.0207 39.1247C24.7955 37.3394 23.9747 35.2627 22.1884 34.489Z" fill="url(#paint6_linear_19653_1456)"/>
<path d="M46.1112 40.9295C46.1112 42.0807 45.5758 42.4183 44.938 42.4183C44.7446 42.4183 44.5282 42.3701 44.4142 42.3158L44.4772 42.0139C44.5851 42.0627 44.7391 42.0983 44.9265 42.0983C45.4564 42.0983 45.7583 41.8451 45.7583 40.8687V37.77H46.1112V40.9295Z" fill="black"/>
<path d="M49.6773 40.6823C49.6773 41.8998 48.9091 42.4182 48.2308 42.4182C47.4395 42.4182 46.8302 41.7793 46.8302 40.742C46.8302 39.6209 47.5075 39.0061 48.2708 39.0061C49.119 39.0067 49.6773 39.6938 49.6773 40.6823ZM48.2598 39.308C47.514 39.308 47.1891 40.0439 47.1891 40.725C47.1891 41.5026 47.639 42.1174 48.2428 42.1174C48.8576 42.1174 49.319 41.5026 49.319 40.7004C49.319 40.1036 49.0171 39.308 48.2598 39.308Z" fill="black"/>
<path d="M50.6084 38.4581C50.4544 38.4581 50.3459 38.3195 50.3459 38.1562C50.3459 37.9995 50.4599 37.8608 50.6133 37.8608C50.7728 37.8608 50.8758 37.9934 50.8758 38.1562C50.8764 38.337 50.7624 38.4581 50.6084 38.4581ZM50.7849 42.3458H50.432V39.0844H50.7849V42.3458Z" fill="black"/>
<path d="M54.2076 42.3459H53.8542V40.4165C53.8542 39.8379 53.6548 39.3195 53.0454 39.3195C52.5276 39.3195 52.1342 39.8078 52.1342 40.3261V42.3459H51.7813V39.8801C51.7813 39.5672 51.7698 39.3376 51.7583 39.0845H52.0772L52.1057 39.651H52.1172C52.2821 39.3014 52.6526 39.0061 53.1474 39.0061C53.4663 39.0061 54.2071 39.193 54.2071 40.3683L54.2076 42.3459Z" fill="black"/>
<path d="M55.2968 38.4876L55.6442 38.355V39.0843H56.487V39.3796H55.6442V41.4356C55.6442 41.8514 55.7637 42.1046 56.0826 42.1046C56.2366 42.1046 56.339 42.0805 56.4185 42.0504L56.453 42.3397C56.356 42.3819 56.2136 42.412 56.0262 42.412C55.3884 42.412 55.2974 41.8816 55.2974 41.3873V39.3796H54.796V39.0843H55.2974L55.2968 38.4876Z" fill="black"/>
<path d="M60.3891 38.2291C60.2696 38.1387 59.9962 38.0122 59.6318 38.0122C58.9715 38.0122 58.7376 38.4522 58.7376 38.8078C58.7376 39.302 59.011 39.5497 59.6088 39.8144C60.3091 40.1223 60.6795 40.484 60.6795 41.159C60.6795 41.8522 60.2011 42.4127 59.3014 42.4127C58.925 42.4127 58.4981 42.2862 58.2822 42.1174L58.4022 41.804C58.6411 41.9788 58.977 42.0993 59.3299 42.0993C59.9507 42.0993 60.3206 41.7316 60.3206 41.1952C60.3206 40.6949 60.0817 40.3935 59.4839 40.1404C58.8176 39.8872 58.3852 39.4949 58.3852 38.862C58.3852 38.1875 58.9091 37.6987 59.6543 37.6987C60.0532 37.6987 60.3606 37.8072 60.5091 37.9097L60.3891 38.2291Z" fill="black"/>
<path d="M63.8241 41.5261C63.8241 41.8335 63.8356 42.0987 63.8526 42.3458H63.5282L63.5052 41.7913H63.4882C63.3397 42.0746 63.0098 42.4181 62.469 42.4181C62.0537 42.4181 61.4443 42.1891 61.4443 41.0017V39.0844H61.7978V40.9228C61.7978 41.6104 61.9917 42.0987 62.566 42.0987C62.9704 42.0987 63.4712 41.7491 63.4712 41.1162V39.0784H63.8246L63.8241 41.5261Z" fill="black"/>
<path d="M65.1648 39.6751C65.3818 39.2532 65.7511 39.0061 66.264 39.0061C67.0273 39.0061 67.5561 39.6872 67.5561 40.6636C67.5561 41.8571 66.8897 42.4176 66.1895 42.4176C65.7626 42.4176 65.3867 42.2067 65.1878 41.845H65.1763V43.6894H64.8234V40.1206C64.8234 39.7047 64.8119 39.3853 64.8004 39.0834H65.1253L65.1538 39.6741H65.1648V39.6751ZM65.1758 41.062C65.1758 41.6226 65.5747 42.1113 66.1495 42.1113C66.8218 42.1113 67.2032 41.5206 67.2032 40.6828C67.2032 39.9595 66.8388 39.3141 66.178 39.3141C65.5286 39.3141 65.1758 39.965 65.1758 40.4231V41.062Z" fill="black"/>
<path d="M68.652 39.6751C68.869 39.2532 69.2383 39.0061 69.7512 39.0061C70.5145 39.0061 71.0432 39.6872 71.0432 40.6636C71.0432 41.8571 70.3769 42.4176 69.6766 42.4176C69.2498 42.4176 68.8739 42.2067 68.675 41.845H68.6635V43.6894H68.3106V40.1206C68.3106 39.7047 68.2991 39.3853 68.2876 39.0834H68.6125L68.641 39.6741H68.652V39.6751ZM68.6629 41.062C68.6629 41.6226 69.0618 42.1113 69.6366 42.1113C70.309 42.1113 70.6904 41.5206 70.6904 40.6828C70.6904 39.9595 70.326 39.3141 69.6651 39.3141C69.0158 39.3141 68.6629 39.965 68.6629 40.4231V41.062Z" fill="black"/>
<path d="M74.4062 40.6823C74.4062 41.8998 73.638 42.4182 72.9596 42.4182C72.1684 42.4182 71.5591 41.7793 71.5591 40.742C71.5591 39.6209 72.2363 39.0061 72.9996 39.0061C73.8479 39.0067 74.4062 39.6938 74.4062 40.6823ZM72.9887 39.308C72.2429 39.308 71.918 40.0439 71.918 40.725C71.918 41.5026 72.3679 42.1174 72.9717 42.1174C73.5865 42.1174 74.0479 41.5026 74.0479 40.7004C74.0479 40.1036 73.7459 39.308 72.9887 39.308Z" fill="black"/>
<path d="M76.4743 39.3797C76.4288 39.3682 76.3828 39.3682 76.3203 39.3682C75.808 39.3682 75.5115 39.9529 75.5115 40.5441V42.3463H75.1586V40.0493C75.1586 39.7233 75.1526 39.4039 75.1356 39.0789H75.4545L75.466 39.7299H75.489C75.62 39.326 75.9389 39.0066 76.3433 39.0066C76.3888 39.0066 76.4288 39.0181 76.4743 39.0247V39.3797Z" fill="black"/>
<path d="M77.1828 38.4876L77.5302 38.355V39.0843H78.373V39.3796H77.5302V41.4356C77.5302 41.8514 77.6497 42.1046 77.9686 42.1046C78.1226 42.1046 78.225 42.0805 78.3045 42.0504L78.339 42.3397C78.242 42.3819 78.0995 42.412 77.9122 42.412C77.2743 42.412 77.1834 41.8816 77.1834 41.3873V39.3796H76.682V39.0843H77.1834L77.1828 38.4876Z" fill="black"/>
<path d="M78.7264 40.3386H80.258V40.6515H78.7264V40.3386Z" fill="black"/>
<path d="M83.8296 42.1953C83.6186 42.3038 83.2148 42.4123 82.7019 42.4123C81.6487 42.4123 80.692 41.6944 80.692 40.0851C80.692 38.6687 81.5178 37.6982 82.8444 37.6982C83.4197 37.6982 83.7096 37.8369 83.8126 37.8917L83.7096 38.2111C83.4992 38.1026 83.2027 38.0122 82.8444 38.0122C81.7572 38.0122 81.0564 38.7777 81.0564 40.0857C81.0564 41.3279 81.7057 42.0994 82.8044 42.0994C83.1572 42.0994 83.4992 42.015 83.7381 41.8944L83.8296 42.1953Z" fill="black"/>
<path d="M86.6727 42.2077C86.5363 42.2861 86.2234 42.4126 85.7165 42.4126C84.8283 42.4126 84.2875 41.7315 84.2875 40.7732C84.2875 39.7063 84.8568 39.0066 85.6541 39.0066C86.6332 39.0066 86.8382 39.983 86.8437 40.4893C86.8437 40.5798 86.8382 40.6345 86.8322 40.7063H84.6343C84.6343 41.7189 85.1582 42.1107 85.762 42.1107C86.1834 42.1107 86.4113 42.0203 86.5878 41.9299L86.6727 42.2077ZM86.4848 40.417C86.4908 39.9529 86.3083 39.308 85.6195 39.308C84.9817 39.308 84.7028 39.9288 84.6513 40.417H86.4848Z" fill="black"/>
<path d="M90.0178 42.3459H89.6644V40.4165C89.6644 39.8379 89.4649 39.3195 88.8556 39.3195C88.3378 39.3195 87.9444 39.8078 87.9444 40.3261V42.3459H87.5915V39.8801C87.5915 39.5672 87.58 39.3376 87.5685 39.0845H87.8874L87.9159 39.651H87.9274C88.0923 39.3014 88.4627 39.0061 88.9575 39.0061C89.2764 39.0061 90.0173 39.193 90.0173 40.3683V42.3459H90.0178Z" fill="black"/>
<path d="M91.1079 38.4876L91.4553 38.355V39.0843H92.298V39.3796H91.4553V41.4356C91.4553 41.8514 91.5747 42.1046 91.8936 42.1046C92.0476 42.1046 92.1501 42.0805 92.2295 42.0504L92.2641 42.3397C92.1671 42.3819 92.0246 42.412 91.8372 42.412C91.1994 42.412 91.1084 41.8816 91.1084 41.3873V39.3796H90.6071V39.0843H91.1084V38.4876H91.1079Z" fill="black"/>
<path d="M95.1004 42.2077C94.964 42.2861 94.6511 42.4126 94.1443 42.4126C93.256 42.4126 92.7152 41.7315 92.7152 40.7732C92.7152 39.7063 93.2845 39.0066 94.0818 39.0066C95.061 39.0066 95.2659 39.983 95.2714 40.4893C95.2714 40.5798 95.2659 40.6345 95.2599 40.7063H93.0621C93.0621 41.7189 93.5859 42.1107 94.1897 42.1107C94.6111 42.1107 94.8391 42.0203 95.0155 41.9299L95.1004 42.2077ZM94.9125 40.417C94.9185 39.9529 94.736 39.308 94.0473 39.308C93.4095 39.308 93.1306 39.9288 93.079 40.417H94.9125Z" fill="black"/>
<path d="M97.3347 39.3797C97.2893 39.3682 97.2432 39.3682 97.1808 39.3682C96.6684 39.3682 96.372 39.9529 96.372 40.5441V42.3463H96.0191V40.0493C96.0191 39.7233 96.0131 39.4039 95.9961 39.0789H96.315L96.3265 39.7299H96.3495C96.4805 39.326 96.7994 39.0066 97.2038 39.0066C97.2493 39.0066 97.2893 39.0181 97.3347 39.0247V39.3797Z" fill="black"/>
<path d="M99.3184 38.9036C99.3184 38.4214 99.4093 38.0116 99.6537 37.7403C99.8477 37.5354 100.104 37.457 100.349 37.457C100.542 37.457 100.702 37.5113 100.798 37.565L100.707 37.8543C100.622 37.8121 100.513 37.7639 100.332 37.7639C99.7907 37.7639 99.6707 38.3003 99.6707 38.897V39.0839H100.468V39.3792H99.6707V42.3453H99.3178V39.3792H98.8789V39.0839H99.3178L99.3184 38.9036Z" fill="black"/>
<path d="M103.583 40.6823C103.583 41.8998 102.815 42.4182 102.137 42.4182C101.345 42.4182 100.736 41.7793 100.736 40.742C100.736 39.6209 101.413 39.0061 102.177 39.0061C103.025 39.0067 103.583 39.6938 103.583 40.6823ZM102.166 39.308C101.42 39.308 101.095 40.0439 101.095 40.725C101.095 41.5026 101.545 42.1174 102.149 42.1174C102.763 42.1174 103.225 41.5026 103.225 40.7004C103.225 40.1036 102.923 39.308 102.166 39.308Z" fill="black"/>
<path d="M105.653 39.3797C105.608 39.3682 105.562 39.3682 105.499 39.3682C104.987 39.3682 104.69 39.9529 104.69 40.5441V42.3463H104.337V40.0493C104.337 39.7233 104.331 39.4039 104.314 39.0789H104.633L104.645 39.7299H104.668C104.799 39.326 105.117 39.0066 105.522 39.0066C105.568 39.0066 105.608 39.0181 105.653 39.0247V39.3797Z" fill="black"/>
<path d="M107.613 37.8366C107.937 37.7769 108.302 37.7341 108.7 37.7341C110.454 37.7341 110.944 38.8492 110.944 39.9462C110.944 40.8322 110.647 42.3818 108.552 42.3818C108.216 42.3818 107.908 42.3753 107.613 42.3396V37.8366ZM107.966 42.0383C108.131 42.069 108.359 42.0744 108.609 42.0744C109.907 42.0744 110.58 41.2969 110.58 39.9643C110.58 38.7407 109.942 38.041 108.695 38.041C108.382 38.041 108.137 38.0771 107.967 38.1139L107.966 42.0383Z" fill="black"/>
<path d="M113.618 41.5688C113.618 41.828 113.624 42.1052 113.658 42.3463H113.333L113.293 41.8943H113.276C113.128 42.154 112.792 42.4187 112.326 42.4187C111.722 42.4187 111.426 41.9606 111.426 41.5146C111.426 40.7496 112.058 40.3091 113.265 40.3211C113.265 40.0017 113.265 39.308 112.507 39.308C112.245 39.308 111.967 39.3869 111.75 39.5491L111.647 39.2839C111.915 39.097 112.251 39.0066 112.552 39.0066C113.424 39.0066 113.617 39.6817 113.617 40.2965V41.5688H113.618ZM113.271 40.6159C112.627 40.6159 111.797 40.6998 111.797 41.4598C111.797 41.9118 112.076 42.1168 112.383 42.1168C113.043 42.1168 113.271 41.5321 113.271 41.291V40.6159Z" fill="black"/>
<path d="M114.702 38.4876L115.049 38.355V39.0843H115.892V39.3796H115.049V41.4356C115.049 41.8514 115.169 42.1046 115.488 42.1046C115.642 42.1046 115.744 42.0805 115.824 42.0504L115.858 42.3397C115.761 42.3819 115.619 42.412 115.431 42.412C114.793 42.412 114.702 41.8816 114.702 41.3873V39.3796H114.201V39.0843H114.702L114.702 38.4876Z" fill="black"/>
<path d="M118.483 41.5688C118.483 41.828 118.489 42.1052 118.523 42.3463H118.199L118.159 41.8943H118.142C117.993 42.154 117.658 42.4187 117.191 42.4187C116.587 42.4187 116.291 41.9606 116.291 41.5146C116.291 40.7496 116.923 40.3091 118.13 40.3211C118.13 40.0017 118.13 39.308 117.373 39.308C117.11 39.308 116.832 39.3869 116.615 39.5491L116.513 39.2839C116.78 39.097 117.116 39.0066 117.418 39.0066C118.289 39.0066 118.482 39.6817 118.482 40.2965V41.5688H118.483ZM118.136 40.6159C117.493 40.6159 116.662 40.6998 116.662 41.4598C116.662 41.9118 116.941 42.1168 117.248 42.1168C117.909 42.1168 118.136 41.5321 118.136 41.291V40.6159Z" fill="black"/>
<path d="M122.687 38.2291C122.568 38.1387 122.294 38.0122 121.93 38.0122C121.27 38.0122 121.036 38.4522 121.036 38.8078C121.036 39.302 121.309 39.5497 121.907 39.8144C122.607 40.1223 122.978 40.484 122.978 41.159C122.978 41.8522 122.499 42.4127 121.6 42.4127C121.224 42.4127 120.796 42.2862 120.58 42.1174L120.7 41.804C120.939 41.9788 121.275 42.0993 121.628 42.0993C122.249 42.0993 122.619 41.7316 122.619 41.1952C122.619 40.6949 122.38 40.3935 121.782 40.1404C121.116 39.8872 120.683 39.4949 120.683 38.862C120.683 38.1875 121.207 37.6987 121.953 37.6987C122.351 37.6987 122.659 37.8072 122.807 37.9097L122.687 38.2291Z" fill="black"/>
<path d="M125.861 42.2077C125.725 42.28 125.412 42.4126 124.99 42.4126C124.113 42.4126 123.527 41.7376 123.527 40.7491C123.527 39.7239 124.176 39.0066 125.104 39.0066C125.474 39.0066 125.765 39.1211 125.878 39.1995L125.77 39.5014C125.628 39.417 125.4 39.314 125.075 39.314C124.29 39.314 123.885 39.971 123.885 40.725C123.885 41.5622 124.37 42.1052 125.047 42.1052C125.394 42.1052 125.616 41.9973 125.782 41.9184L125.861 42.2077Z" fill="black"/>
<path d="M126.741 38.4581C126.588 38.4581 126.479 38.3195 126.479 38.1562C126.479 37.9995 126.593 37.8608 126.746 37.8608C126.906 37.8608 127.009 37.9934 127.009 38.1562C127.009 38.337 126.895 38.4581 126.741 38.4581ZM126.917 42.3458H126.564V39.0844H126.917V42.3458Z" fill="black"/>
<path d="M130.061 42.2077C129.924 42.2861 129.612 42.4126 129.105 42.4126C128.216 42.4126 127.676 41.7315 127.676 40.7732C127.676 39.7063 128.245 39.0066 129.042 39.0066C130.021 39.0066 130.226 39.983 130.232 40.4893C130.232 40.5798 130.226 40.6345 130.22 40.7063H128.023C128.023 41.7189 128.546 42.1107 129.15 42.1107C129.572 42.1107 129.8 42.0203 129.976 41.9299L130.061 42.2077ZM129.873 40.417C129.88 39.9529 129.697 39.308 129.008 39.308C128.37 39.308 128.092 39.9288 128.04 40.417H129.873Z" fill="black"/>
<path d="M133.405 42.3459H133.051V40.4165C133.051 39.8379 132.852 39.3195 132.243 39.3195C131.725 39.3195 131.331 39.8078 131.331 40.3261V42.3459H130.979V39.8801C130.979 39.5672 130.967 39.3376 130.956 39.0845H131.274L131.303 39.651H131.314C131.479 39.3014 131.85 39.0061 132.345 39.0061C132.664 39.0061 133.404 39.193 133.404 40.3683L133.405 42.3459Z" fill="black"/>
<path d="M136.465 42.2077C136.329 42.28 136.016 42.4126 135.594 42.4126C134.717 42.4126 134.131 41.7376 134.131 40.7491C134.131 39.7239 134.78 39.0066 135.708 39.0066C136.079 39.0066 136.369 39.1211 136.482 39.1995L136.374 39.5014C136.232 39.417 136.005 39.314 135.68 39.314C134.894 39.314 134.489 39.971 134.489 40.725C134.489 41.5622 134.974 42.1052 135.651 42.1052C135.999 42.1052 136.22 41.9973 136.386 41.9184L136.465 42.2077Z" fill="black"/>
<path d="M139.313 42.2077C139.177 42.2861 138.864 42.4126 138.357 42.4126C137.469 42.4126 136.928 41.7315 136.928 40.7732C136.928 39.7063 137.498 39.0066 138.295 39.0066C139.274 39.0066 139.479 39.983 139.484 40.4893C139.484 40.5798 139.479 40.6345 139.473 40.7063H137.275C137.275 41.7189 137.799 42.1107 138.403 42.1107C138.824 42.1107 139.052 42.0203 139.229 41.9299L139.313 42.2077ZM139.125 40.417C139.132 39.9529 138.949 39.308 138.26 39.308C137.622 39.308 137.344 39.9288 137.292 40.417H139.125Z" fill="black"/>
<path d="M143.183 40.1396C143.531 40.2542 143.742 40.6037 143.843 41.1161C143.986 41.8092 144.071 42.1649 144.162 42.3457H143.798C143.729 42.2131 143.632 41.8092 143.519 41.2306C143.388 40.5796 143.132 40.2657 142.579 40.2657H141.958V42.3457H141.611V37.8306C141.873 37.7703 142.237 37.7341 142.551 37.7341C143.109 37.7341 143.462 37.8547 143.706 38.1078C143.894 38.3067 144.014 38.6081 144.014 38.9402C144.014 39.555 143.672 39.9468 143.183 40.1276L143.183 40.1396ZM142.596 39.9703C143.24 39.9703 143.661 39.5846 143.661 38.9939C143.661 38.2289 143.086 38.0355 142.545 38.0355C142.266 38.0355 142.061 38.0596 141.958 38.0898V39.9709L142.596 39.9703Z" fill="black"/>
<path d="M146.967 42.2077C146.83 42.2861 146.517 42.4126 146.01 42.4126C145.122 42.4126 144.581 41.7315 144.581 40.7732C144.581 39.7063 145.151 39.0066 145.948 39.0066C146.927 39.0066 147.132 39.983 147.137 40.4893C147.137 40.5798 147.132 40.6345 147.126 40.7063H144.928C144.928 41.7189 145.452 42.1107 146.056 42.1107C146.477 42.1107 146.705 42.0203 146.882 41.9299L146.967 42.2077ZM146.779 40.417C146.785 39.9529 146.602 39.308 145.913 39.308C145.276 39.308 144.997 39.9288 144.945 40.417H146.779Z" fill="black"/>
<path d="M149.263 39.5069C149.155 39.428 148.955 39.308 148.665 39.308C148.288 39.308 148.089 39.5612 148.089 39.8505C148.089 40.176 148.288 40.3146 148.698 40.5015C149.194 40.7124 149.489 40.9776 149.489 41.4658C149.489 42.0631 149.057 42.4127 148.442 42.4127C148.14 42.4127 147.861 42.3223 147.656 42.1897L147.776 41.8883C147.935 41.9908 148.186 42.1113 148.459 42.1113C148.92 42.1113 149.142 41.8461 149.142 41.5141C149.142 41.1765 148.954 40.9897 148.521 40.8028C148.02 40.5919 147.741 40.2965 147.741 39.9042C147.741 39.422 148.106 39.0061 148.704 39.0061C148.989 39.0061 149.228 39.0965 149.393 39.211L149.263 39.5069Z" fill="black"/>
<path d="M152.407 42.2077C152.271 42.2861 151.958 42.4126 151.451 42.4126C150.563 42.4126 150.022 41.7315 150.022 40.7732C150.022 39.7063 150.591 39.0066 151.388 39.0066C152.368 39.0066 152.572 39.983 152.578 40.4893C152.578 40.5798 152.572 40.6345 152.566 40.7063H150.369C150.369 41.7189 150.892 42.1107 151.496 42.1107C151.918 42.1107 152.146 42.0203 152.322 41.9299L152.407 42.2077ZM152.219 40.417C152.225 39.9529 152.043 39.308 151.354 39.308C150.716 39.308 150.437 39.9288 150.386 40.417H152.219Z" fill="black"/>
<path d="M155.262 41.5688C155.262 41.828 155.268 42.1052 155.302 42.3463H154.977L154.937 41.8943H154.92C154.772 42.154 154.436 42.4187 153.97 42.4187C153.366 42.4187 153.07 41.9606 153.07 41.5146C153.07 40.7496 153.702 40.3091 154.909 40.3211C154.909 40.0017 154.909 39.308 154.151 39.308C153.889 39.308 153.611 39.3869 153.394 39.5491L153.291 39.2839C153.559 39.097 153.895 39.0066 154.196 39.0066C155.068 39.0066 155.261 39.6817 155.261 40.2965V41.5688H155.262ZM154.915 40.6159C154.271 40.6159 153.441 40.6998 153.441 41.4598C153.441 41.9118 153.72 42.1168 154.027 42.1168C154.687 42.1168 154.915 41.5321 154.915 41.291V40.6159Z" fill="black"/>
<path d="M157.536 39.3797C157.491 39.3682 157.445 39.3682 157.382 39.3682C156.87 39.3682 156.574 39.9529 156.574 40.5441V42.3463H156.221V40.0493C156.221 39.7233 156.215 39.4039 156.198 39.0789H156.517L156.528 39.7299H156.551C156.682 39.326 157.001 39.0066 157.405 39.0066C157.451 39.0066 157.491 39.0181 157.536 39.0247V39.3797Z" fill="black"/>
<path d="M160.214 42.2077C160.078 42.28 159.765 42.4126 159.343 42.4126C158.466 42.4126 157.88 41.7376 157.88 40.7491C157.88 39.7239 158.529 39.0066 159.457 39.0066C159.827 39.0066 160.118 39.1211 160.231 39.1995L160.123 39.5014C159.981 39.417 159.753 39.314 159.429 39.314C158.643 39.314 158.238 39.971 158.238 40.725C158.238 41.5622 158.723 42.1052 159.4 42.1052C159.747 42.1052 159.969 41.9973 160.135 41.9184L160.214 42.2077Z" fill="black"/>
<path d="M163.342 42.3458H162.988V40.4044C162.988 39.8384 162.789 39.3255 162.191 39.3255C161.781 39.3255 161.428 39.6449 161.309 40.0307C161.274 40.1271 161.269 40.2115 161.269 40.3386V42.3458H160.916V37.5293H161.269V39.6329H161.28C161.451 39.2833 161.855 39.006 162.288 39.006C162.607 39.006 163.342 39.1868 163.342 40.3627V42.3458Z" fill="black"/>
<path d="M166.487 43.1715C166.061 42.5988 165.605 41.743 165.605 40.4109C165.605 39.0668 166.055 38.2048 166.487 37.6196H166.801C166.294 38.3007 165.935 39.1747 165.935 40.4164C165.935 41.6279 166.311 42.4783 166.801 43.1709L166.487 43.1715Z" fill="black"/>
<path d="M168.971 40.1396C169.318 40.2542 169.529 40.6037 169.631 41.1161C169.774 41.8092 169.859 42.1649 169.95 42.3457H169.586C169.517 42.2131 169.42 41.8092 169.307 41.2306C169.176 40.5796 168.919 40.2657 168.367 40.2657H167.746V42.3457H167.399V37.8306C167.661 37.7703 168.025 37.7341 168.339 37.7341C168.896 37.7341 169.249 37.8547 169.494 38.1078C169.682 38.3067 169.802 38.6081 169.802 38.9402C169.802 39.555 169.46 39.9468 168.97 40.1276L168.971 40.1396ZM168.385 39.9703C169.028 39.9703 169.449 39.5846 169.449 38.9939C169.449 38.2289 168.874 38.0355 168.333 38.0355C168.054 38.0355 167.849 38.0596 167.747 38.0898V39.9709L168.385 39.9703Z" fill="black"/>
<path d="M174.093 40.0186C174.093 41.6406 173.204 42.4181 172.202 42.4181C171.149 42.4181 170.352 41.5441 170.352 40.103C170.352 38.5841 171.178 37.6975 172.254 37.6975C173.346 37.6981 174.093 38.6082 174.093 40.0186ZM170.716 40.0915C170.716 41.1041 171.246 42.1112 172.213 42.1112C173.198 42.1112 173.728 41.1348 173.728 40.0373C173.728 39.0849 173.261 38.006 172.231 38.006C171.177 38.006 170.716 39.0729 170.716 40.0915Z" fill="black"/>
<path d="M174.841 37.7705H175.194V42.3464H174.841V37.7705Z" fill="black"/>
<path d="M178.075 38.2291C177.955 38.1387 177.682 38.0122 177.318 38.0122C176.657 38.0122 176.423 38.4522 176.423 38.8078C176.423 39.302 176.697 39.5497 177.295 39.8144C177.995 40.1223 178.365 40.484 178.365 41.159C178.365 41.8522 177.887 42.4127 176.987 42.4127C176.611 42.4127 176.184 42.2862 175.968 42.1174L176.088 41.804C176.327 41.9788 176.663 42.0993 177.016 42.0993C177.637 42.0993 178.006 41.7316 178.006 41.1952C178.006 40.6949 177.767 40.3935 177.17 40.1404C176.503 39.8872 176.071 39.4949 176.071 38.862C176.071 38.1875 176.595 37.6987 177.34 37.6987C177.739 37.6987 178.046 37.8072 178.195 37.9097L178.075 38.2291Z" fill="black"/>
<path d="M178.852 40.3386H180.383V40.6515H178.852V40.3386Z" fill="black"/>
<path d="M181.084 37.8366C181.409 37.7769 181.774 37.7341 182.171 37.7341C183.925 37.7341 184.415 38.8492 184.415 39.9462C184.415 40.8322 184.119 42.3818 182.024 42.3818C181.688 42.3818 181.38 42.3753 181.084 42.3396V37.8366ZM181.438 42.0383C181.603 42.069 181.831 42.0744 182.081 42.0744C183.379 42.0744 184.051 41.2969 184.051 39.9643C184.051 38.7407 183.414 38.041 182.167 38.041C181.854 38.041 181.609 38.0771 181.438 38.1139V42.0383H181.438Z" fill="black"/>
<path d="M187.032 38.2291C186.912 38.1387 186.639 38.0122 186.275 38.0122C185.614 38.0122 185.38 38.4522 185.38 38.8078C185.38 39.302 185.654 39.5497 186.252 39.8144C186.952 40.1223 187.322 40.484 187.322 41.159C187.322 41.8522 186.844 42.4127 185.944 42.4127C185.568 42.4127 185.141 42.2862 184.925 42.1174L185.045 41.804C185.284 41.9788 185.62 42.0993 185.973 42.0993C186.594 42.0993 186.963 41.7316 186.963 41.1952C186.963 40.6949 186.725 40.3935 186.127 40.1404C185.46 39.8872 185.028 39.4949 185.028 38.862C185.028 38.1875 185.552 37.6987 186.297 37.6987C186.696 37.6987 187.003 37.8072 187.152 37.9097L187.032 38.2291Z" fill="black"/>
<path d="M188.019 37.6196C188.446 38.1922 188.896 39.0542 188.896 40.3928C188.896 41.7314 188.452 42.5808 188.019 43.1715H187.706C188.196 42.4904 188.572 41.6224 188.572 40.3928C188.572 39.1632 188.201 38.3128 187.706 37.6196H188.019Z" fill="black"/>
<path d="M52.7924 30.1145H49.5912L49.5956 30.4717C49.5956 31.7775 49.2696 32.8706 48.6175 33.7517C47.966 34.6329 47.029 35.2411 45.8076 35.5764L45.4076 34.0608C46.3145 33.8016 47.012 33.3583 47.4997 32.7298C47.9874 32.1013 48.2307 31.3205 48.2307 30.3868V30.1139H44.6427V28.5501H52.7924V30.1145ZM51.3786 26.9616H45.132V25.4218H51.3786V26.9616ZM52.308 25.9796L51.6718 26.3133C51.5562 25.8037 51.3595 25.1835 51.0806 24.4525L51.6811 24.1067C51.9211 24.7489 52.1299 25.3736 52.308 25.9796ZM53.5567 25.7555L52.9343 26.0766C52.7266 25.3692 52.5239 24.7489 52.3255 24.2158L52.9167 23.9067C53.16 24.5407 53.3732 25.1572 53.5567 25.7555Z" fill="black"/>
<path d="M62.2851 31.0784H54.1179V29.4663H62.2851V31.0784Z" fill="black"/>
<path d="M71.0664 25.9067C71.0544 26.6224 71.0155 27.2388 70.9508 27.7561C70.8259 28.7057 70.6286 29.5829 70.3596 30.3873C70.0894 31.1917 69.7168 31.9364 69.2412 32.6213C68.7656 33.3063 68.1628 33.9035 67.4335 34.4131C66.7047 34.9227 65.8631 35.3222 64.9086 35.6131L64.4636 34.0367C66.0198 33.6246 67.2406 32.8262 68.1278 31.6421C67.4132 31.161 66.5995 30.6925 65.6867 30.2361L66.3047 28.8476C67.0927 29.1994 67.9601 29.6821 68.9059 30.2969C69.2434 29.5249 69.4894 28.5692 69.644 27.4295H66.6916C65.9502 29.1188 64.9469 30.469 63.6817 31.4794L62.9524 30.212C63.7529 29.5375 64.4275 28.7024 64.9776 27.7084C65.5272 26.7144 65.9212 25.6733 66.1579 24.5862L67.5228 24.8229C67.3979 25.3243 67.3037 25.6859 67.2379 25.9078H71.0664V25.9067Z" fill="black"/>
<path d="M79.1702 27.3924H80.7439V28.9803H79.1702V30.102C79.1702 31.816 78.7231 33.1316 77.8278 34.0489C76.9324 34.9667 75.625 35.4472 73.9066 35.4922L73.7148 33.8976C75.2683 33.8247 76.3456 33.4499 76.9472 32.7727C77.5489 32.096 77.8491 31.2055 77.8491 30.102V28.9809H75.1061V31.9277H73.768V28.9809H72.1499V27.3929H73.768V24.8888H75.1061V27.3929H77.8491V24.7129H79.1697V27.3924H79.1702Z" fill="black"/>
<path d="M86.7066 35.4379H85.3416V29.9387C84.2359 30.7107 83.0046 31.3195 81.6474 31.7639L81.238 30.1754C82.803 29.6663 84.1641 28.9162 85.3197 27.9266C86.4753 26.9359 87.3515 25.7984 87.9471 24.5134L89.2408 25.1869C88.7844 26.12 88.3608 26.8455 87.9696 27.3633C87.5784 27.8811 87.1575 28.354 86.7066 28.782V35.4379Z" fill="black"/>
<path d="M98.7816 34.9039H90.3519V33.2305H93.8736V27.4162H90.9081V25.7915H98.1728V27.4162H95.2961V33.2305H98.7816V34.9039Z" fill="black"/>
<path d="M104.374 27.6773L103.561 29.1809C103.122 28.7973 102.733 28.4735 102.394 28.2104C102.055 27.9474 101.287 27.4061 100.093 26.5858L100.796 25.1973C101.726 25.703 102.919 26.5293 104.374 27.6773ZM107.98 29.1567C107.227 31.0521 106.245 32.4976 105.032 33.4916C103.82 34.4856 102.286 35.1058 100.431 35.3524L100.129 33.6549C101.142 33.5294 101.987 33.3195 102.663 33.0242C103.339 32.7294 103.93 32.3425 104.439 31.8636C104.947 31.3847 105.38 30.897 105.737 30.4022C106.094 29.9074 106.486 29.1683 106.913 28.1863L107.98 29.1567Z" fill="black"/>
<path d="M117.175 34.2375L116.175 35.5411C115.65 34.7613 114.636 33.4901 113.133 31.7279C111.818 33.4616 110.43 34.7449 108.971 35.5772L108.322 34.1465C109.454 33.4879 110.558 32.5142 111.632 31.2243C112.707 29.935 113.5 28.5202 114.014 26.9805L109.51 26.9744V25.3865H115.351L115.716 25.8654C115.502 26.8961 115.26 27.7399 114.989 28.3964C114.718 29.0528 114.375 29.7328 113.96 30.4364C115.241 31.855 116.312 33.1219 117.175 34.2375Z" fill="black"/>
<path d="M121.545 32.6853C121.142 33.2552 120.585 33.8229 119.873 34.3889C119.162 34.9544 118.558 35.3106 118.059 35.4558L117.522 34.0974C118.082 33.8267 118.536 33.5599 118.884 33.2969C119.232 33.0338 119.741 32.5533 120.411 31.8541H117.784V30.362H119.54V28.1806H118.086V26.7132H119.54V24.6272H120.816V26.7132H123.003V24.6519H124.266V26.7132H125.733V28.1806H124.266V30.3626H126.044V31.8547H123.416C124.288 32.8004 125.239 33.4711 126.271 33.8673L125.577 35.4311C124.264 34.7566 123.178 33.8289 122.318 32.6486L122.963 31.8547H120.865L121.545 32.6853ZM120.816 30.3626H123.003V28.1806H120.816V30.3626Z" fill="black"/>
<path d="M134.967 34.098C134.967 34.4618 134.862 34.766 134.651 35.0103C134.441 35.2547 134.184 35.3769 133.882 35.3769H132.606L132.464 33.8558H133.456C133.523 33.8558 133.586 33.8213 133.642 33.7528C133.699 33.6843 133.727 33.6092 133.727 33.5287V26.1807H128.311V35.5413H127.071V24.8398H134.967V34.098ZM133.429 28.3138H128.591V26.9615H133.429V28.3138ZM130.139 33.2794V33.7402H128.938V29.0958H133.1V33.2794H130.139ZM130.139 31.9391H131.899V30.4476H130.139V31.9391Z" fill="black"/>
<path d="M137.933 31.5819C137.382 32.617 136.863 33.3945 136.377 33.9162L135.657 32.8608C136.012 32.4488 136.386 31.8981 136.777 31.2088C137.169 30.5195 137.477 29.8575 137.702 29.223H136.07V27.8531H137.933V26.5676C137.292 26.6805 136.747 26.7616 136.297 26.8098L136.088 25.4942C136.68 25.4498 137.396 25.3359 138.232 25.1517C139.07 24.9682 139.705 24.7649 140.138 24.543L140.712 25.8038C140.335 25.9857 139.811 26.1578 139.138 26.3189V27.8531H140.668V29.223H139.138V29.2537C139.588 30.0214 140.122 30.6564 140.738 31.1578L140.094 32.4729C139.812 32.2143 139.493 31.8482 139.138 31.3759V35.5529H137.933V31.5819ZM142.134 32.7217H140.988V25.2219H142.135L142.134 32.7217ZM144.006 34.1644C144.006 34.4921 143.905 34.7781 143.702 35.0225C143.499 35.2663 143.279 35.3891 143.041 35.3891H141.859L141.659 33.8921H142.494C142.714 33.8921 142.824 33.7666 142.824 33.5156V24.6038H144.006V34.1644Z" fill="black"/>
<path d="M151.712 31.7817H149.973V35.3648H148.697V31.7817H146.937C146.768 33.2606 146.366 34.5259 145.732 35.5768L144.794 34.722C145.461 33.4891 145.794 31.8113 145.794 29.6897V24.8765H152.979V34.0371C152.979 34.4009 152.871 34.7094 152.654 34.962C152.437 35.2146 152.179 35.3407 151.876 35.3407H150.591L150.409 33.7768H151.422C151.615 33.7768 151.711 33.6776 151.711 33.4798L151.712 31.7817ZM147.03 30.4113H148.697V28.9746H147.048V29.5203C147.048 29.7872 147.042 30.0842 147.03 30.4113ZM148.697 26.2644H147.048V27.6469H148.697V26.2644ZM151.712 27.6469V26.2644H149.973V27.6469H151.712ZM149.973 30.4113H151.712V28.9746H149.973V30.4113Z" fill="black"/>
<path d="M155.983 32.6245C155.376 33.1659 154.838 33.5577 154.369 33.8004L153.832 32.5451C154.415 32.2623 155.074 31.7587 155.806 31.0355H154.196V29.8168H155.388V26.3669H154.423V25.2091H155.388V24.5242H156.646V25.2091H159.932V24.5242H161.199V25.2091H162.266V26.3669H161.199V29.8168H162.475V31.0355H160.861C161.549 31.6656 162.209 32.1045 162.84 32.3511L162.199 33.7637C161.556 33.4201 161.011 33.0382 160.564 32.6174V33.2782H158.896V33.9752H162.009V35.3149H154.579V33.9752H157.611V33.2782H155.984V32.6245H155.983ZM157.482 31.036C157.242 31.3555 156.952 31.6848 156.614 32.0245H157.61V31.4305H158.895V32.0245H159.984C159.697 31.705 159.433 31.3757 159.193 31.036H157.482ZM156.646 26.3675V26.9861H159.931V26.3675H156.646ZM156.646 27.7927V28.4289H159.931V27.7927H156.646ZM156.646 29.2354V29.8179H159.931V29.2354H156.646Z" fill="black"/>
<path d="M167.028 30.8242C167.028 31.0746 166.945 31.2966 166.781 31.4911C166.617 31.6851 166.409 31.782 166.161 31.782H165.387L165.231 30.5875H165.836C165.89 30.5875 165.941 30.5557 165.99 30.4933C166.039 30.4308 166.063 30.3628 166.063 30.2905V28.793L165.716 28.8352V30.2418H164.996V28.9141L164.685 28.9442C164.605 30.1245 164.3 31.1431 163.769 32.0001L163.023 31.2845C163.384 30.6456 163.602 29.8982 163.676 29.0412L163.329 29.0713L163.223 28.0286C163.291 28.0286 163.451 28.0204 163.703 28.0045C163.709 27.8346 163.712 26.9579 163.712 25.3732H164.774L165.014 24.4636L166.091 24.6395L165.81 25.3738H167.028V27.708C167.12 27.696 167.211 27.6795 167.299 27.6593V28.599C167.255 28.6111 167.165 28.6297 167.028 28.6538V30.8242H167.028ZM171.616 35.3404H163.284V34.1525H164.004V32.0242H171.033V34.1525H171.616V35.3404H171.616ZM166.063 27.8171V26.3256H164.706V27.9321L166.063 27.8171ZM165.88 27.4834L165.231 27.8165L164.778 26.6768L165.396 26.3677L165.88 27.4834ZM165.978 34.1525V33.1218H165.178V34.1525H165.978ZM167.064 33.1218V34.1525H167.908V33.1218H167.064ZM171.554 28.2291C171.418 29.1064 171.078 29.8478 170.536 30.4544C170.88 30.576 171.315 30.6872 171.843 30.7881L171.407 32.0007C170.631 31.8226 169.983 31.5722 169.464 31.2489C168.896 31.5393 168.179 31.7338 167.317 31.8308L167.09 30.7218C167.636 30.6533 168.112 30.5519 168.522 30.4182C168.208 30.039 167.964 29.582 167.792 29.0483H167.384V27.993L171.39 28.005L171.554 28.2291ZM171.705 26.8653C171.705 27.0795 171.634 27.2675 171.491 27.4291C171.349 27.5908 171.038 27.6713 170.557 27.6713C170.383 27.6713 170.199 27.6554 170.006 27.6226C169.813 27.5902 169.666 27.4982 169.563 27.3469C169.461 27.1957 169.411 27.0045 169.411 26.7738V25.7798H168.704C168.704 26.851 168.366 27.5721 167.689 27.9442L167.143 27.1502C167.356 26.9683 167.506 26.7721 167.594 26.5623C167.681 26.3519 167.725 26.0549 167.725 25.6708V24.7732H170.397V26.4647C170.397 26.5535 170.435 26.5984 170.513 26.5984H170.713C170.793 26.5984 170.838 26.5656 170.851 26.5009C170.862 26.4368 170.877 26.1212 170.895 25.5551L171.704 25.7551V26.8653H171.705ZM169.504 29.9267C169.845 29.6642 170.075 29.3705 170.194 29.0478H168.811C168.991 29.3996 169.223 29.6927 169.504 29.9267ZM168.984 34.1525H169.833V33.1218H168.984V34.1525Z" fill="black"/>
<path d="M174.137 27.6838L174.128 28.726H175.622C175.622 30.3309 175.613 31.4318 175.597 32.0301C175.581 32.6285 175.545 33.1781 175.491 33.6795C175.436 34.1808 175.376 34.5162 175.311 34.6861C175.245 34.8559 175.155 34.9967 175.037 35.1102C174.92 35.223 174.798 35.3041 174.671 35.3524C174.543 35.4011 174.336 35.4252 174.048 35.4252C173.918 35.4252 173.762 35.423 173.581 35.4192L173.448 34.0729H174.021C174.161 34.0729 174.267 34.0104 174.341 33.8849C174.415 33.7595 174.472 33.4093 174.513 32.8329C174.552 32.257 174.573 31.5266 174.573 30.6416C174.573 30.4394 174.571 30.2268 174.568 30.0049H174.039C173.902 32.3211 173.483 34.1737 172.78 35.5644L172.007 34.6729C172.336 33.9332 172.588 33.0504 172.763 32.0236C172.937 30.9967 173.026 29.5496 173.03 27.6827H172.251V26.3671H173.519V24.6268H174.63V26.3671H175.759V27.258C176.225 26.1063 176.518 25.1589 176.639 24.4153L177.809 24.6153C177.768 24.9019 177.704 25.1989 177.618 25.5063L180.841 25.5183V26.8093H177.178C177.082 27.0482 176.97 27.3041 176.839 27.5791H177.409V28.8586L177.906 28.7068V27.1063H178.965V28.3918L180.347 27.9797L180.547 28.1797V31.8416C180.547 32.1693 180.466 32.4433 180.303 32.663C180.14 32.8833 179.943 32.994 179.712 32.994H179.147L178.992 31.6784H179.289C179.34 31.6784 179.387 31.6477 179.43 31.5874C179.472 31.5271 179.494 31.4619 179.494 31.3934V29.52L178.965 29.6898V33.5277H177.906V30.023L177.409 30.1808V33.7277C177.409 33.8932 177.48 33.9918 177.622 34.0247C177.764 34.057 178.076 34.0729 178.556 34.0729C178.95 34.0729 179.254 34.0619 179.467 34.0395C179.681 34.0176 179.808 33.988 179.849 33.9518C179.891 33.9156 179.922 33.8493 179.943 33.7551C179.963 33.6597 179.974 33.394 179.974 32.9578L180.912 33.1217V34.2252C180.912 34.4154 180.883 34.5814 180.824 34.725C180.764 34.8685 180.677 34.9896 180.563 35.0888C180.449 35.188 180.331 35.2537 180.209 35.2855C180.088 35.3184 179.804 35.348 179.358 35.3765C178.911 35.405 178.597 35.4192 178.413 35.4192C178.188 35.4192 177.96 35.4104 177.73 35.3945C177.501 35.3787 177.304 35.3595 177.139 35.3376C176.975 35.3151 176.832 35.2504 176.712 35.1436C176.592 35.0367 176.499 34.8959 176.432 34.7222C176.365 34.5485 176.332 34.3458 176.332 34.1162V30.5205L175.896 30.6603L175.785 29.3446L176.332 29.1808V28.5441L176.141 28.8718L175.323 28.1139C175.411 27.9764 175.493 27.8328 175.567 27.6838H174.137Z" fill="black"/>
<path d="M184.954 27.6043H181.459V26.3917H184.954V27.6043ZM184.745 35.0071H182.771V35.4559H181.659V31.3813H184.745V35.0071ZM184.718 25.8832H181.788V24.8037H184.718V25.8832ZM184.674 29.1988H181.797V28.1374H184.674V29.1988ZM184.674 30.824H181.797V29.7566H184.674V30.824ZM183.642 33.9402V32.4613H182.771V33.9402H183.642ZM189.916 26.6525V27.9807C189.916 28.195 189.869 28.3807 189.776 28.5385C189.682 28.6963 189.573 28.8054 189.446 28.8662C189.321 28.9265 189.093 28.9572 188.764 28.9572C188.539 28.9572 188.324 28.944 188.119 28.9177C187.915 28.8914 187.754 28.7955 187.637 28.63C187.52 28.464 187.462 28.2684 187.462 28.0421V25.9319H186.577V26.0229V26.0958V26.2174C186.577 26.7955 186.482 27.3703 186.294 27.9418C186.106 28.5139 185.85 28.9654 185.527 29.2969L184.799 28.4788C184.994 28.1999 185.155 27.8772 185.283 27.5117C185.41 27.1456 185.475 26.6476 185.475 26.0169V24.8043H188.578V27.6048C188.578 27.7303 188.614 27.7933 188.689 27.7933H188.836C188.88 27.7933 188.915 27.7802 188.94 27.7539C188.965 27.7276 188.981 27.6936 188.987 27.6509C188.993 27.6087 189.001 27.4744 189.011 27.2481C189.022 27.0218 189.027 26.773 189.027 26.5024L189.916 26.6525ZM189.635 29.4416C189.621 30.961 189.247 32.2487 188.515 33.3041C188.814 33.498 189.309 33.7386 190 34.0252L189.373 35.4438C188.641 35.1572 188.015 34.789 187.497 34.3402C186.782 34.9386 186.041 35.3265 185.274 35.5041L184.856 34.2131C185.576 33.9989 186.17 33.7221 186.638 33.3824C186.057 32.6021 185.678 31.7254 185.5 30.7512H185.055V29.441L189.635 29.4416ZM187.537 32.4975C187.902 31.972 188.149 31.3901 188.279 30.7512H186.67C186.836 31.4098 187.125 31.9923 187.537 32.4975Z" fill="black"/>
<g opacity="0.5">
<path d="M50.388 18.7863C50.3442 18.8631 50.2784 18.8959 50.1201 18.8959H48.0061C48.1979 19.942 48.8001 21.0428 50.4215 21.7546L50.4154 21.8203C50.1749 21.8587 50.0209 21.9628 49.9667 22.2253C48.4768 21.382 48.0445 20.0132 47.8965 18.8959H47.891C47.7431 20.205 47.2286 21.388 45.3338 22.2368L45.2735 22.1436C46.8291 21.2401 47.2834 20.1337 47.4149 18.8959H45.3009L45.2631 18.7754H47.4258C47.4697 18.3096 47.4697 17.9206 47.4697 17.1321L48.1979 17.1978C48.1924 17.2751 48.1486 17.3184 47.9683 17.3293C47.9568 17.8219 47.9519 18.3041 47.908 18.7754H49.4576L49.7809 18.3589L50.388 18.7863Z" fill="black"/>
<path d="M56.4874 20.4847L56.7888 20.0956L57.3477 20.4951C57.3039 20.5723 57.2381 20.6047 57.0792 20.6047H55.0535V21.5795C55.0535 21.9132 54.9658 22.1543 54.3357 22.2146C54.3357 21.8693 54.0951 21.8096 53.6074 21.7707V21.694H54.4726C54.5713 21.694 54.6041 21.6606 54.6041 21.5789V20.6041H52.3203L52.2869 20.4836H54.6041V19.9301L54.9817 19.9575C55.2003 19.7828 55.4798 19.5252 55.6606 19.3225H53.311L53.2732 19.197H55.705L55.9784 18.9345L56.4442 19.3833C56.4003 19.4271 56.3351 19.4326 56.214 19.443C55.9735 19.6134 55.5631 19.8156 55.2124 19.9691L55.2672 19.9745C55.2617 20.0512 55.2288 20.0841 55.0535 20.1V20.4836H56.4874V20.4847ZM56.8595 18.157L57.3691 18.6447C57.3307 18.6885 57.2705 18.6995 57.1609 18.7104C56.9746 18.8967 56.6464 19.1592 56.4053 19.3071L56.3395 19.2638C56.4211 19.0995 56.5313 18.7926 56.597 18.5679H53.0754C53.1088 19.0386 52.8452 19.3345 52.5499 19.3345C52.4074 19.3345 52.2978 19.2633 52.2978 19.1373C52.2978 19.0337 52.3855 18.9406 52.4945 18.8912C52.7082 18.7981 52.9219 18.5296 52.9 18.2008L52.9932 18.1953C53.0206 18.283 53.0425 18.3701 53.0584 18.4474H55.545C55.8025 18.0693 56.0814 17.5438 56.2513 17.1548L56.8979 17.4342C56.8759 17.4781 56.8376 17.5 56.7718 17.5C56.7444 17.5 56.717 17.4945 56.6847 17.489C56.4436 17.7844 56.071 18.157 55.6984 18.4474H56.5696L56.8595 18.157ZM53.026 17.2425C53.6666 17.4507 53.8693 17.7625 53.8693 17.9871C53.8693 18.1515 53.7658 18.2666 53.6392 18.2666C53.5795 18.2666 53.5137 18.2392 53.4529 18.1789C53.4151 17.889 53.1954 17.5 52.9767 17.2863L53.026 17.2425ZM54.3466 17.1055C54.9324 17.3466 55.1187 17.6644 55.1187 17.8994C55.1187 18.0858 54.9976 18.2227 54.8557 18.2227C54.7899 18.2227 54.7187 18.1899 54.6589 18.1192C54.6644 17.7959 54.4946 17.3849 54.2973 17.1389L54.3466 17.1055Z" fill="black"/>
<path d="M63.7849 19.8277L64.3493 20.2271C64.2999 20.2984 64.2397 20.3367 64.0863 20.3367H59.2785L59.2451 20.2107H60.5706V18.546H59.4588L59.4259 18.4205H60.5706V17.1548L61.2605 17.2205C61.255 17.3027 61.1892 17.3466 61.0144 17.3685V18.4205H62.5536V17.1548L63.2495 17.2205C63.2435 17.3027 63.1778 17.3466 63.003 17.3685V18.4205H63.392L63.6654 18.0534L64.186 18.4364C64.1421 18.5132 64.0764 18.546 63.923 18.546H63.003V20.2107H63.4906L63.7849 19.8277ZM61.4084 20.8951C61.381 20.9334 61.3531 20.9608 61.2934 20.9608C61.266 20.9608 61.2386 20.9554 61.2002 20.945C60.8112 21.3937 60.1213 21.9143 59.3711 22.2151L59.3213 22.1384C59.9459 21.7329 60.5536 21.0869 60.844 20.5828L61.4084 20.8951ZM61.0139 18.546V20.2107H62.5531V18.546H61.0139ZM62.3887 20.6874C63.7416 21.0704 64.1575 21.6513 64.1575 21.9746C64.1575 22.1225 64.0758 22.2151 63.9553 22.2151C63.906 22.2151 63.8512 22.1987 63.7909 22.1658C63.5443 21.6891 62.8819 21.0814 62.3503 20.7526L62.3887 20.6874Z" fill="black"/>
<path d="M70.6577 17.3025L71.1886 17.7019C71.1508 17.7398 71.0681 17.7896 70.953 17.811V21.645C70.953 21.9458 70.8714 22.1376 70.2358 22.2088C70.2358 21.8801 69.9284 21.8362 69.5234 21.8033V21.7266H70.3782C70.4768 21.7266 70.5147 21.7157 70.5147 21.639V17.691H67.0428V22.034C67.0428 22.0455 67.0045 22.2149 66.6045 22.2149V17.3518L67.0867 17.5704H70.4599L70.6577 17.3025ZM69.6993 18.0855L70.2138 18.4526C70.17 18.5293 70.1042 18.5562 69.9563 18.5562H67.4319L67.3985 18.4357H69.4248L69.6993 18.0855ZM70.0062 19.3726C69.9727 19.411 69.8966 19.4548 69.7979 19.4768V21.0159C69.7979 21.0318 69.6774 21.1584 69.3705 21.1584V20.7858H68.1546V21.1469C68.1546 21.1524 68.0949 21.2954 67.7327 21.2954V19.0603L68.182 19.2521H69.3207L69.5015 19.0165L70.0062 19.3726ZM68.1546 20.6653H69.37V19.3726H68.1541L68.1546 20.6653Z" fill="black"/>
<path d="M75.2279 18.8522L75.5018 18.4796L76.0059 18.8687C75.9676 18.9454 75.9018 18.9722 75.7479 18.9722H74.8114V19.5695C75.5561 19.7936 75.7917 20.1503 75.7917 20.3854C75.7917 20.5333 75.6985 20.6369 75.5835 20.6369C75.5287 20.6369 75.469 20.615 75.4087 20.5602C75.3539 20.2588 75.075 19.8813 74.8114 19.6511V22.0775C74.8114 22.1103 74.6635 22.2199 74.4558 22.2199H74.3791V19.9032C74.0996 20.4073 73.7276 20.8616 73.2837 21.2342L73.2125 21.1574C73.6947 20.5657 74.0673 19.7498 74.2744 18.9722H73.2344L73.2015 18.8517H74.3785V17.8834C74.0114 17.9547 73.6284 18.0144 73.2613 18.0582L73.2339 17.9766C73.9736 17.7684 74.8821 17.3903 75.3424 17.1108L75.8958 17.5711C75.8624 17.5985 75.8191 17.615 75.7588 17.615C75.7095 17.615 75.6492 17.604 75.5835 17.5821C75.3698 17.6473 75.1018 17.7191 74.8114 17.7903V18.8522H75.2279ZM76.9309 17.85C76.9254 17.9322 76.8761 17.9706 76.7068 17.9925V20.8128C76.7068 20.8237 76.6465 20.9553 76.2684 20.9553V17.7958L76.9309 17.85ZM77.5501 17.2643L78.2345 17.3191C78.2229 17.3963 78.1961 17.4402 77.9939 17.4676V21.5744C77.9939 21.9087 77.9062 22.1607 77.2931 22.221C77.2931 21.8703 77.0684 21.8161 76.5922 21.7772V21.6895H77.4136C77.5227 21.6895 77.5506 21.6517 77.5506 21.569L77.5501 17.2643Z" fill="black"/>
<path d="M84.4376 17.2642L84.9911 17.6806C84.9527 17.7299 84.8596 17.7792 84.7335 17.8061V21.6121C84.7335 21.9409 84.6459 22.171 84.0765 22.2198C84.0765 21.8368 83.8579 21.7979 83.4634 21.7595V21.6883H84.1806C84.2683 21.6883 84.2902 21.6664 84.2902 21.6067V20.2708H82.9708V22.0286C82.9708 22.0615 82.8338 22.1656 82.6091 22.1656H82.5324V20.2708H81.2617C81.1686 20.9771 80.928 21.6889 80.2875 22.2204L80.2102 22.1656C80.8129 21.3382 80.8787 20.2867 80.8787 19.2412V17.3409L81.3932 17.5491H84.23L84.4376 17.2642ZM81.316 19.2357C81.316 19.5261 81.3105 19.8329 81.2776 20.1447H82.5319V18.9507H81.316V19.2357ZM82.5319 17.6691H81.316V18.8302H82.5319V17.6691ZM84.2897 17.6691H82.9702V18.8302H84.2897V17.6691ZM82.9702 20.1447H84.2897V18.9507H82.9702V20.1447Z" fill="black"/>
<path d="M92.2078 20.9008L92.1421 21.7769C92.2676 21.9139 92.3119 21.9852 92.3119 22.0454C92.3119 22.0674 92.2791 22.2257 92.0878 22.2257C91.8966 22.2257 91.37 21.9961 91.0303 21.5139C90.598 21.8531 90.1103 22.0559 89.6012 22.1654L89.5634 22.0778C90.0177 21.9079 90.4664 21.6339 90.8555 21.2235C90.7021 20.9276 90.593 20.572 90.5048 20.1715H89.6615C89.656 20.3419 89.6396 20.5057 89.6177 20.6701C90.1541 20.7797 90.3295 21.0153 90.3295 21.1956C90.3295 21.3326 90.2369 21.4367 90.1158 21.4367C90.061 21.4367 90.0007 21.4148 89.9459 21.3594C89.9075 21.1731 89.7651 20.9435 89.6007 20.7901C89.5075 21.3375 89.2779 21.8416 88.6758 22.2306L88.5985 22.1485C89.1629 21.5731 89.2062 20.8723 89.2177 20.1715H88.9821C88.9486 20.2706 88.8779 20.3304 88.7957 20.3304C88.741 20.3304 88.6862 20.3084 88.6368 20.2536C88.6204 20.0131 88.4779 19.6843 88.319 19.4651V22.0668C88.319 22.0827 88.2642 22.2093 87.9031 22.2093V19.8597C87.7327 20.2542 87.5196 20.6153 87.2516 20.9441L87.1694 20.8723C87.5146 20.2213 87.7229 19.3775 87.8325 18.5616H87.2248L87.1864 18.4405H87.9042V17.127L88.5503 17.1824C88.5448 17.2591 88.4905 17.3029 88.3201 17.3188V18.4416H88.4412L88.6708 18.0909L89.0873 18.4525C89.0434 18.5292 88.9782 18.5621 88.8357 18.5621H88.3207V19.3501C88.8029 19.5802 88.9782 19.8542 88.9941 20.0509H90.484C90.4511 19.8761 90.4237 19.6843 90.4023 19.492H90.3963C90.3804 19.6131 90.2928 19.6893 90.1996 19.6893C90.1448 19.6893 90.09 19.6619 90.0407 19.6071C90.0352 19.5199 90.0188 19.4268 89.9859 19.3276C89.7886 19.3988 89.5092 19.503 89.1481 19.618C89.1207 19.6947 89.0714 19.7216 89.0221 19.7331L88.8199 19.2893C88.9075 19.2893 89.0385 19.2777 89.187 19.2728C89.3673 18.8898 89.5919 18.3309 89.7618 17.8323L90.2714 18.035C90.2549 17.7391 90.244 17.4323 90.233 17.115L90.8681 17.1807C90.8626 17.246 90.8188 17.2794 90.6604 17.3062C90.6763 18.3413 90.7152 19.2942 90.8681 20.0498H91.6128L91.8593 19.7161L92.33 20.0613C92.2917 20.143 92.2265 20.1704 92.078 20.1704H90.8955C90.9552 20.4443 91.0319 20.6854 91.1311 20.8991C91.2736 20.7128 91.3991 20.5046 91.5141 20.2695L92.0287 20.5709C92.0067 20.6038 91.9739 20.6257 91.9136 20.6257C91.8862 20.6257 91.8539 20.6202 91.815 20.6093C91.667 20.8504 91.5032 21.058 91.3273 21.2389C91.5678 21.5786 91.8418 21.6717 91.8533 21.6717C91.8807 21.6717 91.9026 21.6443 91.93 21.5841C91.9903 21.4361 92.0944 21.1353 92.1547 20.8937L92.2078 20.9008ZM88.8621 17.9544C88.9656 17.9764 89.0588 18.0038 89.13 18.0361C89.2122 17.784 89.3053 17.4449 89.3821 17.138L89.941 17.3243C89.9245 17.384 89.8752 17.4175 89.7492 17.406C89.6007 17.6361 89.4204 17.8986 89.2615 18.0964C89.4363 18.1999 89.4971 18.3205 89.4971 18.4197C89.4971 18.5342 89.4149 18.6273 89.3108 18.6273C89.2615 18.6273 89.2122 18.6054 89.1629 18.5621C89.1245 18.3758 88.9705 18.1292 88.8231 17.9977L88.8621 17.9544ZM89.9459 19.2136C89.8966 19.0882 89.8308 18.9676 89.7651 18.8745L89.8253 18.8361C90.1541 18.9895 90.313 19.1703 90.3673 19.3238H90.3728C90.3289 18.9353 90.296 18.5243 90.2741 18.086C90.2412 18.1243 90.1925 18.1353 90.0993 18.1298C89.8747 18.5073 89.6067 18.9402 89.3547 19.2635L89.9459 19.2136ZM91.8462 17.3243C91.8303 17.3895 91.775 17.4175 91.6495 17.4114C91.4906 17.6257 91.2988 17.8827 91.1349 18.0629C91.3212 18.1725 91.387 18.304 91.387 18.4136C91.387 18.5342 91.2993 18.6219 91.1952 18.6219C91.1454 18.6219 91.096 18.6054 91.0467 18.5561C91.0193 18.3594 90.8769 18.1018 90.7234 17.9594L90.7728 17.9155C90.8659 17.9429 90.9481 17.9703 91.0139 18.0032C91.0955 17.7676 91.2002 17.4333 91.2818 17.132L91.8462 17.3243ZM91.0802 19.1484C91.2719 18.7868 91.5021 18.2613 91.6933 17.7955L92.2133 18.0197C92.1859 18.0799 92.1421 18.1073 92.0106 18.0969C91.781 18.4525 91.5125 18.8416 91.2604 19.1424C91.4413 19.1369 91.655 19.1265 91.8681 19.115C91.8188 18.984 91.753 18.8575 91.6878 18.7643L91.7426 18.7314C92.1645 18.9397 92.3015 19.1802 92.3015 19.3561C92.3015 19.4986 92.2084 19.5967 92.1043 19.5967C92.055 19.5967 92.0007 19.5747 91.9514 19.5145C91.9514 19.4328 91.935 19.3342 91.9076 19.241C91.7267 19.3008 91.4966 19.3665 91.2117 19.4493V19.4547C91.5952 19.4821 91.7262 19.6246 91.7262 19.7501C91.7262 19.8542 91.6391 19.9424 91.5344 19.9424C91.4906 19.9424 91.4413 19.926 91.3974 19.8871C91.3596 19.7501 91.2495 19.5857 91.1295 19.5041L91.1454 19.4767L91.0906 19.4925C91.0577 19.5638 91.0089 19.5967 90.9536 19.6021L90.7892 19.1583L91.0802 19.1484Z" fill="black"/>
<path d="M95.9639 18.9455H94.9179V22.0343C94.9179 22.0458 94.8795 22.2206 94.485 22.2206V17.2759L94.9453 17.4896H95.9146L96.0899 17.2595L96.588 17.6102C96.5551 17.648 96.479 17.6918 96.3798 17.7088V19.0891C96.3798 19.1055 96.2653 19.2261 95.9639 19.2261V18.9455ZM95.9639 17.6096H94.9179V18.1461H95.9639V17.6096ZM94.9179 18.8255H95.9639V18.2666H94.9179V18.8255ZM98.6631 17.2261L99.1946 17.6151C99.1563 17.659 99.0691 17.7083 98.959 17.7302V21.613C98.959 21.9417 98.8823 22.1664 98.3732 22.2206C98.3732 21.8535 98.2417 21.8042 97.9025 21.7604V21.7549C97.8204 21.7987 97.771 21.8699 97.7541 22.0015C97.1409 21.7439 96.8998 21.213 96.7957 20.791H96.7738C96.6368 21.3165 96.2812 21.7165 95.3009 22.0069L95.2351 21.9193C95.9968 21.6124 96.2708 21.2458 96.3743 20.791H95.3064L95.2735 20.6656H96.3962C96.4297 20.4847 96.4346 20.2929 96.4401 20.0902H95.4105L95.3776 19.9697H96.8834C96.9869 19.7505 97.108 19.4551 97.1793 19.2299L97.7267 19.4217C97.6993 19.4771 97.639 19.4929 97.5184 19.482C97.3979 19.6299 97.2171 19.8157 97.0423 19.9697H97.4472L97.6664 19.7012L98.0768 19.9866C98.0384 20.0634 97.9732 20.0902 97.8308 20.0902H96.856C96.8505 20.2984 96.834 20.4847 96.8006 20.6656H97.513L97.7376 20.3801L98.1754 20.6814C98.1316 20.7636 98.0664 20.791 97.9239 20.791H96.9157C97.0642 21.1198 97.3979 21.4425 98.0664 21.6398L98.0604 21.6836H98.4384C98.4982 21.6836 98.5201 21.6672 98.5201 21.6069V18.9455H97.4247V19.0606C97.4247 19.0661 97.365 19.2086 97.0028 19.2086V17.2973L97.4516 17.4896H98.4653L98.6631 17.2261ZM95.7831 19.2469C96.2434 19.3724 96.3962 19.5806 96.3962 19.7395C96.3962 19.865 96.2976 19.9642 96.1935 19.9642C96.1387 19.9642 96.079 19.9362 96.0291 19.882C96.0132 19.6853 95.8812 19.4277 95.7392 19.2853L95.7831 19.2469ZM98.5212 17.6096H97.4258V18.1461H98.5212V17.6096ZM97.4258 18.8255H98.5212V18.2666H97.4258V18.8255Z" fill="black"/>
<path d="M101.185 18.6172C101.886 18.6774 102.111 18.9509 102.111 19.1646C102.111 19.3015 102.012 19.4166 101.886 19.4166C101.831 19.4166 101.771 19.3947 101.716 19.3509C101.634 19.1048 101.393 18.8199 101.157 18.6719L101.185 18.6172ZM101.503 20.6709C101.58 20.6709 101.596 20.6709 101.651 20.5558C101.7 20.4736 101.761 20.3476 102.796 18.0478L102.894 18.0752C102.648 18.7815 102.177 20.101 102.1 20.3865C102.051 20.5668 102.007 20.7476 102.007 20.8846C102.019 21.1251 102.171 21.3503 102.171 21.7607C102.171 21.8649 102.171 22.2375 101.821 22.2375C101.712 22.2375 101.629 22.1443 101.607 21.958C101.641 21.7443 101.651 21.547 101.651 21.3827C101.651 20.912 101.563 20.8018 101.256 20.7859V20.6709C101.443 20.6709 101.503 20.6654 101.503 20.6654V20.6709ZM101.432 17.1985C102.16 17.2697 102.396 17.5656 102.396 17.7903C102.396 17.9382 102.291 18.0528 102.16 18.0528C102.105 18.0528 102.05 18.0308 101.99 17.987C101.897 17.7245 101.645 17.4177 101.398 17.2473L101.432 17.1985ZM105.741 19.2857L106.273 19.6741C106.229 19.7509 106.163 19.7837 106.01 19.7837H104.104L104.592 19.9481C104.564 20.0078 104.515 20.0468 104.378 20.0413C104.131 20.5339 103.825 21.0654 103.523 21.4599C104.043 21.438 104.695 21.3996 105.374 21.3558C105.238 21.0933 105.073 20.8413 104.904 20.655L104.959 20.6166C105.808 21.0331 106.076 21.5257 106.076 21.849C106.076 22.0627 105.961 22.1996 105.818 22.1996C105.758 22.1996 105.687 22.1723 105.616 22.1065C105.594 21.9098 105.528 21.6901 105.43 21.4769C104.871 21.6139 104.11 21.7783 103.047 21.981C103.009 22.0522 102.954 22.0906 102.894 22.1016L102.609 21.4939C102.79 21.4939 103.042 21.4829 103.348 21.472C103.518 21.0177 103.721 20.3602 103.879 19.7854H102.626L102.592 19.6648H104.136V18.398H102.976L102.942 18.2719H104.136V17.1108L104.843 17.1766C104.832 17.2588 104.778 17.2971 104.597 17.3191V18.2719H105.216L105.495 17.9048L106.015 18.2884C105.972 18.3651 105.906 18.398 105.758 18.398H104.597V19.6632H105.462L105.741 19.2857Z" fill="black"/>
<path d="M108.151 22.1272C110.298 20.725 110.27 18.9288 110.276 17.2532L110.988 17.3184C110.982 17.3896 110.939 17.4334 110.763 17.4499C110.9 19.148 111.432 20.7359 113.255 21.7765L113.244 21.8423C113.008 21.8642 112.855 21.9792 112.784 22.2253C111.393 21.251 110.917 19.7885 110.736 18.3151H110.73C110.637 19.7118 110.276 21.1683 108.216 22.2143L108.151 22.1272Z" fill="black"/>
<path d="M117.087 18.2279C117.175 18.4964 117.213 18.7375 117.213 18.9403C117.213 19.0334 117.213 19.6247 116.802 19.6247C116.67 19.6247 116.621 19.526 116.621 19.4438C116.621 19.3622 116.67 19.274 116.747 19.2082C116.884 19.0384 117.021 18.6055 116.993 18.2279H117.087ZM117.432 17.1167L118.101 17.1825C118.089 17.2592 118.04 17.297 117.87 17.3134V22.0729C117.87 22.0893 117.815 22.2208 117.432 22.2208V17.1167ZM117.985 17.9819C118.462 18.1956 118.615 18.4581 118.615 18.6499C118.615 18.8033 118.511 18.9129 118.401 18.9129C118.341 18.9129 118.28 18.8849 118.231 18.8252C118.22 18.5731 118.078 18.2225 117.93 18.0148L117.985 17.9819ZM121.271 18.7759L121.77 19.1315C121.726 19.2082 121.66 19.2411 121.512 19.2411H118.336L118.308 19.1151H119.715V18.5781H118.73L118.696 18.4526H119.715V17.9266H118.482L118.45 17.806H119.715V17.1216L120.366 17.1764C120.36 17.2537 120.306 17.286 120.147 17.3134V17.806H120.897L121.16 17.4608L121.658 17.817C121.615 17.8986 121.549 17.926 121.401 17.926H120.147V18.4521H120.722L120.974 18.1288L121.45 18.4685C121.401 18.5452 121.341 18.5775 121.193 18.5775H120.147V19.114H121.006L121.271 18.7759ZM120.68 19.7343L120.876 19.4822L121.403 19.8597C121.364 19.9036 121.282 19.9529 121.172 19.9748V21.6291C121.172 21.9524 121.096 22.1765 120.592 22.2258C120.592 21.8811 120.471 21.8099 120.121 21.7715V21.6948H120.652C120.718 21.6948 120.734 21.6784 120.734 21.6126V21.1743H119.173V22.0559C119.173 22.0614 119.124 22.2148 118.741 22.2148V19.5315L119.206 19.7343H120.68ZM120.735 19.8548H119.173V20.3863H120.735V19.8548ZM119.173 21.0482H120.735V20.5063H119.173V21.0482Z" fill="black"/>
<path d="M125.492 18.7377L125.754 18.3766L126.242 18.7492C126.198 18.8309 126.132 18.8583 125.984 18.8583H123.624L123.591 18.7377H124.626V17.9925H123.837L123.804 17.867H124.626V17.1108L125.272 17.1662C125.266 17.2429 125.212 17.2758 125.053 17.3032V17.867H125.305L125.551 17.5273L126.023 17.8834C125.984 17.9602 125.913 17.9925 125.765 17.9925H125.053V18.7372L125.492 18.7377ZM125.453 19.8714L125.705 19.5317L126.187 19.8873C126.144 19.9646 126.083 19.9969 125.93 19.9969H125.053V20.7963H125.371L125.623 20.4457L126.105 20.8128C126.061 20.8895 125.995 20.9224 125.847 20.9224H125.053V22.0994C125.048 22.1268 124.916 22.2199 124.698 22.2199H124.626V20.9224H123.723L123.69 20.7963H124.626V19.9969H123.635L123.602 19.8714H124.281C124.248 19.855 124.215 19.8276 124.182 19.7837C124.198 19.5317 124.116 19.198 124.012 18.9898L124.072 18.9563C124.477 19.1706 124.614 19.4111 124.614 19.5974C124.614 19.7289 124.542 19.8331 124.455 19.8714H125.063C125.145 19.5859 125.238 19.1925 125.287 18.907L125.906 19.0774C125.89 19.1372 125.829 19.1646 125.704 19.1591C125.583 19.3673 125.386 19.6468 125.199 19.8714H125.453ZM128.269 19.2413L128.712 19.6243C128.674 19.6736 128.619 19.69 128.499 19.701C128.389 20.2106 128.203 20.7196 127.901 21.1739C128.153 21.4479 128.46 21.6616 128.8 21.8254L128.784 21.8807C128.597 21.9027 128.455 22.0287 128.373 22.2314C128.088 22.0287 127.847 21.7876 127.65 21.4972C127.442 21.7438 127.184 21.9629 126.878 22.1487L126.834 22.061C127.108 21.8314 127.327 21.5575 127.503 21.2561C127.256 20.8122 127.098 20.2703 127.004 19.6133H126.736V22.0391C126.736 22.0451 126.709 22.2144 126.314 22.2144V17.2862L126.768 17.4944H127.957L128.149 17.2539L128.669 17.6265C128.636 17.6643 128.549 17.7136 128.433 17.73V18.6281C128.433 18.9021 128.39 19.0939 127.858 19.1596C127.858 18.8637 127.721 18.7985 127.392 18.7602V18.6889H127.924C127.99 18.6889 128.012 18.678 128.012 18.6177V17.615H126.735V19.4878H128.023L128.269 19.2413ZM127.118 19.6139C127.227 20.1229 127.419 20.5503 127.682 20.9059C127.863 20.501 127.984 20.0572 128.055 19.6139H127.118Z" fill="black"/>
<path d="M131.086 19.6687C131.086 19.3569 131.343 19.0994 131.655 19.0994C131.968 19.0994 132.225 19.3569 132.225 19.6687C132.225 19.9805 131.968 20.238 131.655 20.238C131.333 20.238 131.086 19.9701 131.086 19.6687Z" fill="black"/>
<path d="M135.059 18.885C135.821 18.9234 136.418 19.1705 136.418 19.5206C136.418 19.6461 136.324 19.7447 136.177 19.7447C136.067 19.7447 135.963 19.6023 135.832 19.4708C135.684 19.3228 135.388 19.1316 135.01 18.9891L135.059 18.885ZM139.495 18.4636C138.799 19.9425 137.475 20.9661 136.424 21.4757C136.281 21.5415 136.221 21.5963 136.177 21.6346C136.122 21.6839 136.089 21.7716 135.991 21.7771C135.777 21.7826 135.35 21.3776 135.35 21.1524C135.35 21.0215 135.388 20.9064 135.481 20.8626C135.563 21.0872 135.695 21.1913 135.87 21.1913C135.941 21.1913 136.024 21.1749 136.117 21.1365C137.13 20.7146 138.559 19.7617 139.392 18.4088L139.495 18.4636ZM135.717 17.708C136.467 17.7354 137.037 18.0198 137.037 18.365C137.037 18.502 136.938 18.5842 136.807 18.5842C136.681 18.5842 136.582 18.4357 136.456 18.2987C136.297 18.1458 136.051 17.965 135.667 17.7897L135.717 17.708Z" fill="black"/>
<path d="M141.833 21.7059C143.18 20.9119 144.462 19.3623 144.878 18.1519C144.884 18.1354 144.889 18.119 144.889 18.108C144.889 18.0916 144.873 18.0806 144.834 18.0806C144.725 18.0806 143.854 18.1793 143.345 18.2834C143.208 18.3108 143.164 18.3327 143.104 18.3705C143.054 18.4039 143.016 18.4478 142.94 18.4478C142.731 18.4478 142.419 18.1354 142.419 17.8998C142.419 17.7469 142.529 17.6697 142.556 17.6697C142.6 17.982 142.912 17.982 143.153 17.982C143.312 17.982 144.369 17.9108 144.791 17.856C144.878 17.845 144.911 17.8231 144.955 17.7793C145.015 17.7245 145.07 17.6697 145.125 17.6697C145.24 17.6697 145.651 17.982 145.651 18.0806C145.651 18.1574 145.574 18.1842 145.486 18.2121C145.409 18.245 145.365 18.3053 145.338 18.3601C145.163 18.7157 144.752 19.4116 144.407 19.8385C144.911 20.085 145.53 20.4735 145.842 20.7749C146.078 21.0105 146.28 21.2675 146.28 21.4598C146.28 21.6242 146.176 21.7716 146.012 21.7716C145.864 21.7716 145.76 21.5963 145.585 21.2955C145.382 20.9612 144.786 20.2872 144.287 19.9754C143.773 20.605 142.885 21.3826 141.905 21.8105L141.833 21.7059Z" fill="black"/>
<path d="M148.945 18.8521C149.032 19.0823 149.274 19.1535 149.553 19.1535C149.86 19.1535 151.88 18.9563 152.318 18.9179C152.477 18.9064 152.614 18.8626 152.718 18.748C153.09 18.8516 153.414 18.9721 153.414 19.1639C153.414 19.2631 153.293 19.29 153.167 19.29C153.019 19.29 152.773 19.2461 152.401 19.2242C152.346 19.2242 152.286 19.2187 152.226 19.2187C151.99 19.2187 151.7 19.2346 151.426 19.2565C151.514 19.3119 151.591 19.399 151.591 19.4538C151.591 19.5743 151.514 19.5628 151.487 19.6998C151.268 20.6642 150.802 21.5015 149.751 22.033L149.658 21.9344C150.83 21.1075 151.016 19.7278 151.016 19.4976C151.016 19.4045 150.999 19.3442 150.961 19.2949C150.676 19.3223 150.058 19.388 149.756 19.4593C149.548 19.5086 149.499 19.5908 149.346 19.5908C149.17 19.5908 148.825 19.2785 148.825 19.0648C148.825 18.9831 148.869 18.873 148.935 18.8461L148.945 18.8521ZM149.619 17.6472C149.789 17.7732 149.953 17.7957 150.216 17.7957C150.665 17.7957 151.114 17.7404 151.552 17.6423C151.689 17.6094 151.831 17.5765 151.924 17.4724C152.226 17.5053 152.544 17.6039 152.538 17.7902C152.538 17.9267 152.209 17.9486 151.968 17.9546C151.481 17.9705 150.659 18.1245 150.298 18.1245C149.931 18.1245 149.635 17.9765 149.586 17.6697L149.619 17.6472Z" fill="black"/>
<path d="M158.696 19.6962C159.578 20.1565 160.328 20.9883 160.328 21.454C160.328 21.6842 160.268 21.8376 160.071 21.8376C159.901 21.8376 159.83 21.6787 159.759 21.4266C159.737 21.3554 159.709 21.2622 159.677 21.1806C158.817 21.3335 157.464 21.5198 156.78 21.6129C156.594 21.6403 156.544 21.7554 156.38 21.7554C156.161 21.7554 155.86 21.3669 155.86 21.1806C155.86 21.0929 155.898 20.9505 155.991 20.9176C156.025 21.0436 156.074 21.1368 156.194 21.2031C156.233 21.225 156.287 21.2305 156.359 21.2305C156.424 21.2305 156.507 21.225 156.605 21.219C157.065 20.042 157.569 18.1691 157.569 17.9C157.569 17.6321 157.24 17.6151 157.17 17.6206L157.163 17.6047C157.213 17.4951 157.372 17.4124 157.52 17.4124C157.799 17.4124 158.253 17.637 158.253 17.8562C158.253 17.9219 158.177 17.9713 158.133 18.0047C158.089 18.0425 158.056 18.1198 158.034 18.191C157.733 19.111 157.316 20.2606 156.84 21.2085C157.371 21.1866 158.751 21.088 159.594 21.0058C159.386 20.5954 159.003 20.0809 158.62 19.7899L158.696 19.6962Z" fill="black"/>
<path d="M167.244 19.1756L167.715 19.5531C167.671 19.6298 167.606 19.6627 167.458 19.6627H166.882V22.089C166.882 22.1219 166.745 22.2255 166.521 22.2255H166.45V19.6627H165.683C165.65 20.643 165.415 21.5953 164.21 22.22L164.139 22.1542C165.037 21.4698 165.229 20.6211 165.256 19.6627H164.671L164.637 19.5367H165.262V17.7301H164.764L164.752 17.6972C164.725 17.7027 164.693 17.7027 164.654 17.7027H163.745C163.662 18.2342 163.531 18.7323 163.34 19.1926L163.455 19.2419H164.024L164.216 19.0008L164.73 19.3679C164.693 19.4117 164.61 19.4611 164.495 19.483V21.5038C164.495 21.5098 164.369 21.6134 164.078 21.6134V21.2304H163.389V21.8435C163.389 21.8764 163.257 21.975 163.054 21.975H162.989V19.8994C162.863 20.1016 162.726 20.2989 162.567 20.4852L162.49 20.4085C162.917 19.6638 163.153 18.672 163.278 17.7027H162.561L162.528 17.5821H164.127L164.401 17.2314L164.915 17.598L164.91 17.6095H166.783L167.056 17.2479L167.566 17.6205C167.522 17.6978 167.462 17.7301 167.309 17.7301H166.881V19.5372H166.996L167.244 19.1756ZM164.078 19.3674H163.389V21.1033H164.078V19.3674ZM165.689 19.5367H166.45V17.7301H165.689V19.5367Z" fill="black"/>
<path d="M174.466 21.0651L174.472 21.7057C174.609 21.7605 174.636 21.7879 174.636 21.8646C174.636 22.029 174.521 22.1386 174.116 22.1386H173.492C173.048 22.1386 173.004 22.0394 173.004 21.607V20.2816H171.859C171.635 21.1961 171.038 21.8914 169.564 22.2257L169.526 22.1386C170.721 21.7769 171.207 21.1199 171.378 20.2816H169.882L169.844 20.161H171.405C171.449 19.8815 171.465 19.5802 171.465 19.2629L172.204 19.3281C172.193 19.4158 172.133 19.4432 171.974 19.4596C171.958 19.7062 171.936 19.9358 171.887 20.1605H172.949L173.141 19.9029L173.645 20.292C173.607 20.3298 173.541 20.3572 173.448 20.3736V21.6279C173.448 21.7375 173.453 21.7429 173.557 21.7429H174.105C174.17 21.7429 174.209 21.7314 174.242 21.6772C174.291 21.5785 174.373 21.2722 174.417 21.064H174.466V21.0651ZM169.603 19.7226C170.704 19.378 171.038 18.7265 171.125 17.9813H170.32C170.348 18.4032 170.118 18.704 169.805 18.704C169.641 18.704 169.548 18.6163 169.548 18.4958C169.548 18.3862 169.641 18.293 169.751 18.2437C169.964 18.1506 170.167 17.8985 170.145 17.5922L170.233 17.5867C170.266 17.6799 170.293 17.773 170.304 17.8547H171.832V17.0996L172.528 17.1654C172.522 17.2421 172.462 17.2804 172.287 17.3024V17.8552H173.842L174.111 17.5818L174.598 18.0476C174.56 18.0909 174.499 18.0969 174.39 18.1024C174.215 18.2887 173.919 18.5407 173.694 18.6777L173.634 18.6393C173.705 18.4859 173.809 18.1955 173.87 17.9824H173.065C173.037 17.9982 172.999 18.0098 172.933 18.0202V19.012C172.933 19.1325 172.933 19.1374 173.098 19.1374H173.881C173.963 19.1374 174.018 19.132 174.061 19.0881C174.105 19.0388 174.171 18.8744 174.254 18.6717H174.298L174.303 19.1046C174.478 19.1643 174.5 19.1813 174.5 19.247C174.5 19.4169 174.341 19.4991 173.881 19.4991H173.054C172.572 19.4991 172.49 19.4059 172.49 19.0065V17.9818H171.652V17.9873L171.838 18.0092C171.816 18.0859 171.762 18.1188 171.614 18.1188C171.466 18.8744 171.001 19.515 169.642 19.8163L169.603 19.7226Z" fill="black"/>
<path d="M181.524 20.9008L181.458 21.7769C181.583 21.9139 181.628 21.9852 181.628 22.0454C181.628 22.0674 181.595 22.2257 181.404 22.2257C181.212 22.2257 180.686 21.9961 180.346 21.5139C179.914 21.8531 179.426 22.0559 178.917 22.1654L178.879 22.0778C179.333 21.9079 179.782 21.6339 180.171 21.2235C180.018 20.9276 179.909 20.572 179.821 20.1715H178.977C178.972 20.3419 178.955 20.5057 178.933 20.6701C179.47 20.7797 179.645 21.0153 179.645 21.1956C179.645 21.3326 179.553 21.4367 179.432 21.4367C179.377 21.4367 179.316 21.4148 179.262 21.3594C179.223 21.1731 179.081 20.9435 178.916 20.7901C178.823 21.3375 178.594 21.8416 177.992 22.2306L177.914 22.1485C178.479 21.5731 178.522 20.8723 178.533 20.1715H178.298C178.264 20.2706 178.194 20.3304 178.112 20.3304C178.057 20.3304 178.002 20.3084 177.953 20.2536C177.936 20.0131 177.794 19.6843 177.635 19.4651V22.0668C177.635 22.0827 177.58 22.2093 177.219 22.2093V19.8597C177.049 20.2542 176.835 20.6153 176.567 20.9441L176.485 20.8723C176.83 20.2213 177.039 19.3775 177.148 18.5616H176.541L176.502 18.4405H177.22V17.127L177.866 17.1824C177.861 17.2591 177.806 17.3029 177.636 17.3188V18.4416H177.757L177.987 18.0909L178.403 18.4525C178.359 18.5292 178.294 18.5621 178.152 18.5621H177.636V19.3501C178.119 19.5802 178.294 19.8542 178.31 20.0509H179.8C179.767 19.8761 179.739 19.6843 179.718 19.492H179.712C179.696 19.6131 179.609 19.6893 179.515 19.6893C179.461 19.6893 179.406 19.6619 179.356 19.6071C179.351 19.5199 179.335 19.4268 179.302 19.3276C179.104 19.3988 178.825 19.503 178.464 19.618C178.436 19.6947 178.387 19.7216 178.338 19.7331L178.136 19.2893C178.223 19.2893 178.354 19.2777 178.503 19.2728C178.683 18.8898 178.908 18.3309 179.078 17.8323L179.587 18.035C179.571 17.7391 179.56 17.4323 179.549 17.115L180.184 17.1807C180.178 17.246 180.135 17.2794 179.976 17.3062C179.992 18.3413 180.031 19.2942 180.184 20.0498H180.929L181.175 19.7161L181.646 20.0613C181.607 20.143 181.542 20.1704 181.394 20.1704H180.211C180.271 20.4443 180.348 20.6854 180.447 20.8991C180.589 20.7128 180.715 20.5046 180.83 20.2695L181.344 20.5709C181.323 20.6038 181.29 20.6257 181.229 20.6257C181.202 20.6257 181.17 20.6202 181.131 20.6093C180.983 20.8504 180.819 21.058 180.643 21.2389C180.884 21.5786 181.158 21.6717 181.169 21.6717C181.197 21.6717 181.218 21.6443 181.246 21.5841C181.306 21.4361 181.41 21.1353 181.47 20.8937L181.524 20.9008ZM178.178 17.9544C178.281 17.9764 178.375 18.0038 178.446 18.0361C178.528 17.784 178.621 17.4449 178.698 17.138L179.257 17.3243C179.24 17.384 179.191 17.4175 179.065 17.406C178.916 17.6361 178.736 17.8986 178.577 18.0964C178.752 18.1999 178.813 18.3205 178.813 18.4197C178.813 18.5342 178.731 18.6273 178.627 18.6273C178.577 18.6273 178.528 18.6054 178.479 18.5621C178.44 18.3758 178.286 18.1292 178.139 17.9977L178.178 17.9544ZM179.262 19.2136C179.212 19.0882 179.147 18.9676 179.081 18.8745L179.141 18.8361C179.47 18.9895 179.629 19.1703 179.683 19.3238H179.689C179.645 18.9353 179.612 18.5243 179.59 18.086C179.557 18.1243 179.508 18.1353 179.415 18.1298C179.19 18.5073 178.922 18.9402 178.67 19.2635L179.262 19.2136ZM181.162 17.3243C181.146 17.3895 181.091 17.4175 180.965 17.4114C180.806 17.6257 180.615 17.8827 180.451 18.0629C180.637 18.1725 180.703 18.304 180.703 18.4136C180.703 18.5342 180.615 18.6219 180.511 18.6219C180.461 18.6219 180.412 18.6054 180.363 18.5561C180.335 18.3594 180.193 18.1018 180.039 17.9594L180.089 17.9155C180.182 17.9429 180.264 17.9703 180.33 18.0032C180.411 17.7676 180.516 17.4333 180.598 17.132L181.162 17.3243ZM180.396 19.1484C180.588 18.7868 180.818 18.2613 181.009 17.7955L181.529 18.0197C181.502 18.0799 181.458 18.1073 181.326 18.0969C181.097 18.4525 180.828 18.8416 180.576 19.1424C180.757 19.1369 180.971 19.1265 181.184 19.115C181.135 18.984 181.069 18.8575 181.004 18.7643L181.058 18.7314C181.48 18.9397 181.617 19.1802 181.617 19.3561C181.617 19.4986 181.524 19.5967 181.42 19.5967C181.371 19.5967 181.316 19.5747 181.267 19.5145C181.267 19.4328 181.251 19.3342 181.223 19.241C181.043 19.3008 180.812 19.3665 180.527 19.4493V19.4547C180.911 19.4821 181.042 19.6246 181.042 19.7501C181.042 19.8542 180.955 19.9424 180.85 19.9424C180.806 19.9424 180.757 19.926 180.713 19.8871C180.675 19.7501 180.565 19.5857 180.445 19.5041L180.461 19.4767L180.406 19.4925C180.373 19.5638 180.325 19.5967 180.269 19.6021L180.105 19.1583L180.396 19.1484Z" fill="black"/>
<path d="M184.676 18.5731V19.3128C185.24 19.5369 185.421 19.8224 185.421 20.0191C185.421 20.1616 185.328 20.2597 185.218 20.2597C185.163 20.2597 185.103 20.2323 185.048 20.178C185.004 19.9424 184.84 19.6246 184.675 19.4115V22.0783C184.675 22.0948 184.62 22.2208 184.254 22.2208V19.7945C184.062 20.2219 183.815 20.6159 183.497 20.9611L183.421 20.8844C183.815 20.2378 184.05 19.406 184.177 18.5731H183.503L183.47 18.4476H184.254V17.1325L184.905 17.1928C184.899 17.2695 184.85 17.3134 184.675 17.3298V18.4471H184.812L185.058 18.1073L185.513 18.463C185.474 18.5402 185.403 18.5726 185.261 18.5726L184.676 18.5731ZM188.301 20.6433L188.684 20.966C188.641 21.0433 188.581 21.0756 188.438 21.0756H188.098V21.6564C188.098 21.9578 188.017 22.1764 187.496 22.2257C187.496 21.903 187.37 21.8318 186.954 21.8038V21.7271H187.589C187.666 21.7271 187.688 21.7052 187.688 21.6394V21.0756H185.941V22.0723C185.941 22.0778 185.886 22.2203 185.542 22.2203V21.0756H185.044L185.01 20.955H185.542V19.4219L185.969 19.6142H186.593V19.1265H185.202L185.169 19.006H186.023V18.4964H185.536L185.498 18.3704H186.023V17.8832H185.339L185.306 17.7572H186.023V17.1216L186.648 17.1819C186.643 17.2586 186.588 17.2909 186.418 17.3183V17.7567H187.178V17.1216L187.808 17.1819C187.803 17.2635 187.748 17.2964 187.572 17.3183V17.7567H187.791L188.027 17.4498L188.482 17.7731C188.438 17.8498 188.372 17.8827 188.229 17.8827H187.572V18.3698H187.709L187.928 18.0849L188.35 18.3862C188.312 18.4684 188.246 18.4958 188.104 18.4958H187.572V19.0054H187.918L188.153 18.698L188.602 19.0158C188.558 19.098 188.492 19.1254 188.35 19.1254H186.997V19.6131H187.632L187.818 19.3775L188.323 19.7331C188.284 19.7769 188.202 19.8208 188.098 19.8422V20.9539H188.104L188.301 20.6433ZM186.593 19.7342H185.941V20.2652H186.593V19.7342ZM185.941 20.3857V20.955H186.593V20.3857H185.941ZM186.417 17.8832V18.3704H187.178V17.8832H186.417ZM186.417 19.006H187.178V18.4964H186.417V19.006H186.417ZM187.688 19.7342H186.998V20.2652H187.688V19.7342ZM186.998 20.955H187.688V20.3857H186.998V20.955Z" fill="black"/>
</g>
<defs>
<filter id="filter0_b_19653_1456" x="-20" y="-20" width="240" height="100" filterUnits="userSpaceOnUse" color-interpolation-filters="sRGB">
<feFlood flood-opacity="0" result="BackgroundImageFix"/>
<feGaussianBlur in="BackgroundImageFix" stdDeviation="10"/>
<feComposite in2="SourceAlpha" operator="in" result="effect1_backgroundBlur_19653_1456"/>
<feBlend mode="normal" in="SourceGraphic" in2="effect1_backgroundBlur_19653_1456" result="shape"/>
</filter>
<linearGradient id="paint0_linear_19653_1456" x1="21.2385" y1="13.851" x2="37.2596" y2="21.1626" gradientUnits="userSpaceOnUse">
<stop stop-color="#2CABD6"/>
<stop offset="1" stop-color="#006FB9"/>
</linearGradient>
<linearGradient id="paint1_linear_19653_1456" x1="7.68987" y1="32.8672" x2="15.324" y2="16.7387" gradientUnits="userSpaceOnUse">
<stop stop-color="#2CABD6"/>
<stop offset="1" stop-color="#006FB9"/>
</linearGradient>
<linearGradient id="paint2_linear_19653_1456" x1="27.2406" y1="46.5256" x2="10.6824" y2="38.8916" gradientUnits="userSpaceOnUse">
<stop stop-color="#2CABD6"/>
<stop offset="1" stop-color="#006FB9"/>
</linearGradient>
<linearGradient id="paint3_linear_19653_1456" x1="40.4648" y1="26.8936" x2="33.0454" y2="43.2375" gradientUnits="userSpaceOnUse">
<stop stop-color="#2CABD6"/>
<stop offset="1" stop-color="#006FB9"/>
</linearGradient>
<linearGradient id="paint4_linear_19653_1456" x1="26.7082" y1="24.7791" x2="31.4395" y2="26.9297" gradientUnits="userSpaceOnUse">
<stop stop-color="#2CABD6"/>
<stop offset="0.1629" stop-color="#0098CE"/>
<stop offset="0.367" stop-color="#0085C5"/>
<stop offset="0.574" stop-color="#0079BE"/>
<stop offset="0.7836" stop-color="#0071BA"/>
<stop offset="1" stop-color="#006FB9"/>
</linearGradient>
<linearGradient id="paint5_linear_19653_1456" x1="20.9463" y1="31.4181" x2="23.1291" y2="32.2864" gradientUnits="userSpaceOnUse">
<stop stop-color="#2CABD6"/>
<stop offset="0.1629" stop-color="#0098CE"/>
<stop offset="0.367" stop-color="#0085C5"/>
<stop offset="0.574" stop-color="#0079BE"/>
<stop offset="0.7836" stop-color="#0071BA"/>
<stop offset="1" stop-color="#006FB9"/>
</linearGradient>
<linearGradient id="paint6_linear_19653_1456" x1="20.8231" y1="37.7396" x2="24.0262" y2="39.0774" gradientUnits="userSpaceOnUse">
<stop stop-color="#2CABD6"/>
<stop offset="0.1629" stop-color="#0098CE"/>
<stop offset="0.367" stop-color="#0085C5"/>
<stop offset="0.574" stop-color="#0079BE"/>
<stop offset="0.7836" stop-color="#0071BA"/>
<stop offset="1" stop-color="#006FB9"/>
</linearGradient>
</defs>
</svg>
